<svg xmlns="http://www.w3.org/2000/svg" xmlns:xlink="http://www.w3.org/1999/xlink" width="500" zoomAndPan="magnify" viewBox="0 0 375 374.999991" height="500" preserveAspectRatio="xMidYMid meet" version="1.0"><defs><clipPath id="cfd0fb3841"><path d="M 63.230469 133 L 311.480469 133 L 311.480469 242 L 63.230469 242 Z M 63.230469 133 " clip-rule="nonzero"/></clipPath></defs><rect x="-37.5" width="450" fill="#ffffff" y="-37.499999" height="449.999989" fill-opacity="1"/><rect x="-37.5" width="450" fill="#010101" y="-37.499999" height="449.999989" fill-opacity="1"/><g clip-path="url(#cfd0fb3841)"><path fill="#f4f5f7" d="M 311.519531 187.476562 C 311.519531 187.765625 311.296875 188.019531 311.09375 188.21875 C 310.484375 188.808594 306.394531 189.519531 304.710938 189.714844 C 304.566406 189.730469 304.425781 189.753906 304.289062 189.78125 C 304.28125 189.777344 304.277344 189.78125 304.277344 189.78125 C 300.703125 190.3125 298.347656 192.128906 295.769531 195.785156 C 293.601562 198.703125 291.988281 201.984375 290.554688 205.316406 C 289.222656 208.375 288.09375 211.625 285.820312 214.144531 C 284.054688 216.007812 281.542969 217.371094 278.96875 217.648438 C 275.046875 217.96875 271.046875 215.996094 268.609375 212.957031 C 265.265625 209.289062 263.125 200.027344 262.039062 197.628906 C 261.304688 195.878906 260.507812 194.132812 259.390625 192.597656 C 259.125 192.300781 258.828125 192.027344 258.519531 191.765625 C 258.515625 191.761719 258.511719 191.757812 258.5 191.75 C 258.320312 191.621094 257.972656 191.433594 257.726562 191.3125 C 257.636719 191.285156 257.550781 191.261719 257.472656 191.246094 L 257.375 191.246094 C 257.320312 191.273438 257.265625 191.308594 257.210938 191.339844 C 257.074219 191.476562 256.945312 191.621094 256.824219 191.765625 C 256.730469 191.914062 256.601562 192.128906 256.503906 192.316406 C 255.207031 194.808594 254.746094 196.449219 254.59375 199.617188 C 254.3125 204.867188 254.488281 210.136719 254.289062 215.398438 C 253.945312 223.964844 253.6875 234.746094 245.5 239.722656 C 243.148438 241 240.367188 240.90625 238.035156 239.644531 C 232.976562 237.132812 230.433594 229.46875 228.925781 224.339844 C 227.46875 218.351562 226.214844 212.320312 224.546875 206.382812 C 222.929688 200.460938 221.253906 195.390625 218.339844 192.246094 C 217.253906 191.433594 216.859375 191.132812 214.566406 190.660156 C 214.222656 190.644531 213.789062 190.652344 213.550781 190.652344 C 212.289062 190.933594 212.980469 190.800781 211.394531 191.546875 C 210.078125 192.382812 210.992188 191.664062 209.824219 192.777344 C 209.796875 192.8125 209.773438 192.832031 209.753906 192.859375 C 209.660156 192.992188 209.574219 193.125 209.496094 193.265625 C 209.433594 193.386719 209.390625 193.46875 209.363281 193.535156 C 209.269531 193.753906 209.183594 193.980469 209.105469 194.207031 C 207.824219 198.855469 207.355469 203.671875 206.476562 208.402344 C 205.910156 211.042969 205.488281 213.90625 203.796875 216.089844 C 202.019531 218.332031 199.074219 219.714844 196.203125 219.5 C 195.46875 219.445312 194.769531 219.226562 194.09375 218.933594 L 194.089844 218.929688 C 194.039062 218.90625 193.984375 218.882812 193.933594 218.863281 L 193.929688 218.863281 C 193.917969 218.855469 193.914062 218.851562 193.90625 218.851562 C 193.902344 218.851562 193.898438 218.84375 193.890625 218.84375 C 193.847656 218.824219 193.808594 218.808594 193.78125 218.796875 C 193.769531 218.789062 193.765625 218.785156 193.757812 218.785156 C 193.742188 218.78125 193.730469 218.773438 193.730469 218.773438 L 193.726562 218.769531 C 192.152344 218.078125 190.742188 217 189.550781 215.777344 C 187.542969 213.550781 186.394531 210.738281 185.351562 207.96875 C 183.429688 203.089844 182.394531 196.992188 180.558594 193.660156 C 179.210938 191.351562 178.625 190.726562 176.253906 190.0625 C 176.167969 190.0625 176.082031 190.054688 175.988281 190.066406 C 175.882812 190.0625 175.792969 190.066406 175.710938 190.070312 C 175.472656 190.121094 175.25 190.1875 175.023438 190.269531 C 174.816406 190.378906 174.566406 190.542969 174.4375 190.621094 C 174.316406 190.726562 174.1875 190.828125 174.066406 190.9375 C 172.738281 192.464844 173.101562 191.675781 172.417969 193.914062 C 171.636719 197.300781 171.632812 198.128906 171.246094 201.488281 C 170.480469 208.570312 169.78125 215.679688 168.476562 222.695312 C 167.394531 227.710938 166.253906 232.945312 163.433594 237.296875 C 162.796875 238.234375 161.933594 238.96875 161.101562 239.714844 C 160.347656 240.367188 159.578125 241.039062 158.636719 241.390625 C 156.027344 242.609375 153.351562 241.386719 151.15625 239.886719 C 148.882812 238.265625 147.941406 235.4375 146.5625 233.109375 C 143.203125 226.265625 142.15625 218.59375 141.308594 211.097656 C 140.410156 204.269531 140.328125 198.246094 136.886719 193.117188 C 135.261719 190.726562 131.53125 189.429688 129.964844 190.148438 C 128.429688 191.105469 128.027344 192.019531 127.242188 195.214844 C 126.519531 198.765625 125.84375 202.332031 124.800781 205.808594 C 123.988281 208.347656 123.050781 210.945312 121.492188 213.128906 C 120.140625 214.785156 118.210938 216.09375 116.101562 216.546875 C 114.511719 216.925781 113.003906 216.03125 111.691406 215.226562 C 107.542969 212.425781 106.921875 206.882812 105.945312 202.355469 C 105.023438 197.117188 103.058594 192.058594 101.417969 190.808594 C 100.257812 190.058594 100.847656 190.222656 99.699219 189.980469 C 99.632812 189.980469 99.539062 189.980469 99.445312 189.988281 C 99.402344 190.003906 99.292969 190.03125 99.171875 190.074219 C 99.125 190.097656 99.039062 190.140625 98.925781 190.195312 C 97.527344 190.972656 97.296875 191.4375 96.523438 192.367188 C 95.25 194.324219 94.308594 196.492188 92.789062 198.277344 C 91.578125 199.792969 89.902344 200.902344 88.101562 201.597656 C 84.222656 203.519531 80.65625 200.113281 77.957031 197.671875 C 74.792969 194.453125 72.753906 192.253906 69.167969 190.453125 C 69.066406 190.40625 68.964844 190.363281 68.863281 190.320312 C 68.71875 190.265625 68.582031 190.210938 68.4375 190.15625 C 67.738281 189.902344 67.023438 189.691406 66.304688 189.503906 C 65.589844 189.257812 64.757812 189.273438 64.140625 188.8125 C 63.714844 188.527344 63.488281 187.988281 63.515625 187.476562 C 63.488281 186.96875 63.714844 186.429688 64.140625 186.144531 C 64.757812 185.683594 65.589844 185.699219 66.304688 185.453125 C 67.023438 185.265625 67.738281 185.050781 68.4375 184.800781 C 68.582031 184.746094 68.71875 184.691406 68.863281 184.636719 C 68.964844 184.589844 69.066406 184.546875 69.167969 184.503906 C 72.753906 182.703125 74.792969 180.503906 77.957031 177.285156 C 80.65625 174.84375 84.222656 171.433594 88.101562 173.355469 C 89.902344 174.054688 91.578125 175.160156 92.789062 176.675781 C 94.308594 178.464844 95.25 180.632812 96.523438 182.585938 C 97.296875 183.519531 97.527344 183.980469 98.925781 184.761719 C 99.039062 184.816406 99.125 184.859375 99.171875 184.882812 C 99.292969 184.925781 99.402344 184.953125 99.445312 184.96875 C 99.539062 184.972656 99.632812 184.972656 99.699219 184.972656 C 100.847656 184.734375 100.257812 184.898438 101.417969 184.144531 C 103.058594 182.894531 105.023438 177.839844 105.945312 172.597656 C 106.921875 168.070312 107.542969 162.527344 111.691406 159.730469 C 113.003906 158.921875 114.511719 158.027344 116.101562 158.40625 C 118.210938 158.863281 120.144531 160.164062 121.492188 161.828125 C 123.050781 164.011719 123.988281 166.609375 124.800781 169.148438 C 125.84375 172.621094 126.519531 176.1875 127.242188 179.742188 C 128.027344 182.933594 128.429688 183.851562 129.964844 184.804688 C 131.53125 185.523438 135.261719 184.230469 136.886719 181.835938 C 140.328125 176.710938 140.410156 170.679688 141.308594 163.859375 C 142.15625 156.363281 143.203125 148.691406 146.5625 141.847656 C 147.9375 139.519531 148.882812 136.691406 151.15625 135.070312 C 153.351562 133.570312 156.027344 132.347656 158.636719 133.558594 C 159.578125 133.917969 160.347656 134.589844 161.101562 135.238281 C 161.933594 135.984375 162.796875 136.71875 163.433594 137.660156 C 166.253906 142.011719 167.394531 147.246094 168.476562 152.261719 C 169.78125 159.277344 170.480469 166.382812 171.246094 173.46875 C 171.632812 176.828125 171.636719 177.65625 172.417969 181.042969 C 173.101562 183.28125 172.738281 182.492188 174.066406 184.015625 C 174.1875 184.125 174.316406 184.230469 174.4375 184.335938 C 174.566406 184.410156 174.816406 184.570312 175.023438 184.6875 C 175.25 184.769531 175.472656 184.835938 175.710938 184.882812 C 175.792969 184.890625 175.882812 184.894531 175.988281 184.890625 C 176.082031 184.894531 176.167969 184.894531 176.253906 184.890625 C 178.621094 184.230469 179.210938 183.605469 180.558594 181.292969 C 182.394531 177.964844 183.429688 171.859375 185.351562 166.984375 C 186.394531 164.21875 187.542969 161.40625 189.550781 159.179688 C 190.742188 157.953125 192.152344 156.878906 193.726562 156.1875 C 193.726562 156.1875 193.730469 156.183594 193.757812 156.171875 C 193.765625 156.171875 193.769531 156.164062 193.78125 156.160156 C 193.808594 156.152344 193.847656 156.132812 193.890625 156.109375 C 193.902344 156.105469 193.917969 156.101562 193.933594 156.09375 C 193.960938 156.085938 193.996094 156.066406 194.027344 156.058594 C 194.050781 156.046875 194.070312 156.039062 194.089844 156.03125 C 194.109375 156.019531 194.132812 156.007812 194.15625 156 C 194.808594 155.710938 195.488281 155.511719 196.203125 155.457031 C 199.070312 155.238281 202.019531 156.625 203.796875 158.867188 C 205.488281 161.050781 205.910156 163.914062 206.476562 166.554688 C 207.351562 171.285156 207.824219 176.105469 209.101562 180.753906 C 209.179688 180.976562 209.269531 181.203125 209.363281 181.421875 C 209.390625 181.488281 209.433594 181.570312 209.492188 181.691406 C 209.570312 181.832031 209.660156 181.964844 209.75 182.097656 C 209.773438 182.125 209.796875 182.148438 209.824219 182.179688 C 210.992188 183.289062 210.078125 182.574219 211.394531 183.410156 C 212.980469 184.15625 212.289062 184.019531 213.550781 184.304688 C 213.785156 184.304688 214.21875 184.316406 214.566406 184.296875 C 216.859375 183.828125 217.253906 183.523438 218.335938 182.707031 C 221.25 179.566406 222.929688 174.496094 224.542969 168.574219 C 226.210938 162.636719 227.46875 156.605469 228.921875 150.617188 C 230.433594 145.488281 232.972656 137.824219 238.035156 135.308594 C 240.363281 134.050781 243.148438 133.957031 245.496094 135.234375 C 253.683594 140.210938 253.941406 150.992188 254.289062 159.558594 C 254.488281 164.820312 254.3125 170.089844 254.589844 175.339844 C 254.746094 178.507812 255.207031 180.148438 256.5 182.640625 C 256.597656 182.828125 256.730469 183.042969 256.824219 183.1875 C 256.945312 183.335938 257.070312 183.480469 257.207031 183.617188 C 257.261719 183.648438 257.320312 183.675781 257.371094 183.710938 L 257.472656 183.710938 C 257.546875 183.695312 257.636719 183.671875 257.722656 183.644531 C 257.972656 183.523438 258.316406 183.335938 258.5 183.207031 C 258.507812 183.199219 258.515625 183.195312 258.519531 183.1875 C 258.828125 182.929688 259.125 182.65625 259.386719 182.359375 C 260.507812 180.824219 261.304688 179.078125 262.039062 177.328125 C 263.125 174.929688 265.265625 165.664062 268.605469 162 C 271.042969 158.960938 275.042969 156.988281 278.96875 157.308594 C 281.542969 157.585938 284.050781 158.949219 285.820312 160.8125 C 288.089844 163.332031 289.222656 166.582031 290.554688 169.640625 C 291.988281 172.96875 293.601562 176.253906 295.769531 179.171875 C 298.34375 182.820312 300.691406 184.632812 304.25 185.175781 C 304.398438 185.203125 304.550781 185.226562 304.710938 185.242188 C 306.058594 185.382812 310.578125 186.214844 311.09375 186.738281 C 311.296875 186.933594 311.519531 187.1875 311.519531 187.476562 Z M 311.519531 187.476562 " fill-opacity="1" fill-rule="nonzero"/></g></svg>