<svg xmlns="http://www.w3.org/2000/svg" xmlns:xlink="http://www.w3.org/1999/xlink" width="500" zoomAndPan="magnify" viewBox="0 0 375 374.999991" height="500" preserveAspectRatio="xMidYMid meet" version="1.0"><defs><g/><clipPath id="a8701028f2"><rect x="0" width="51" y="0" height="18"/></clipPath><clipPath id="b9bc927ca7"><rect x="0" width="37" y="0" height="12"/></clipPath><clipPath id="0e0a2e30e6"><rect x="0" width="44" y="0" height="18"/></clipPath><clipPath id="338ad6a008"><path d="M 125 83 L 261 83 L 261 219 L 125 219 Z M 125 83 " clip-rule="nonzero"/></clipPath><clipPath id="327d35fc03"><path d="M 176.007812 57.09375 L 287.285156 133.535156 L 210.84375 244.808594 L 99.570312 168.367188 Z M 176.007812 57.09375 " clip-rule="nonzero"/></clipPath><clipPath id="c0948cab5e"><path d="M 176.007812 57.09375 L 287.292969 133.539062 L 210.847656 244.824219 L 99.5625 168.378906 Z M 176.007812 57.09375 " clip-rule="nonzero"/></clipPath><clipPath id="c5e708f9f3"><path d="M 231.652344 95.316406 C 200.921875 74.207031 158.894531 82.007812 137.785156 112.734375 C 116.675781 143.464844 124.476562 185.492188 155.203125 206.601562 C 185.933594 227.710938 227.960938 219.914062 249.070312 189.183594 C 270.179688 158.453125 262.382812 116.425781 231.652344 95.316406 Z M 231.652344 95.316406 " clip-rule="nonzero"/></clipPath><clipPath id="0eadb9bd3a"><path d="M 131 187 L 259 187 L 259 288 L 131 288 Z M 131 187 " clip-rule="nonzero"/></clipPath><clipPath id="721d59171f"><path d="M 106.757812 240.070312 L 175.976562 139.304688 L 281.070312 211.496094 L 211.851562 312.261719 Z M 106.757812 240.070312 " clip-rule="nonzero"/></clipPath><clipPath id="5a7a2427d8"><path d="M 106.757812 240.070312 L 175.976562 139.304688 L 281.070312 211.496094 L 211.851562 312.261719 Z M 106.757812 240.070312 " clip-rule="nonzero"/></clipPath><clipPath id="09c0ef110f"><path d="M 209 172 L 249 172 L 249 212 L 209 212 Z M 209 172 " clip-rule="nonzero"/></clipPath><clipPath id="9bccd50948"><path d="M 224.1875 165.289062 L 256.023438 187.160156 L 234.152344 218.996094 L 202.316406 197.125 Z M 224.1875 165.289062 " clip-rule="nonzero"/></clipPath><clipPath id="63fc65476d"><path d="M 240.105469 176.222656 C 231.3125 170.183594 219.289062 172.417969 213.25 181.207031 C 207.210938 190 209.441406 202.023438 218.234375 208.0625 C 227.027344 214.101562 239.050781 211.871094 245.089844 203.078125 C 251.128906 194.285156 248.894531 182.261719 240.105469 176.222656 Z M 240.105469 176.222656 " clip-rule="nonzero"/></clipPath><clipPath id="d245e50676"><path d="M 0 0 L 40 0 L 40 40 L 0 40 Z M 0 0 " clip-rule="nonzero"/></clipPath><clipPath id="519aaa5fc1"><path d="M 15.1875 -6.710938 L 47.023438 15.160156 L 25.152344 46.996094 L -6.683594 25.125 Z M 15.1875 -6.710938 " clip-rule="nonzero"/></clipPath><clipPath id="cc84019c93"><path d="M 31.105469 4.222656 C 22.3125 -1.816406 10.289062 0.417969 4.25 9.207031 C -1.789062 18 0.441406 30.023438 9.234375 36.0625 C 18.027344 42.101562 30.050781 39.871094 36.089844 31.078125 C 42.128906 22.285156 39.894531 10.261719 31.105469 4.222656 Z M 31.105469 4.222656 " clip-rule="nonzero"/></clipPath><clipPath id="da8a0fb173"><rect x="0" width="40" y="0" height="40"/></clipPath></defs><rect x="-37.5" width="450" fill="#ffffff" y="-37.499999" height="449.999989" fill-opacity="1"/><rect x="-37.5" width="450" fill="#fffefa" y="-37.499999" height="449.999989" fill-opacity="1"/><g transform="matrix(1, 0, 0, 1, 123, 295)"><g clip-path="url(#a8701028f2)"><g fill="#1e1e1e" fill-opacity="1"><g transform="translate(0.934157, 7.955685)"><g><path d="M 1.546875 -5.03125 C 2.097656 -5.03125 2.535156 -4.925781 2.859375 -4.71875 C 3.191406 -4.507812 3.359375 -4.179688 3.359375 -3.734375 C 3.359375 -3.535156 3.3125 -3.359375 3.21875 -3.203125 C 3.132812 -3.046875 3.003906 -2.898438 2.828125 -2.765625 C 3.128906 -2.628906 3.351562 -2.453125 3.5 -2.234375 C 3.644531 -2.023438 3.71875 -1.769531 3.71875 -1.46875 C 3.71875 -1.175781 3.644531 -0.914062 3.5 -0.6875 C 3.363281 -0.46875 3.171875 -0.296875 2.921875 -0.171875 C 2.671875 -0.0546875 2.390625 0 2.078125 0 L 0.578125 0 L 0.578125 -5.03125 Z M 1.75 -3.0625 C 1.96875 -3.0625 2.132812 -3.109375 2.25 -3.203125 C 2.363281 -3.296875 2.421875 -3.429688 2.421875 -3.609375 C 2.421875 -3.765625 2.363281 -3.882812 2.25 -3.96875 C 2.144531 -4.0625 1.988281 -4.109375 1.78125 -4.109375 L 1.53125 -4.109375 L 1.53125 -3.0625 Z M 1.859375 -0.90625 C 2.160156 -0.90625 2.390625 -0.953125 2.546875 -1.046875 C 2.703125 -1.140625 2.78125 -1.289062 2.78125 -1.5 C 2.78125 -1.726562 2.691406 -1.898438 2.515625 -2.015625 C 2.347656 -2.140625 2.097656 -2.203125 1.765625 -2.203125 L 1.53125 -2.203125 L 1.53125 -0.90625 Z M 1.859375 -0.90625 "/></g></g></g><g fill="#1e1e1e" fill-opacity="1"><g transform="translate(4.994202, 7.955685)"><g><path d="M 0.9375 -4.03125 C 0.820312 -4.03125 0.71875 -4.0625 0.625 -4.125 C 0.539062 -4.1875 0.472656 -4.265625 0.421875 -4.359375 C 0.367188 -4.460938 0.34375 -4.570312 0.34375 -4.6875 C 0.34375 -4.789062 0.367188 -4.882812 0.421875 -4.96875 C 0.472656 -5.0625 0.546875 -5.128906 0.640625 -5.171875 C 0.734375 -5.222656 0.832031 -5.25 0.9375 -5.25 C 1.050781 -5.25 1.148438 -5.21875 1.234375 -5.15625 C 1.328125 -5.101562 1.398438 -5.03125 1.453125 -4.9375 C 1.503906 -4.84375 1.53125 -4.742188 1.53125 -4.640625 C 1.53125 -4.523438 1.503906 -4.421875 1.453125 -4.328125 C 1.398438 -4.242188 1.328125 -4.171875 1.234375 -4.109375 C 1.140625 -4.054688 1.039062 -4.03125 0.9375 -4.03125 Z M 0.46875 -3.71875 L 1.40625 -3.71875 L 1.40625 0 L 0.46875 0 Z M 0.46875 -3.71875 "/></g></g></g><g fill="#1e1e1e" fill-opacity="1"><g transform="translate(6.87022, 7.955685)"><g><path d="M 2.234375 1.453125 C 1.722656 1.453125 1.304688 1.351562 0.984375 1.15625 C 0.660156 0.957031 0.4375 0.660156 0.3125 0.265625 L 1.34375 0.265625 C 1.4375 0.378906 1.550781 0.460938 1.6875 0.515625 C 1.832031 0.566406 2.003906 0.59375 2.203125 0.59375 C 2.546875 0.59375 2.800781 0.515625 2.96875 0.359375 C 3.132812 0.210938 3.21875 -0.015625 3.21875 -0.328125 L 3.21875 -0.46875 C 3.0625 -0.3125 2.890625 -0.191406 2.703125 -0.109375 C 2.523438 -0.0351562 2.320312 0 2.09375 0 C 1.757812 0 1.457031 -0.078125 1.1875 -0.234375 C 0.914062 -0.398438 0.703125 -0.628906 0.546875 -0.921875 C 0.390625 -1.210938 0.3125 -1.539062 0.3125 -1.90625 C 0.3125 -2.28125 0.390625 -2.613281 0.546875 -2.90625 C 0.703125 -3.195312 0.910156 -3.421875 1.171875 -3.578125 C 1.429688 -3.734375 1.722656 -3.8125 2.046875 -3.8125 C 2.265625 -3.8125 2.46875 -3.769531 2.65625 -3.6875 C 2.851562 -3.601562 3.039062 -3.476562 3.21875 -3.3125 L 3.21875 -3.71875 L 4.15625 -3.71875 L 4.15625 -0.53125 C 4.15625 0.125 4 0.617188 3.6875 0.953125 C 3.375 1.285156 2.890625 1.453125 2.234375 1.453125 Z M 2.265625 -0.859375 C 2.460938 -0.859375 2.632812 -0.898438 2.78125 -0.984375 C 2.9375 -1.066406 3.054688 -1.1875 3.140625 -1.34375 C 3.222656 -1.507812 3.265625 -1.691406 3.265625 -1.890625 C 3.265625 -2.097656 3.222656 -2.28125 3.140625 -2.4375 C 3.054688 -2.601562 2.9375 -2.734375 2.78125 -2.828125 C 2.632812 -2.921875 2.457031 -2.96875 2.25 -2.96875 C 2.050781 -2.96875 1.875 -2.914062 1.71875 -2.8125 C 1.570312 -2.71875 1.457031 -2.585938 1.375 -2.421875 C 1.289062 -2.265625 1.25 -2.09375 1.25 -1.90625 C 1.25 -1.707031 1.289062 -1.523438 1.375 -1.359375 C 1.46875 -1.203125 1.59375 -1.078125 1.75 -0.984375 C 1.90625 -0.898438 2.078125 -0.859375 2.265625 -0.859375 Z M 2.265625 -0.859375 "/></g></g></g><g fill="#1e1e1e" fill-opacity="1"><g transform="translate(11.490272, 7.955685)"><g/></g></g><g fill="#1e1e1e" fill-opacity="1"><g transform="translate(13.450298, 7.955685)"><g><path d="M 0.578125 -5.03125 L 1.53125 -5.03125 L 1.53125 0 L 0.578125 0 Z M 0.578125 -5.03125 "/></g></g></g><g fill="#1e1e1e" fill-opacity="1"><g transform="translate(15.557323, 7.955685)"><g><path d="M 2.046875 0.09375 C 1.734375 0.09375 1.441406 0.0078125 1.171875 -0.15625 C 0.898438 -0.320312 0.679688 -0.550781 0.515625 -0.84375 C 0.359375 -1.144531 0.28125 -1.484375 0.28125 -1.859375 C 0.28125 -2.234375 0.359375 -2.566406 0.515625 -2.859375 C 0.671875 -3.160156 0.878906 -3.394531 1.140625 -3.5625 C 1.410156 -3.726562 1.707031 -3.8125 2.03125 -3.8125 C 2.46875 -3.8125 2.859375 -3.644531 3.203125 -3.3125 L 3.203125 -5.15625 L 4.125 -5.15625 L 4.125 0 L 3.203125 0 L 3.203125 -0.390625 C 3.035156 -0.222656 2.859375 -0.0976562 2.671875 -0.015625 C 2.484375 0.0546875 2.273438 0.09375 2.046875 0.09375 Z M 2.21875 -0.75 C 2.40625 -0.75 2.578125 -0.796875 2.734375 -0.890625 C 2.890625 -0.984375 3.007812 -1.113281 3.09375 -1.28125 C 3.1875 -1.457031 3.234375 -1.65625 3.234375 -1.875 C 3.234375 -2.082031 3.1875 -2.269531 3.09375 -2.4375 C 3.007812 -2.601562 2.890625 -2.734375 2.734375 -2.828125 C 2.585938 -2.921875 2.414062 -2.96875 2.21875 -2.96875 C 2.019531 -2.96875 1.84375 -2.914062 1.6875 -2.8125 C 1.539062 -2.71875 1.425781 -2.585938 1.34375 -2.421875 C 1.257812 -2.253906 1.21875 -2.066406 1.21875 -1.859375 C 1.21875 -1.648438 1.257812 -1.460938 1.34375 -1.296875 C 1.4375 -1.128906 1.554688 -0.992188 1.703125 -0.890625 C 1.859375 -0.796875 2.03125 -0.75 2.21875 -0.75 Z M 2.21875 -0.75 "/></g></g></g><g fill="#1e1e1e" fill-opacity="1"><g transform="translate(20.163374, 7.955685)"><g><path d="M 2.21875 0.09375 C 1.832031 0.09375 1.492188 0.0078125 1.203125 -0.15625 C 0.910156 -0.332031 0.679688 -0.566406 0.515625 -0.859375 C 0.359375 -1.160156 0.28125 -1.492188 0.28125 -1.859375 C 0.28125 -2.203125 0.359375 -2.519531 0.515625 -2.8125 C 0.671875 -3.113281 0.894531 -3.351562 1.1875 -3.53125 C 1.476562 -3.71875 1.820312 -3.8125 2.21875 -3.8125 C 2.601562 -3.8125 2.941406 -3.722656 3.234375 -3.546875 C 3.535156 -3.378906 3.769531 -3.140625 3.9375 -2.828125 C 4.101562 -2.523438 4.1875 -2.179688 4.1875 -1.796875 C 4.1875 -1.710938 4.179688 -1.644531 4.171875 -1.59375 L 1.1875 -1.59375 C 1.226562 -1.320312 1.34375 -1.109375 1.53125 -0.953125 C 1.71875 -0.804688 1.945312 -0.734375 2.21875 -0.734375 C 2.4375 -0.734375 2.625 -0.765625 2.78125 -0.828125 C 2.9375 -0.890625 3.097656 -0.992188 3.265625 -1.140625 L 3.921875 -0.59375 C 3.503906 -0.132812 2.9375 0.09375 2.21875 0.09375 Z M 3.25 -2.328125 C 3.1875 -2.535156 3.0625 -2.703125 2.875 -2.828125 C 2.695312 -2.960938 2.476562 -3.03125 2.21875 -3.03125 C 1.988281 -3.03125 1.785156 -2.96875 1.609375 -2.84375 C 1.441406 -2.726562 1.3125 -2.554688 1.21875 -2.328125 Z M 3.25 -2.328125 "/></g></g></g><g fill="#1e1e1e" fill-opacity="1"><g transform="translate(24.552428, 7.955685)"><g><path d="M 2.046875 0.09375 C 1.734375 0.09375 1.441406 0.0078125 1.171875 -0.15625 C 0.898438 -0.320312 0.679688 -0.550781 0.515625 -0.84375 C 0.359375 -1.144531 0.28125 -1.484375 0.28125 -1.859375 C 0.28125 -2.234375 0.359375 -2.566406 0.515625 -2.859375 C 0.671875 -3.160156 0.878906 -3.394531 1.140625 -3.5625 C 1.410156 -3.726562 1.707031 -3.8125 2.03125 -3.8125 C 2.46875 -3.8125 2.859375 -3.644531 3.203125 -3.3125 L 3.203125 -3.71875 L 4.125 -3.71875 L 4.125 0 L 3.203125 0 L 3.203125 -0.390625 C 3.035156 -0.222656 2.859375 -0.0976562 2.671875 -0.015625 C 2.484375 0.0546875 2.273438 0.09375 2.046875 0.09375 Z M 2.21875 -0.75 C 2.40625 -0.75 2.578125 -0.796875 2.734375 -0.890625 C 2.890625 -0.984375 3.007812 -1.113281 3.09375 -1.28125 C 3.1875 -1.457031 3.234375 -1.65625 3.234375 -1.875 C 3.234375 -2.082031 3.1875 -2.269531 3.09375 -2.4375 C 3.007812 -2.601562 2.890625 -2.734375 2.734375 -2.828125 C 2.585938 -2.921875 2.414062 -2.96875 2.21875 -2.96875 C 2.019531 -2.96875 1.84375 -2.914062 1.6875 -2.8125 C 1.539062 -2.71875 1.425781 -2.585938 1.34375 -2.421875 C 1.257812 -2.253906 1.21875 -2.066406 1.21875 -1.859375 C 1.21875 -1.648438 1.257812 -1.460938 1.34375 -1.296875 C 1.4375 -1.128906 1.554688 -0.992188 1.703125 -0.890625 C 1.859375 -0.796875 2.03125 -0.75 2.21875 -0.75 Z M 2.21875 -0.75 "/></g></g></g><g fill="#1e1e1e" fill-opacity="1"><g transform="translate(29.151473, 7.955685)"><g><path d="M 1.484375 0.09375 C 1.210938 0.09375 0.96875 0.0390625 0.75 -0.0625 C 0.53125 -0.164062 0.335938 -0.320312 0.171875 -0.53125 L 0.75 -1.171875 C 0.863281 -1.046875 0.988281 -0.941406 1.125 -0.859375 C 1.269531 -0.773438 1.40625 -0.734375 1.53125 -0.734375 C 1.644531 -0.734375 1.738281 -0.757812 1.8125 -0.8125 C 1.894531 -0.875 1.9375 -0.945312 1.9375 -1.03125 C 1.9375 -1.09375 1.921875 -1.144531 1.890625 -1.1875 C 1.859375 -1.226562 1.804688 -1.273438 1.734375 -1.328125 C 1.660156 -1.378906 1.550781 -1.4375 1.40625 -1.5 C 1.132812 -1.644531 0.921875 -1.773438 0.765625 -1.890625 C 0.609375 -2.015625 0.492188 -2.144531 0.421875 -2.28125 C 0.347656 -2.414062 0.3125 -2.570312 0.3125 -2.75 C 0.3125 -2.9375 0.363281 -3.113281 0.46875 -3.28125 C 0.570312 -3.445312 0.710938 -3.578125 0.890625 -3.671875 C 1.078125 -3.765625 1.285156 -3.8125 1.515625 -3.8125 C 1.765625 -3.8125 1.992188 -3.757812 2.203125 -3.65625 C 2.410156 -3.550781 2.59375 -3.398438 2.75 -3.203125 L 2.171875 -2.625 C 2.054688 -2.726562 1.945312 -2.8125 1.84375 -2.875 C 1.738281 -2.9375 1.632812 -2.96875 1.53125 -2.96875 C 1.425781 -2.96875 1.34375 -2.945312 1.28125 -2.90625 C 1.21875 -2.863281 1.1875 -2.804688 1.1875 -2.734375 C 1.1875 -2.671875 1.210938 -2.617188 1.265625 -2.578125 C 1.316406 -2.535156 1.40625 -2.484375 1.53125 -2.421875 C 1.851562 -2.273438 2.101562 -2.132812 2.28125 -2 C 2.46875 -1.875 2.601562 -1.738281 2.6875 -1.59375 C 2.769531 -1.445312 2.8125 -1.269531 2.8125 -1.0625 C 2.8125 -0.84375 2.753906 -0.644531 2.640625 -0.46875 C 2.535156 -0.289062 2.378906 -0.148438 2.171875 -0.046875 C 1.972656 0.046875 1.742188 0.09375 1.484375 0.09375 Z M 1.484375 0.09375 "/></g></g></g><g fill="#1e1e1e" fill-opacity="1"><g transform="translate(0.934157, 15.539047)"><g><path d="M 1.546875 -5.03125 C 2.097656 -5.03125 2.535156 -4.925781 2.859375 -4.71875 C 3.191406 -4.507812 3.359375 -4.179688 3.359375 -3.734375 C 3.359375 -3.535156 3.3125 -3.359375 3.21875 -3.203125 C 3.132812 -3.046875 3.003906 -2.898438 2.828125 -2.765625 C 3.128906 -2.628906 3.351562 -2.453125 3.5 -2.234375 C 3.644531 -2.023438 3.71875 -1.769531 3.71875 -1.46875 C 3.71875 -1.175781 3.644531 -0.914062 3.5 -0.6875 C 3.363281 -0.46875 3.171875 -0.296875 2.921875 -0.171875 C 2.671875 -0.0546875 2.390625 0 2.078125 0 L 0.578125 0 L 0.578125 -5.03125 Z M 1.75 -3.0625 C 1.96875 -3.0625 2.132812 -3.109375 2.25 -3.203125 C 2.363281 -3.296875 2.421875 -3.429688 2.421875 -3.609375 C 2.421875 -3.765625 2.363281 -3.882812 2.25 -3.96875 C 2.144531 -4.0625 1.988281 -4.109375 1.78125 -4.109375 L 1.53125 -4.109375 L 1.53125 -3.0625 Z M 1.859375 -0.90625 C 2.160156 -0.90625 2.390625 -0.953125 2.546875 -1.046875 C 2.703125 -1.140625 2.78125 -1.289062 2.78125 -1.5 C 2.78125 -1.726562 2.691406 -1.898438 2.515625 -2.015625 C 2.347656 -2.140625 2.097656 -2.203125 1.765625 -2.203125 L 1.53125 -2.203125 L 1.53125 -0.90625 Z M 1.859375 -0.90625 "/></g></g></g><g fill="#1e1e1e" fill-opacity="1"><g transform="translate(4.994202, 15.539047)"><g><path d="M 0.9375 -4.03125 C 0.820312 -4.03125 0.71875 -4.0625 0.625 -4.125 C 0.539062 -4.1875 0.472656 -4.265625 0.421875 -4.359375 C 0.367188 -4.460938 0.34375 -4.570312 0.34375 -4.6875 C 0.34375 -4.789062 0.367188 -4.882812 0.421875 -4.96875 C 0.472656 -5.0625 0.546875 -5.128906 0.640625 -5.171875 C 0.734375 -5.222656 0.832031 -5.25 0.9375 -5.25 C 1.050781 -5.25 1.148438 -5.21875 1.234375 -5.15625 C 1.328125 -5.101562 1.398438 -5.03125 1.453125 -4.9375 C 1.503906 -4.84375 1.53125 -4.742188 1.53125 -4.640625 C 1.53125 -4.523438 1.503906 -4.421875 1.453125 -4.328125 C 1.398438 -4.242188 1.328125 -4.171875 1.234375 -4.109375 C 1.140625 -4.054688 1.039062 -4.03125 0.9375 -4.03125 Z M 0.46875 -3.71875 L 1.40625 -3.71875 L 1.40625 0 L 0.46875 0 Z M 0.46875 -3.71875 "/></g></g></g><g fill="#1e1e1e" fill-opacity="1"><g transform="translate(6.87022, 15.539047)"><g><path d="M 2.234375 1.453125 C 1.722656 1.453125 1.304688 1.351562 0.984375 1.15625 C 0.660156 0.957031 0.4375 0.660156 0.3125 0.265625 L 1.34375 0.265625 C 1.4375 0.378906 1.550781 0.460938 1.6875 0.515625 C 1.832031 0.566406 2.003906 0.59375 2.203125 0.59375 C 2.546875 0.59375 2.800781 0.515625 2.96875 0.359375 C 3.132812 0.210938 3.21875 -0.015625 3.21875 -0.328125 L 3.21875 -0.46875 C 3.0625 -0.3125 2.890625 -0.191406 2.703125 -0.109375 C 2.523438 -0.0351562 2.320312 0 2.09375 0 C 1.757812 0 1.457031 -0.078125 1.1875 -0.234375 C 0.914062 -0.398438 0.703125 -0.628906 0.546875 -0.921875 C 0.390625 -1.210938 0.3125 -1.539062 0.3125 -1.90625 C 0.3125 -2.28125 0.390625 -2.613281 0.546875 -2.90625 C 0.703125 -3.195312 0.910156 -3.421875 1.171875 -3.578125 C 1.429688 -3.734375 1.722656 -3.8125 2.046875 -3.8125 C 2.265625 -3.8125 2.46875 -3.769531 2.65625 -3.6875 C 2.851562 -3.601562 3.039062 -3.476562 3.21875 -3.3125 L 3.21875 -3.71875 L 4.15625 -3.71875 L 4.15625 -0.53125 C 4.15625 0.125 4 0.617188 3.6875 0.953125 C 3.375 1.285156 2.890625 1.453125 2.234375 1.453125 Z M 2.265625 -0.859375 C 2.460938 -0.859375 2.632812 -0.898438 2.78125 -0.984375 C 2.9375 -1.066406 3.054688 -1.1875 3.140625 -1.34375 C 3.222656 -1.507812 3.265625 -1.691406 3.265625 -1.890625 C 3.265625 -2.097656 3.222656 -2.28125 3.140625 -2.4375 C 3.054688 -2.601562 2.9375 -2.734375 2.78125 -2.828125 C 2.632812 -2.921875 2.457031 -2.96875 2.25 -2.96875 C 2.050781 -2.96875 1.875 -2.914062 1.71875 -2.8125 C 1.570312 -2.71875 1.457031 -2.585938 1.375 -2.421875 C 1.289062 -2.265625 1.25 -2.09375 1.25 -1.90625 C 1.25 -1.707031 1.289062 -1.523438 1.375 -1.359375 C 1.46875 -1.203125 1.59375 -1.078125 1.75 -0.984375 C 1.90625 -0.898438 2.078125 -0.859375 2.265625 -0.859375 Z M 2.265625 -0.859375 "/></g></g></g><g fill="#1e1e1e" fill-opacity="1"><g transform="translate(11.490272, 15.539047)"><g><path d="M 2.234375 1.453125 C 1.722656 1.453125 1.304688 1.351562 0.984375 1.15625 C 0.660156 0.957031 0.4375 0.660156 0.3125 0.265625 L 1.34375 0.265625 C 1.4375 0.378906 1.550781 0.460938 1.6875 0.515625 C 1.832031 0.566406 2.003906 0.59375 2.203125 0.59375 C 2.546875 0.59375 2.800781 0.515625 2.96875 0.359375 C 3.132812 0.210938 3.21875 -0.015625 3.21875 -0.328125 L 3.21875 -0.46875 C 3.0625 -0.3125 2.890625 -0.191406 2.703125 -0.109375 C 2.523438 -0.0351562 2.320312 0 2.09375 0 C 1.757812 0 1.457031 -0.078125 1.1875 -0.234375 C 0.914062 -0.398438 0.703125 -0.628906 0.546875 -0.921875 C 0.390625 -1.210938 0.3125 -1.539062 0.3125 -1.90625 C 0.3125 -2.28125 0.390625 -2.613281 0.546875 -2.90625 C 0.703125 -3.195312 0.910156 -3.421875 1.171875 -3.578125 C 1.429688 -3.734375 1.722656 -3.8125 2.046875 -3.8125 C 2.265625 -3.8125 2.46875 -3.769531 2.65625 -3.6875 C 2.851562 -3.601562 3.039062 -3.476562 3.21875 -3.3125 L 3.21875 -3.71875 L 4.15625 -3.71875 L 4.15625 -0.53125 C 4.15625 0.125 4 0.617188 3.6875 0.953125 C 3.375 1.285156 2.890625 1.453125 2.234375 1.453125 Z M 2.265625 -0.859375 C 2.460938 -0.859375 2.632812 -0.898438 2.78125 -0.984375 C 2.9375 -1.066406 3.054688 -1.1875 3.140625 -1.34375 C 3.222656 -1.507812 3.265625 -1.691406 3.265625 -1.890625 C 3.265625 -2.097656 3.222656 -2.28125 3.140625 -2.4375 C 3.054688 -2.601562 2.9375 -2.734375 2.78125 -2.828125 C 2.632812 -2.921875 2.457031 -2.96875 2.25 -2.96875 C 2.050781 -2.96875 1.875 -2.914062 1.71875 -2.8125 C 1.570312 -2.71875 1.457031 -2.585938 1.375 -2.421875 C 1.289062 -2.265625 1.25 -2.09375 1.25 -1.90625 C 1.25 -1.707031 1.289062 -1.523438 1.375 -1.359375 C 1.46875 -1.203125 1.59375 -1.078125 1.75 -0.984375 C 1.90625 -0.898438 2.078125 -0.859375 2.265625 -0.859375 Z M 2.265625 -0.859375 "/></g></g></g><g fill="#1e1e1e" fill-opacity="1"><g transform="translate(16.110324, 15.539047)"><g><path d="M 2.21875 0.09375 C 1.832031 0.09375 1.492188 0.0078125 1.203125 -0.15625 C 0.910156 -0.332031 0.679688 -0.566406 0.515625 -0.859375 C 0.359375 -1.160156 0.28125 -1.492188 0.28125 -1.859375 C 0.28125 -2.203125 0.359375 -2.519531 0.515625 -2.8125 C 0.671875 -3.113281 0.894531 -3.351562 1.1875 -3.53125 C 1.476562 -3.71875 1.820312 -3.8125 2.21875 -3.8125 C 2.601562 -3.8125 2.941406 -3.722656 3.234375 -3.546875 C 3.535156 -3.378906 3.769531 -3.140625 3.9375 -2.828125 C 4.101562 -2.523438 4.1875 -2.179688 4.1875 -1.796875 C 4.1875 -1.710938 4.179688 -1.644531 4.171875 -1.59375 L 1.1875 -1.59375 C 1.226562 -1.320312 1.34375 -1.109375 1.53125 -0.953125 C 1.71875 -0.804688 1.945312 -0.734375 2.21875 -0.734375 C 2.4375 -0.734375 2.625 -0.765625 2.78125 -0.828125 C 2.9375 -0.890625 3.097656 -0.992188 3.265625 -1.140625 L 3.921875 -0.59375 C 3.503906 -0.132812 2.9375 0.09375 2.21875 0.09375 Z M 3.25 -2.328125 C 3.1875 -2.535156 3.0625 -2.703125 2.875 -2.828125 C 2.695312 -2.960938 2.476562 -3.03125 2.21875 -3.03125 C 1.988281 -3.03125 1.785156 -2.96875 1.609375 -2.84375 C 1.441406 -2.726562 1.3125 -2.554688 1.21875 -2.328125 Z M 3.25 -2.328125 "/></g></g></g><g fill="#1e1e1e" fill-opacity="1"><g transform="translate(20.569375, 15.539047)"><g><path d="M 1.28125 -3.71875 L 1.28125 -3.25 C 1.363281 -3.4375 1.472656 -3.578125 1.609375 -3.671875 C 1.742188 -3.765625 1.894531 -3.8125 2.0625 -3.8125 C 2.207031 -3.8125 2.34375 -3.78125 2.46875 -3.71875 L 2.171875 -2.921875 C 2.066406 -2.972656 1.976562 -3 1.90625 -3 C 1.75 -3 1.625 -2.910156 1.53125 -2.734375 C 1.445312 -2.554688 1.40625 -2.289062 1.40625 -1.9375 L 1.40625 0 L 0.46875 0 L 0.46875 -3.71875 Z M 1.28125 -3.71875 "/></g></g></g><g fill="#1e1e1e" fill-opacity="1"><g transform="translate(23.026406, 15.539047)"><g/></g></g><g fill="#1e1e1e" fill-opacity="1"><g transform="translate(24.986431, 15.539047)"><g><path d="M 0.578125 -5.03125 L 1.53125 -5.03125 L 1.53125 0 L 0.578125 0 Z M 0.578125 -5.03125 "/></g></g></g><g fill="#1e1e1e" fill-opacity="1"><g transform="translate(27.23346, 15.539047)"><g><path d="M 1.40625 -3.71875 L 1.40625 -3.296875 C 1.5625 -3.460938 1.738281 -3.585938 1.9375 -3.671875 C 2.132812 -3.765625 2.34375 -3.8125 2.5625 -3.8125 C 2.800781 -3.8125 3.015625 -3.753906 3.203125 -3.640625 C 3.390625 -3.535156 3.535156 -3.375 3.640625 -3.15625 C 3.828125 -3.382812 4.015625 -3.550781 4.203125 -3.65625 C 4.390625 -3.757812 4.617188 -3.8125 4.890625 -3.8125 C 5.304688 -3.8125 5.617188 -3.6875 5.828125 -3.4375 C 6.046875 -3.1875 6.15625 -2.84375 6.15625 -2.40625 L 6.15625 0 L 5.234375 0 L 5.234375 -2.046875 C 5.234375 -2.660156 5.019531 -2.96875 4.59375 -2.96875 C 4.351562 -2.96875 4.15625 -2.867188 4 -2.671875 C 3.851562 -2.484375 3.78125 -2.203125 3.78125 -1.828125 L 3.78125 0 L 2.859375 0 L 2.859375 -1.796875 C 2.859375 -2.179688 2.804688 -2.472656 2.703125 -2.671875 C 2.609375 -2.867188 2.441406 -2.96875 2.203125 -2.96875 C 2.035156 -2.96875 1.894531 -2.921875 1.78125 -2.828125 C 1.664062 -2.742188 1.570312 -2.613281 1.5 -2.4375 C 1.4375 -2.269531 1.40625 -2.0625 1.40625 -1.8125 L 1.40625 0 L 0.46875 0 L 0.46875 -3.71875 Z M 1.40625 -3.71875 "/></g></g></g><g fill="#1e1e1e" fill-opacity="1"><g transform="translate(33.820534, 15.539047)"><g><path d="M 1.40625 -3.71875 L 1.40625 -3.3125 C 1.738281 -3.644531 2.125 -3.8125 2.5625 -3.8125 C 2.882812 -3.8125 3.175781 -3.726562 3.4375 -3.5625 C 3.707031 -3.394531 3.921875 -3.160156 4.078125 -2.859375 C 4.242188 -2.566406 4.328125 -2.234375 4.328125 -1.859375 C 4.328125 -1.484375 4.242188 -1.144531 4.078125 -0.84375 C 3.921875 -0.550781 3.703125 -0.320312 3.421875 -0.15625 C 3.148438 0.0078125 2.859375 0.09375 2.546875 0.09375 C 2.316406 0.09375 2.109375 0.0546875 1.921875 -0.015625 C 1.742188 -0.0976562 1.570312 -0.222656 1.40625 -0.390625 L 1.40625 1.359375 L 0.46875 1.359375 L 0.46875 -3.71875 Z M 2.375 -0.75 C 2.570312 -0.75 2.742188 -0.796875 2.890625 -0.890625 C 3.046875 -0.992188 3.164062 -1.128906 3.25 -1.296875 C 3.34375 -1.460938 3.390625 -1.648438 3.390625 -1.859375 C 3.390625 -2.066406 3.347656 -2.253906 3.265625 -2.421875 C 3.179688 -2.585938 3.0625 -2.71875 2.90625 -2.8125 C 2.757812 -2.914062 2.582031 -2.96875 2.375 -2.96875 C 2.1875 -2.96875 2.007812 -2.921875 1.84375 -2.828125 C 1.6875 -2.734375 1.566406 -2.601562 1.484375 -2.4375 C 1.398438 -2.269531 1.359375 -2.082031 1.359375 -1.875 C 1.359375 -1.65625 1.398438 -1.457031 1.484375 -1.28125 C 1.578125 -1.113281 1.703125 -0.984375 1.859375 -0.890625 C 2.015625 -0.796875 2.1875 -0.75 2.375 -0.75 Z M 2.375 -0.75 "/></g></g></g><g fill="#1e1e1e" fill-opacity="1"><g transform="translate(38.426585, 15.539047)"><g><path d="M 2.046875 0.09375 C 1.734375 0.09375 1.441406 0.0078125 1.171875 -0.15625 C 0.898438 -0.320312 0.679688 -0.550781 0.515625 -0.84375 C 0.359375 -1.144531 0.28125 -1.484375 0.28125 -1.859375 C 0.28125 -2.234375 0.359375 -2.566406 0.515625 -2.859375 C 0.671875 -3.160156 0.878906 -3.394531 1.140625 -3.5625 C 1.410156 -3.726562 1.707031 -3.8125 2.03125 -3.8125 C 2.46875 -3.8125 2.859375 -3.644531 3.203125 -3.3125 L 3.203125 -3.71875 L 4.125 -3.71875 L 4.125 0 L 3.203125 0 L 3.203125 -0.390625 C 3.035156 -0.222656 2.859375 -0.0976562 2.671875 -0.015625 C 2.484375 0.0546875 2.273438 0.09375 2.046875 0.09375 Z M 2.21875 -0.75 C 2.40625 -0.75 2.578125 -0.796875 2.734375 -0.890625 C 2.890625 -0.984375 3.007812 -1.113281 3.09375 -1.28125 C 3.1875 -1.457031 3.234375 -1.65625 3.234375 -1.875 C 3.234375 -2.082031 3.1875 -2.269531 3.09375 -2.4375 C 3.007812 -2.601562 2.890625 -2.734375 2.734375 -2.828125 C 2.585938 -2.921875 2.414062 -2.96875 2.21875 -2.96875 C 2.019531 -2.96875 1.84375 -2.914062 1.6875 -2.8125 C 1.539062 -2.71875 1.425781 -2.585938 1.34375 -2.421875 C 1.257812 -2.253906 1.21875 -2.066406 1.21875 -1.859375 C 1.21875 -1.648438 1.257812 -1.460938 1.34375 -1.296875 C 1.4375 -1.128906 1.554688 -0.992188 1.703125 -0.890625 C 1.859375 -0.796875 2.03125 -0.75 2.21875 -0.75 Z M 2.21875 -0.75 "/></g></g></g><g fill="#1e1e1e" fill-opacity="1"><g transform="translate(43.02563, 15.539047)"><g><path d="M 2.28125 0.09375 C 1.882812 0.09375 1.535156 0.0078125 1.234375 -0.15625 C 0.929688 -0.320312 0.695312 -0.550781 0.53125 -0.84375 C 0.363281 -1.132812 0.28125 -1.460938 0.28125 -1.828125 C 0.28125 -2.191406 0.363281 -2.523438 0.53125 -2.828125 C 0.707031 -3.128906 0.945312 -3.367188 1.25 -3.546875 C 1.5625 -3.722656 1.910156 -3.8125 2.296875 -3.8125 C 2.660156 -3.8125 2.984375 -3.75 3.265625 -3.625 C 3.554688 -3.5 3.78125 -3.320312 3.9375 -3.09375 L 3.25 -2.546875 C 3.125 -2.671875 2.984375 -2.765625 2.828125 -2.828125 C 2.679688 -2.898438 2.503906 -2.9375 2.296875 -2.9375 C 2.085938 -2.9375 1.898438 -2.882812 1.734375 -2.78125 C 1.566406 -2.6875 1.4375 -2.554688 1.34375 -2.390625 C 1.257812 -2.222656 1.21875 -2.035156 1.21875 -1.828125 C 1.21875 -1.640625 1.257812 -1.460938 1.34375 -1.296875 C 1.4375 -1.140625 1.5625 -1.015625 1.71875 -0.921875 C 1.875 -0.828125 2.0625 -0.78125 2.28125 -0.78125 C 2.476562 -0.78125 2.65625 -0.8125 2.8125 -0.875 C 2.96875 -0.945312 3.113281 -1.050781 3.25 -1.1875 L 3.90625 -0.59375 C 3.726562 -0.375 3.5 -0.203125 3.21875 -0.078125 C 2.945312 0.0351562 2.632812 0.09375 2.28125 0.09375 Z M 2.28125 0.09375 "/></g></g></g><g fill="#1e1e1e" fill-opacity="1"><g transform="translate(47.281676, 15.539047)"><g><path d="M 0.578125 -2.90625 L 0.109375 -2.90625 L 0.109375 -3.71875 L 0.578125 -3.71875 L 0.578125 -5.09375 L 1.515625 -5.09375 L 1.515625 -3.71875 L 2.0625 -3.71875 L 2.0625 -2.90625 L 1.515625 -2.90625 L 1.515625 0 L 0.578125 0 Z M 0.578125 -2.90625 "/></g></g></g></g></g><g transform="matrix(1, 0, 0, 1, 219, 47)"><g clip-path="url(#b9bc927ca7)"><g fill="#1e1e1e" fill-opacity="1"><g transform="translate(0.905718, 8.576471)"><g><path d="M 0.578125 -5.03125 L 3.3125 -5.03125 L 3.3125 -4.09375 L 1.53125 -4.09375 L 1.53125 -3.171875 L 3.3125 -3.171875 L 3.3125 -2.265625 L 1.53125 -2.265625 L 1.53125 -0.9375 L 3.3125 -0.9375 L 3.3125 0 L 0.578125 0 Z M 0.578125 -5.03125 "/></g></g></g><g fill="#1e1e1e" fill-opacity="1"><g transform="translate(4.538748, 8.576471)"><g><path d="M 1.828125 0.125 C 1.460938 0.125 1.144531 0.0351562 0.875 -0.140625 C 0.613281 -0.316406 0.390625 -0.59375 0.203125 -0.96875 L 1.015625 -1.453125 C 1.128906 -1.234375 1.253906 -1.066406 1.390625 -0.953125 C 1.523438 -0.847656 1.675781 -0.796875 1.84375 -0.796875 C 1.957031 -0.796875 2.054688 -0.816406 2.140625 -0.859375 C 2.234375 -0.898438 2.300781 -0.957031 2.34375 -1.03125 C 2.394531 -1.101562 2.421875 -1.179688 2.421875 -1.265625 C 2.421875 -1.347656 2.40625 -1.425781 2.375 -1.5 C 2.34375 -1.570312 2.289062 -1.640625 2.21875 -1.703125 C 2.15625 -1.773438 2.0625 -1.863281 1.9375 -1.96875 C 1.550781 -2.289062 1.257812 -2.539062 1.0625 -2.71875 C 0.875 -2.90625 0.722656 -3.09375 0.609375 -3.28125 C 0.503906 -3.46875 0.453125 -3.671875 0.453125 -3.890625 C 0.453125 -4.117188 0.507812 -4.328125 0.625 -4.515625 C 0.75 -4.710938 0.914062 -4.867188 1.125 -4.984375 C 1.34375 -5.097656 1.578125 -5.15625 1.828125 -5.15625 C 2.117188 -5.15625 2.378906 -5.082031 2.609375 -4.9375 C 2.835938 -4.800781 3.0625 -4.601562 3.28125 -4.34375 L 2.59375 -3.765625 C 2.445312 -3.921875 2.3125 -4.035156 2.1875 -4.109375 C 2.070312 -4.191406 1.945312 -4.234375 1.8125 -4.234375 C 1.6875 -4.234375 1.582031 -4.195312 1.5 -4.125 C 1.425781 -4.0625 1.390625 -3.984375 1.390625 -3.890625 C 1.390625 -3.804688 1.410156 -3.726562 1.453125 -3.65625 C 1.503906 -3.59375 1.582031 -3.515625 1.6875 -3.421875 C 1.789062 -3.328125 1.960938 -3.1875 2.203125 -3 C 2.484375 -2.769531 2.703125 -2.578125 2.859375 -2.421875 C 3.015625 -2.273438 3.132812 -2.109375 3.21875 -1.921875 C 3.3125 -1.742188 3.359375 -1.535156 3.359375 -1.296875 C 3.359375 -1.023438 3.289062 -0.78125 3.15625 -0.5625 C 3.03125 -0.34375 2.851562 -0.171875 2.625 -0.046875 C 2.394531 0.0664062 2.128906 0.125 1.828125 0.125 Z M 1.828125 0.125 "/></g></g></g><g fill="#1e1e1e" fill-opacity="1"><g transform="translate(8.178784, 8.576471)"><g><path d="M 0.96875 -4.09375 L 0.078125 -4.09375 L 0.078125 -5.03125 L 2.859375 -5.03125 L 2.859375 -4.09375 L 1.9375 -4.09375 L 1.9375 0 L 0.96875 0 Z M 0.96875 -4.09375 "/></g></g></g><g fill="#1e1e1e" fill-opacity="1"><g transform="translate(11.118812, 8.576471)"><g><path d="M 1.78125 -5.03125 C 2.695312 -5.03125 3.390625 -4.816406 3.859375 -4.390625 C 4.328125 -3.972656 4.5625 -3.347656 4.5625 -2.515625 C 4.5625 -1.640625 4.328125 -1 3.859375 -0.59375 C 3.390625 -0.195312 2.703125 0 1.796875 0 L 0.578125 0 L 0.578125 -5.03125 Z M 1.96875 -0.9375 C 2.5 -0.9375 2.898438 -1.066406 3.171875 -1.328125 C 3.453125 -1.585938 3.59375 -1.992188 3.59375 -2.546875 C 3.59375 -2.867188 3.519531 -3.144531 3.375 -3.375 C 3.238281 -3.613281 3.039062 -3.789062 2.78125 -3.90625 C 2.519531 -4.03125 2.210938 -4.09375 1.859375 -4.09375 L 1.53125 -4.09375 L 1.53125 -0.9375 Z M 1.96875 -0.9375 "/></g></g></g><g fill="#1e1e1e" fill-opacity="1"><g transform="translate(15.584849, 8.576471)"><g><path d="M 0.984375 0.09375 C 0.878906 0.09375 0.785156 0.0664062 0.703125 0.015625 C 0.628906 -0.0234375 0.566406 -0.0859375 0.515625 -0.171875 C 0.460938 -0.253906 0.4375 -0.34375 0.4375 -0.4375 C 0.4375 -0.539062 0.460938 -0.628906 0.515625 -0.703125 C 0.566406 -0.785156 0.628906 -0.847656 0.703125 -0.890625 C 0.785156 -0.941406 0.878906 -0.96875 0.984375 -0.96875 C 1.078125 -0.96875 1.164062 -0.941406 1.25 -0.890625 C 1.332031 -0.847656 1.394531 -0.785156 1.4375 -0.703125 C 1.488281 -0.628906 1.515625 -0.539062 1.515625 -0.4375 C 1.515625 -0.34375 1.488281 -0.253906 1.4375 -0.171875 C 1.394531 -0.0859375 1.332031 -0.0234375 1.25 0.015625 C 1.164062 0.0664062 1.078125 0.09375 0.984375 0.09375 Z M 0.984375 0.09375 "/></g></g></g><g fill="#1e1e1e" fill-opacity="1"><g transform="translate(17.54487, 8.576471)"><g/></g></g><g fill="#1e1e1e" fill-opacity="1"><g transform="translate(19.504891, 8.576471)"><g><path d="M 1.625 -4.109375 L 0.59375 -4.109375 L 1.140625 -5.03125 L 2.59375 -5.03125 L 2.59375 0 L 1.625 0 Z M 1.625 -4.109375 "/></g></g></g><g fill="#1e1e1e" fill-opacity="1"><g transform="translate(23.424925, 8.576471)"><g><path d="M 1.96875 -2 L 1.9375 -2 C 1.625 -2 1.34375 -2.0625 1.09375 -2.1875 C 0.851562 -2.320312 0.664062 -2.507812 0.53125 -2.75 C 0.40625 -2.988281 0.34375 -3.269531 0.34375 -3.59375 C 0.34375 -3.882812 0.410156 -4.148438 0.546875 -4.390625 C 0.691406 -4.628906 0.882812 -4.816406 1.125 -4.953125 C 1.375 -5.085938 1.644531 -5.15625 1.9375 -5.15625 C 2.238281 -5.15625 2.515625 -5.082031 2.765625 -4.9375 C 3.015625 -4.800781 3.207031 -4.613281 3.34375 -4.375 C 3.488281 -4.132812 3.5625 -3.863281 3.5625 -3.5625 C 3.5625 -3.34375 3.519531 -3.117188 3.4375 -2.890625 C 3.351562 -2.671875 3.226562 -2.40625 3.0625 -2.09375 L 1.828125 0.125 L 1.015625 -0.28125 Z M 1.9375 -2.890625 C 2.0625 -2.890625 2.171875 -2.921875 2.265625 -2.984375 C 2.367188 -3.046875 2.445312 -3.128906 2.5 -3.234375 C 2.550781 -3.335938 2.578125 -3.453125 2.578125 -3.578125 C 2.578125 -3.722656 2.546875 -3.847656 2.484375 -3.953125 C 2.429688 -4.054688 2.351562 -4.132812 2.25 -4.1875 C 2.15625 -4.238281 2.050781 -4.265625 1.9375 -4.265625 C 1.75 -4.265625 1.59375 -4.203125 1.46875 -4.078125 C 1.351562 -3.960938 1.296875 -3.796875 1.296875 -3.578125 C 1.296875 -3.453125 1.320312 -3.335938 1.375 -3.234375 C 1.425781 -3.140625 1.5 -3.054688 1.59375 -2.984375 C 1.695312 -2.921875 1.8125 -2.890625 1.9375 -2.890625 Z M 1.9375 -2.890625 "/></g></g></g><g fill="#1e1e1e" fill-opacity="1"><g transform="translate(27.344959, 8.576471)"><g><path d="M 2.984375 -2.71875 C 3.210938 -2.570312 3.390625 -2.382812 3.515625 -2.15625 C 3.640625 -1.925781 3.703125 -1.679688 3.703125 -1.421875 C 3.703125 -1.128906 3.632812 -0.863281 3.5 -0.625 C 3.363281 -0.394531 3.164062 -0.207031 2.90625 -0.0625 C 2.65625 0.0703125 2.34375 0.140625 1.96875 0.140625 C 1.613281 0.140625 1.300781 0.078125 1.03125 -0.046875 C 0.769531 -0.171875 0.566406 -0.347656 0.421875 -0.578125 C 0.285156 -0.816406 0.21875 -1.097656 0.21875 -1.421875 C 0.21875 -1.691406 0.269531 -1.929688 0.375 -2.140625 C 0.488281 -2.347656 0.664062 -2.539062 0.90625 -2.71875 C 0.75 -2.875 0.632812 -3.035156 0.5625 -3.203125 C 0.488281 -3.367188 0.453125 -3.554688 0.453125 -3.765625 C 0.453125 -4.023438 0.515625 -4.257812 0.640625 -4.46875 C 0.765625 -4.6875 0.941406 -4.851562 1.171875 -4.96875 C 1.398438 -5.09375 1.664062 -5.15625 1.96875 -5.15625 C 2.269531 -5.15625 2.53125 -5.09375 2.75 -4.96875 C 2.976562 -4.84375 3.15625 -4.671875 3.28125 -4.453125 C 3.40625 -4.234375 3.46875 -4 3.46875 -3.75 C 3.46875 -3.550781 3.425781 -3.375 3.34375 -3.21875 C 3.269531 -3.0625 3.148438 -2.894531 2.984375 -2.71875 Z M 1.9375 -4.234375 C 1.769531 -4.234375 1.632812 -4.179688 1.53125 -4.078125 C 1.4375 -3.972656 1.390625 -3.84375 1.390625 -3.6875 C 1.390625 -3.570312 1.410156 -3.472656 1.453125 -3.390625 C 1.503906 -3.304688 1.570312 -3.238281 1.65625 -3.1875 C 1.75 -3.132812 1.847656 -3.109375 1.953125 -3.109375 C 2.117188 -3.109375 2.25 -3.160156 2.34375 -3.265625 C 2.445312 -3.378906 2.5 -3.519531 2.5 -3.6875 C 2.5 -3.84375 2.445312 -3.972656 2.34375 -4.078125 C 2.238281 -4.179688 2.101562 -4.234375 1.9375 -4.234375 Z M 1.953125 -0.78125 C 2.203125 -0.78125 2.398438 -0.84375 2.546875 -0.96875 C 2.691406 -1.09375 2.765625 -1.265625 2.765625 -1.484375 C 2.765625 -1.628906 2.726562 -1.753906 2.65625 -1.859375 C 2.582031 -1.972656 2.484375 -2.0625 2.359375 -2.125 C 2.242188 -2.1875 2.113281 -2.21875 1.96875 -2.21875 C 1.820312 -2.21875 1.6875 -2.1875 1.5625 -2.125 C 1.4375 -2.0625 1.335938 -1.972656 1.265625 -1.859375 C 1.191406 -1.753906 1.15625 -1.632812 1.15625 -1.5 C 1.15625 -1.375 1.1875 -1.253906 1.25 -1.140625 C 1.3125 -1.035156 1.40625 -0.945312 1.53125 -0.875 C 1.65625 -0.8125 1.796875 -0.78125 1.953125 -0.78125 Z M 1.953125 -0.78125 "/></g></g></g><g fill="#1e1e1e" fill-opacity="1"><g transform="translate(31.264992, 8.576471)"><g><path d="M 2.984375 -2.71875 C 3.210938 -2.570312 3.390625 -2.382812 3.515625 -2.15625 C 3.640625 -1.925781 3.703125 -1.679688 3.703125 -1.421875 C 3.703125 -1.128906 3.632812 -0.863281 3.5 -0.625 C 3.363281 -0.394531 3.164062 -0.207031 2.90625 -0.0625 C 2.65625 0.0703125 2.34375 0.140625 1.96875 0.140625 C 1.613281 0.140625 1.300781 0.078125 1.03125 -0.046875 C 0.769531 -0.171875 0.566406 -0.347656 0.421875 -0.578125 C 0.285156 -0.816406 0.21875 -1.097656 0.21875 -1.421875 C 0.21875 -1.691406 0.269531 -1.929688 0.375 -2.140625 C 0.488281 -2.347656 0.664062 -2.539062 0.90625 -2.71875 C 0.75 -2.875 0.632812 -3.035156 0.5625 -3.203125 C 0.488281 -3.367188 0.453125 -3.554688 0.453125 -3.765625 C 0.453125 -4.023438 0.515625 -4.257812 0.640625 -4.46875 C 0.765625 -4.6875 0.941406 -4.851562 1.171875 -4.96875 C 1.398438 -5.09375 1.664062 -5.15625 1.96875 -5.15625 C 2.269531 -5.15625 2.53125 -5.09375 2.75 -4.96875 C 2.976562 -4.84375 3.15625 -4.671875 3.28125 -4.453125 C 3.40625 -4.234375 3.46875 -4 3.46875 -3.75 C 3.46875 -3.550781 3.425781 -3.375 3.34375 -3.21875 C 3.269531 -3.0625 3.148438 -2.894531 2.984375 -2.71875 Z M 1.9375 -4.234375 C 1.769531 -4.234375 1.632812 -4.179688 1.53125 -4.078125 C 1.4375 -3.972656 1.390625 -3.84375 1.390625 -3.6875 C 1.390625 -3.570312 1.410156 -3.472656 1.453125 -3.390625 C 1.503906 -3.304688 1.570312 -3.238281 1.65625 -3.1875 C 1.75 -3.132812 1.847656 -3.109375 1.953125 -3.109375 C 2.117188 -3.109375 2.25 -3.160156 2.34375 -3.265625 C 2.445312 -3.378906 2.5 -3.519531 2.5 -3.6875 C 2.5 -3.84375 2.445312 -3.972656 2.34375 -4.078125 C 2.238281 -4.179688 2.101562 -4.234375 1.9375 -4.234375 Z M 1.953125 -0.78125 C 2.203125 -0.78125 2.398438 -0.84375 2.546875 -0.96875 C 2.691406 -1.09375 2.765625 -1.265625 2.765625 -1.484375 C 2.765625 -1.628906 2.726562 -1.753906 2.65625 -1.859375 C 2.582031 -1.972656 2.484375 -2.0625 2.359375 -2.125 C 2.242188 -2.1875 2.113281 -2.21875 1.96875 -2.21875 C 1.820312 -2.21875 1.6875 -2.1875 1.5625 -2.125 C 1.4375 -2.0625 1.335938 -1.972656 1.265625 -1.859375 C 1.191406 -1.753906 1.15625 -1.632812 1.15625 -1.5 C 1.15625 -1.375 1.1875 -1.253906 1.25 -1.140625 C 1.3125 -1.035156 1.40625 -0.945312 1.53125 -0.875 C 1.65625 -0.8125 1.796875 -0.78125 1.953125 -0.78125 Z M 1.953125 -0.78125 "/></g></g></g></g></g><g transform="matrix(1, 0, 0, 1, 219, 55)"><g clip-path="url(#0e0a2e30e6)"><g fill="#1e1e1e" fill-opacity="1"><g transform="translate(0.905718, 8.626483)"><g><path d="M 1.109375 -5.03125 L 1.109375 -0.484375 L 3.046875 -0.484375 L 3.046875 0 L 0.609375 0 L 0.609375 -5.03125 Z M 1.109375 -5.03125 "/></g></g></g><g fill="#1e1e1e" fill-opacity="1"><g transform="translate(4.139734, 8.626483)"><g><path d="M 2.296875 0.09375 C 1.929688 0.09375 1.597656 0.0078125 1.296875 -0.15625 C 1.003906 -0.332031 0.773438 -0.570312 0.609375 -0.875 C 0.441406 -1.175781 0.359375 -1.5 0.359375 -1.84375 C 0.359375 -2.195312 0.441406 -2.523438 0.609375 -2.828125 C 0.773438 -3.128906 1.003906 -3.367188 1.296875 -3.546875 C 1.597656 -3.722656 1.929688 -3.8125 2.296875 -3.8125 C 2.660156 -3.8125 2.988281 -3.722656 3.28125 -3.546875 C 3.582031 -3.367188 3.816406 -3.128906 3.984375 -2.828125 C 4.148438 -2.523438 4.234375 -2.195312 4.234375 -1.84375 C 4.234375 -1.5 4.148438 -1.175781 3.984375 -0.875 C 3.816406 -0.570312 3.582031 -0.332031 3.28125 -0.15625 C 2.988281 0.0078125 2.660156 0.09375 2.296875 0.09375 Z M 2.296875 -0.359375 C 2.566406 -0.359375 2.8125 -0.425781 3.03125 -0.5625 C 3.25 -0.695312 3.421875 -0.875 3.546875 -1.09375 C 3.679688 -1.320312 3.75 -1.570312 3.75 -1.84375 C 3.75 -2.113281 3.679688 -2.363281 3.546875 -2.59375 C 3.421875 -2.820312 3.242188 -3.003906 3.015625 -3.140625 C 2.796875 -3.285156 2.554688 -3.359375 2.296875 -3.359375 C 2.035156 -3.359375 1.789062 -3.285156 1.5625 -3.140625 C 1.34375 -3.003906 1.164062 -2.820312 1.03125 -2.59375 C 0.90625 -2.363281 0.84375 -2.113281 0.84375 -1.84375 C 0.84375 -1.570312 0.90625 -1.320312 1.03125 -1.09375 C 1.15625 -0.875 1.328125 -0.695312 1.546875 -0.5625 C 1.773438 -0.425781 2.023438 -0.359375 2.296875 -0.359375 Z M 2.296875 -0.359375 "/></g></g></g><g fill="#1e1e1e" fill-opacity="1"><g transform="translate(8.724764, 8.626483)"><g><path d="M 2.328125 0.09375 C 1.941406 0.09375 1.597656 0.0078125 1.296875 -0.15625 C 1.003906 -0.332031 0.773438 -0.566406 0.609375 -0.859375 C 0.441406 -1.160156 0.359375 -1.492188 0.359375 -1.859375 C 0.359375 -2.234375 0.441406 -2.566406 0.609375 -2.859375 C 0.785156 -3.148438 1.023438 -3.378906 1.328125 -3.546875 C 1.628906 -3.722656 1.96875 -3.8125 2.34375 -3.8125 C 2.695312 -3.8125 3.019531 -3.738281 3.3125 -3.59375 C 3.601562 -3.457031 3.835938 -3.265625 4.015625 -3.015625 L 3.65625 -2.703125 C 3.476562 -2.921875 3.28125 -3.082031 3.0625 -3.1875 C 2.851562 -3.300781 2.601562 -3.359375 2.3125 -3.359375 C 2.03125 -3.359375 1.78125 -3.289062 1.5625 -3.15625 C 1.34375 -3.03125 1.164062 -2.851562 1.03125 -2.625 C 0.90625 -2.394531 0.84375 -2.140625 0.84375 -1.859375 C 0.84375 -1.566406 0.90625 -1.304688 1.03125 -1.078125 C 1.15625 -0.847656 1.332031 -0.671875 1.5625 -0.546875 C 1.789062 -0.421875 2.046875 -0.359375 2.328125 -0.359375 C 2.867188 -0.359375 3.3125 -0.570312 3.65625 -1 L 4.015625 -0.71875 C 3.816406 -0.457031 3.570312 -0.253906 3.28125 -0.109375 C 3 0.0234375 2.679688 0.09375 2.328125 0.09375 Z M 2.328125 0.09375 "/></g></g></g><g fill="#1e1e1e" fill-opacity="1"><g transform="translate(13.050784, 8.626483)"><g><path d="M 2.265625 0.09375 C 1.910156 0.09375 1.585938 0.00390625 1.296875 -0.171875 C 1.003906 -0.347656 0.773438 -0.585938 0.609375 -0.890625 C 0.441406 -1.191406 0.359375 -1.519531 0.359375 -1.875 C 0.359375 -2.21875 0.441406 -2.535156 0.609375 -2.828125 C 0.785156 -3.128906 1.019531 -3.367188 1.3125 -3.546875 C 1.601562 -3.722656 1.925781 -3.8125 2.28125 -3.8125 C 2.582031 -3.8125 2.859375 -3.742188 3.109375 -3.609375 C 3.359375 -3.484375 3.578125 -3.289062 3.765625 -3.03125 L 3.765625 -3.71875 L 4.234375 -3.71875 L 4.234375 0 L 3.765625 0 L 3.765625 -0.640625 C 3.554688 -0.390625 3.328125 -0.203125 3.078125 -0.078125 C 2.828125 0.0351562 2.554688 0.09375 2.265625 0.09375 Z M 2.3125 -0.34375 C 2.5625 -0.34375 2.800781 -0.40625 3.03125 -0.53125 C 3.257812 -0.65625 3.441406 -0.828125 3.578125 -1.046875 C 3.722656 -1.273438 3.796875 -1.539062 3.796875 -1.84375 C 3.796875 -2.125 3.726562 -2.378906 3.59375 -2.609375 C 3.46875 -2.835938 3.289062 -3.019531 3.0625 -3.15625 C 2.84375 -3.289062 2.59375 -3.359375 2.3125 -3.359375 C 2.039062 -3.359375 1.789062 -3.285156 1.5625 -3.140625 C 1.332031 -3.003906 1.15625 -2.820312 1.03125 -2.59375 C 0.90625 -2.363281 0.84375 -2.117188 0.84375 -1.859375 C 0.84375 -1.585938 0.90625 -1.335938 1.03125 -1.109375 C 1.164062 -0.878906 1.34375 -0.691406 1.5625 -0.546875 C 1.789062 -0.410156 2.039062 -0.34375 2.3125 -0.34375 Z M 2.3125 -0.34375 "/></g></g></g><g fill="#1e1e1e" fill-opacity="1"><g transform="translate(17.838809, 8.626483)"><g><path d="M 0.953125 -3.296875 L 0.296875 -3.296875 L 0.296875 -3.71875 L 0.953125 -3.71875 L 0.953125 -5.109375 L 1.4375 -5.109375 L 1.4375 -3.71875 L 2.203125 -3.71875 L 2.203125 -3.296875 L 1.4375 -3.296875 L 1.4375 0 L 0.953125 0 Z M 0.953125 -3.296875 "/></g></g></g><g fill="#1e1e1e" fill-opacity="1"><g transform="translate(20.211819, 8.626483)"><g><path d="M 2.296875 0.09375 C 1.890625 0.09375 1.539062 0.00390625 1.25 -0.171875 C 0.957031 -0.347656 0.734375 -0.582031 0.578125 -0.875 C 0.429688 -1.175781 0.359375 -1.5 0.359375 -1.84375 C 0.359375 -2.1875 0.4375 -2.507812 0.59375 -2.8125 C 0.75 -3.113281 0.972656 -3.351562 1.265625 -3.53125 C 1.554688 -3.71875 1.890625 -3.8125 2.265625 -3.8125 C 2.628906 -3.8125 2.957031 -3.726562 3.25 -3.5625 C 3.539062 -3.394531 3.769531 -3.160156 3.9375 -2.859375 C 4.101562 -2.566406 4.1875 -2.234375 4.1875 -1.859375 L 4.1875 -1.8125 L 0.84375 -1.8125 C 0.851562 -1.53125 0.921875 -1.28125 1.046875 -1.0625 C 1.171875 -0.84375 1.335938 -0.671875 1.546875 -0.546875 C 1.765625 -0.429688 2.015625 -0.375 2.296875 -0.375 C 2.628906 -0.375 2.898438 -0.445312 3.109375 -0.59375 C 3.316406 -0.75 3.503906 -0.960938 3.671875 -1.234375 L 4.0625 -1.015625 C 3.882812 -0.671875 3.644531 -0.398438 3.34375 -0.203125 C 3.039062 -0.00390625 2.691406 0.09375 2.296875 0.09375 Z M 3.671875 -2.234375 C 3.578125 -2.609375 3.40625 -2.890625 3.15625 -3.078125 C 2.90625 -3.265625 2.613281 -3.359375 2.28125 -3.359375 C 1.9375 -3.359375 1.644531 -3.265625 1.40625 -3.078125 C 1.175781 -2.890625 1.003906 -2.609375 0.890625 -2.234375 Z M 3.671875 -2.234375 "/></g></g></g><g fill="#1e1e1e" fill-opacity="1"><g transform="translate(24.761841, 8.626483)"><g><path d="M 2.265625 0.09375 C 1.910156 0.09375 1.585938 0.00390625 1.296875 -0.171875 C 1.003906 -0.347656 0.773438 -0.585938 0.609375 -0.890625 C 0.441406 -1.191406 0.359375 -1.519531 0.359375 -1.875 C 0.359375 -2.21875 0.441406 -2.535156 0.609375 -2.828125 C 0.785156 -3.128906 1.019531 -3.367188 1.3125 -3.546875 C 1.601562 -3.722656 1.925781 -3.8125 2.28125 -3.8125 C 2.582031 -3.8125 2.859375 -3.742188 3.109375 -3.609375 C 3.359375 -3.484375 3.578125 -3.289062 3.765625 -3.03125 L 3.765625 -5.15625 L 4.234375 -5.15625 L 4.234375 0 L 3.765625 0 L 3.765625 -0.640625 C 3.554688 -0.390625 3.328125 -0.203125 3.078125 -0.078125 C 2.828125 0.0351562 2.554688 0.09375 2.265625 0.09375 Z M 2.3125 -0.34375 C 2.5625 -0.34375 2.800781 -0.40625 3.03125 -0.53125 C 3.257812 -0.65625 3.441406 -0.828125 3.578125 -1.046875 C 3.710938 -1.273438 3.78125 -1.539062 3.78125 -1.84375 C 3.78125 -2.125 3.71875 -2.378906 3.59375 -2.609375 C 3.46875 -2.835938 3.289062 -3.019531 3.0625 -3.15625 C 2.84375 -3.289062 2.59375 -3.359375 2.3125 -3.359375 C 2.039062 -3.359375 1.789062 -3.285156 1.5625 -3.140625 C 1.332031 -3.003906 1.15625 -2.820312 1.03125 -2.59375 C 0.90625 -2.363281 0.84375 -2.117188 0.84375 -1.859375 C 0.84375 -1.585938 0.90625 -1.335938 1.03125 -1.109375 C 1.164062 -0.878906 1.34375 -0.691406 1.5625 -0.546875 C 1.789062 -0.410156 2.039062 -0.34375 2.3125 -0.34375 Z M 2.3125 -0.34375 "/></g></g></g><g fill="#1e1e1e" fill-opacity="1"><g transform="translate(29.55687, 8.626483)"><g/></g></g><g fill="#1e1e1e" fill-opacity="1"><g transform="translate(31.49588, 8.626483)"><g><path d="M 0.765625 -4.453125 C 0.660156 -4.453125 0.566406 -4.492188 0.484375 -4.578125 C 0.410156 -4.660156 0.375 -4.753906 0.375 -4.859375 C 0.375 -4.972656 0.410156 -5.066406 0.484375 -5.140625 C 0.566406 -5.210938 0.660156 -5.25 0.765625 -5.25 C 0.878906 -5.25 0.972656 -5.207031 1.046875 -5.125 C 1.128906 -5.050781 1.171875 -4.960938 1.171875 -4.859375 C 1.171875 -4.753906 1.128906 -4.660156 1.046875 -4.578125 C 0.972656 -4.492188 0.878906 -4.453125 0.765625 -4.453125 Z M 0.53125 -3.71875 L 1.015625 -3.71875 L 1.015625 0 L 0.53125 0 Z M 0.53125 -3.71875 "/></g></g></g><g fill="#1e1e1e" fill-opacity="1"><g transform="translate(33.042891, 8.626483)"><g><path d="M 1.03125 -3.71875 L 1.03125 -3.046875 C 1.414062 -3.554688 1.878906 -3.8125 2.421875 -3.8125 C 2.703125 -3.8125 2.945312 -3.75 3.15625 -3.625 C 3.363281 -3.5 3.523438 -3.304688 3.640625 -3.046875 C 3.753906 -2.785156 3.8125 -2.46875 3.8125 -2.09375 L 3.8125 0 L 3.328125 0 L 3.328125 -2.015625 C 3.328125 -2.472656 3.25 -2.8125 3.09375 -3.03125 C 2.9375 -3.257812 2.6875 -3.375 2.34375 -3.375 C 2.113281 -3.375 1.898438 -3.3125 1.703125 -3.1875 C 1.503906 -3.0625 1.34375 -2.878906 1.21875 -2.640625 C 1.09375 -2.398438 1.03125 -2.113281 1.03125 -1.78125 L 1.03125 0 L 0.5625 0 L 0.5625 -3.71875 Z M 1.03125 -3.71875 "/></g></g></g><g fill="#1e1e1e" fill-opacity="1"><g transform="translate(0.905718, 15.626473)"><g><path d="M 1.109375 -5.03125 L 1.109375 -0.484375 L 3.046875 -0.484375 L 3.046875 0 L 0.609375 0 L 0.609375 -5.03125 Z M 1.109375 -5.03125 "/></g></g></g><g fill="#1e1e1e" fill-opacity="1"><g transform="translate(4.139734, 15.626473)"><g><path d="M 2.296875 0.09375 C 1.929688 0.09375 1.597656 0.0078125 1.296875 -0.15625 C 1.003906 -0.332031 0.773438 -0.570312 0.609375 -0.875 C 0.441406 -1.175781 0.359375 -1.5 0.359375 -1.84375 C 0.359375 -2.195312 0.441406 -2.523438 0.609375 -2.828125 C 0.773438 -3.128906 1.003906 -3.367188 1.296875 -3.546875 C 1.597656 -3.722656 1.929688 -3.8125 2.296875 -3.8125 C 2.660156 -3.8125 2.988281 -3.722656 3.28125 -3.546875 C 3.582031 -3.367188 3.816406 -3.128906 3.984375 -2.828125 C 4.148438 -2.523438 4.234375 -2.195312 4.234375 -1.84375 C 4.234375 -1.5 4.148438 -1.175781 3.984375 -0.875 C 3.816406 -0.570312 3.582031 -0.332031 3.28125 -0.15625 C 2.988281 0.0078125 2.660156 0.09375 2.296875 0.09375 Z M 2.296875 -0.359375 C 2.566406 -0.359375 2.8125 -0.425781 3.03125 -0.5625 C 3.25 -0.695312 3.421875 -0.875 3.546875 -1.09375 C 3.679688 -1.320312 3.75 -1.570312 3.75 -1.84375 C 3.75 -2.113281 3.679688 -2.363281 3.546875 -2.59375 C 3.421875 -2.820312 3.242188 -3.003906 3.015625 -3.140625 C 2.796875 -3.285156 2.554688 -3.359375 2.296875 -3.359375 C 2.035156 -3.359375 1.789062 -3.285156 1.5625 -3.140625 C 1.34375 -3.003906 1.164062 -2.820312 1.03125 -2.59375 C 0.90625 -2.363281 0.84375 -2.113281 0.84375 -1.84375 C 0.84375 -1.570312 0.90625 -1.320312 1.03125 -1.09375 C 1.15625 -0.875 1.328125 -0.695312 1.546875 -0.5625 C 1.773438 -0.425781 2.023438 -0.359375 2.296875 -0.359375 Z M 2.296875 -0.359375 "/></g></g></g><g fill="#1e1e1e" fill-opacity="1"><g transform="translate(8.724764, 15.626473)"><g><path d="M 1.03125 -3.71875 L 1.03125 -3.046875 C 1.414062 -3.554688 1.878906 -3.8125 2.421875 -3.8125 C 2.703125 -3.8125 2.945312 -3.75 3.15625 -3.625 C 3.363281 -3.5 3.523438 -3.304688 3.640625 -3.046875 C 3.753906 -2.785156 3.8125 -2.46875 3.8125 -2.09375 L 3.8125 0 L 3.328125 0 L 3.328125 -2.015625 C 3.328125 -2.472656 3.25 -2.8125 3.09375 -3.03125 C 2.9375 -3.257812 2.6875 -3.375 2.34375 -3.375 C 2.113281 -3.375 1.898438 -3.3125 1.703125 -3.1875 C 1.503906 -3.0625 1.34375 -2.878906 1.21875 -2.640625 C 1.09375 -2.398438 1.03125 -2.113281 1.03125 -1.78125 L 1.03125 0 L 0.5625 0 L 0.5625 -3.71875 Z M 1.03125 -3.71875 "/></g></g></g><g fill="#1e1e1e" fill-opacity="1"><g transform="translate(13.022791, 15.626473)"><g><path d="M 2.265625 0.09375 C 1.910156 0.09375 1.585938 0.00390625 1.296875 -0.171875 C 1.003906 -0.347656 0.773438 -0.585938 0.609375 -0.890625 C 0.441406 -1.191406 0.359375 -1.519531 0.359375 -1.875 C 0.359375 -2.21875 0.441406 -2.535156 0.609375 -2.828125 C 0.785156 -3.128906 1.019531 -3.367188 1.3125 -3.546875 C 1.601562 -3.722656 1.925781 -3.8125 2.28125 -3.8125 C 2.582031 -3.8125 2.859375 -3.742188 3.109375 -3.609375 C 3.359375 -3.484375 3.578125 -3.289062 3.765625 -3.03125 L 3.765625 -5.15625 L 4.234375 -5.15625 L 4.234375 0 L 3.765625 0 L 3.765625 -0.640625 C 3.554688 -0.390625 3.328125 -0.203125 3.078125 -0.078125 C 2.828125 0.0351562 2.554688 0.09375 2.265625 0.09375 Z M 2.3125 -0.34375 C 2.5625 -0.34375 2.800781 -0.40625 3.03125 -0.53125 C 3.257812 -0.65625 3.441406 -0.828125 3.578125 -1.046875 C 3.710938 -1.273438 3.78125 -1.539062 3.78125 -1.84375 C 3.78125 -2.125 3.71875 -2.378906 3.59375 -2.609375 C 3.46875 -2.835938 3.289062 -3.019531 3.0625 -3.15625 C 2.84375 -3.289062 2.59375 -3.359375 2.3125 -3.359375 C 2.039062 -3.359375 1.789062 -3.285156 1.5625 -3.140625 C 1.332031 -3.003906 1.15625 -2.820312 1.03125 -2.59375 C 0.90625 -2.363281 0.84375 -2.117188 0.84375 -1.859375 C 0.84375 -1.585938 0.90625 -1.335938 1.03125 -1.109375 C 1.164062 -0.878906 1.34375 -0.691406 1.5625 -0.546875 C 1.789062 -0.410156 2.039062 -0.34375 2.3125 -0.34375 Z M 2.3125 -0.34375 "/></g></g></g><g fill="#1e1e1e" fill-opacity="1"><g transform="translate(17.81782, 15.626473)"><g><path d="M 2.296875 0.09375 C 1.929688 0.09375 1.597656 0.0078125 1.296875 -0.15625 C 1.003906 -0.332031 0.773438 -0.570312 0.609375 -0.875 C 0.441406 -1.175781 0.359375 -1.5 0.359375 -1.84375 C 0.359375 -2.195312 0.441406 -2.523438 0.609375 -2.828125 C 0.773438 -3.128906 1.003906 -3.367188 1.296875 -3.546875 C 1.597656 -3.722656 1.929688 -3.8125 2.296875 -3.8125 C 2.660156 -3.8125 2.988281 -3.722656 3.28125 -3.546875 C 3.582031 -3.367188 3.816406 -3.128906 3.984375 -2.828125 C 4.148438 -2.523438 4.234375 -2.195312 4.234375 -1.84375 C 4.234375 -1.5 4.148438 -1.175781 3.984375 -0.875 C 3.816406 -0.570312 3.582031 -0.332031 3.28125 -0.15625 C 2.988281 0.0078125 2.660156 0.09375 2.296875 0.09375 Z M 2.296875 -0.359375 C 2.566406 -0.359375 2.8125 -0.425781 3.03125 -0.5625 C 3.25 -0.695312 3.421875 -0.875 3.546875 -1.09375 C 3.679688 -1.320312 3.75 -1.570312 3.75 -1.84375 C 3.75 -2.113281 3.679688 -2.363281 3.546875 -2.59375 C 3.421875 -2.820312 3.242188 -3.003906 3.015625 -3.140625 C 2.796875 -3.285156 2.554688 -3.359375 2.296875 -3.359375 C 2.035156 -3.359375 1.789062 -3.285156 1.5625 -3.140625 C 1.34375 -3.003906 1.164062 -2.820312 1.03125 -2.59375 C 0.90625 -2.363281 0.84375 -2.113281 0.84375 -1.84375 C 0.84375 -1.570312 0.90625 -1.320312 1.03125 -1.09375 C 1.15625 -0.875 1.328125 -0.695312 1.546875 -0.5625 C 1.773438 -0.425781 2.023438 -0.359375 2.296875 -0.359375 Z M 2.296875 -0.359375 "/></g></g></g><g fill="#1e1e1e" fill-opacity="1"><g transform="translate(22.40285, 15.626473)"><g><path d="M 1.03125 -3.71875 L 1.03125 -3.046875 C 1.414062 -3.554688 1.878906 -3.8125 2.421875 -3.8125 C 2.703125 -3.8125 2.945312 -3.75 3.15625 -3.625 C 3.363281 -3.5 3.523438 -3.304688 3.640625 -3.046875 C 3.753906 -2.785156 3.8125 -2.46875 3.8125 -2.09375 L 3.8125 0 L 3.328125 0 L 3.328125 -2.015625 C 3.328125 -2.472656 3.25 -2.8125 3.09375 -3.03125 C 2.9375 -3.257812 2.6875 -3.375 2.34375 -3.375 C 2.113281 -3.375 1.898438 -3.3125 1.703125 -3.1875 C 1.503906 -3.0625 1.34375 -2.878906 1.21875 -2.640625 C 1.09375 -2.398438 1.03125 -2.113281 1.03125 -1.78125 L 1.03125 0 L 0.5625 0 L 0.5625 -3.71875 Z M 1.03125 -3.71875 "/></g></g></g><g fill="#1e1e1e" fill-opacity="1"><g transform="translate(26.700877, 15.626473)"><g/></g></g><g fill="#1e1e1e" fill-opacity="1"><g transform="translate(28.639886, 15.626473)"><g><path d="M 3.09375 0.125 C 2.550781 0.125 2.070312 0.00390625 1.65625 -0.234375 C 1.25 -0.472656 0.9375 -0.789062 0.71875 -1.1875 C 0.5 -1.59375 0.390625 -2.046875 0.390625 -2.546875 C 0.390625 -3.035156 0.503906 -3.476562 0.734375 -3.875 C 0.972656 -4.269531 1.296875 -4.582031 1.703125 -4.8125 C 2.117188 -5.039062 2.582031 -5.15625 3.09375 -5.15625 C 3.550781 -5.15625 3.96875 -5.0625 4.34375 -4.875 C 4.71875 -4.695312 5.023438 -4.4375 5.265625 -4.09375 L 4.875 -3.796875 C 4.65625 -4.078125 4.394531 -4.289062 4.09375 -4.4375 C 3.789062 -4.582031 3.460938 -4.65625 3.109375 -4.65625 C 2.710938 -4.65625 2.347656 -4.5625 2.015625 -4.375 C 1.679688 -4.195312 1.414062 -3.941406 1.21875 -3.609375 C 1.019531 -3.285156 0.921875 -2.914062 0.921875 -2.5 C 0.921875 -2.09375 1.015625 -1.722656 1.203125 -1.390625 C 1.398438 -1.066406 1.664062 -0.8125 2 -0.625 C 2.34375 -0.4375 2.722656 -0.34375 3.140625 -0.34375 C 3.484375 -0.34375 3.800781 -0.410156 4.09375 -0.546875 C 4.394531 -0.691406 4.664062 -0.898438 4.90625 -1.171875 L 5.296875 -0.875 C 5.035156 -0.550781 4.71875 -0.300781 4.34375 -0.125 C 3.96875 0.0390625 3.550781 0.125 3.09375 0.125 Z M 3.09375 0.125 "/></g></g></g><g fill="#1e1e1e" fill-opacity="1"><g transform="translate(34.337916, 15.626473)"><g><path d="M 0.765625 -4.453125 C 0.660156 -4.453125 0.566406 -4.492188 0.484375 -4.578125 C 0.410156 -4.660156 0.375 -4.753906 0.375 -4.859375 C 0.375 -4.972656 0.410156 -5.066406 0.484375 -5.140625 C 0.566406 -5.210938 0.660156 -5.25 0.765625 -5.25 C 0.878906 -5.25 0.972656 -5.207031 1.046875 -5.125 C 1.128906 -5.050781 1.171875 -4.960938 1.171875 -4.859375 C 1.171875 -4.753906 1.128906 -4.660156 1.046875 -4.578125 C 0.972656 -4.492188 0.878906 -4.453125 0.765625 -4.453125 Z M 0.53125 -3.71875 L 1.015625 -3.71875 L 1.015625 0 L 0.53125 0 Z M 0.53125 -3.71875 "/></g></g></g><g fill="#1e1e1e" fill-opacity="1"><g transform="translate(35.884928, 15.626473)"><g><path d="M 0.953125 -3.296875 L 0.296875 -3.296875 L 0.296875 -3.71875 L 0.953125 -3.71875 L 0.953125 -5.109375 L 1.4375 -5.109375 L 1.4375 -3.71875 L 2.203125 -3.71875 L 2.203125 -3.296875 L 1.4375 -3.296875 L 1.4375 0 L 0.953125 0 Z M 0.953125 -3.296875 "/></g></g></g><g fill="#1e1e1e" fill-opacity="1"><g transform="translate(38.257938, 15.626473)"><g><path d="M 3.171875 -3.71875 L 3.671875 -3.71875 L 1.453125 1.359375 L 0.9375 1.359375 L 1.671875 -0.25 L 0.140625 -3.71875 L 0.625 -3.71875 L 1.90625 -0.796875 Z M 3.171875 -3.71875 "/></g></g></g></g></g><g clip-path="url(#338ad6a008)"><g clip-path="url(#327d35fc03)"><g clip-path="url(#c0948cab5e)"><g clip-path="url(#c5e708f9f3)"><path stroke-linecap="butt" transform="matrix(0.61819, 0.424666, -0.424666, 0.61819, 176.009379, 57.094244)" fill="none" stroke-linejoin="miter" d="M 90.008133 -0.00193361 C 40.298442 -0.000930179 -0.000524933 40.301176 -0.00247057 90.006573 C -0.00146715 139.716263 40.300639 180.015231 90.006036 180.017176 C 139.715727 180.016173 180.017643 139.71836 180.016639 90.00867 C 180.015636 40.298979 139.717823 -0.00293703 90.008133 -0.00193361 Z M 90.008133 -0.00193361 " stroke="#1e1e1e" stroke-width="86" stroke-opacity="1" stroke-miterlimit="4"/></g></g></g></g><g clip-path="url(#0eadb9bd3a)"><g clip-path="url(#721d59171f)"><g clip-path="url(#5a7a2427d8)"><path fill="#1e1e1e" d="M 247.460938 259.671875 C 237.855469 273.652344 223.378906 283.058594 206.699219 286.15625 C 190.019531 289.25 173.132812 285.664062 159.148438 276.058594 C 145.167969 266.453125 135.761719 251.976562 132.664062 235.296875 C 129.570312 218.617188 133.15625 201.730469 142.761719 187.75 L 169.714844 206.261719 C 160.09375 220.269531 163.660156 239.488281 177.664062 249.105469 C 191.667969 258.726562 210.886719 255.160156 220.507812 241.15625 C 227.695312 230.695312 227.78125 217.117188 220.730469 206.566406 L 247.914062 188.398438 C 254.894531 198.839844 258.597656 211.015625 258.625 223.609375 C 258.65625 236.523438 254.792969 248.996094 247.460938 259.671875 Z M 247.460938 259.671875 " fill-opacity="1" fill-rule="nonzero"/></g></g></g><g clip-path="url(#09c0ef110f)"><g clip-path="url(#9bccd50948)"><g clip-path="url(#63fc65476d)"><g transform="matrix(1, 0, 0, 1, 209, 172)"><g clip-path="url(#da8a0fb173)"><g clip-path="url(#d245e50676)"><g clip-path="url(#519aaa5fc1)"><g clip-path="url(#cc84019c93)"><path fill="#d64238" d="M 15.1875 -6.710938 L 47.023438 15.160156 L 25.152344 46.996094 L -6.683594 25.125 Z M 15.1875 -6.710938 " fill-opacity="1" fill-rule="nonzero"/></g></g></g></g></g></g></g></g><g fill="#1e1e1e" fill-opacity="1"><g transform="translate(147.909309, 182.923426)"><g><path d="M 1.75 4.21875 C 1.03125 3.71875 0.535156 3.171875 0.265625 2.578125 C 0.00390625 1.984375 -0.0234375 1.351562 0.171875 0.6875 L 1.625 1.6875 C 1.65625 1.9375 1.742188 2.164062 1.890625 2.375 C 2.035156 2.582031 2.25 2.78125 2.53125 2.96875 C 3.019531 3.3125 3.457031 3.453125 3.84375 3.390625 C 4.226562 3.335938 4.566406 3.09375 4.859375 2.65625 L 5 2.46875 C 4.625 2.53125 4.269531 2.53125 3.9375 2.46875 C 3.613281 2.40625 3.289062 2.257812 2.96875 2.03125 C 2.488281 1.707031 2.132812 1.296875 1.90625 0.796875 C 1.6875 0.296875 1.609375 -0.234375 1.671875 -0.796875 C 1.734375 -1.359375 1.941406 -1.894531 2.296875 -2.40625 C 2.648438 -2.925781 3.078125 -3.316406 3.578125 -3.578125 C 4.078125 -3.835938 4.59375 -3.953125 5.125 -3.921875 C 5.65625 -3.890625 6.144531 -3.71875 6.59375 -3.40625 C 6.90625 -3.1875 7.148438 -2.925781 7.328125 -2.625 C 7.515625 -2.320312 7.660156 -1.960938 7.765625 -1.546875 L 8.15625 -2.125 L 9.46875 -1.21875 L 6.375 3.28125 C 5.738281 4.207031 5.039062 4.753906 4.28125 4.921875 C 3.519531 5.085938 2.675781 4.851562 1.75 4.21875 Z M 4.03125 1 C 4.300781 1.1875 4.582031 1.289062 4.875 1.3125 C 5.175781 1.332031 5.46875 1.273438 5.75 1.140625 C 6.03125 1.003906 6.269531 0.789062 6.46875 0.5 C 6.65625 0.207031 6.765625 -0.0859375 6.796875 -0.390625 C 6.835938 -0.703125 6.796875 -1 6.671875 -1.28125 C 6.546875 -1.5625 6.34375 -1.800781 6.0625 -2 C 5.769531 -2.195312 5.46875 -2.300781 5.15625 -2.3125 C 4.851562 -2.320312 4.566406 -2.25 4.296875 -2.09375 C 4.023438 -1.945312 3.796875 -1.738281 3.609375 -1.46875 C 3.421875 -1.1875 3.3125 -0.890625 3.28125 -0.578125 C 3.25 -0.265625 3.296875 0.0234375 3.421875 0.296875 C 3.554688 0.578125 3.757812 0.8125 4.03125 1 Z M 4.03125 1 "/></g></g></g><g fill="#1e1e1e" fill-opacity="1"><g transform="translate(154.437415, 187.407907)"><g><path d="M 5.40625 -4.015625 L 4.953125 -3.34375 C 5.253906 -3.53125 5.550781 -3.625 5.84375 -3.625 C 6.132812 -3.625 6.390625 -3.546875 6.609375 -3.390625 C 6.816406 -3.242188 6.976562 -3.066406 7.09375 -2.859375 L 5.90625 -2.015625 C 5.8125 -2.179688 5.707031 -2.304688 5.59375 -2.390625 C 5.382812 -2.535156 5.128906 -2.523438 4.828125 -2.359375 C 4.523438 -2.203125 4.203125 -1.875 3.859375 -1.375 L 1.984375 1.359375 L 0.65625 0.453125 L 4.265625 -4.796875 Z M 5.40625 -4.015625 "/></g></g></g><g fill="#1e1e1e" fill-opacity="1"><g transform="translate(157.909178, 189.792834)"><g><path d="M 2.796875 2.125 C 2.359375 1.832031 2.023438 1.429688 1.796875 0.921875 C 1.578125 0.421875 1.5 -0.113281 1.5625 -0.6875 C 1.632812 -1.269531 1.851562 -1.820312 2.21875 -2.34375 C 2.582031 -2.875 3.015625 -3.273438 3.515625 -3.546875 C 4.023438 -3.828125 4.546875 -3.953125 5.078125 -3.921875 C 5.617188 -3.898438 6.117188 -3.734375 6.578125 -3.421875 C 7.203125 -2.984375 7.585938 -2.363281 7.734375 -1.5625 L 8.125 -2.140625 L 9.4375 -1.25 L 5.828125 4 L 4.515625 3.109375 L 4.890625 2.5625 C 4.492188 2.625 4.128906 2.625 3.796875 2.5625 C 3.460938 2.5 3.128906 2.351562 2.796875 2.125 Z M 3.859375 1.09375 C 4.140625 1.28125 4.429688 1.382812 4.734375 1.40625 C 5.046875 1.425781 5.347656 1.359375 5.640625 1.203125 C 5.929688 1.054688 6.179688 0.828125 6.390625 0.515625 C 6.597656 0.210938 6.71875 -0.0976562 6.75 -0.421875 C 6.789062 -0.742188 6.742188 -1.046875 6.609375 -1.328125 C 6.484375 -1.609375 6.28125 -1.84375 6 -2.03125 C 5.71875 -2.226562 5.425781 -2.332031 5.125 -2.34375 C 4.820312 -2.351562 4.53125 -2.273438 4.25 -2.109375 C 3.96875 -1.953125 3.726562 -1.726562 3.53125 -1.4375 C 3.320312 -1.144531 3.195312 -0.835938 3.15625 -0.515625 C 3.125 -0.191406 3.164062 0.109375 3.28125 0.390625 C 3.40625 0.671875 3.597656 0.90625 3.859375 1.09375 Z M 3.859375 1.09375 "/></g></g></g><g fill="#1e1e1e" fill-opacity="1"><g transform="translate(164.407608, 194.256929)"><g><path d="M 5.59375 -3.890625 L 5.21875 -3.359375 C 5.632812 -3.390625 6.003906 -3.378906 6.328125 -3.328125 C 6.648438 -3.273438 6.953125 -3.15625 7.234375 -2.96875 C 7.566406 -2.738281 7.816406 -2.457031 7.984375 -2.125 C 8.160156 -1.789062 8.234375 -1.429688 8.203125 -1.046875 C 8.179688 -0.671875 8.046875 -0.300781 7.796875 0.0625 L 5.328125 3.65625 L 4.015625 2.765625 L 5.71875 0.28125 C 5.988281 -0.113281 6.1875 -0.441406 6.3125 -0.703125 C 6.4375 -0.960938 6.476562 -1.203125 6.4375 -1.421875 C 6.40625 -1.648438 6.257812 -1.851562 6 -2.03125 C 5.78125 -2.1875 5.539062 -2.257812 5.28125 -2.25 C 5.03125 -2.25 4.769531 -2.164062 4.5 -2 C 4.238281 -1.832031 3.992188 -1.578125 3.765625 -1.234375 L 1.984375 1.359375 L 0.65625 0.453125 L 4.265625 -4.796875 Z M 5.59375 -3.890625 "/></g></g></g><g fill="#1e1e1e" fill-opacity="1"><g transform="translate(170.342247, 198.333728)"><g><path d="M 2.796875 2.125 C 2.359375 1.832031 2.023438 1.429688 1.796875 0.921875 C 1.578125 0.421875 1.5 -0.113281 1.5625 -0.6875 C 1.632812 -1.269531 1.851562 -1.820312 2.21875 -2.34375 C 2.582031 -2.875 3.015625 -3.273438 3.515625 -3.546875 C 4.023438 -3.828125 4.546875 -3.953125 5.078125 -3.921875 C 5.617188 -3.898438 6.117188 -3.734375 6.578125 -3.421875 C 7.203125 -2.984375 7.585938 -2.363281 7.734375 -1.5625 L 9.515625 -4.171875 L 10.828125 -3.28125 L 5.828125 4 L 4.515625 3.109375 L 4.890625 2.5625 C 4.492188 2.625 4.128906 2.625 3.796875 2.5625 C 3.460938 2.5 3.128906 2.351562 2.796875 2.125 Z M 3.859375 1.09375 C 4.140625 1.28125 4.429688 1.382812 4.734375 1.40625 C 5.046875 1.425781 5.347656 1.359375 5.640625 1.203125 C 5.929688 1.054688 6.179688 0.828125 6.390625 0.515625 C 6.597656 0.210938 6.71875 -0.0976562 6.75 -0.421875 C 6.789062 -0.742188 6.742188 -1.046875 6.609375 -1.328125 C 6.484375 -1.609375 6.28125 -1.84375 6 -2.03125 C 5.71875 -2.226562 5.425781 -2.332031 5.125 -2.34375 C 4.820312 -2.351562 4.53125 -2.273438 4.25 -2.109375 C 3.96875 -1.953125 3.726562 -1.726562 3.53125 -1.4375 C 3.320312 -1.144531 3.195312 -0.835938 3.15625 -0.515625 C 3.125 -0.191406 3.164062 0.109375 3.28125 0.390625 C 3.40625 0.671875 3.597656 0.90625 3.859375 1.09375 Z M 3.859375 1.09375 "/></g></g></g><g fill="#1e1e1e" fill-opacity="1"><g transform="translate(176.850563, 202.804613)"><g><path d="M 3.046875 2.296875 C 2.492188 1.921875 2.09375 1.46875 1.84375 0.9375 C 1.601562 0.414062 1.515625 -0.128906 1.578125 -0.703125 C 1.648438 -1.285156 1.863281 -1.832031 2.21875 -2.34375 C 2.539062 -2.820312 2.957031 -3.195312 3.46875 -3.46875 C 3.976562 -3.75 4.53125 -3.875 5.125 -3.84375 C 5.71875 -3.820312 6.285156 -3.617188 6.828125 -3.234375 C 7.367188 -2.867188 7.769531 -2.414062 8.03125 -1.875 C 8.289062 -1.34375 8.382812 -0.78125 8.3125 -0.1875 C 8.25 0.40625 8.03125 0.976562 7.65625 1.53125 C 7.570312 1.632812 7.503906 1.726562 7.453125 1.8125 L 3.21875 -1.078125 C 3.019531 -0.660156 2.976562 -0.253906 3.09375 0.140625 C 3.21875 0.535156 3.46875 0.863281 3.84375 1.125 C 4.144531 1.332031 4.4375 1.46875 4.71875 1.53125 C 5 1.59375 5.332031 1.601562 5.71875 1.5625 L 6.125 2.96875 C 5.082031 3.207031 4.054688 2.984375 3.046875 2.296875 Z M 6.828125 -0.125 C 6.953125 -0.488281 6.945312 -0.847656 6.8125 -1.203125 C 6.6875 -1.566406 6.441406 -1.875 6.078125 -2.125 C 5.753906 -2.34375 5.410156 -2.453125 5.046875 -2.453125 C 4.691406 -2.460938 4.332031 -2.34375 3.96875 -2.09375 Z M 6.828125 -0.125 "/></g></g></g></svg>