<svg xmlns="http://www.w3.org/2000/svg" xmlns:xlink="http://www.w3.org/1999/xlink" width="500" zoomAndPan="magnify" viewBox="0 0 375 374.999991" height="500" preserveAspectRatio="xMidYMid meet" version="1.0"><defs><g/><clipPath id="9b372b485d"><rect x="0" width="124" y="0" height="105"/></clipPath><clipPath id="af67e0eb6e"><rect x="0" width="159" y="0" height="82"/></clipPath></defs><rect x="-37.5" width="450" fill="#ffffff" y="-37.499999" height="449.999989" fill-opacity="1"/><rect x="-37.5" width="450" fill="#eeede9" y="-37.499999" height="449.999989" fill-opacity="1"/><g transform="matrix(1, 0, 0, 1, 201, 125)"><g clip-path="url(#9b372b485d)"><g fill="#1b1b1b" fill-opacity="1"><g transform="translate(0.332089, 84.867141)"><g><path d="M 3.6875 -37.4375 L 14.71875 -37.4375 L 14.71875 -31.984375 L 15.28125 -31.984375 C 16.082031 -33.734375 17.390625 -35.207031 19.203125 -36.40625 C 21.023438 -37.613281 23.234375 -38.21875 25.828125 -38.21875 C 30.734375 -38.21875 34.128906 -36.671875 36.015625 -33.578125 C 37.898438 -30.484375 38.84375 -27.03125 38.84375 -23.21875 L 38.84375 0 L 27.8125 0 L 27.8125 -21.296875 C 27.8125 -23.753906 27.269531 -25.6875 26.1875 -27.09375 C 25.101562 -28.507812 23.5 -29.21875 21.375 -29.21875 C 19.101562 -29.21875 17.425781 -28.472656 16.34375 -26.984375 C 15.257812 -25.503906 14.71875 -23.609375 14.71875 -21.296875 L 14.71875 0 L 3.6875 0 Z M 3.6875 -37.4375 "/></g></g></g><g fill="#1b1b1b" fill-opacity="1"><g transform="translate(36.987552, 84.867141)"><g><path d="M 3.609375 -8.703125 L 20.453125 -28.796875 L 20.453125 -28.9375 L 4.25 -28.9375 L 4.25 -37.578125 L 32.125 -37.578125 L 32.125 -28.9375 L 15.28125 -8.84375 L 15.28125 -8.640625 L 32.125 -8.640625 L 32.125 0 L 3.609375 0 Z M 3.609375 -8.703125 "/></g></g></g><g fill="#1b1b1b" fill-opacity="1"><g transform="translate(66.212851, 84.867141)"><g><path d="M 16.765625 0.640625 C 12.148438 0.640625 8.578125 -1.113281 6.046875 -4.625 C 3.523438 -8.144531 2.265625 -12.851562 2.265625 -18.75 C 2.265625 -24.695312 3.5625 -29.425781 6.15625 -32.9375 C 8.75 -36.457031 12.332031 -38.21875 16.90625 -38.21875 C 20.070312 -38.21875 22.503906 -37.519531 24.203125 -36.125 C 25.898438 -34.726562 27.078125 -33.328125 27.734375 -31.921875 L 28.3125 -31.921875 L 28.3125 -37.4375 L 39.421875 -37.4375 L 39.421875 0 L 28.3125 0 L 28.3125 -6.015625 L 27.734375 -6.015625 C 27.023438 -4.503906 25.8125 -3.015625 24.09375 -1.546875 C 22.375 -0.0859375 19.929688 0.640625 16.765625 0.640625 Z M 20.953125 -8.203125 C 23.453125 -8.203125 25.3125 -9.25 26.53125 -11.34375 C 27.757812 -13.445312 28.375 -15.941406 28.375 -18.828125 C 28.375 -21.648438 27.757812 -24.113281 26.53125 -26.21875 C 25.3125 -28.320312 23.453125 -29.375 20.953125 -29.375 C 18.347656 -29.375 16.445312 -28.347656 15.25 -26.296875 C 14.050781 -24.242188 13.453125 -21.773438 13.453125 -18.890625 C 13.453125 -15.960938 14.050781 -13.445312 15.25 -11.34375 C 16.445312 -9.25 18.347656 -8.203125 20.953125 -8.203125 Z M 20.953125 -8.203125 "/></g></g></g><g fill="#1b1b1b" fill-opacity="1"><g transform="translate(104.142059, 84.867141)"><g><path d="M 11.890625 0.640625 C 10.140625 0.640625 8.695312 0.0507812 7.5625 -1.125 C 6.4375 -2.3125 5.875 -3.753906 5.875 -5.453125 C 5.875 -7.148438 6.4375 -8.578125 7.5625 -9.734375 C 8.695312 -10.890625 10.140625 -11.46875 11.890625 -11.46875 C 13.628906 -11.46875 15.078125 -10.890625 16.234375 -9.734375 C 17.390625 -8.578125 17.96875 -7.148438 17.96875 -5.453125 C 17.96875 -3.753906 17.378906 -2.3125 16.203125 -1.125 C 15.023438 0.0507812 13.585938 0.640625 11.890625 0.640625 Z M 11.890625 0.640625 "/></g></g></g></g></g><g fill="#1b1b1b" fill-opacity="1"><g transform="translate(164.795458, 237.3358)"><g><path d="M 2.796875 0.078125 C 2.296875 0.078125 1.859375 -0.0195312 1.484375 -0.21875 C 1.117188 -0.414062 0.84375 -0.671875 0.65625 -0.984375 C 0.46875 -1.304688 0.375 -1.644531 0.375 -2 L 0.375 -2.0625 L 1.90625 -2.0625 L 1.90625 -2 C 1.90625 -1.789062 1.984375 -1.59375 2.140625 -1.40625 C 2.296875 -1.226562 2.523438 -1.140625 2.828125 -1.140625 C 3.085938 -1.140625 3.296875 -1.203125 3.453125 -1.328125 C 3.609375 -1.460938 3.6875 -1.640625 3.6875 -1.859375 C 3.6875 -2.054688 3.613281 -2.210938 3.46875 -2.328125 C 3.332031 -2.441406 3.164062 -2.519531 2.96875 -2.5625 L 2.25 -2.703125 C 1.832031 -2.804688 1.4375 -2.988281 1.0625 -3.25 C 0.695312 -3.507812 0.515625 -3.941406 0.515625 -4.546875 C 0.515625 -4.929688 0.609375 -5.265625 0.796875 -5.546875 C 0.992188 -5.828125 1.257812 -6.039062 1.59375 -6.1875 C 1.925781 -6.34375 2.304688 -6.421875 2.734375 -6.421875 C 3.222656 -6.421875 3.644531 -6.328125 4 -6.140625 C 4.351562 -5.960938 4.617188 -5.722656 4.796875 -5.421875 C 4.972656 -5.128906 5.0625 -4.816406 5.0625 -4.484375 L 5.0625 -4.453125 L 3.53125 -4.453125 L 3.53125 -4.46875 C 3.53125 -4.664062 3.460938 -4.84375 3.328125 -5 C 3.191406 -5.164062 2.976562 -5.25 2.6875 -5.25 C 2.457031 -5.25 2.273438 -5.1875 2.140625 -5.0625 C 2.003906 -4.9375 1.9375 -4.773438 1.9375 -4.578125 C 1.9375 -4.378906 2.007812 -4.222656 2.15625 -4.109375 C 2.3125 -3.992188 2.492188 -3.914062 2.703125 -3.875 L 3.421875 -3.703125 C 3.898438 -3.609375 4.304688 -3.414062 4.640625 -3.125 C 4.972656 -2.84375 5.140625 -2.4375 5.140625 -1.90625 C 5.140625 -1.507812 5.035156 -1.160156 4.828125 -0.859375 C 4.628906 -0.554688 4.351562 -0.320312 4 -0.15625 C 3.644531 0 3.242188 0.078125 2.796875 0.078125 Z M 2.796875 0.078125 "/></g></g></g><g fill="#1b1b1b" fill-opacity="1"><g transform="translate(169.817503, 237.3358)"><g><path d="M 0.53125 -6.296875 L 1.9375 -6.296875 L 1.9375 0 L 0.53125 0 Z M 0.53125 -6.296875 "/></g></g></g><g fill="#1b1b1b" fill-opacity="1"><g transform="translate(171.887533, 237.3358)"><g><path d="M 0.46875 -6.296875 L 2.09375 -6.296875 L 4.40625 -2.15625 L 4.421875 -2.15625 L 4.421875 -6.296875 L 5.8125 -6.296875 L 5.8125 0.015625 L 4.171875 0.015625 L 1.875 -3.984375 L 1.859375 -3.984375 L 1.859375 0.015625 L 0.46875 0.015625 Z M 0.46875 -6.296875 "/></g></g></g><g fill="#1b1b1b" fill-opacity="1"><g transform="translate(177.674581, 237.3358)"><g><path d="M 3.234375 0.078125 C 2.628906 0.078125 2.109375 -0.0664062 1.671875 -0.359375 C 1.234375 -0.660156 0.898438 -1.054688 0.671875 -1.546875 C 0.453125 -2.046875 0.34375 -2.585938 0.34375 -3.171875 C 0.34375 -3.753906 0.453125 -4.289062 0.671875 -4.78125 C 0.898438 -5.28125 1.234375 -5.675781 1.671875 -5.96875 C 2.109375 -6.269531 2.628906 -6.421875 3.234375 -6.421875 C 3.972656 -6.421875 4.570312 -6.203125 5.03125 -5.765625 C 5.5 -5.335938 5.804688 -4.785156 5.953125 -4.109375 L 4.59375 -4.109375 C 4.519531 -4.421875 4.363281 -4.679688 4.125 -4.890625 C 3.882812 -5.097656 3.59375 -5.203125 3.25 -5.203125 C 2.769531 -5.203125 2.40625 -5.015625 2.15625 -4.640625 C 1.914062 -4.265625 1.796875 -3.773438 1.796875 -3.171875 C 1.796875 -2.566406 1.914062 -2.078125 2.15625 -1.703125 C 2.40625 -1.328125 2.769531 -1.140625 3.25 -1.140625 C 3.59375 -1.140625 3.878906 -1.238281 4.109375 -1.4375 C 4.335938 -1.644531 4.492188 -1.890625 4.578125 -2.171875 L 5.90625 -2.171875 C 5.78125 -1.515625 5.484375 -0.972656 5.015625 -0.546875 C 4.546875 -0.128906 3.953125 0.078125 3.234375 0.078125 Z M 3.234375 0.078125 "/></g></g></g><g fill="#1b1b1b" fill-opacity="1"><g transform="translate(183.434632, 237.3358)"><g><path d="M 1.875 -5.078125 L 1.875 -3.734375 L 4.28125 -3.734375 L 4.28125 -2.640625 L 1.875 -2.640625 L 1.875 -1.21875 L 4.71875 -1.21875 L 4.71875 0 L 0.46875 0 L 0.46875 -6.296875 L 4.71875 -6.296875 L 4.71875 -5.078125 Z M 1.875 -5.078125 "/></g></g></g><g fill="#1b1b1b" fill-opacity="1"><g transform="translate(188.03368, 237.3358)"><g/></g></g><g fill="#1b1b1b" fill-opacity="1"><g transform="translate(189.608708, 237.3358)"><g><path d="M 0.5 -1.1875 L 1.328125 -1.90625 C 1.421875 -1.976562 1.507812 -2.050781 1.59375 -2.125 C 1.6875 -2.195312 1.773438 -2.265625 1.859375 -2.328125 C 2.265625 -2.648438 2.570312 -2.910156 2.78125 -3.109375 C 3 -3.304688 3.175781 -3.515625 3.3125 -3.734375 C 3.457031 -3.953125 3.53125 -4.175781 3.53125 -4.40625 C 3.53125 -4.632812 3.457031 -4.828125 3.3125 -4.984375 C 3.175781 -5.148438 2.96875 -5.234375 2.6875 -5.234375 C 2.332031 -5.234375 2.097656 -5.128906 1.984375 -4.921875 C 1.867188 -4.710938 1.8125 -4.5 1.8125 -4.28125 L 1.8125 -4.15625 L 0.4375 -4.15625 C 0.4375 -4.632812 0.53125 -5.046875 0.71875 -5.390625 C 0.914062 -5.734375 1.179688 -5.992188 1.515625 -6.171875 C 1.847656 -6.347656 2.226562 -6.4375 2.65625 -6.4375 C 3.113281 -6.4375 3.503906 -6.347656 3.828125 -6.171875 C 4.160156 -6.003906 4.410156 -5.773438 4.578125 -5.484375 C 4.753906 -5.191406 4.84375 -4.859375 4.84375 -4.484375 C 4.84375 -4.140625 4.769531 -3.828125 4.625 -3.546875 C 4.488281 -3.265625 4.320312 -3.019531 4.125 -2.8125 C 3.925781 -2.613281 3.671875 -2.382812 3.359375 -2.125 L 3.15625 -1.96875 L 2.328125 -1.265625 L 2.328125 -1.21875 L 4.890625 -1.21875 L 4.890625 0 L 0.5 0 Z M 0.5 -1.1875 "/></g></g></g><g fill="#1b1b1b" fill-opacity="1"><g transform="translate(194.495758, 237.3358)"><g><path d="M 2.8125 0.140625 C 1.96875 0.140625 1.34375 -0.128906 0.9375 -0.671875 C 0.53125 -1.210938 0.328125 -1.929688 0.328125 -2.828125 L 0.328125 -3.484375 C 0.328125 -4.378906 0.53125 -5.09375 0.9375 -5.625 C 1.34375 -6.15625 1.96875 -6.421875 2.8125 -6.421875 C 3.644531 -6.421875 4.265625 -6.15625 4.671875 -5.625 C 5.078125 -5.09375 5.28125 -4.378906 5.28125 -3.484375 L 5.28125 -2.828125 C 5.28125 -1.929688 5.078125 -1.210938 4.671875 -0.671875 C 4.265625 -0.128906 3.644531 0.140625 2.8125 0.140625 Z M 2.8125 -1.078125 C 3.132812 -1.078125 3.363281 -1.21875 3.5 -1.5 C 3.632812 -1.78125 3.703125 -2.195312 3.703125 -2.75 L 3.703125 -3.578125 C 3.703125 -4.117188 3.632812 -4.523438 3.5 -4.796875 C 3.363281 -5.078125 3.132812 -5.21875 2.8125 -5.21875 C 2.488281 -5.21875 2.253906 -5.078125 2.109375 -4.796875 C 1.972656 -4.523438 1.90625 -4.117188 1.90625 -3.578125 L 1.90625 -2.75 C 1.90625 -2.195312 1.972656 -1.78125 2.109375 -1.5 C 2.253906 -1.21875 2.488281 -1.078125 2.8125 -1.078125 Z M 2.8125 -1.078125 "/></g></g></g><g fill="#1b1b1b" fill-opacity="1"><g transform="translate(199.643802, 237.3358)"><g><path d="M 0.5 -1.1875 L 1.328125 -1.90625 C 1.421875 -1.976562 1.507812 -2.050781 1.59375 -2.125 C 1.6875 -2.195312 1.773438 -2.265625 1.859375 -2.328125 C 2.265625 -2.648438 2.570312 -2.910156 2.78125 -3.109375 C 3 -3.304688 3.175781 -3.515625 3.3125 -3.734375 C 3.457031 -3.953125 3.53125 -4.175781 3.53125 -4.40625 C 3.53125 -4.632812 3.457031 -4.828125 3.3125 -4.984375 C 3.175781 -5.148438 2.96875 -5.234375 2.6875 -5.234375 C 2.332031 -5.234375 2.097656 -5.128906 1.984375 -4.921875 C 1.867188 -4.710938 1.8125 -4.5 1.8125 -4.28125 L 1.8125 -4.15625 L 0.4375 -4.15625 C 0.4375 -4.632812 0.53125 -5.046875 0.71875 -5.390625 C 0.914062 -5.734375 1.179688 -5.992188 1.515625 -6.171875 C 1.847656 -6.347656 2.226562 -6.4375 2.65625 -6.4375 C 3.113281 -6.4375 3.503906 -6.347656 3.828125 -6.171875 C 4.160156 -6.003906 4.410156 -5.773438 4.578125 -5.484375 C 4.753906 -5.191406 4.84375 -4.859375 4.84375 -4.484375 C 4.84375 -4.140625 4.769531 -3.828125 4.625 -3.546875 C 4.488281 -3.265625 4.320312 -3.019531 4.125 -2.8125 C 3.925781 -2.613281 3.671875 -2.382812 3.359375 -2.125 L 3.15625 -1.96875 L 2.328125 -1.265625 L 2.328125 -1.21875 L 4.890625 -1.21875 L 4.890625 0 L 0.5 0 Z M 0.5 -1.1875 "/></g></g></g><g fill="#1b1b1b" fill-opacity="1"><g transform="translate(204.530852, 237.3358)"><g><path d="M 2.8125 0.140625 C 1.96875 0.140625 1.34375 -0.128906 0.9375 -0.671875 C 0.53125 -1.210938 0.328125 -1.929688 0.328125 -2.828125 L 0.328125 -3.484375 C 0.328125 -4.378906 0.53125 -5.09375 0.9375 -5.625 C 1.34375 -6.15625 1.96875 -6.421875 2.8125 -6.421875 C 3.644531 -6.421875 4.265625 -6.15625 4.671875 -5.625 C 5.078125 -5.09375 5.28125 -4.378906 5.28125 -3.484375 L 5.28125 -2.828125 C 5.28125 -1.929688 5.078125 -1.210938 4.671875 -0.671875 C 4.265625 -0.128906 3.644531 0.140625 2.8125 0.140625 Z M 2.8125 -1.078125 C 3.132812 -1.078125 3.363281 -1.21875 3.5 -1.5 C 3.632812 -1.78125 3.703125 -2.195312 3.703125 -2.75 L 3.703125 -3.578125 C 3.703125 -4.117188 3.632812 -4.523438 3.5 -4.796875 C 3.363281 -5.078125 3.132812 -5.21875 2.8125 -5.21875 C 2.488281 -5.21875 2.253906 -5.078125 2.109375 -4.796875 C 1.972656 -4.523438 1.90625 -4.117188 1.90625 -3.578125 L 1.90625 -2.75 C 1.90625 -2.195312 1.972656 -1.78125 2.109375 -1.5 C 2.253906 -1.21875 2.488281 -1.078125 2.8125 -1.078125 Z M 2.8125 -1.078125 "/></g></g></g><g transform="matrix(1, 0, 0, 1, 43, 150)"><g clip-path="url(#af67e0eb6e)"><g fill="#1b1b1b" fill-opacity="1"><g transform="translate(0.719126, 58.534459)"><g><path d="M 54.046875 -42.09375 C 54.046875 -38.832031 52.65625 -35.945312 49.875 -33.4375 C 47.09375 -30.925781 43.539062 -29.347656 39.21875 -28.703125 L 39.125 -28.546875 C 42.601562 -27.585938 45.15625 -26.007812 46.78125 -23.8125 C 48.414062 -21.625 49.234375 -19.140625 49.234375 -16.359375 C 49.234375 -12.671875 48.125 -9.597656 45.90625 -7.140625 C 43.6875 -4.679688 40.851562 -2.875 37.40625 -1.71875 C 33.957031 -0.570312 30.390625 0 26.703125 0 L 1.6875 0 L 2.078125 -1.4375 C 4.484375 -1.4375 6.300781 -1.8125 7.53125 -2.5625 C 8.757812 -3.3125 9.695312 -4.40625 10.34375 -5.84375 C 10.988281 -7.289062 11.816406 -9.753906 12.828125 -13.234375 L 20.84375 -41.296875 C 21.488281 -43.429688 21.941406 -45.046875 22.203125 -46.140625 C 22.472656 -47.242188 22.609375 -48.0625 22.609375 -48.59375 C 22.609375 -49.976562 22.125 -51.003906 21.15625 -51.671875 C 20.195312 -52.347656 18.734375 -52.6875 16.765625 -52.6875 L 17.15625 -54.125 L 36.484375 -54.125 C 41.992188 -54.125 46.296875 -53.023438 49.390625 -50.828125 C 52.492188 -48.640625 54.046875 -45.726562 54.046875 -42.09375 Z M 31.75 -51.078125 L 25.734375 -30.078125 L 27.75 -29.984375 C 33.726562 -29.984375 38.175781 -31.117188 41.09375 -33.390625 C 44.007812 -35.671875 45.46875 -38.8125 45.46875 -42.8125 C 45.46875 -45.382812 44.640625 -47.457031 42.984375 -49.03125 C 41.328125 -50.613281 38.734375 -51.40625 35.203125 -51.40625 C 34.023438 -51.40625 32.875 -51.296875 31.75 -51.078125 Z M 23.734375 -2.8125 C 27.472656 -2.8125 30.585938 -3.53125 33.078125 -4.96875 C 35.566406 -6.414062 37.382812 -8.234375 38.53125 -10.421875 C 39.675781 -12.617188 40.25 -14.835938 40.25 -17.078125 C 40.25 -20.078125 39.234375 -22.535156 37.203125 -24.453125 C 35.171875 -26.378906 32.046875 -27.34375 27.828125 -27.34375 L 24.9375 -27.265625 L 18.125 -3.53125 C 20.15625 -3.050781 22.023438 -2.8125 23.734375 -2.8125 Z M 23.734375 -2.8125 "/></g></g></g><g fill="#1b1b1b" fill-opacity="1"><g transform="translate(48.591598, 58.534459)"><g><path d="M 25.828125 -36.640625 C 27.742188 -36.640625 29.554688 -36.128906 31.265625 -35.109375 C 32.984375 -34.097656 34.363281 -32.671875 35.40625 -30.828125 C 36.445312 -28.984375 36.96875 -26.882812 36.96875 -24.53125 C 36.96875 -19.832031 35.765625 -15.53125 33.359375 -11.625 C 30.953125 -7.726562 27.941406 -4.65625 24.328125 -2.40625 C 20.722656 -0.15625 17.289062 0.96875 14.03125 0.96875 C 11.414062 0.96875 9.273438 0.285156 7.609375 -1.078125 C 5.953125 -2.441406 4.75 -4.085938 4 -6.015625 C 3.257812 -7.941406 2.890625 -9.757812 2.890625 -11.46875 C 2.890625 -15.101562 4.007812 -18.894531 6.25 -22.84375 C 8.5 -26.800781 11.398438 -30.085938 14.953125 -32.703125 C 18.503906 -35.328125 22.128906 -36.640625 25.828125 -36.640625 Z M 9.46875 -8.421875 C 9.46875 -6.285156 10.023438 -4.519531 11.140625 -3.125 C 12.265625 -1.738281 13.707031 -1.046875 15.46875 -1.046875 C 17.132812 -1.046875 18.703125 -1.539062 20.171875 -2.53125 C 21.640625 -3.519531 22.878906 -4.867188 23.890625 -6.578125 C 25.867188 -9.785156 27.484375 -13.351562 28.734375 -17.28125 C 29.992188 -21.207031 30.625 -24.484375 30.625 -27.109375 C 30.625 -32.347656 28.648438 -34.96875 24.703125 -34.96875 C 21.867188 -34.96875 19.285156 -33.398438 16.953125 -30.265625 C 14.628906 -27.140625 12.800781 -23.453125 11.46875 -19.203125 C 10.132812 -14.953125 9.46875 -11.359375 9.46875 -8.421875 Z M 9.46875 -8.421875 "/></g></g></g><g fill="#1b1b1b" fill-opacity="1"><g transform="translate(83.072426, 58.534459)"><g><path d="M 12.59375 -18.046875 C 15.957031 -23.597656 19.347656 -28.082031 22.765625 -31.5 C 26.191406 -34.925781 29.375 -36.640625 32.3125 -36.640625 C 33.539062 -36.640625 34.566406 -36.222656 35.390625 -35.390625 C 36.222656 -34.566406 36.640625 -33.378906 36.640625 -31.828125 C 36.640625 -30.390625 36.265625 -28.304688 35.515625 -25.578125 L 30.46875 -8.265625 C 29.988281 -6.546875 29.75 -5.367188 29.75 -4.734375 C 29.75 -4.253906 29.867188 -3.90625 30.109375 -3.6875 C 30.347656 -3.476562 30.601562 -3.375 30.875 -3.375 C 31.507812 -3.375 32.492188 -4.066406 33.828125 -5.453125 C 35.171875 -6.835938 36.082031 -7.929688 36.5625 -8.734375 L 37.765625 -7.78125 C 36.109375 -5.476562 34.25 -3.441406 32.1875 -1.671875 C 30.132812 0.0859375 28.195312 0.96875 26.375 0.96875 C 25.519531 0.96875 24.796875 0.632812 24.203125 -0.03125 C 23.617188 -0.707031 23.328125 -1.601562 23.328125 -2.71875 C 23.328125 -3.894531 23.625 -5.472656 24.21875 -7.453125 L 29.671875 -26.625 C 29.722656 -26.78125 29.851562 -27.21875 30.0625 -27.9375 C 30.28125 -28.664062 30.390625 -29.378906 30.390625 -30.078125 C 30.390625 -30.765625 30.203125 -31.296875 29.828125 -31.671875 C 29.453125 -32.046875 29.050781 -32.234375 28.625 -32.234375 C 27.394531 -32.234375 25.617188 -31.191406 23.296875 -29.109375 C 20.972656 -27.023438 18.710938 -24.40625 16.515625 -21.25 C 14.648438 -18.632812 13.140625 -16.21875 11.984375 -14 C 10.835938 -11.78125 9.8125 -9.09375 8.90625 -5.9375 C 8.207031 -3.632812 7.644531 -1.65625 7.21875 0 L 1.046875 0 L 8.65625 -26.703125 C 8.707031 -26.859375 8.894531 -27.535156 9.21875 -28.734375 C 9.539062 -29.941406 9.703125 -30.816406 9.703125 -31.359375 C 9.703125 -31.992188 9.472656 -32.484375 9.015625 -32.828125 C 8.566406 -33.179688 7.96875 -33.359375 7.21875 -33.359375 C 6.46875 -33.359375 5.398438 -33.304688 4.015625 -33.203125 L 4.015625 -34.640625 L 16.28125 -36.640625 L 17.71875 -36.640625 L 12.421875 -18.203125 Z M 12.59375 -18.046875 "/></g></g></g><g fill="#1b1b1b" fill-opacity="1"><g transform="translate(117.553254, 58.534459)"><g><path d="M 24.9375 -36.640625 C 26.382812 -36.640625 27.691406 -36.144531 28.859375 -35.15625 C 30.035156 -34.164062 30.757812 -32.789062 31.03125 -31.03125 L 31.1875 -31.03125 L 32.46875 -35.765625 L 38.8125 -36.640625 L 30.546875 -7.703125 C 30.492188 -7.585938 30.359375 -7.179688 30.140625 -6.484375 C 29.929688 -5.796875 29.828125 -5.101562 29.828125 -4.40625 C 29.828125 -3.976562 29.929688 -3.644531 30.140625 -3.40625 C 30.359375 -3.164062 30.601562 -3.046875 30.875 -3.046875 C 31.570312 -3.046875 32.453125 -3.523438 33.515625 -4.484375 C 34.585938 -5.453125 35.601562 -6.789062 36.5625 -8.5 L 37.765625 -7.703125 C 36.328125 -5.023438 34.5 -2.910156 32.28125 -1.359375 C 30.0625 0.191406 28.09375 0.96875 26.375 0.96875 C 25.414062 0.96875 24.695312 0.617188 24.21875 -0.078125 C 23.738281 -0.773438 23.5 -1.628906 23.5 -2.640625 C 23.5 -3.335938 23.644531 -4.472656 23.9375 -6.046875 C 24.226562 -7.628906 24.695312 -9.222656 25.34375 -10.828125 L 25.171875 -10.984375 C 19.191406 -3.015625 13.769531 0.96875 8.90625 0.96875 C 6.757812 0.96875 5.054688 0.046875 3.796875 -1.796875 C 2.546875 -3.648438 1.921875 -5.773438 1.921875 -8.171875 C 1.921875 -12.347656 3.132812 -16.664062 5.5625 -21.125 C 8 -25.59375 11.019531 -29.296875 14.625 -32.234375 C 18.238281 -35.171875 21.675781 -36.640625 24.9375 -36.640625 Z M 8.34375 -9.703125 C 8.34375 -7.617188 8.820312 -6.09375 9.78125 -5.125 C 10.738281 -4.164062 11.863281 -3.6875 13.15625 -3.6875 C 14.8125 -3.6875 16.597656 -4.429688 18.515625 -5.921875 C 20.441406 -7.421875 22.21875 -9.332031 23.84375 -11.65625 C 25.476562 -13.988281 26.695312 -16.359375 27.5 -18.765625 C 28.300781 -21.117188 28.890625 -23.054688 29.265625 -24.578125 C 29.640625 -26.097656 29.828125 -27.582031 29.828125 -29.03125 C 29.828125 -31.113281 29.34375 -32.648438 28.375 -33.640625 C 27.414062 -34.628906 26.296875 -35.125 25.015625 -35.125 C 22.503906 -35.125 19.953125 -33.585938 17.359375 -30.515625 C 14.765625 -27.441406 12.613281 -23.84375 10.90625 -19.71875 C 9.195312 -15.601562 8.34375 -12.265625 8.34375 -9.703125 Z M 8.34375 -9.703125 "/></g></g></g></g></g></svg>