<svg xmlns="http://www.w3.org/2000/svg" xmlns:xlink="http://www.w3.org/1999/xlink" width="500" zoomAndPan="magnify" viewBox="0 0 375 374.999991" height="500" preserveAspectRatio="xMidYMid meet" version="1.0"><defs><g/><clipPath id="b62e215de2"><rect x="0" width="131" y="0" height="171"/></clipPath><clipPath id="81e9681971"><path d="M 114.511719 149.9375 L 146.425781 149.9375 L 146.425781 249.585938 L 114.511719 249.585938 Z M 114.511719 149.9375 " clip-rule="nonzero"/></clipPath><clipPath id="948a1db681"><path d="M 0.511719 0.9375 L 32.425781 0.9375 L 32.425781 100.585938 L 0.511719 100.585938 Z M 0.511719 0.9375 " clip-rule="nonzero"/></clipPath><clipPath id="990e784dfe"><rect x="0" width="33" y="0" height="101"/></clipPath><clipPath id="bc82cc8acf"><path d="M 114.511719 129.480469 L 148.261719 129.480469 L 148.261719 143.730469 L 114.511719 143.730469 Z M 114.511719 129.480469 " clip-rule="nonzero"/></clipPath><clipPath id="a44b6c7cb3"><rect x="0" width="35" y="0" height="94"/></clipPath><clipPath id="ed54835d46"><rect x="0" width="101" y="0" height="13"/></clipPath><clipPath id="ae5ca94f57"><rect x="0" width="51" y="0" height="11"/></clipPath></defs><rect x="-37.5" width="450" fill="#ffffff" y="-37.499999" height="449.999989" fill-opacity="1"/><rect x="-37.5" width="450" fill="#ecebea" y="-37.499999" height="449.999989" fill-opacity="1"/><g transform="matrix(1, 0, 0, 1, 144, 123)"><g clip-path="url(#b62e215de2)"><g fill="#1b1b1b" fill-opacity="1"><g transform="translate(0.358003, 126.740195)"><g><path d="M 123.453125 -108.875 C 123.453125 -105.820312 122.828125 -103.078125 121.578125 -100.640625 C 120.335938 -98.210938 118.644531 -96.207031 116.5 -94.625 C 114.351562 -93.039062 111.894531 -91.910156 109.125 -91.234375 C 106.351562 -90.554688 103.5 -90.5 100.5625 -91.0625 L 18.3125 -105.984375 L 109.890625 -81.390625 C 113.847656 -80.378906 117.097656 -78.347656 119.640625 -75.296875 C 122.179688 -72.242188 123.453125 -68.679688 123.453125 -64.609375 L 123.453125 -31.03125 C 123.453125 -26.738281 122.628906 -22.695312 120.984375 -18.90625 C 119.347656 -15.125 117.117188 -11.847656 114.296875 -9.078125 C 111.472656 -6.304688 108.140625 -4.097656 104.296875 -2.453125 C 100.453125 -0.816406 96.378906 0 92.078125 0 L 5.09375 0 L 5.09375 -35.4375 L 108.015625 -61.71875 L 37.8125 -51.21875 C 35.664062 -50.875 33.460938 -50.703125 31.203125 -50.703125 C 27.585938 -50.703125 24.195312 -51.207031 21.03125 -52.21875 C 17.863281 -53.238281 15.09375 -54.820312 12.71875 -56.96875 C 10.34375 -59.125 8.476562 -61.953125 7.125 -65.453125 C 5.769531 -68.960938 5.09375 -73.144531 5.09375 -78 L 5.09375 -102.25 C 5.09375 -104.40625 5.488281 -106.46875 6.28125 -108.4375 C 7.070312 -110.414062 8.171875 -112.164062 9.578125 -113.6875 C 10.992188 -115.21875 12.691406 -116.4375 14.671875 -117.34375 C 16.648438 -118.25 18.878906 -118.703125 21.359375 -118.703125 L 123.453125 -118.703125 Z M 123.453125 -108.875 "/></g></g></g></g></g><g clip-path="url(#81e9681971)"><g transform="matrix(1, 0, 0, 1, 114, 149)"><g clip-path="url(#990e784dfe)"><g clip-path="url(#948a1db681)"><path fill="#1b1b1b" d="M 0.511719 0.9375 L 32.425781 0.9375 L 32.425781 100.546875 L 0.511719 100.546875 Z M 0.511719 0.9375 " fill-opacity="1" fill-rule="nonzero"/></g></g></g></g><g clip-path="url(#bc82cc8acf)"><path fill="#1b1b1b" d="M 140.910156 143.683594 L 120.871094 143.683594 C 117.359375 143.683594 114.515625 140.835938 114.515625 137.324219 L 114.515625 129.480469 L 140.910156 129.480469 C 144.832031 129.480469 148.011719 132.660156 148.011719 136.582031 C 148.011719 140.503906 144.832031 143.683594 140.910156 143.683594 Z M 140.910156 143.683594 " fill-opacity="1" fill-rule="nonzero"/></g><g transform="matrix(1, 0, 0, 1, 123, 150)"><g clip-path="url(#a44b6c7cb3)"><g fill="#ecebea" fill-opacity="1"><g transform="translate(23.657518, 92.956434)"><g><path d="M -13.359375 -7.15625 C -13.359375 -7.90625 -13.273438 -8.640625 -13.109375 -9.359375 C -12.941406 -10.085938 -12.773438 -10.628906 -12.609375 -10.984375 L -12.359375 -11.515625 L -9.421875 -10.046875 C -9.953125 -9.035156 -10.21875 -8.070312 -10.21875 -7.15625 C -10.21875 -6.65625 -10.160156 -6.296875 -10.046875 -6.078125 C -9.941406 -5.867188 -9.738281 -5.765625 -9.4375 -5.765625 C -9.375 -5.765625 -9.304688 -5.773438 -9.234375 -5.796875 C -9.171875 -5.816406 -9.109375 -5.847656 -9.046875 -5.890625 C -8.984375 -5.941406 -8.929688 -5.988281 -8.890625 -6.03125 C -8.847656 -6.070312 -8.800781 -6.144531 -8.75 -6.25 C -8.707031 -6.351562 -8.671875 -6.429688 -8.640625 -6.484375 C -8.617188 -6.546875 -8.582031 -6.644531 -8.53125 -6.78125 C -8.476562 -6.914062 -8.4375 -7.015625 -8.40625 -7.078125 C -8.382812 -7.148438 -8.347656 -7.265625 -8.296875 -7.421875 C -8.242188 -7.585938 -8.210938 -7.710938 -8.203125 -7.796875 C -8.046875 -8.316406 -7.875 -8.769531 -7.6875 -9.15625 C -7.507812 -9.550781 -7.257812 -9.960938 -6.9375 -10.390625 C -6.613281 -10.816406 -6.207031 -11.148438 -5.71875 -11.390625 C -5.226562 -11.628906 -4.671875 -11.75 -4.046875 -11.75 C -1.097656 -11.75 0.375 -9.695312 0.375 -5.59375 C 0.375 -4.664062 0.234375 -3.785156 -0.046875 -2.953125 C -0.335938 -2.117188 -0.625 -1.515625 -0.90625 -1.140625 L -1.359375 -0.578125 L -4.421875 -2.40625 C -4.304688 -2.539062 -4.164062 -2.71875 -4 -2.9375 C -3.84375 -3.15625 -3.625 -3.550781 -3.34375 -4.125 C -3.070312 -4.695312 -2.9375 -5.195312 -2.9375 -5.625 C -2.9375 -6.550781 -3.25 -7.015625 -3.875 -7.015625 C -4.15625 -7.015625 -4.375 -6.894531 -4.53125 -6.65625 C -4.695312 -6.414062 -4.878906 -6.015625 -5.078125 -5.453125 C -5.285156 -4.890625 -5.472656 -4.445312 -5.640625 -4.125 C -6.066406 -3.3125 -6.546875 -2.671875 -7.078125 -2.203125 C -7.609375 -1.734375 -8.3125 -1.5 -9.1875 -1.5 C -10.5 -1.5 -11.519531 -2.007812 -12.25 -3.03125 C -12.988281 -4.050781 -13.359375 -5.425781 -13.359375 -7.15625 Z M -13.359375 -7.15625 "/></g></g></g><g fill="#ecebea" fill-opacity="1"><g transform="translate(23.657518, 80.732304)"><g><path d="M -12.984375 -2.28125 L -17.8125 -2.28125 L -17.8125 -6.765625 L -12.984375 -6.765625 L -12.984375 -9.484375 L -9.5625 -9.484375 L -9.5625 -6.765625 L -5.4375 -6.765625 C -4.238281 -6.765625 -3.640625 -7.097656 -3.640625 -7.765625 C -3.640625 -7.941406 -3.671875 -8.117188 -3.734375 -8.296875 C -3.804688 -8.484375 -3.878906 -8.628906 -3.953125 -8.734375 L -4.046875 -8.890625 L -0.4375 -10 C 0.101562 -9.039062 0.375 -7.941406 0.375 -6.703125 C 0.375 -5.859375 0.226562 -5.132812 -0.0625 -4.53125 C -0.351562 -3.925781 -0.75 -3.46875 -1.25 -3.15625 C -1.75 -2.84375 -2.269531 -2.617188 -2.8125 -2.484375 C -3.363281 -2.347656 -3.953125 -2.28125 -4.578125 -2.28125 L -9.5625 -2.28125 L -9.5625 -0.40625 L -12.984375 -0.40625 Z M -12.984375 -2.28125 "/></g></g></g><g fill="#ecebea" fill-opacity="1"><g transform="translate(23.657518, 70.735331)"><g><path d="M -12.984375 -5.75 L -6.8125 -5.75 C -5.53125 -5.75 -4.617188 -5.941406 -4.078125 -6.328125 C -3.535156 -6.710938 -3.265625 -7.367188 -3.265625 -8.296875 C -3.265625 -9.222656 -3.535156 -9.878906 -4.078125 -10.265625 C -4.617188 -10.660156 -5.53125 -10.859375 -6.8125 -10.859375 L -12.984375 -10.859375 L -12.984375 -15.34375 L -5.71875 -15.34375 C -3.5625 -15.34375 -2.003906 -14.78125 -1.046875 -13.65625 C -0.0976562 -12.53125 0.375 -10.742188 0.375 -8.296875 C 0.375 -5.847656 -0.0976562 -4.0625 -1.046875 -2.9375 C -2.003906 -1.820312 -3.5625 -1.265625 -5.71875 -1.265625 L -12.984375 -1.265625 Z M -12.984375 -5.75 "/></g></g></g><g fill="#ecebea" fill-opacity="1"><g transform="translate(23.657518, 54.132773)"><g><path d="M -1.609375 -2.40625 C -2.929688 -1.1875 -4.550781 -0.578125 -6.46875 -0.578125 C -8.394531 -0.578125 -10.023438 -1.1875 -11.359375 -2.40625 C -12.691406 -3.625 -13.359375 -5.164062 -13.359375 -7.03125 C -13.359375 -8.757812 -12.820312 -10.179688 -11.75 -11.296875 L -21.765625 -11.296875 L -21.765625 -15.765625 L 0 -15.765625 L 0 -11.34375 L -1.46875 -11.34375 L -1.46875 -11.296875 C -0.238281 -10.179688 0.375 -8.757812 0.375 -7.03125 C 0.375 -5.164062 -0.285156 -3.625 -1.609375 -2.40625 Z M -8.6875 -6.21875 C -8.113281 -5.632812 -7.378906 -5.34375 -6.484375 -5.34375 C -5.585938 -5.34375 -4.851562 -5.617188 -4.28125 -6.171875 C -3.71875 -6.734375 -3.4375 -7.46875 -3.4375 -8.375 C -3.4375 -9.25 -3.722656 -9.96875 -4.296875 -10.53125 C -4.867188 -11.101562 -5.597656 -11.390625 -6.484375 -11.390625 C -7.378906 -11.390625 -8.113281 -11.097656 -8.6875 -10.515625 C -9.257812 -9.929688 -9.546875 -9.21875 -9.546875 -8.375 C -9.546875 -7.519531 -9.257812 -6.800781 -8.6875 -6.21875 Z M -8.6875 -6.21875 "/></g></g></g><g fill="#ecebea" fill-opacity="1"><g transform="translate(23.657518, 36.846871)"><g><path d="M -20.21875 -1.953125 C -20.75 -2.472656 -21.015625 -3.09375 -21.015625 -3.8125 C -21.015625 -4.539062 -20.75 -5.164062 -20.21875 -5.6875 C -19.695312 -6.21875 -19.070312 -6.484375 -18.34375 -6.484375 C -17.625 -6.484375 -17 -6.21875 -16.46875 -5.6875 C -15.945312 -5.164062 -15.6875 -4.539062 -15.6875 -3.8125 C -15.6875 -3.09375 -15.945312 -2.472656 -16.46875 -1.953125 C -17 -1.429688 -17.625 -1.171875 -18.34375 -1.171875 C -19.070312 -1.171875 -19.695312 -1.429688 -20.21875 -1.953125 Z M -12.984375 -1.515625 L 0 -1.515625 L 0 -6 L -12.984375 -6 Z M -12.984375 -1.515625 "/></g></g></g><g fill="#ecebea" fill-opacity="1"><g transform="translate(23.657518, 29.203625)"><g><path d="M -1.546875 -2.734375 C -2.828125 -1.296875 -4.46875 -0.578125 -6.46875 -0.578125 C -8.476562 -0.578125 -10.128906 -1.328125 -11.421875 -2.828125 C -12.710938 -4.335938 -13.359375 -6.195312 -13.359375 -8.40625 C -13.359375 -10.582031 -12.707031 -12.414062 -11.40625 -13.90625 C -10.113281 -15.40625 -8.472656 -16.15625 -6.484375 -16.15625 C -4.492188 -16.15625 -2.851562 -15.421875 -1.5625 -13.953125 C -0.269531 -12.492188 0.375 -10.644531 0.375 -8.40625 C 0.375 -6.070312 -0.265625 -4.179688 -1.546875 -2.734375 Z M -8.6875 -6.21875 C -8.113281 -5.632812 -7.378906 -5.34375 -6.484375 -5.34375 C -5.585938 -5.34375 -4.851562 -5.617188 -4.28125 -6.171875 C -3.71875 -6.734375 -3.4375 -7.46875 -3.4375 -8.375 C -3.4375 -9.25 -3.722656 -9.96875 -4.296875 -10.53125 C -4.867188 -11.101562 -5.597656 -11.390625 -6.484375 -11.390625 C -7.378906 -11.390625 -8.113281 -11.097656 -8.6875 -10.515625 C -9.257812 -9.929688 -9.546875 -9.21875 -9.546875 -8.375 C -9.546875 -7.519531 -9.257812 -6.800781 -8.6875 -6.21875 Z M -8.6875 -6.21875 "/></g></g></g><g fill="#ecebea" fill-opacity="1"><g transform="translate(23.657518, 12.474529)"><g><path d="M -5.421875 -4.40625 C -5.421875 -5.21875 -5.132812 -5.90625 -4.5625 -6.46875 C -4 -7.03125 -3.3125 -7.3125 -2.5 -7.3125 C -1.707031 -7.3125 -1.03125 -7.03125 -0.46875 -6.46875 C 0.09375 -5.90625 0.375 -5.21875 0.375 -4.40625 C 0.375 -3.613281 0.09375 -2.929688 -0.46875 -2.359375 C -1.03125 -1.796875 -1.707031 -1.515625 -2.5 -1.515625 C -3.3125 -1.515625 -4 -1.796875 -4.5625 -2.359375 C -5.132812 -2.929688 -5.421875 -3.613281 -5.421875 -4.40625 Z M -5.421875 -4.40625 "/></g></g></g></g></g><g transform="matrix(1, 0, 0, 1, 138, 260)"><g clip-path="url(#ed54835d46)"><g fill="#1b1b1b" fill-opacity="1"><g transform="translate(1.883684, 8.485389)"><g><path d="M 0.828125 -7.03125 L 2.46875 -7.03125 L 2.46875 0 L 0.828125 0 Z M 0.828125 -7.03125 "/></g></g></g><g fill="#1b1b1b" fill-opacity="1"><g transform="translate(8.09145, 8.485389)"><g><path d="M 7.28125 -7.03125 L 7.28125 0 L 5.953125 0 L 2.4375 -4.265625 L 2.4375 0 L 0.828125 0 L 0.828125 -7.03125 L 2.1875 -7.03125 L 5.671875 -2.765625 L 5.671875 -7.03125 Z M 7.28125 -7.03125 "/></g></g></g><g fill="#1b1b1b" fill-opacity="1"><g transform="translate(19.120425, 8.485389)"><g><path d="M 2.296875 -5.703125 L 0.046875 -5.703125 L 0.046875 -7.03125 L 6.171875 -7.03125 L 6.171875 -5.703125 L 3.921875 -5.703125 L 3.921875 0 L 2.296875 0 Z M 2.296875 -5.703125 "/></g></g></g><g fill="#1b1b1b" fill-opacity="1"><g transform="translate(28.241003, 8.485389)"><g><path d="M 3.953125 0.125 C 2.953125 0.125 2.171875 -0.148438 1.609375 -0.703125 C 1.054688 -1.265625 0.78125 -2.0625 0.78125 -3.09375 L 0.78125 -7.03125 L 2.40625 -7.03125 L 2.40625 -3.15625 C 2.40625 -1.894531 2.925781 -1.265625 3.96875 -1.265625 C 4.476562 -1.265625 4.863281 -1.414062 5.125 -1.71875 C 5.394531 -2.03125 5.53125 -2.507812 5.53125 -3.15625 L 5.53125 -7.03125 L 7.140625 -7.03125 L 7.140625 -3.09375 C 7.140625 -2.0625 6.859375 -1.265625 6.296875 -0.703125 C 5.742188 -0.148438 4.960938 0.125 3.953125 0.125 Z M 3.953125 0.125 "/></g></g></g><g fill="#1b1b1b" fill-opacity="1"><g transform="translate(39.069082, 8.485389)"><g><path d="M 0.828125 -7.03125 L 2.46875 -7.03125 L 2.46875 0 L 0.828125 0 Z M 0.828125 -7.03125 "/></g></g></g><g fill="#1b1b1b" fill-opacity="1"><g transform="translate(45.276848, 8.485389)"><g/></g></g><g fill="#1b1b1b" fill-opacity="1"><g transform="translate(51.032621, 8.485389)"><g><path d="M 3.140625 0.125 C 2.585938 0.125 2.050781 0.0507812 1.53125 -0.09375 C 1.007812 -0.25 0.59375 -0.445312 0.28125 -0.6875 L 0.828125 -1.921875 C 1.128906 -1.703125 1.488281 -1.523438 1.90625 -1.390625 C 2.320312 -1.253906 2.738281 -1.1875 3.15625 -1.1875 C 3.613281 -1.1875 3.953125 -1.253906 4.171875 -1.390625 C 4.398438 -1.523438 4.515625 -1.707031 4.515625 -1.9375 C 4.515625 -2.101562 4.445312 -2.238281 4.3125 -2.34375 C 4.1875 -2.457031 4.019531 -2.546875 3.8125 -2.609375 C 3.601562 -2.679688 3.328125 -2.757812 2.984375 -2.84375 C 2.453125 -2.96875 2.015625 -3.09375 1.671875 -3.21875 C 1.328125 -3.351562 1.03125 -3.5625 0.78125 -3.84375 C 0.539062 -4.125 0.421875 -4.5 0.421875 -4.96875 C 0.421875 -5.375 0.53125 -5.742188 0.75 -6.078125 C 0.96875 -6.410156 1.300781 -6.671875 1.75 -6.859375 C 2.195312 -7.054688 2.742188 -7.15625 3.390625 -7.15625 C 3.835938 -7.15625 4.273438 -7.097656 4.703125 -6.984375 C 5.128906 -6.878906 5.503906 -6.726562 5.828125 -6.53125 L 5.328125 -5.296875 C 4.671875 -5.660156 4.019531 -5.84375 3.375 -5.84375 C 2.914062 -5.84375 2.578125 -5.769531 2.359375 -5.625 C 2.148438 -5.476562 2.046875 -5.285156 2.046875 -5.046875 C 2.046875 -4.804688 2.171875 -4.625 2.421875 -4.5 C 2.671875 -4.382812 3.050781 -4.269531 3.5625 -4.15625 C 4.101562 -4.03125 4.539062 -3.90625 4.875 -3.78125 C 5.21875 -3.65625 5.507812 -3.453125 5.75 -3.171875 C 6 -2.898438 6.125 -2.53125 6.125 -2.0625 C 6.125 -1.65625 6.007812 -1.285156 5.78125 -0.953125 C 5.5625 -0.628906 5.226562 -0.367188 4.78125 -0.171875 C 4.332031 0.0234375 3.785156 0.125 3.140625 0.125 Z M 3.140625 0.125 "/></g></g></g><g fill="#1b1b1b" fill-opacity="1"><g transform="translate(60.354079, 8.485389)"><g><path d="M 6.28125 -1.3125 L 6.28125 0 L 0.828125 0 L 0.828125 -7.03125 L 6.15625 -7.03125 L 6.15625 -5.734375 L 2.453125 -5.734375 L 2.453125 -4.203125 L 5.71875 -4.203125 L 5.71875 -2.9375 L 2.453125 -2.9375 L 2.453125 -1.3125 Z M 6.28125 -1.3125 "/></g></g></g><g fill="#1b1b1b" fill-opacity="1"><g transform="translate(70.006993, 8.485389)"><g><path d="M 7.28125 -7.03125 L 7.28125 0 L 5.953125 0 L 2.4375 -4.265625 L 2.4375 0 L 0.828125 0 L 0.828125 -7.03125 L 2.1875 -7.03125 L 5.671875 -2.765625 L 5.671875 -7.03125 Z M 7.28125 -7.03125 "/></g></g></g><g fill="#1b1b1b" fill-opacity="1"><g transform="translate(81.035969, 8.485389)"><g><path d="M 3.140625 0.125 C 2.585938 0.125 2.050781 0.0507812 1.53125 -0.09375 C 1.007812 -0.25 0.59375 -0.445312 0.28125 -0.6875 L 0.828125 -1.921875 C 1.128906 -1.703125 1.488281 -1.523438 1.90625 -1.390625 C 2.320312 -1.253906 2.738281 -1.1875 3.15625 -1.1875 C 3.613281 -1.1875 3.953125 -1.253906 4.171875 -1.390625 C 4.398438 -1.523438 4.515625 -1.707031 4.515625 -1.9375 C 4.515625 -2.101562 4.445312 -2.238281 4.3125 -2.34375 C 4.1875 -2.457031 4.019531 -2.546875 3.8125 -2.609375 C 3.601562 -2.679688 3.328125 -2.757812 2.984375 -2.84375 C 2.453125 -2.96875 2.015625 -3.09375 1.671875 -3.21875 C 1.328125 -3.351562 1.03125 -3.5625 0.78125 -3.84375 C 0.539062 -4.125 0.421875 -4.5 0.421875 -4.96875 C 0.421875 -5.375 0.53125 -5.742188 0.75 -6.078125 C 0.96875 -6.410156 1.300781 -6.671875 1.75 -6.859375 C 2.195312 -7.054688 2.742188 -7.15625 3.390625 -7.15625 C 3.835938 -7.15625 4.273438 -7.097656 4.703125 -6.984375 C 5.128906 -6.878906 5.503906 -6.726562 5.828125 -6.53125 L 5.328125 -5.296875 C 4.671875 -5.660156 4.019531 -5.84375 3.375 -5.84375 C 2.914062 -5.84375 2.578125 -5.769531 2.359375 -5.625 C 2.148438 -5.476562 2.046875 -5.285156 2.046875 -5.046875 C 2.046875 -4.804688 2.171875 -4.625 2.421875 -4.5 C 2.671875 -4.382812 3.050781 -4.269531 3.5625 -4.15625 C 4.101562 -4.03125 4.539062 -3.90625 4.875 -3.78125 C 5.21875 -3.65625 5.507812 -3.453125 5.75 -3.171875 C 6 -2.898438 6.125 -2.53125 6.125 -2.0625 C 6.125 -1.65625 6.007812 -1.285156 5.78125 -0.953125 C 5.5625 -0.628906 5.226562 -0.367188 4.78125 -0.171875 C 4.332031 0.0234375 3.785156 0.125 3.140625 0.125 Z M 3.140625 0.125 "/></g></g></g><g fill="#1b1b1b" fill-opacity="1"><g transform="translate(90.357426, 8.485389)"><g><path d="M 6.28125 -1.3125 L 6.28125 0 L 0.828125 0 L 0.828125 -7.03125 L 6.15625 -7.03125 L 6.15625 -5.734375 L 2.453125 -5.734375 L 2.453125 -4.203125 L 5.71875 -4.203125 L 5.71875 -2.9375 L 2.453125 -2.9375 L 2.453125 -1.3125 Z M 6.28125 -1.3125 "/></g></g></g></g></g><g transform="matrix(1, 0, 0, 1, 162, 271)"><g clip-path="url(#ae5ca94f57)"><g fill="#1b1b1b" fill-opacity="1"><g transform="translate(1.854074, 7.867966)"><g/></g></g><g fill="#1b1b1b" fill-opacity="1"><g transform="translate(4.906095, 7.867966)"><g><path d="M 0.671875 -6.0625 L 2.890625 -6.0625 L 2.890625 -5.0625 L 1.953125 -5.0625 L 1.953125 0.59375 L 2.890625 0.59375 L 2.890625 1.578125 L 0.671875 1.578125 Z M 0.671875 -6.0625 "/></g></g></g><g fill="#1b1b1b" fill-opacity="1"><g transform="translate(8.646629, 7.867966)"><g/></g></g><g fill="#1b1b1b" fill-opacity="1"><g transform="translate(11.70136, 7.867966)"><g><path d="M 2.0625 0.0625 C 1.695312 0.0625 1.335938 0.0195312 0.984375 -0.0625 C 0.640625 -0.15625 0.363281 -0.269531 0.15625 -0.40625 L 0.59375 -1.328125 C 0.78125 -1.203125 1.015625 -1.097656 1.296875 -1.015625 C 1.578125 -0.941406 1.847656 -0.90625 2.109375 -0.90625 C 2.648438 -0.90625 2.921875 -1.035156 2.921875 -1.296875 C 2.921875 -1.421875 2.847656 -1.507812 2.703125 -1.5625 C 2.554688 -1.625 2.332031 -1.671875 2.03125 -1.703125 C 1.664062 -1.765625 1.363281 -1.828125 1.125 -1.890625 C 0.894531 -1.960938 0.691406 -2.085938 0.515625 -2.265625 C 0.347656 -2.453125 0.265625 -2.710938 0.265625 -3.046875 C 0.265625 -3.316406 0.34375 -3.5625 0.5 -3.78125 C 0.664062 -4 0.898438 -4.164062 1.203125 -4.28125 C 1.515625 -4.40625 1.878906 -4.46875 2.296875 -4.46875 C 2.609375 -4.46875 2.914062 -4.429688 3.21875 -4.359375 C 3.53125 -4.285156 3.789062 -4.191406 4 -4.078125 L 3.578125 -3.171875 C 3.179688 -3.390625 2.753906 -3.5 2.296875 -3.5 C 2.023438 -3.5 1.820312 -3.457031 1.6875 -3.375 C 1.550781 -3.300781 1.484375 -3.207031 1.484375 -3.09375 C 1.484375 -2.957031 1.554688 -2.859375 1.703125 -2.796875 C 1.847656 -2.742188 2.082031 -2.691406 2.40625 -2.640625 C 2.769531 -2.585938 3.066406 -2.523438 3.296875 -2.453125 C 3.523438 -2.390625 3.722656 -2.265625 3.890625 -2.078125 C 4.054688 -1.898438 4.140625 -1.648438 4.140625 -1.328125 C 4.140625 -1.054688 4.054688 -0.8125 3.890625 -0.59375 C 3.734375 -0.382812 3.5 -0.222656 3.1875 -0.109375 C 2.875 0.00390625 2.5 0.0625 2.0625 0.0625 Z M 2.0625 0.0625 "/></g></g></g><g fill="#1b1b1b" fill-opacity="1"><g transform="translate(16.773883, 7.867966)"><g><path d="M 3.421875 -0.21875 C 3.296875 -0.125 3.140625 -0.0507812 2.953125 0 C 2.773438 0.0390625 2.585938 0.0625 2.390625 0.0625 C 1.867188 0.0625 1.460938 -0.0664062 1.171875 -0.328125 C 0.890625 -0.597656 0.75 -0.992188 0.75 -1.515625 L 0.75 -3.3125 L 0.0625 -3.3125 L 0.0625 -4.296875 L 0.75 -4.296875 L 0.75 -5.375 L 2.015625 -5.375 L 2.015625 -4.296875 L 3.109375 -4.296875 L 3.109375 -3.3125 L 2.015625 -3.3125 L 2.015625 -1.53125 C 2.015625 -1.34375 2.0625 -1.195312 2.15625 -1.09375 C 2.25 -1 2.382812 -0.953125 2.5625 -0.953125 C 2.769531 -0.953125 2.941406 -1.003906 3.078125 -1.109375 Z M 3.421875 -0.21875 "/></g></g></g><g fill="#1b1b1b" fill-opacity="1"><g transform="translate(21.061612, 7.867966)"><g><path d="M 5.015625 -4.390625 L 5.015625 0 L 3.8125 0 L 3.8125 -0.515625 C 3.644531 -0.328125 3.441406 -0.179688 3.203125 -0.078125 C 2.972656 0.015625 2.71875 0.0625 2.4375 0.0625 C 1.863281 0.0625 1.40625 -0.101562 1.0625 -0.4375 C 0.726562 -0.769531 0.5625 -1.257812 0.5625 -1.90625 L 0.5625 -4.390625 L 1.84375 -4.390625 L 1.84375 -2.09375 C 1.84375 -1.382812 2.140625 -1.03125 2.734375 -1.03125 C 3.035156 -1.03125 3.28125 -1.128906 3.46875 -1.328125 C 3.65625 -1.535156 3.75 -1.832031 3.75 -2.21875 L 3.75 -4.390625 Z M 5.015625 -4.390625 "/></g></g></g><g fill="#1b1b1b" fill-opacity="1"><g transform="translate(27.407468, 7.867966)"><g><path d="M 5.0625 -6.0625 L 5.0625 0 L 3.84375 0 L 3.84375 -0.5 C 3.53125 -0.125 3.070312 0.0625 2.46875 0.0625 C 2.0625 0.0625 1.6875 -0.0234375 1.34375 -0.203125 C 1.007812 -0.390625 0.75 -0.65625 0.5625 -1 C 0.375 -1.34375 0.28125 -1.742188 0.28125 -2.203125 C 0.28125 -2.648438 0.375 -3.046875 0.5625 -3.390625 C 0.75 -3.734375 1.007812 -4 1.34375 -4.1875 C 1.6875 -4.375 2.0625 -4.46875 2.46875 -4.46875 C 3.03125 -4.46875 3.472656 -4.289062 3.796875 -3.9375 L 3.796875 -6.0625 Z M 2.703125 -0.984375 C 3.015625 -0.984375 3.273438 -1.09375 3.484375 -1.3125 C 3.703125 -1.53125 3.8125 -1.828125 3.8125 -2.203125 C 3.8125 -2.566406 3.703125 -2.859375 3.484375 -3.078125 C 3.273438 -3.304688 3.015625 -3.421875 2.703125 -3.421875 C 2.367188 -3.421875 2.09375 -3.304688 1.875 -3.078125 C 1.664062 -2.859375 1.5625 -2.566406 1.5625 -2.203125 C 1.5625 -1.828125 1.664062 -1.53125 1.875 -1.3125 C 2.09375 -1.09375 2.367188 -0.984375 2.703125 -0.984375 Z M 2.703125 -0.984375 "/></g></g></g><g fill="#1b1b1b" fill-opacity="1"><g transform="translate(33.794157, 7.867966)"><g><path d="M 0.59375 -4.390625 L 1.859375 -4.390625 L 1.859375 0 L 0.59375 0 Z M 1.21875 -5.015625 C 0.988281 -5.015625 0.796875 -5.082031 0.640625 -5.21875 C 0.492188 -5.351562 0.421875 -5.519531 0.421875 -5.71875 C 0.421875 -5.914062 0.492188 -6.082031 0.640625 -6.21875 C 0.796875 -6.363281 0.988281 -6.4375 1.21875 -6.4375 C 1.457031 -6.4375 1.648438 -6.367188 1.796875 -6.234375 C 1.941406 -6.097656 2.015625 -5.9375 2.015625 -5.75 C 2.015625 -5.53125 1.941406 -5.351562 1.796875 -5.21875 C 1.648438 -5.082031 1.457031 -5.015625 1.21875 -5.015625 Z M 1.21875 -5.015625 "/></g></g></g><g fill="#1b1b1b" fill-opacity="1"><g transform="translate(36.987497, 7.867966)"><g><path d="M 2.6875 0.0625 C 2.21875 0.0625 1.796875 -0.03125 1.421875 -0.21875 C 1.054688 -0.414062 0.769531 -0.6875 0.5625 -1.03125 C 0.363281 -1.375 0.265625 -1.765625 0.265625 -2.203125 C 0.265625 -2.640625 0.363281 -3.023438 0.5625 -3.359375 C 0.769531 -3.703125 1.054688 -3.972656 1.421875 -4.171875 C 1.796875 -4.367188 2.21875 -4.46875 2.6875 -4.46875 C 3.144531 -4.46875 3.554688 -4.367188 3.921875 -4.171875 C 4.285156 -3.972656 4.570312 -3.703125 4.78125 -3.359375 C 4.988281 -3.023438 5.09375 -2.640625 5.09375 -2.203125 C 5.09375 -1.765625 4.988281 -1.375 4.78125 -1.03125 C 4.570312 -0.6875 4.285156 -0.414062 3.921875 -0.21875 C 3.554688 -0.03125 3.144531 0.0625 2.6875 0.0625 Z M 2.6875 -0.984375 C 3.007812 -0.984375 3.273438 -1.09375 3.484375 -1.3125 C 3.691406 -1.53125 3.796875 -1.828125 3.796875 -2.203125 C 3.796875 -2.566406 3.691406 -2.859375 3.484375 -3.078125 C 3.273438 -3.304688 3.007812 -3.421875 2.6875 -3.421875 C 2.351562 -3.421875 2.078125 -3.304688 1.859375 -3.078125 C 1.648438 -2.859375 1.546875 -2.566406 1.546875 -2.203125 C 1.546875 -1.828125 1.648438 -1.53125 1.859375 -1.3125 C 2.078125 -1.09375 2.351562 -0.984375 2.6875 -0.984375 Z M 2.6875 -0.984375 "/></g></g></g><g fill="#1b1b1b" fill-opacity="1"><g transform="translate(43.072004, 7.867966)"><g/></g></g><g fill="#1b1b1b" fill-opacity="1"><g transform="translate(46.118334, 7.867966)"><g><path d="M 0.125 1.578125 L 0.125 0.59375 L 1.046875 0.59375 L 1.046875 -5.0625 L 0.125 -5.0625 L 0.125 -6.0625 L 2.328125 -6.0625 L 2.328125 1.578125 Z M 0.125 1.578125 "/></g></g></g></g></g></svg>