<svg xmlns="http://www.w3.org/2000/svg" xmlns:xlink="http://www.w3.org/1999/xlink" width="500" zoomAndPan="magnify" viewBox="0 0 375 374.999991" height="500" preserveAspectRatio="xMidYMid meet" version="1.0"><defs><g/><clipPath id="cd06343771"><rect x="0" width="265" y="0" height="139"/></clipPath><clipPath id="e05e97010c"><path d="M 232.574219 134.398438 L 264.152344 134.398438 L 264.152344 165.976562 L 232.574219 165.976562 Z M 232.574219 134.398438 " clip-rule="nonzero"/></clipPath><clipPath id="fe18e96c78"><path d="M 248.363281 134.398438 C 239.644531 134.398438 232.574219 141.46875 232.574219 150.1875 C 232.574219 158.90625 239.644531 165.976562 248.363281 165.976562 C 257.082031 165.976562 264.152344 158.90625 264.152344 150.1875 C 264.152344 141.46875 257.082031 134.398438 248.363281 134.398438 Z M 248.363281 134.398438 " clip-rule="nonzero"/></clipPath><clipPath id="daea131cf8"><path d="M 0.574219 0.398438 L 32.152344 0.398438 L 32.152344 31.976562 L 0.574219 31.976562 Z M 0.574219 0.398438 " clip-rule="nonzero"/></clipPath><clipPath id="beaf460252"><path d="M 16.363281 0.398438 C 7.644531 0.398438 0.574219 7.46875 0.574219 16.1875 C 0.574219 24.90625 7.644531 31.976562 16.363281 31.976562 C 25.082031 31.976562 32.152344 24.90625 32.152344 16.1875 C 32.152344 7.46875 25.082031 0.398438 16.363281 0.398438 Z M 16.363281 0.398438 " clip-rule="nonzero"/></clipPath><clipPath id="ef9d556dc0"><rect x="0" width="33" y="0" height="32"/></clipPath><clipPath id="6cc7855c8c"><path d="M 230.9375 129.167969 L 265.4375 129.167969 L 265.4375 163.667969 L 230.9375 163.667969 Z M 230.9375 129.167969 " clip-rule="nonzero"/></clipPath><clipPath id="38686f0d24"><rect x="0" width="183" y="0" height="15"/></clipPath></defs><rect x="-37.5" width="450" fill="#ffffff" y="-37.499999" height="449.999989" fill-opacity="1"/><rect x="-37.5" width="450" fill="#ebc2c6" y="-37.499999" height="449.999989" fill-opacity="1"/><g transform="matrix(1, 0, 0, 1, 53, 132)"><g clip-path="url(#cd06343771)"><g fill="#621f1f" fill-opacity="1"><g transform="translate(1.165021, 103.258932)"><g><path d="M 4.109375 -27.796875 C 4.109375 -34.628906 5.203125 -40.644531 7.390625 -45.84375 C 9.578125 -51.039062 12.445312 -55.398438 16 -58.921875 C 19.550781 -62.441406 23.429688 -65.085938 27.640625 -66.859375 C 31.847656 -68.640625 35.96875 -69.53125 40 -69.53125 C 44.925781 -69.53125 49.269531 -68.488281 53.03125 -66.40625 C 56.789062 -64.320312 59.742188 -61.140625 61.890625 -56.859375 C 64.046875 -52.585938 65.125 -47.207031 65.125 -40.71875 C 65.125 -34.351562 64.03125 -28.609375 61.84375 -23.484375 C 59.65625 -18.359375 56.765625 -13.96875 53.171875 -10.3125 C 49.585938 -6.65625 45.707031 -3.847656 41.53125 -1.890625 C 37.363281 0.0546875 33.265625 1.03125 29.234375 1.03125 C 24.304688 1.03125 19.945312 -0.144531 16.15625 -2.5 C 12.363281 -4.863281 9.40625 -8.195312 7.28125 -12.5 C 5.164062 -16.8125 4.109375 -21.910156 4.109375 -27.796875 Z M 19.484375 -27.59375 C 19.484375 -19.9375 20.539062 -13.847656 22.65625 -9.328125 C 24.78125 -4.816406 27.722656 -2.5625 31.484375 -2.5625 C 37.160156 -2.5625 41.640625 -5.707031 44.921875 -12 C 48.203125 -18.289062 49.84375 -27.625 49.84375 -40 C 49.84375 -48.6875 48.800781 -55.179688 46.71875 -59.484375 C 44.632812 -63.796875 41.675781 -65.953125 37.84375 -65.953125 C 34.082031 -65.953125 30.832031 -64.410156 28.09375 -61.328125 C 25.363281 -58.253906 23.242188 -53.863281 21.734375 -48.15625 C 20.234375 -42.445312 19.484375 -35.59375 19.484375 -27.59375 Z M 19.484375 -27.59375 "/></g></g></g><g fill="#621f1f" fill-opacity="1"><g transform="translate(64.13516, 103.258932)"><g><path d="M 21.4375 1.03125 C 17.945312 1.03125 14.898438 0.191406 12.296875 -1.484375 C 9.703125 -3.160156 7.6875 -5.429688 6.25 -8.296875 C 4.820312 -11.171875 4.109375 -14.457031 4.109375 -18.15625 C 4.109375 -22.457031 4.859375 -26.078125 6.359375 -29.015625 C 7.859375 -31.960938 9.875 -34.410156 12.40625 -36.359375 C 14.9375 -38.304688 17.773438 -39.859375 20.921875 -41.015625 C 24.066406 -42.179688 27.3125 -43.140625 30.65625 -43.890625 C 34.007812 -44.648438 37.222656 -45.300781 40.296875 -45.84375 C 43.378906 -46.394531 46.132812 -47.007812 48.5625 -47.6875 C 50.988281 -48.375 52.851562 -49.265625 54.15625 -50.359375 C 53.882812 -52.410156 53.164062 -54.507812 52 -56.65625 C 50.832031 -58.8125 49.066406 -60.640625 46.703125 -62.140625 C 44.347656 -63.648438 41.15625 -64.40625 37.125 -64.40625 C 35.144531 -64.40625 32.921875 -64.128906 30.453125 -63.578125 C 27.992188 -63.035156 25.140625 -61.789062 21.890625 -59.84375 C 18.648438 -57.894531 14.84375 -54.867188 10.46875 -50.765625 L 10.046875 -50.765625 L 10.046875 -68.515625 L 37.75 -68.515625 C 44.101562 -68.515625 49.242188 -66.613281 53.171875 -62.8125 C 57.109375 -59.019531 59.078125 -53.671875 59.078125 -46.765625 L 59.078125 0 L 42.15625 0 L 42.15625 -0.3125 C 45.363281 -5.226562 47.785156 -9.820312 49.421875 -14.09375 C 51.066406 -18.375 52.25 -22.328125 52.96875 -25.953125 C 53.6875 -29.578125 54.148438 -32.859375 54.359375 -35.796875 C 51.617188 -27.796875 48.796875 -21.0625 45.890625 -15.59375 C 42.984375 -10.125 39.582031 -5.984375 35.6875 -3.171875 C 31.789062 -0.367188 27.039062 1.03125 21.4375 1.03125 Z M 19.28125 -19.59375 C 19.28125 -16.851562 19.925781 -14.441406 21.21875 -12.359375 C 22.519531 -10.273438 24.472656 -9.234375 27.078125 -9.234375 C 29.671875 -9.234375 32.164062 -10.066406 34.5625 -11.734375 C 36.957031 -13.410156 39.179688 -15.597656 41.234375 -18.296875 C 43.285156 -21.003906 45.144531 -23.945312 46.8125 -27.125 C 48.488281 -30.300781 49.925781 -33.445312 51.125 -36.5625 C 52.320312 -39.675781 53.265625 -42.460938 53.953125 -44.921875 C 46.765625 -43.140625 40.570312 -41.289062 35.375 -39.375 C 30.1875 -37.46875 26.207031 -34.992188 23.4375 -31.953125 C 20.664062 -28.910156 19.28125 -24.789062 19.28125 -19.59375 Z M 19.28125 -19.59375 "/></g></g></g><g fill="#621f1f" fill-opacity="1"><g transform="translate(123.105542, 103.258932)"><g><path d="M 29.125 -26.359375 C 22.5625 -28.203125 17.378906 -30.488281 13.578125 -33.21875 C 9.785156 -35.957031 7.085938 -38.898438 5.484375 -42.046875 C 3.878906 -45.191406 3.078125 -48.269531 3.078125 -51.28125 C 3.140625 -54.425781 3.835938 -57.296875 5.171875 -59.890625 C 6.503906 -62.492188 8.195312 -64.582031 10.25 -66.15625 C 12.300781 -67.726562 14.390625 -68.515625 16.515625 -68.515625 L 56.109375 -68.515625 L 56.109375 -43.59375 L 55.6875 -43.59375 C 53.632812 -47.832031 51.085938 -51.351562 48.046875 -54.15625 C 45.003906 -56.957031 41.703125 -59.160156 38.140625 -60.765625 C 34.585938 -62.367188 31 -63.515625 27.375 -64.203125 C 23.757812 -64.890625 20.410156 -65.234375 17.328125 -65.234375 C 15.753906 -65.234375 14.316406 -64.445312 13.015625 -62.875 C 11.722656 -61.300781 11.078125 -59.519531 11.078125 -57.53125 C 11.078125 -55.144531 11.8125 -53.128906 13.28125 -51.484375 C 14.75 -49.847656 16.660156 -48.429688 19.015625 -47.234375 C 21.378906 -46.035156 23.976562 -44.988281 26.8125 -44.09375 C 29.65625 -43.207031 32.410156 -42.320312 35.078125 -41.4375 C 38.492188 -40.34375 41.738281 -39.28125 44.8125 -38.25 C 47.894531 -37.226562 50.628906 -36 53.015625 -34.5625 C 55.410156 -33.125 57.289062 -31.257812 58.65625 -28.96875 C 60.03125 -26.675781 60.71875 -23.722656 60.71875 -20.109375 C 60.71875 -15.929688 59.585938 -12.253906 57.328125 -9.078125 C 55.078125 -5.898438 51.878906 -3.421875 47.734375 -1.640625 C 43.597656 0.140625 38.726562 1.03125 33.125 1.03125 C 29.4375 1.03125 26.085938 0.835938 23.078125 0.453125 C 20.066406 0.078125 17.09375 -0.65625 14.15625 -1.75 C 11.21875 -2.84375 7.898438 -4.484375 4.203125 -6.671875 L 4.203125 -26.875 L 4.515625 -26.875 C 6.492188 -22.976562 8.832031 -19.554688 11.53125 -16.609375 C 14.238281 -13.671875 17.023438 -11.207031 19.890625 -9.21875 C 22.765625 -7.238281 25.5 -5.734375 28.09375 -4.703125 C 30.695312 -3.679688 32.890625 -3.171875 34.671875 -3.171875 C 36.992188 -3.171875 39.421875 -3.597656 41.953125 -4.453125 C 44.484375 -5.316406 46.648438 -6.550781 48.453125 -8.15625 C 50.265625 -9.757812 51.171875 -11.691406 51.171875 -13.953125 C 51.171875 -16.140625 50.570312 -17.878906 49.375 -19.171875 C 48.1875 -20.472656 46.566406 -21.5 44.515625 -22.25 C 42.460938 -23.007812 40.101562 -23.675781 37.4375 -24.25 C 34.769531 -24.832031 32 -25.535156 29.125 -26.359375 Z M 29.125 -26.359375 "/></g></g></g><g fill="#621f1f" fill-opacity="1"><g transform="translate(181.665685, 103.258932)"><g><path d="M 3.078125 0 L 3.078125 -0.3125 C 6.285156 -4.820312 8.488281 -10 9.6875 -15.84375 C 10.882812 -21.6875 11.484375 -27.820312 11.484375 -34.25 C 11.484375 -40.675781 10.882812 -46.8125 9.6875 -52.65625 C 8.488281 -58.507812 6.285156 -63.691406 3.078125 -68.203125 L 3.078125 -68.515625 L 24.515625 -68.515625 L 24.515625 -68.203125 C 21.296875 -63.691406 19.085938 -58.507812 17.890625 -52.65625 C 16.703125 -46.8125 16.109375 -40.675781 16.109375 -34.25 C 16.109375 -27.820312 16.703125 -21.6875 17.890625 -15.84375 C 19.085938 -10 21.296875 -4.820312 24.515625 -0.3125 L 24.515625 0 Z M 13.953125 -73.953125 C 11.765625 -73.953125 9.765625 -74.476562 7.953125 -75.53125 C 6.140625 -76.59375 4.703125 -78.007812 3.640625 -79.78125 C 2.578125 -81.5625 2.046875 -83.550781 2.046875 -85.75 C 2.046875 -87.9375 2.578125 -89.914062 3.640625 -91.6875 C 4.703125 -93.46875 6.140625 -94.882812 7.953125 -95.9375 C 9.765625 -97 11.765625 -97.53125 13.953125 -97.53125 C 16.140625 -97.53125 18.117188 -97 19.890625 -95.9375 C 21.671875 -94.882812 23.09375 -93.46875 24.15625 -91.6875 C 25.21875 -89.914062 25.75 -87.9375 25.75 -85.75 C 25.75 -83.550781 25.21875 -81.5625 24.15625 -79.78125 C 23.09375 -78.007812 21.671875 -76.59375 19.890625 -75.53125 C 18.117188 -74.476562 16.140625 -73.953125 13.953125 -73.953125 Z M 13.953125 -73.953125 "/></g></g></g><g fill="#621f1f" fill-opacity="1"><g transform="translate(202.997288, 103.258932)"><g><path d="M 29.125 -26.359375 C 22.5625 -28.203125 17.378906 -30.488281 13.578125 -33.21875 C 9.785156 -35.957031 7.085938 -38.898438 5.484375 -42.046875 C 3.878906 -45.191406 3.078125 -48.269531 3.078125 -51.28125 C 3.140625 -54.425781 3.835938 -57.296875 5.171875 -59.890625 C 6.503906 -62.492188 8.195312 -64.582031 10.25 -66.15625 C 12.300781 -67.726562 14.390625 -68.515625 16.515625 -68.515625 L 56.109375 -68.515625 L 56.109375 -43.59375 L 55.6875 -43.59375 C 53.632812 -47.832031 51.085938 -51.351562 48.046875 -54.15625 C 45.003906 -56.957031 41.703125 -59.160156 38.140625 -60.765625 C 34.585938 -62.367188 31 -63.515625 27.375 -64.203125 C 23.757812 -64.890625 20.410156 -65.234375 17.328125 -65.234375 C 15.753906 -65.234375 14.316406 -64.445312 13.015625 -62.875 C 11.722656 -61.300781 11.078125 -59.519531 11.078125 -57.53125 C 11.078125 -55.144531 11.8125 -53.128906 13.28125 -51.484375 C 14.75 -49.847656 16.660156 -48.429688 19.015625 -47.234375 C 21.378906 -46.035156 23.976562 -44.988281 26.8125 -44.09375 C 29.65625 -43.207031 32.410156 -42.320312 35.078125 -41.4375 C 38.492188 -40.34375 41.738281 -39.28125 44.8125 -38.25 C 47.894531 -37.226562 50.628906 -36 53.015625 -34.5625 C 55.410156 -33.125 57.289062 -31.257812 58.65625 -28.96875 C 60.03125 -26.675781 60.71875 -23.722656 60.71875 -20.109375 C 60.71875 -15.929688 59.585938 -12.253906 57.328125 -9.078125 C 55.078125 -5.898438 51.878906 -3.421875 47.734375 -1.640625 C 43.597656 0.140625 38.726562 1.03125 33.125 1.03125 C 29.4375 1.03125 26.085938 0.835938 23.078125 0.453125 C 20.066406 0.078125 17.09375 -0.65625 14.15625 -1.75 C 11.21875 -2.84375 7.898438 -4.484375 4.203125 -6.671875 L 4.203125 -26.875 L 4.515625 -26.875 C 6.492188 -22.976562 8.832031 -19.554688 11.53125 -16.609375 C 14.238281 -13.671875 17.023438 -11.207031 19.890625 -9.21875 C 22.765625 -7.238281 25.5 -5.734375 28.09375 -4.703125 C 30.695312 -3.679688 32.890625 -3.171875 34.671875 -3.171875 C 36.992188 -3.171875 39.421875 -3.597656 41.953125 -4.453125 C 44.484375 -5.316406 46.648438 -6.550781 48.453125 -8.15625 C 50.265625 -9.757812 51.171875 -11.691406 51.171875 -13.953125 C 51.171875 -16.140625 50.570312 -17.878906 49.375 -19.171875 C 48.1875 -20.472656 46.566406 -21.5 44.515625 -22.25 C 42.460938 -23.007812 40.101562 -23.675781 37.4375 -24.25 C 34.769531 -24.832031 32 -25.535156 29.125 -26.359375 Z M 29.125 -26.359375 "/></g></g></g></g></g><g clip-path="url(#e05e97010c)"><g clip-path="url(#fe18e96c78)"><g transform="matrix(1, 0, 0, 1, 232, 134)"><g clip-path="url(#ef9d556dc0)"><g clip-path="url(#daea131cf8)"><g clip-path="url(#beaf460252)"><path fill="#ebc2c6" d="M 0.574219 0.398438 L 32.152344 0.398438 L 32.152344 31.976562 L 0.574219 31.976562 Z M 0.574219 0.398438 " fill-opacity="1" fill-rule="nonzero"/></g></g></g></g></g></g><g clip-path="url(#6cc7855c8c)"><path fill="#621f1f" d="M 265.785156 146.59375 C 252.714844 149 250.765625 150.949219 248.359375 164.015625 C 245.953125 150.949219 244.003906 149 230.9375 146.59375 C 244.003906 144.1875 245.953125 142.238281 248.359375 129.167969 C 250.765625 142.238281 252.714844 144.1875 265.785156 146.59375 Z M 265.785156 146.59375 " fill-opacity="1" fill-rule="nonzero"/></g><g transform="matrix(1, 0, 0, 1, 98, 246)"><g clip-path="url(#38686f0d24)"><g fill="#621f1f" fill-opacity="1"><g transform="translate(0.813307, 11.691983)"><g><path d="M 8.0625 -3.921875 C 8.0625 -3.359375 7.96875 -2.832031 7.78125 -2.34375 C 7.59375 -1.863281 7.328125 -1.4375 6.984375 -1.0625 C 6.640625 -0.695312 6.234375 -0.410156 5.765625 -0.203125 C 5.304688 0.00390625 4.800781 0.109375 4.25 0.109375 C 3.695312 0.109375 3.1875 0.00390625 2.71875 -0.203125 C 2.257812 -0.410156 1.859375 -0.695312 1.515625 -1.0625 C 1.179688 -1.4375 0.921875 -1.863281 0.734375 -2.34375 C 0.546875 -2.832031 0.453125 -3.359375 0.453125 -3.921875 C 0.453125 -4.484375 0.546875 -5.003906 0.734375 -5.484375 C 0.921875 -5.972656 1.179688 -6.398438 1.515625 -6.765625 C 1.859375 -7.140625 2.257812 -7.429688 2.71875 -7.640625 C 3.1875 -7.847656 3.695312 -7.953125 4.25 -7.953125 C 4.800781 -7.953125 5.304688 -7.847656 5.765625 -7.640625 C 6.234375 -7.429688 6.640625 -7.140625 6.984375 -6.765625 C 7.328125 -6.398438 7.59375 -5.972656 7.78125 -5.484375 C 7.96875 -5.003906 8.0625 -4.484375 8.0625 -3.921875 Z M 6.59375 -3.921875 C 6.59375 -4.421875 6.492188 -4.875 6.296875 -5.28125 C 6.097656 -5.6875 5.820312 -6.007812 5.46875 -6.25 C 5.113281 -6.488281 4.707031 -6.609375 4.25 -6.609375 C 3.78125 -6.609375 3.367188 -6.488281 3.015625 -6.25 C 2.671875 -6.007812 2.398438 -5.6875 2.203125 -5.28125 C 2.003906 -4.882812 1.90625 -4.429688 1.90625 -3.921875 C 1.90625 -3.421875 2.003906 -2.96875 2.203125 -2.5625 C 2.398438 -2.15625 2.671875 -1.832031 3.015625 -1.59375 C 3.367188 -1.351562 3.78125 -1.234375 4.25 -1.234375 C 4.707031 -1.234375 5.113281 -1.351562 5.46875 -1.59375 C 5.820312 -1.832031 6.097656 -2.15625 6.296875 -2.5625 C 6.492188 -2.96875 6.59375 -3.421875 6.59375 -3.921875 Z M 6.59375 -3.921875 "/></g></g></g><g fill="#621f1f" fill-opacity="1"><g transform="translate(13.261978, 11.691983)"><g><path d="M 1.640625 0 C 1.429688 0 1.242188 -0.0625 1.078125 -0.1875 C 0.921875 -0.320312 0.84375 -0.488281 0.84375 -0.6875 L 0.84375 -7.15625 C 0.84375 -7.351562 0.90625 -7.515625 1.03125 -7.640625 C 1.164062 -7.773438 1.332031 -7.84375 1.53125 -7.84375 L 4.75 -7.84375 C 5.132812 -7.84375 5.5 -7.738281 5.84375 -7.53125 C 6.1875 -7.320312 6.460938 -7.035156 6.671875 -6.671875 C 6.878906 -6.316406 6.984375 -5.90625 6.984375 -5.4375 C 6.984375 -5.144531 6.921875 -4.863281 6.796875 -4.59375 C 6.679688 -4.332031 6.523438 -4.09375 6.328125 -3.875 C 6.128906 -3.65625 5.910156 -3.488281 5.671875 -3.375 L 5.6875 -3.625 C 5.894531 -3.519531 6.066406 -3.390625 6.203125 -3.234375 C 6.335938 -3.078125 6.441406 -2.910156 6.515625 -2.734375 C 6.597656 -2.554688 6.648438 -2.367188 6.671875 -2.171875 C 6.691406 -1.984375 6.707031 -1.816406 6.71875 -1.671875 C 6.738281 -1.535156 6.765625 -1.414062 6.796875 -1.3125 C 6.828125 -1.21875 6.890625 -1.144531 6.984375 -1.09375 C 7.148438 -1 7.253906 -0.859375 7.296875 -0.671875 C 7.335938 -0.492188 7.296875 -0.332031 7.171875 -0.1875 C 7.085938 -0.09375 6.984375 -0.03125 6.859375 0 C 6.734375 0.0195312 6.601562 0.0195312 6.46875 0 C 6.34375 -0.03125 6.238281 -0.0664062 6.15625 -0.109375 C 6.03125 -0.179688 5.90625 -0.289062 5.78125 -0.4375 C 5.65625 -0.582031 5.550781 -0.78125 5.46875 -1.03125 C 5.394531 -1.28125 5.359375 -1.597656 5.359375 -1.984375 C 5.359375 -2.109375 5.332031 -2.222656 5.28125 -2.328125 C 5.238281 -2.441406 5.175781 -2.535156 5.09375 -2.609375 C 5.007812 -2.691406 4.90625 -2.753906 4.78125 -2.796875 C 4.65625 -2.835938 4.503906 -2.859375 4.328125 -2.859375 L 2.078125 -2.859375 L 2.234375 -3.109375 L 2.234375 -0.6875 C 2.234375 -0.488281 2.179688 -0.320312 2.078125 -0.1875 C 1.972656 -0.0625 1.828125 0 1.640625 0 Z M 2.078125 -4.015625 L 4.6875 -4.015625 C 4.820312 -4.015625 4.953125 -4.070312 5.078125 -4.1875 C 5.210938 -4.3125 5.316406 -4.476562 5.390625 -4.6875 C 5.472656 -4.90625 5.515625 -5.144531 5.515625 -5.40625 C 5.515625 -5.726562 5.425781 -6 5.25 -6.21875 C 5.082031 -6.4375 4.894531 -6.546875 4.6875 -6.546875 L 2.109375 -6.546875 L 2.234375 -6.90625 L 2.234375 -3.734375 Z M 2.078125 -4.015625 "/></g></g></g><g fill="#621f1f" fill-opacity="1"><g transform="translate(24.903889, 11.691983)"><g><path d="M 4.53125 0.109375 C 3.96875 0.109375 3.4375 0.00390625 2.9375 -0.203125 C 2.445312 -0.410156 2.015625 -0.695312 1.640625 -1.0625 C 1.273438 -1.4375 0.984375 -1.863281 0.765625 -2.34375 C 0.554688 -2.832031 0.453125 -3.359375 0.453125 -3.921875 C 0.453125 -4.484375 0.554688 -5.003906 0.765625 -5.484375 C 0.984375 -5.972656 1.273438 -6.398438 1.640625 -6.765625 C 2.015625 -7.140625 2.445312 -7.429688 2.9375 -7.640625 C 3.4375 -7.847656 3.96875 -7.953125 4.53125 -7.953125 C 4.882812 -7.953125 5.222656 -7.914062 5.546875 -7.84375 C 5.878906 -7.769531 6.1875 -7.65625 6.46875 -7.5 C 6.570312 -7.445312 6.648438 -7.367188 6.703125 -7.265625 C 6.765625 -7.160156 6.796875 -7.054688 6.796875 -6.953125 C 6.796875 -6.773438 6.734375 -6.613281 6.609375 -6.46875 C 6.492188 -6.332031 6.34375 -6.265625 6.15625 -6.265625 C 6.101562 -6.265625 6.039062 -6.269531 5.96875 -6.28125 C 5.90625 -6.300781 5.847656 -6.328125 5.796875 -6.359375 C 5.609375 -6.429688 5.410156 -6.488281 5.203125 -6.53125 C 4.992188 -6.582031 4.769531 -6.609375 4.53125 -6.609375 C 4.050781 -6.609375 3.609375 -6.484375 3.203125 -6.234375 C 2.804688 -5.992188 2.488281 -5.671875 2.25 -5.265625 C 2.019531 -4.859375 1.90625 -4.410156 1.90625 -3.921875 C 1.90625 -3.429688 2.019531 -2.976562 2.25 -2.5625 C 2.488281 -2.15625 2.804688 -1.832031 3.203125 -1.59375 C 3.609375 -1.351562 4.050781 -1.234375 4.53125 -1.234375 C 4.757812 -1.234375 5.007812 -1.253906 5.28125 -1.296875 C 5.550781 -1.335938 5.769531 -1.398438 5.9375 -1.484375 L 5.84375 -1.140625 L 5.84375 -3.0625 L 6.03125 -2.890625 L 4.78125 -2.890625 C 4.59375 -2.890625 4.429688 -2.953125 4.296875 -3.078125 C 4.160156 -3.203125 4.09375 -3.363281 4.09375 -3.5625 C 4.09375 -3.757812 4.160156 -3.921875 4.296875 -4.046875 C 4.429688 -4.171875 4.59375 -4.234375 4.78125 -4.234375 L 6.625 -4.234375 C 6.8125 -4.234375 6.96875 -4.164062 7.09375 -4.03125 C 7.226562 -3.90625 7.296875 -3.742188 7.296875 -3.546875 L 7.296875 -1.171875 C 7.296875 -1.023438 7.257812 -0.898438 7.1875 -0.796875 C 7.113281 -0.703125 7.035156 -0.628906 6.953125 -0.578125 C 6.609375 -0.359375 6.226562 -0.1875 5.8125 -0.0625 C 5.40625 0.0507812 4.976562 0.109375 4.53125 0.109375 Z M 4.53125 0.109375 "/></g></g></g><g fill="#621f1f" fill-opacity="1"><g transform="translate(36.646643, 11.691983)"><g><path d="M 3.71875 -6.078125 L 1.296875 -0.390625 C 1.242188 -0.242188 1.160156 -0.128906 1.046875 -0.046875 C 0.941406 0.0234375 0.828125 0.0625 0.703125 0.0625 C 0.503906 0.0625 0.351562 0.00390625 0.25 -0.109375 C 0.15625 -0.222656 0.109375 -0.363281 0.109375 -0.53125 C 0.109375 -0.59375 0.117188 -0.660156 0.140625 -0.734375 L 2.9375 -7.4375 C 3 -7.582031 3.085938 -7.695312 3.203125 -7.78125 C 3.328125 -7.863281 3.460938 -7.898438 3.609375 -7.890625 C 3.742188 -7.890625 3.867188 -7.847656 3.984375 -7.765625 C 4.097656 -7.691406 4.179688 -7.582031 4.234375 -7.4375 L 6.984375 -0.875 C 7.023438 -0.78125 7.046875 -0.691406 7.046875 -0.609375 C 7.046875 -0.398438 6.976562 -0.234375 6.84375 -0.109375 C 6.71875 0.00390625 6.578125 0.0625 6.421875 0.0625 C 6.285156 0.0625 6.160156 0.0195312 6.046875 -0.0625 C 5.941406 -0.144531 5.859375 -0.257812 5.796875 -0.40625 L 3.390625 -6.015625 Z M 1.640625 -1.765625 L 2.265625 -3.046875 L 5.28125 -3.046875 L 5.5 -1.765625 Z M 1.640625 -1.765625 "/></g></g></g><g fill="#621f1f" fill-opacity="1"><g transform="translate(47.750715, 11.691983)"><g><path d="M 6.78125 -7.84375 C 6.96875 -7.84375 7.113281 -7.78125 7.21875 -7.65625 C 7.332031 -7.539062 7.390625 -7.394531 7.390625 -7.21875 L 7.390625 -0.6875 C 7.390625 -0.488281 7.320312 -0.320312 7.1875 -0.1875 C 7.0625 -0.0625 6.898438 0 6.703125 0 C 6.609375 0 6.507812 -0.015625 6.40625 -0.046875 C 6.3125 -0.078125 6.238281 -0.125 6.1875 -0.1875 L 1.78125 -5.78125 L 2.078125 -5.953125 L 2.078125 -0.625 C 2.078125 -0.445312 2.015625 -0.296875 1.890625 -0.171875 C 1.773438 -0.0546875 1.625 0 1.4375 0 C 1.257812 0 1.113281 -0.0546875 1 -0.171875 C 0.894531 -0.296875 0.84375 -0.445312 0.84375 -0.625 L 0.84375 -7.15625 C 0.84375 -7.351562 0.90625 -7.515625 1.03125 -7.640625 C 1.164062 -7.773438 1.332031 -7.84375 1.53125 -7.84375 C 1.632812 -7.84375 1.738281 -7.820312 1.84375 -7.78125 C 1.957031 -7.738281 2.039062 -7.675781 2.09375 -7.59375 L 6.359375 -2.15625 L 6.171875 -2.015625 L 6.171875 -7.21875 C 6.171875 -7.394531 6.226562 -7.539062 6.34375 -7.65625 C 6.457031 -7.78125 6.601562 -7.84375 6.78125 -7.84375 Z M 6.78125 -7.84375 "/></g></g></g><g fill="#621f1f" fill-opacity="1"><g transform="translate(59.930467, 11.691983)"><g><path d="M 2.234375 -0.6875 C 2.234375 -0.488281 2.160156 -0.320312 2.015625 -0.1875 C 1.878906 -0.0625 1.71875 0 1.53125 0 C 1.320312 0 1.15625 -0.0625 1.03125 -0.1875 C 0.90625 -0.320312 0.84375 -0.488281 0.84375 -0.6875 L 0.84375 -7.15625 C 0.84375 -7.351562 0.910156 -7.515625 1.046875 -7.640625 C 1.179688 -7.773438 1.351562 -7.84375 1.5625 -7.84375 C 1.738281 -7.84375 1.894531 -7.773438 2.03125 -7.640625 C 2.164062 -7.515625 2.234375 -7.351562 2.234375 -7.15625 Z M 2.234375 -0.6875 "/></g></g></g><g fill="#621f1f" fill-opacity="1"><g transform="translate(66.955946, 11.691983)"><g><path d="M 6.328125 -7.46875 C 6.523438 -7.363281 6.640625 -7.207031 6.671875 -7 C 6.703125 -6.789062 6.648438 -6.601562 6.515625 -6.4375 C 6.410156 -6.300781 6.28125 -6.222656 6.125 -6.203125 C 5.976562 -6.191406 5.828125 -6.222656 5.671875 -6.296875 C 5.492188 -6.378906 5.304688 -6.441406 5.109375 -6.484375 C 4.910156 -6.523438 4.703125 -6.546875 4.484375 -6.546875 C 4.078125 -6.546875 3.710938 -6.484375 3.390625 -6.359375 C 3.078125 -6.234375 2.804688 -6.050781 2.578125 -5.8125 C 2.359375 -5.582031 2.191406 -5.304688 2.078125 -4.984375 C 1.960938 -4.660156 1.90625 -4.304688 1.90625 -3.921875 C 1.90625 -3.460938 1.96875 -3.066406 2.09375 -2.734375 C 2.226562 -2.398438 2.410156 -2.117188 2.640625 -1.890625 C 2.867188 -1.671875 3.140625 -1.503906 3.453125 -1.390625 C 3.773438 -1.285156 4.117188 -1.234375 4.484375 -1.234375 C 4.679688 -1.234375 4.878906 -1.25 5.078125 -1.28125 C 5.285156 -1.320312 5.484375 -1.390625 5.671875 -1.484375 C 5.828125 -1.566406 5.976562 -1.59375 6.125 -1.5625 C 6.28125 -1.539062 6.410156 -1.460938 6.515625 -1.328125 C 6.671875 -1.140625 6.726562 -0.945312 6.6875 -0.75 C 6.644531 -0.550781 6.53125 -0.410156 6.34375 -0.328125 C 6.144531 -0.222656 5.941406 -0.140625 5.734375 -0.078125 C 5.535156 -0.015625 5.332031 0.03125 5.125 0.0625 C 4.914062 0.09375 4.703125 0.109375 4.484375 0.109375 C 3.941406 0.109375 3.429688 0.0234375 2.953125 -0.140625 C 2.472656 -0.316406 2.039062 -0.570312 1.65625 -0.90625 C 1.28125 -1.238281 0.984375 -1.65625 0.765625 -2.15625 C 0.554688 -2.664062 0.453125 -3.253906 0.453125 -3.921875 C 0.453125 -4.492188 0.550781 -5.019531 0.75 -5.5 C 0.945312 -5.988281 1.222656 -6.410156 1.578125 -6.765625 C 1.941406 -7.117188 2.367188 -7.394531 2.859375 -7.59375 C 3.359375 -7.789062 3.898438 -7.890625 4.484375 -7.890625 C 4.804688 -7.890625 5.125 -7.851562 5.4375 -7.78125 C 5.757812 -7.707031 6.054688 -7.601562 6.328125 -7.46875 Z M 6.328125 -7.46875 "/></g></g></g><g fill="#621f1f" fill-opacity="1"><g transform="translate(77.925558, 11.691983)"><g/></g></g><g fill="#621f1f" fill-opacity="1"><g transform="translate(85.007064, 11.691983)"><g><path d="M 6.328125 -7.46875 C 6.523438 -7.363281 6.640625 -7.207031 6.671875 -7 C 6.703125 -6.789062 6.648438 -6.601562 6.515625 -6.4375 C 6.410156 -6.300781 6.28125 -6.222656 6.125 -6.203125 C 5.976562 -6.191406 5.828125 -6.222656 5.671875 -6.296875 C 5.492188 -6.378906 5.304688 -6.441406 5.109375 -6.484375 C 4.910156 -6.523438 4.703125 -6.546875 4.484375 -6.546875 C 4.078125 -6.546875 3.710938 -6.484375 3.390625 -6.359375 C 3.078125 -6.234375 2.804688 -6.050781 2.578125 -5.8125 C 2.359375 -5.582031 2.191406 -5.304688 2.078125 -4.984375 C 1.960938 -4.660156 1.90625 -4.304688 1.90625 -3.921875 C 1.90625 -3.460938 1.96875 -3.066406 2.09375 -2.734375 C 2.226562 -2.398438 2.410156 -2.117188 2.640625 -1.890625 C 2.867188 -1.671875 3.140625 -1.503906 3.453125 -1.390625 C 3.773438 -1.285156 4.117188 -1.234375 4.484375 -1.234375 C 4.679688 -1.234375 4.878906 -1.25 5.078125 -1.28125 C 5.285156 -1.320312 5.484375 -1.390625 5.671875 -1.484375 C 5.828125 -1.566406 5.976562 -1.59375 6.125 -1.5625 C 6.28125 -1.539062 6.410156 -1.460938 6.515625 -1.328125 C 6.671875 -1.140625 6.726562 -0.945312 6.6875 -0.75 C 6.644531 -0.550781 6.53125 -0.410156 6.34375 -0.328125 C 6.144531 -0.222656 5.941406 -0.140625 5.734375 -0.078125 C 5.535156 -0.015625 5.332031 0.03125 5.125 0.0625 C 4.914062 0.09375 4.703125 0.109375 4.484375 0.109375 C 3.941406 0.109375 3.429688 0.0234375 2.953125 -0.140625 C 2.472656 -0.316406 2.039062 -0.570312 1.65625 -0.90625 C 1.28125 -1.238281 0.984375 -1.65625 0.765625 -2.15625 C 0.554688 -2.664062 0.453125 -3.253906 0.453125 -3.921875 C 0.453125 -4.492188 0.550781 -5.019531 0.75 -5.5 C 0.945312 -5.988281 1.222656 -6.410156 1.578125 -6.765625 C 1.941406 -7.117188 2.367188 -7.394531 2.859375 -7.59375 C 3.359375 -7.789062 3.898438 -7.890625 4.484375 -7.890625 C 4.804688 -7.890625 5.125 -7.851562 5.4375 -7.78125 C 5.757812 -7.707031 6.054688 -7.601562 6.328125 -7.46875 Z M 6.328125 -7.46875 "/></g></g></g><g fill="#621f1f" fill-opacity="1"><g transform="translate(95.976676, 11.691983)"><g><path d="M 8.0625 -3.921875 C 8.0625 -3.359375 7.96875 -2.832031 7.78125 -2.34375 C 7.59375 -1.863281 7.328125 -1.4375 6.984375 -1.0625 C 6.640625 -0.695312 6.234375 -0.410156 5.765625 -0.203125 C 5.304688 0.00390625 4.800781 0.109375 4.25 0.109375 C 3.695312 0.109375 3.1875 0.00390625 2.71875 -0.203125 C 2.257812 -0.410156 1.859375 -0.695312 1.515625 -1.0625 C 1.179688 -1.4375 0.921875 -1.863281 0.734375 -2.34375 C 0.546875 -2.832031 0.453125 -3.359375 0.453125 -3.921875 C 0.453125 -4.484375 0.546875 -5.003906 0.734375 -5.484375 C 0.921875 -5.972656 1.179688 -6.398438 1.515625 -6.765625 C 1.859375 -7.140625 2.257812 -7.429688 2.71875 -7.640625 C 3.1875 -7.847656 3.695312 -7.953125 4.25 -7.953125 C 4.800781 -7.953125 5.304688 -7.847656 5.765625 -7.640625 C 6.234375 -7.429688 6.640625 -7.140625 6.984375 -6.765625 C 7.328125 -6.398438 7.59375 -5.972656 7.78125 -5.484375 C 7.96875 -5.003906 8.0625 -4.484375 8.0625 -3.921875 Z M 6.59375 -3.921875 C 6.59375 -4.421875 6.492188 -4.875 6.296875 -5.28125 C 6.097656 -5.6875 5.820312 -6.007812 5.46875 -6.25 C 5.113281 -6.488281 4.707031 -6.609375 4.25 -6.609375 C 3.78125 -6.609375 3.367188 -6.488281 3.015625 -6.25 C 2.671875 -6.007812 2.398438 -5.6875 2.203125 -5.28125 C 2.003906 -4.882812 1.90625 -4.429688 1.90625 -3.921875 C 1.90625 -3.421875 2.003906 -2.96875 2.203125 -2.5625 C 2.398438 -2.15625 2.671875 -1.832031 3.015625 -1.59375 C 3.367188 -1.351562 3.78125 -1.234375 4.25 -1.234375 C 4.707031 -1.234375 5.113281 -1.351562 5.46875 -1.59375 C 5.820312 -1.832031 6.097656 -2.15625 6.296875 -2.5625 C 6.492188 -2.96875 6.59375 -3.421875 6.59375 -3.921875 Z M 6.59375 -3.921875 "/></g></g></g><g fill="#621f1f" fill-opacity="1"><g transform="translate(108.425347, 11.691983)"><g><path d="M 3.359375 0.109375 C 2.835938 0.109375 2.367188 0.046875 1.953125 -0.078125 C 1.535156 -0.210938 1.132812 -0.441406 0.75 -0.765625 C 0.65625 -0.847656 0.582031 -0.941406 0.53125 -1.046875 C 0.476562 -1.148438 0.453125 -1.253906 0.453125 -1.359375 C 0.453125 -1.535156 0.507812 -1.6875 0.625 -1.8125 C 0.75 -1.945312 0.90625 -2.015625 1.09375 -2.015625 C 1.238281 -2.015625 1.367188 -1.96875 1.484375 -1.875 C 1.765625 -1.644531 2.046875 -1.46875 2.328125 -1.34375 C 2.609375 -1.226562 2.953125 -1.171875 3.359375 -1.171875 C 3.640625 -1.171875 3.894531 -1.210938 4.125 -1.296875 C 4.351562 -1.390625 4.535156 -1.507812 4.671875 -1.65625 C 4.816406 -1.800781 4.890625 -1.96875 4.890625 -2.15625 C 4.890625 -2.375 4.820312 -2.5625 4.6875 -2.71875 C 4.5625 -2.875 4.359375 -3.003906 4.078125 -3.109375 C 3.796875 -3.222656 3.445312 -3.3125 3.03125 -3.375 C 2.625 -3.4375 2.265625 -3.523438 1.953125 -3.640625 C 1.648438 -3.765625 1.394531 -3.921875 1.1875 -4.109375 C 0.988281 -4.304688 0.835938 -4.53125 0.734375 -4.78125 C 0.628906 -5.039062 0.578125 -5.332031 0.578125 -5.65625 C 0.578125 -6.144531 0.703125 -6.5625 0.953125 -6.90625 C 1.203125 -7.25 1.535156 -7.507812 1.953125 -7.6875 C 2.378906 -7.863281 2.851562 -7.953125 3.375 -7.953125 C 3.851562 -7.953125 4.300781 -7.878906 4.71875 -7.734375 C 5.132812 -7.585938 5.472656 -7.40625 5.734375 -7.1875 C 5.953125 -7.007812 6.0625 -6.8125 6.0625 -6.59375 C 6.0625 -6.425781 6 -6.273438 5.875 -6.140625 C 5.75 -6.003906 5.597656 -5.9375 5.421875 -5.9375 C 5.304688 -5.9375 5.207031 -5.96875 5.125 -6.03125 C 5 -6.132812 4.832031 -6.234375 4.625 -6.328125 C 4.425781 -6.421875 4.210938 -6.5 3.984375 -6.5625 C 3.765625 -6.632812 3.5625 -6.671875 3.375 -6.671875 C 3.050781 -6.671875 2.78125 -6.628906 2.5625 -6.546875 C 2.34375 -6.460938 2.175781 -6.347656 2.0625 -6.203125 C 1.945312 -6.066406 1.890625 -5.90625 1.890625 -5.71875 C 1.890625 -5.488281 1.953125 -5.300781 2.078125 -5.15625 C 2.210938 -5.007812 2.40625 -4.894531 2.65625 -4.8125 C 2.90625 -4.726562 3.203125 -4.648438 3.546875 -4.578125 C 3.992188 -4.492188 4.382812 -4.394531 4.71875 -4.28125 C 5.0625 -4.175781 5.34375 -4.035156 5.5625 -3.859375 C 5.789062 -3.679688 5.957031 -3.457031 6.0625 -3.1875 C 6.175781 -2.925781 6.234375 -2.609375 6.234375 -2.234375 C 6.234375 -1.742188 6.097656 -1.320312 5.828125 -0.96875 C 5.566406 -0.625 5.21875 -0.359375 4.78125 -0.171875 C 4.34375 0.015625 3.867188 0.109375 3.359375 0.109375 Z M 3.359375 0.109375 "/></g></g></g><g fill="#621f1f" fill-opacity="1"><g transform="translate(119.058814, 11.691983)"><g><path d="M 1.546875 -7.859375 C 1.648438 -7.859375 1.757812 -7.828125 1.875 -7.765625 C 1.988281 -7.710938 2.078125 -7.640625 2.140625 -7.546875 L 4.859375 -3.359375 L 4.296875 -3.390625 L 7.09375 -7.546875 C 7.226562 -7.753906 7.410156 -7.859375 7.640625 -7.859375 C 7.816406 -7.859375 7.972656 -7.789062 8.109375 -7.65625 C 8.253906 -7.53125 8.328125 -7.367188 8.328125 -7.171875 L 8.328125 -0.6875 C 8.328125 -0.488281 8.265625 -0.320312 8.140625 -0.1875 C 8.015625 -0.0625 7.847656 0 7.640625 0 C 7.429688 0 7.257812 -0.0625 7.125 -0.1875 C 7 -0.320312 6.9375 -0.488281 6.9375 -0.6875 L 6.9375 -5.953125 L 7.375 -5.859375 L 5.09375 -2.375 C 5.019531 -2.289062 4.929688 -2.21875 4.828125 -2.15625 C 4.734375 -2.101562 4.632812 -2.078125 4.53125 -2.078125 C 4.425781 -2.078125 4.320312 -2.101562 4.21875 -2.15625 C 4.125 -2.21875 4.046875 -2.289062 3.984375 -2.375 L 1.84375 -5.765625 L 2.125 -6.359375 L 2.125 -0.6875 C 2.125 -0.488281 2.0625 -0.320312 1.9375 -0.1875 C 1.820312 -0.0625 1.671875 0 1.484375 0 C 1.296875 0 1.140625 -0.0625 1.015625 -0.1875 C 0.898438 -0.320312 0.84375 -0.488281 0.84375 -0.6875 L 0.84375 -7.171875 C 0.84375 -7.359375 0.910156 -7.519531 1.046875 -7.65625 C 1.179688 -7.789062 1.347656 -7.859375 1.546875 -7.859375 Z M 1.546875 -7.859375 "/></g></g></g><g fill="#621f1f" fill-opacity="1"><g transform="translate(132.179774, 11.691983)"><g><path d="M 1.53125 -7.84375 L 5.28125 -7.84375 C 5.46875 -7.84375 5.625 -7.78125 5.75 -7.65625 C 5.882812 -7.53125 5.953125 -7.375 5.953125 -7.1875 C 5.953125 -7 5.882812 -6.84375 5.75 -6.71875 C 5.625 -6.601562 5.46875 -6.546875 5.28125 -6.546875 L 2.140625 -6.546875 L 2.234375 -6.75 L 2.234375 -4.5625 L 2.15625 -4.65625 L 4.765625 -4.65625 C 4.960938 -4.65625 5.125 -4.59375 5.25 -4.46875 C 5.382812 -4.34375 5.453125 -4.179688 5.453125 -3.984375 C 5.453125 -3.796875 5.382812 -3.644531 5.25 -3.53125 C 5.125 -3.414062 4.960938 -3.359375 4.765625 -3.359375 L 2.1875 -3.359375 L 2.234375 -3.453125 L 2.234375 -1.1875 L 2.15625 -1.28125 L 5.28125 -1.28125 C 5.46875 -1.28125 5.625 -1.210938 5.75 -1.078125 C 5.882812 -0.953125 5.953125 -0.804688 5.953125 -0.640625 C 5.953125 -0.453125 5.882812 -0.296875 5.75 -0.171875 C 5.625 -0.0546875 5.46875 0 5.28125 0 L 1.53125 0 C 1.332031 0 1.164062 -0.0625 1.03125 -0.1875 C 0.90625 -0.320312 0.84375 -0.488281 0.84375 -0.6875 L 0.84375 -7.15625 C 0.84375 -7.351562 0.90625 -7.515625 1.03125 -7.640625 C 1.164062 -7.773438 1.332031 -7.84375 1.53125 -7.84375 Z M 1.53125 -7.84375 "/></g></g></g><g fill="#621f1f" fill-opacity="1"><g transform="translate(142.533123, 11.691983)"><g><path d="M 3.5 0 C 3.289062 0 3.117188 -0.0625 2.984375 -0.1875 C 2.847656 -0.320312 2.78125 -0.488281 2.78125 -0.6875 L 2.78125 -7.1875 L 4.234375 -7.1875 L 4.234375 -0.6875 C 4.234375 -0.488281 4.160156 -0.320312 4.015625 -0.1875 C 3.878906 -0.0625 3.707031 0 3.5 0 Z M 1.015625 -6.546875 C 0.828125 -6.546875 0.664062 -6.601562 0.53125 -6.71875 C 0.40625 -6.84375 0.34375 -7.003906 0.34375 -7.203125 C 0.34375 -7.398438 0.40625 -7.554688 0.53125 -7.671875 C 0.664062 -7.785156 0.828125 -7.84375 1.015625 -7.84375 L 6 -7.84375 C 6.1875 -7.84375 6.34375 -7.78125 6.46875 -7.65625 C 6.601562 -7.539062 6.671875 -7.382812 6.671875 -7.1875 C 6.671875 -7 6.601562 -6.84375 6.46875 -6.71875 C 6.34375 -6.601562 6.1875 -6.546875 6 -6.546875 Z M 1.015625 -6.546875 "/></g></g></g><g fill="#621f1f" fill-opacity="1"><g transform="translate(153.491537, 11.691983)"><g><path d="M 2.234375 -0.6875 C 2.234375 -0.488281 2.160156 -0.320312 2.015625 -0.1875 C 1.878906 -0.0625 1.71875 0 1.53125 0 C 1.320312 0 1.15625 -0.0625 1.03125 -0.1875 C 0.90625 -0.320312 0.84375 -0.488281 0.84375 -0.6875 L 0.84375 -7.15625 C 0.84375 -7.351562 0.910156 -7.515625 1.046875 -7.640625 C 1.179688 -7.773438 1.351562 -7.84375 1.5625 -7.84375 C 1.738281 -7.84375 1.894531 -7.773438 2.03125 -7.640625 C 2.164062 -7.515625 2.234375 -7.351562 2.234375 -7.15625 Z M 2.234375 -0.6875 "/></g></g></g><g fill="#621f1f" fill-opacity="1"><g transform="translate(160.517016, 11.691983)"><g><path d="M 6.328125 -7.46875 C 6.523438 -7.363281 6.640625 -7.207031 6.671875 -7 C 6.703125 -6.789062 6.648438 -6.601562 6.515625 -6.4375 C 6.410156 -6.300781 6.28125 -6.222656 6.125 -6.203125 C 5.976562 -6.191406 5.828125 -6.222656 5.671875 -6.296875 C 5.492188 -6.378906 5.304688 -6.441406 5.109375 -6.484375 C 4.910156 -6.523438 4.703125 -6.546875 4.484375 -6.546875 C 4.078125 -6.546875 3.710938 -6.484375 3.390625 -6.359375 C 3.078125 -6.234375 2.804688 -6.050781 2.578125 -5.8125 C 2.359375 -5.582031 2.191406 -5.304688 2.078125 -4.984375 C 1.960938 -4.660156 1.90625 -4.304688 1.90625 -3.921875 C 1.90625 -3.460938 1.96875 -3.066406 2.09375 -2.734375 C 2.226562 -2.398438 2.410156 -2.117188 2.640625 -1.890625 C 2.867188 -1.671875 3.140625 -1.503906 3.453125 -1.390625 C 3.773438 -1.285156 4.117188 -1.234375 4.484375 -1.234375 C 4.679688 -1.234375 4.878906 -1.25 5.078125 -1.28125 C 5.285156 -1.320312 5.484375 -1.390625 5.671875 -1.484375 C 5.828125 -1.566406 5.976562 -1.59375 6.125 -1.5625 C 6.28125 -1.539062 6.410156 -1.460938 6.515625 -1.328125 C 6.671875 -1.140625 6.726562 -0.945312 6.6875 -0.75 C 6.644531 -0.550781 6.53125 -0.410156 6.34375 -0.328125 C 6.144531 -0.222656 5.941406 -0.140625 5.734375 -0.078125 C 5.535156 -0.015625 5.332031 0.03125 5.125 0.0625 C 4.914062 0.09375 4.703125 0.109375 4.484375 0.109375 C 3.941406 0.109375 3.429688 0.0234375 2.953125 -0.140625 C 2.472656 -0.316406 2.039062 -0.570312 1.65625 -0.90625 C 1.28125 -1.238281 0.984375 -1.65625 0.765625 -2.15625 C 0.554688 -2.664062 0.453125 -3.253906 0.453125 -3.921875 C 0.453125 -4.492188 0.550781 -5.019531 0.75 -5.5 C 0.945312 -5.988281 1.222656 -6.410156 1.578125 -6.765625 C 1.941406 -7.117188 2.367188 -7.394531 2.859375 -7.59375 C 3.359375 -7.789062 3.898438 -7.890625 4.484375 -7.890625 C 4.804688 -7.890625 5.125 -7.851562 5.4375 -7.78125 C 5.757812 -7.707031 6.054688 -7.601562 6.328125 -7.46875 Z M 6.328125 -7.46875 "/></g></g></g><g fill="#621f1f" fill-opacity="1"><g transform="translate(171.486628, 11.691983)"><g><path d="M 3.359375 0.109375 C 2.835938 0.109375 2.367188 0.046875 1.953125 -0.078125 C 1.535156 -0.210938 1.132812 -0.441406 0.75 -0.765625 C 0.65625 -0.847656 0.582031 -0.941406 0.53125 -1.046875 C 0.476562 -1.148438 0.453125 -1.253906 0.453125 -1.359375 C 0.453125 -1.535156 0.507812 -1.6875 0.625 -1.8125 C 0.75 -1.945312 0.90625 -2.015625 1.09375 -2.015625 C 1.238281 -2.015625 1.367188 -1.96875 1.484375 -1.875 C 1.765625 -1.644531 2.046875 -1.46875 2.328125 -1.34375 C 2.609375 -1.226562 2.953125 -1.171875 3.359375 -1.171875 C 3.640625 -1.171875 3.894531 -1.210938 4.125 -1.296875 C 4.351562 -1.390625 4.535156 -1.507812 4.671875 -1.65625 C 4.816406 -1.800781 4.890625 -1.96875 4.890625 -2.15625 C 4.890625 -2.375 4.820312 -2.5625 4.6875 -2.71875 C 4.5625 -2.875 4.359375 -3.003906 4.078125 -3.109375 C 3.796875 -3.222656 3.445312 -3.3125 3.03125 -3.375 C 2.625 -3.4375 2.265625 -3.523438 1.953125 -3.640625 C 1.648438 -3.765625 1.394531 -3.921875 1.1875 -4.109375 C 0.988281 -4.304688 0.835938 -4.53125 0.734375 -4.78125 C 0.628906 -5.039062 0.578125 -5.332031 0.578125 -5.65625 C 0.578125 -6.144531 0.703125 -6.5625 0.953125 -6.90625 C 1.203125 -7.25 1.535156 -7.507812 1.953125 -7.6875 C 2.378906 -7.863281 2.851562 -7.953125 3.375 -7.953125 C 3.851562 -7.953125 4.300781 -7.878906 4.71875 -7.734375 C 5.132812 -7.585938 5.472656 -7.40625 5.734375 -7.1875 C 5.953125 -7.007812 6.0625 -6.8125 6.0625 -6.59375 C 6.0625 -6.425781 6 -6.273438 5.875 -6.140625 C 5.75 -6.003906 5.597656 -5.9375 5.421875 -5.9375 C 5.304688 -5.9375 5.207031 -5.96875 5.125 -6.03125 C 5 -6.132812 4.832031 -6.234375 4.625 -6.328125 C 4.425781 -6.421875 4.210938 -6.5 3.984375 -6.5625 C 3.765625 -6.632812 3.5625 -6.671875 3.375 -6.671875 C 3.050781 -6.671875 2.78125 -6.628906 2.5625 -6.546875 C 2.34375 -6.460938 2.175781 -6.347656 2.0625 -6.203125 C 1.945312 -6.066406 1.890625 -5.90625 1.890625 -5.71875 C 1.890625 -5.488281 1.953125 -5.300781 2.078125 -5.15625 C 2.210938 -5.007812 2.40625 -4.894531 2.65625 -4.8125 C 2.90625 -4.726562 3.203125 -4.648438 3.546875 -4.578125 C 3.992188 -4.492188 4.382812 -4.394531 4.71875 -4.28125 C 5.0625 -4.175781 5.34375 -4.035156 5.5625 -3.859375 C 5.789062 -3.679688 5.957031 -3.457031 6.0625 -3.1875 C 6.175781 -2.925781 6.234375 -2.609375 6.234375 -2.234375 C 6.234375 -1.742188 6.097656 -1.320312 5.828125 -0.96875 C 5.566406 -0.625 5.21875 -0.359375 4.78125 -0.171875 C 4.34375 0.015625 3.867188 0.109375 3.359375 0.109375 Z M 3.359375 0.109375 "/></g></g></g></g></g><g fill="#621f1f" fill-opacity="1"><g transform="translate(175.020856, 269.57295)"><g><path d="M 4.578125 -1.09375 C 4.734375 -1.09375 4.863281 -1.039062 4.96875 -0.9375 C 5.082031 -0.832031 5.140625 -0.703125 5.140625 -0.546875 C 5.140625 -0.390625 5.082031 -0.257812 4.96875 -0.15625 C 4.863281 -0.0507812 4.734375 0 4.578125 0 L 1.1875 0 C 1.007812 0 0.867188 -0.0507812 0.765625 -0.15625 C 0.671875 -0.257812 0.625 -0.394531 0.625 -0.5625 C 0.625 -0.726562 0.679688 -0.878906 0.796875 -1.015625 L 2.984375 -3.34375 C 3.222656 -3.601562 3.414062 -3.875 3.5625 -4.15625 C 3.707031 -4.4375 3.78125 -4.679688 3.78125 -4.890625 C 3.78125 -5.222656 3.679688 -5.488281 3.484375 -5.6875 C 3.296875 -5.894531 3.039062 -6 2.71875 -6 C 2.59375 -6 2.460938 -5.96875 2.328125 -5.90625 C 2.191406 -5.84375 2.0625 -5.757812 1.9375 -5.65625 C 1.820312 -5.550781 1.707031 -5.429688 1.59375 -5.296875 C 1.519531 -5.179688 1.441406 -5.109375 1.359375 -5.078125 C 1.273438 -5.054688 1.203125 -5.046875 1.140625 -5.046875 C 0.992188 -5.046875 0.859375 -5.097656 0.734375 -5.203125 C 0.609375 -5.316406 0.546875 -5.445312 0.546875 -5.59375 C 0.546875 -5.707031 0.582031 -5.816406 0.65625 -5.921875 C 0.738281 -6.035156 0.835938 -6.148438 0.953125 -6.265625 C 1.117188 -6.429688 1.300781 -6.578125 1.5 -6.703125 C 1.707031 -6.828125 1.921875 -6.921875 2.140625 -6.984375 C 2.367188 -7.054688 2.585938 -7.09375 2.796875 -7.09375 C 3.234375 -7.09375 3.617188 -7.003906 3.953125 -6.828125 C 4.285156 -6.648438 4.539062 -6.398438 4.71875 -6.078125 C 4.894531 -5.753906 4.984375 -5.375 4.984375 -4.9375 C 4.984375 -4.570312 4.875 -4.164062 4.65625 -3.71875 C 4.445312 -3.269531 4.160156 -2.847656 3.796875 -2.453125 L 2.4375 -1.015625 L 2.328125 -1.09375 Z M 4.578125 -1.09375 "/></g></g></g><g fill="#621f1f" fill-opacity="1"><g transform="translate(181.268609, 269.57295)"><g><path d="M 3.0625 0.09375 C 2.488281 0.09375 2.003906 -0.0546875 1.609375 -0.359375 C 1.210938 -0.660156 0.910156 -1.082031 0.703125 -1.625 C 0.503906 -2.164062 0.40625 -2.789062 0.40625 -3.5 C 0.40625 -4.207031 0.503906 -4.832031 0.703125 -5.375 C 0.910156 -5.914062 1.210938 -6.335938 1.609375 -6.640625 C 2.003906 -6.941406 2.488281 -7.09375 3.0625 -7.09375 C 3.644531 -7.09375 4.132812 -6.941406 4.53125 -6.640625 C 4.925781 -6.335938 5.222656 -5.914062 5.421875 -5.375 C 5.628906 -4.832031 5.734375 -4.207031 5.734375 -3.5 C 5.734375 -2.789062 5.628906 -2.164062 5.421875 -1.625 C 5.222656 -1.082031 4.925781 -0.660156 4.53125 -0.359375 C 4.132812 -0.0546875 3.644531 0.09375 3.0625 0.09375 Z M 3.0625 -1.09375 C 3.34375 -1.09375 3.582031 -1.179688 3.78125 -1.359375 C 3.988281 -1.535156 4.148438 -1.800781 4.265625 -2.15625 C 4.378906 -2.519531 4.4375 -2.96875 4.4375 -3.5 C 4.4375 -4.039062 4.378906 -4.488281 4.265625 -4.84375 C 4.148438 -5.195312 3.988281 -5.460938 3.78125 -5.640625 C 3.582031 -5.816406 3.34375 -5.90625 3.0625 -5.90625 C 2.789062 -5.90625 2.550781 -5.816406 2.34375 -5.640625 C 2.144531 -5.460938 1.988281 -5.195312 1.875 -4.84375 C 1.757812 -4.488281 1.703125 -4.039062 1.703125 -3.5 C 1.703125 -2.96875 1.757812 -2.519531 1.875 -2.15625 C 1.988281 -1.800781 2.144531 -1.535156 2.34375 -1.359375 C 2.550781 -1.179688 2.789062 -1.09375 3.0625 -1.09375 Z M 3.0625 -1.09375 "/></g></g></g><g fill="#621f1f" fill-opacity="1"><g transform="translate(187.966183, 269.57295)"><g><path d="M 4.578125 -1.09375 C 4.734375 -1.09375 4.863281 -1.039062 4.96875 -0.9375 C 5.082031 -0.832031 5.140625 -0.703125 5.140625 -0.546875 C 5.140625 -0.390625 5.082031 -0.257812 4.96875 -0.15625 C 4.863281 -0.0507812 4.734375 0 4.578125 0 L 1.1875 0 C 1.007812 0 0.867188 -0.0507812 0.765625 -0.15625 C 0.671875 -0.257812 0.625 -0.394531 0.625 -0.5625 C 0.625 -0.726562 0.679688 -0.878906 0.796875 -1.015625 L 2.984375 -3.34375 C 3.222656 -3.601562 3.414062 -3.875 3.5625 -4.15625 C 3.707031 -4.4375 3.78125 -4.679688 3.78125 -4.890625 C 3.78125 -5.222656 3.679688 -5.488281 3.484375 -5.6875 C 3.296875 -5.894531 3.039062 -6 2.71875 -6 C 2.59375 -6 2.460938 -5.96875 2.328125 -5.90625 C 2.191406 -5.84375 2.0625 -5.757812 1.9375 -5.65625 C 1.820312 -5.550781 1.707031 -5.429688 1.59375 -5.296875 C 1.519531 -5.179688 1.441406 -5.109375 1.359375 -5.078125 C 1.273438 -5.054688 1.203125 -5.046875 1.140625 -5.046875 C 0.992188 -5.046875 0.859375 -5.097656 0.734375 -5.203125 C 0.609375 -5.316406 0.546875 -5.445312 0.546875 -5.59375 C 0.546875 -5.707031 0.582031 -5.816406 0.65625 -5.921875 C 0.738281 -6.035156 0.835938 -6.148438 0.953125 -6.265625 C 1.117188 -6.429688 1.300781 -6.578125 1.5 -6.703125 C 1.707031 -6.828125 1.921875 -6.921875 2.140625 -6.984375 C 2.367188 -7.054688 2.585938 -7.09375 2.796875 -7.09375 C 3.234375 -7.09375 3.617188 -7.003906 3.953125 -6.828125 C 4.285156 -6.648438 4.539062 -6.398438 4.71875 -6.078125 C 4.894531 -5.753906 4.984375 -5.375 4.984375 -4.9375 C 4.984375 -4.570312 4.875 -4.164062 4.65625 -3.71875 C 4.445312 -3.269531 4.160156 -2.847656 3.796875 -2.453125 L 2.4375 -1.015625 L 2.328125 -1.09375 Z M 4.578125 -1.09375 "/></g></g></g><g fill="#621f1f" fill-opacity="1"><g transform="translate(194.213936, 269.57295)"><g><path d="M 2.40625 0.09375 C 2.164062 0.09375 1.90625 0.0546875 1.625 -0.015625 C 1.34375 -0.0859375 1.113281 -0.195312 0.9375 -0.34375 C 0.84375 -0.414062 0.769531 -0.507812 0.71875 -0.625 C 0.675781 -0.75 0.65625 -0.863281 0.65625 -0.96875 C 0.65625 -1.082031 0.703125 -1.1875 0.796875 -1.28125 C 0.890625 -1.382812 1.023438 -1.4375 1.203125 -1.4375 C 1.328125 -1.4375 1.476562 -1.375 1.65625 -1.25 C 1.757812 -1.1875 1.875 -1.125 2 -1.0625 C 2.132812 -1.007812 2.269531 -0.984375 2.40625 -0.984375 C 2.71875 -0.984375 2.988281 -1.039062 3.21875 -1.15625 C 3.457031 -1.28125 3.640625 -1.441406 3.765625 -1.640625 C 3.890625 -1.847656 3.953125 -2.09375 3.953125 -2.375 C 3.953125 -2.632812 3.894531 -2.851562 3.78125 -3.03125 C 3.664062 -3.207031 3.515625 -3.34375 3.328125 -3.4375 C 3.140625 -3.539062 2.929688 -3.59375 2.703125 -3.59375 C 2.503906 -3.59375 2.328125 -3.5625 2.171875 -3.5 C 2.015625 -3.4375 1.875 -3.367188 1.75 -3.296875 C 1.625 -3.222656 1.5 -3.1875 1.375 -3.1875 C 1.15625 -3.1875 0.988281 -3.234375 0.875 -3.328125 C 0.769531 -3.429688 0.703125 -3.546875 0.671875 -3.671875 C 0.648438 -3.804688 0.644531 -3.929688 0.65625 -4.046875 L 0.96875 -6.46875 C 1 -6.613281 1.066406 -6.726562 1.171875 -6.8125 C 1.285156 -6.90625 1.414062 -6.953125 1.5625 -6.953125 L 4.453125 -6.953125 C 4.617188 -6.953125 4.753906 -6.894531 4.859375 -6.78125 C 4.960938 -6.675781 5.015625 -6.546875 5.015625 -6.390625 C 5.015625 -6.234375 4.960938 -6.101562 4.859375 -6 C 4.753906 -5.894531 4.617188 -5.84375 4.453125 -5.84375 L 1.875 -5.84375 L 1.984375 -5.9375 L 1.71875 -3.90625 L 1.59375 -4.296875 C 1.632812 -4.359375 1.71875 -4.414062 1.84375 -4.46875 C 1.976562 -4.53125 2.128906 -4.582031 2.296875 -4.625 C 2.472656 -4.675781 2.644531 -4.703125 2.8125 -4.703125 C 3.257812 -4.703125 3.660156 -4.597656 4.015625 -4.390625 C 4.367188 -4.191406 4.644531 -3.914062 4.84375 -3.5625 C 5.050781 -3.21875 5.15625 -2.820312 5.15625 -2.375 C 5.15625 -1.875 5.039062 -1.4375 4.8125 -1.0625 C 4.59375 -0.695312 4.273438 -0.410156 3.859375 -0.203125 C 3.453125 -0.00390625 2.96875 0.09375 2.40625 0.09375 Z M 2.40625 0.09375 "/></g></g></g></svg>