<svg xmlns="http://www.w3.org/2000/svg" xmlns:xlink="http://www.w3.org/1999/xlink" width="500" zoomAndPan="magnify" viewBox="0 0 375 374.999991" height="500" preserveAspectRatio="xMidYMid meet" version="1.0"><defs><g/><clipPath id="9000df4e99"><path d="M 90.304688 70.796875 L 284.554688 70.796875 L 284.554688 206.546875 L 90.304688 206.546875 Z M 90.304688 70.796875 " clip-rule="nonzero"/></clipPath><clipPath id="8adb8e6dd6"><rect x="0" width="179" y="0" height="72"/></clipPath><clipPath id="8e36398301"><path d="M 78 3 L 85.921875 3 L 85.921875 10 L 78 10 Z M 78 3 " clip-rule="nonzero"/></clipPath><clipPath id="a9afef6bed"><rect x="0" width="86" y="0" height="22"/></clipPath><clipPath id="5a13d571c8"><rect x="0" width="161" y="0" height="43"/></clipPath></defs><rect x="-37.5" width="450" fill="#ffffff" y="-37.499999" height="449.999989" fill-opacity="1"/><rect x="-37.5" width="450" fill="#ffffff" y="-37.499999" height="449.999989" fill-opacity="1"/><g clip-path="url(#9000df4e99)"><path fill="#ccff02" d="M 146.910156 111.507812 L 142.441406 115.976562 L 144.996094 118.527344 L 147.546875 121.082031 L 142.402344 126.226562 L 147.546875 131.371094 L 142.402344 136.519531 L 137.257812 131.371094 L 142.402344 126.226562 L 137.257812 121.082031 L 127.921875 130.414062 L 133.066406 135.5625 L 128 140.707031 L 138.253906 150.957031 L 127.960938 161.25 L 122.816406 156.105469 L 117.828125 161.089844 L 127.5625 170.941406 L 122.417969 176.089844 L 132.707031 186.378906 L 127.5625 191.523438 L 132.707031 196.671875 L 137.855469 191.523438 L 143 196.671875 L 148.144531 191.523438 L 143 186.378906 L 148.144531 181.234375 L 143 176.089844 L 148.144531 170.941406 L 143 165.796875 L 148.144531 160.652344 L 153.292969 165.796875 L 148.144531 170.941406 L 153.292969 176.089844 L 148.144531 181.234375 L 153.292969 186.378906 L 168.726562 170.941406 L 163.582031 165.796875 L 168.726562 160.652344 L 173.875 165.796875 L 183.089844 156.582031 L 187.554688 152.113281 L 201.238281 165.796875 L 206.382812 160.652344 L 211.527344 165.796875 L 206.382812 170.941406 L 221.820312 186.378906 L 226.964844 181.234375 L 232.113281 186.378906 L 226.964844 191.523438 L 232.113281 196.671875 L 237.257812 191.523438 L 242.402344 196.671875 L 247.550781 191.523438 L 242.402344 186.378906 L 252.695312 176.089844 L 257.839844 181.234375 L 262.984375 176.089844 L 257.839844 170.941406 L 252.695312 176.089844 L 247.46875 170.941406 L 257.203125 161.089844 L 252.214844 156.105469 L 247.070312 161.25 L 236.777344 150.957031 L 247.03125 140.707031 L 241.882812 135.5625 L 247.03125 130.414062 L 237.695312 121.082031 L 232.550781 126.226562 L 237.695312 131.371094 L 232.550781 136.519531 L 227.40625 131.371094 L 232.550781 126.226562 L 227.40625 121.082031 L 229.957031 118.527344 L 232.511719 115.976562 L 228.042969 111.507812 L 187.515625 70.902344 Z M 211.449219 145.214844 L 216.59375 140.066406 L 221.742188 145.214844 L 216.59375 150.359375 Z M 153.292969 145.253906 L 158.4375 140.109375 L 163.582031 145.253906 L 158.4375 150.398438 Z M 226.488281 150.957031 L 231.632812 145.8125 L 236.777344 150.957031 L 231.632812 156.105469 Z M 138.253906 150.957031 L 143.398438 145.8125 L 148.542969 150.957031 L 143.398438 156.105469 Z M 201.199219 155.503906 L 206.34375 150.359375 L 211.488281 155.503906 L 206.34375 160.652344 Z M 163.542969 155.503906 L 168.6875 150.359375 L 173.835938 155.503906 L 168.6875 160.652344 Z M 216.59375 160.652344 L 221.742188 165.796875 L 216.59375 170.941406 L 211.449219 165.796875 Z M 158.398438 160.652344 L 163.542969 165.796875 L 158.398438 170.941406 L 153.25 165.796875 Z M 226.886719 160.652344 L 232.03125 165.796875 L 226.886719 170.941406 L 232.03125 176.089844 L 226.886719 181.234375 L 221.742188 176.089844 L 226.886719 170.941406 L 221.742188 165.796875 Z M 237.179688 160.652344 L 247.46875 170.941406 L 242.324219 176.089844 L 232.03125 165.796875 Z M 137.855469 160.652344 L 143 165.796875 L 132.707031 176.089844 L 127.5625 170.941406 Z M 232.03125 186.339844 L 237.175781 181.195312 L 242.324219 186.339844 L 237.175781 191.484375 Z M 132.707031 186.339844 L 137.855469 181.195312 L 143 186.339844 L 137.855469 191.484375 Z M 247.03125 140.707031 L 252.175781 135.5625 L 257.320312 140.707031 L 252.175781 145.851562 L 257.320312 150.996094 L 252.175781 156.144531 L 247.070312 150.996094 L 252.214844 145.851562 Z M 117.710938 140.707031 L 122.855469 135.5625 L 128 140.707031 L 122.855469 145.851562 L 128 150.996094 L 122.855469 156.144531 L 117.710938 150.996094 L 122.855469 145.851562 Z M 257.320312 150.996094 L 262.46875 145.851562 L 267.613281 150.996094 L 262.46875 156.144531 Z M 107.417969 150.996094 L 112.566406 156.144531 L 117.710938 150.996094 L 112.566406 145.851562 Z M 266.375 164.558594 L 270.085938 168.269531 L 273.796875 164.558594 L 270.085938 160.851562 Z M 101.234375 164.558594 L 104.945312 168.269531 L 108.65625 164.558594 L 104.945312 160.851562 Z M 112.164062 176.089844 L 117.3125 170.941406 L 122.457031 176.089844 L 117.3125 181.234375 Z M 279.980469 173.8125 L 282.332031 176.207031 L 284.683594 173.855469 L 282.292969 171.460938 Z M 90.304688 173.855469 L 92.660156 176.207031 L 95.011719 173.8125 L 92.699219 171.460938 Z M 268.132812 174.613281 L 270.484375 177.003906 L 272.839844 174.652344 L 270.445312 172.296875 Z M 102.152344 174.613281 L 104.507812 176.964844 L 106.859375 174.570312 L 104.507812 172.21875 Z M 262.585938 186.539062 L 266.296875 182.828125 L 270.007812 186.539062 L 266.296875 190.25 Z M 105.027344 186.539062 L 108.734375 190.25 L 112.445312 186.539062 L 108.734375 182.828125 Z M 278.742188 188.253906 L 281.136719 190.609375 L 283.488281 188.253906 L 281.136719 185.902344 Z M 91.542969 188.253906 L 93.898438 190.609375 L 96.289062 188.253906 L 93.898438 185.859375 Z M 247.46875 191.484375 L 252.613281 186.339844 L 257.761719 191.484375 L 252.613281 196.628906 Z M 117.273438 191.523438 L 122.417969 186.378906 L 127.5625 191.523438 L 122.417969 196.671875 Z M 268.011719 197.589844 L 270.367188 199.941406 L 272.71875 197.589844 L 270.367188 195.234375 Z M 102.273438 197.589844 L 104.625 199.941406 L 106.980469 197.589844 L 104.625 195.234375 Z M 254.371094 203.054688 L 258.078125 206.761719 L 261.789062 203.054688 L 258.078125 199.34375 Z M 113.28125 203.054688 L 116.992188 206.761719 L 120.703125 203.054688 L 116.992188 199.34375 Z M 113.28125 203.054688 " fill-opacity="1" fill-rule="evenodd"/></g><g transform="matrix(1, 0, 0, 1, 98, 195)"><g clip-path="url(#8adb8e6dd6)"><g fill="#1e1e1e" fill-opacity="1"><g transform="translate(1.210469, 56.436626)"><g><path d="M 12.609375 -35.5 C 19.066406 -35.5 23.953125 -34.015625 27.265625 -31.046875 C 30.578125 -28.078125 32.234375 -23.660156 32.234375 -17.796875 C 32.234375 -11.566406 30.578125 -7.039062 27.265625 -4.21875 C 23.953125 -1.40625 19.097656 0 12.703125 0 L 4.046875 0 L 4.046875 -35.5 Z M 13.890625 -6.625 C 17.617188 -6.625 20.46875 -7.546875 22.4375 -9.390625 C 24.414062 -11.234375 25.40625 -14.085938 25.40625 -17.953125 C 25.40625 -20.285156 24.910156 -22.265625 23.921875 -23.890625 C 22.929688 -25.523438 21.515625 -26.765625 19.671875 -27.609375 C 17.828125 -28.453125 15.632812 -28.875 13.09375 -28.875 L 10.828125 -28.875 L 10.828125 -6.625 Z M 13.890625 -6.625 "/></g></g></g><g fill="#1e1e1e" fill-opacity="1"><g transform="translate(34.725101, 56.436626)"><g><path d="M 4.046875 -35.5 L 10.828125 -35.5 L 10.828125 0 L 4.046875 0 Z M 4.046875 -35.5 "/></g></g></g><g fill="#1e1e1e" fill-opacity="1"><g transform="translate(48.615273, 56.436626)"><g><path d="M 39.359375 -18.046875 L 39.359375 -18 C 39.359375 -14.207031 38.628906 -10.894531 37.171875 -8.0625 C 35.722656 -5.226562 33.664062 -3.023438 31 -1.453125 C 28.332031 0.109375 25.234375 0.890625 21.703125 0.890625 C 17.878906 0.890625 14.507812 0.0351562 11.59375 -1.671875 C 8.675781 -3.390625 6.425781 -5.679688 4.84375 -8.546875 C 3.257812 -11.421875 2.46875 -14.554688 2.46875 -17.953125 C 2.46875 -21.273438 3.273438 -24.335938 4.890625 -27.140625 C 6.503906 -29.941406 8.757812 -32.175781 11.65625 -33.84375 C 14.5625 -35.507812 17.84375 -36.34375 21.5 -36.34375 C 24.863281 -36.34375 27.753906 -35.789062 30.171875 -34.6875 C 32.597656 -33.582031 34.816406 -31.925781 36.828125 -29.71875 L 32.078125 -25.015625 C 30.535156 -26.628906 28.90625 -27.835938 27.1875 -28.640625 C 25.476562 -29.453125 23.601562 -29.859375 21.5625 -29.859375 C 19.25 -29.859375 17.148438 -29.3125 15.265625 -28.21875 C 13.390625 -27.132812 11.925781 -25.675781 10.875 -23.84375 C 9.820312 -22.019531 9.296875 -20.019531 9.296875 -17.84375 C 9.296875 -15.601562 9.851562 -13.539062 10.96875 -11.65625 C 12.09375 -9.78125 13.625 -8.300781 15.5625 -7.21875 C 17.507812 -6.132812 19.65625 -5.59375 22 -5.59375 C 24.34375 -5.59375 26.3125 -6.082031 27.90625 -7.0625 C 29.507812 -8.050781 30.785156 -9.570312 31.734375 -11.625 L 21.453125 -11.625 L 21.453125 -18.046875 Z M 39.359375 -18.046875 "/></g></g></g><g fill="#1e1e1e" fill-opacity="1"><g transform="translate(89.149245, 56.436626)"><g><path d="M 4.046875 -35.5 L 10.828125 -35.5 L 10.828125 0 L 4.046875 0 Z M 4.046875 -35.5 "/></g></g></g><g fill="#1e1e1e" fill-opacity="1"><g transform="translate(103.039416, 56.436626)"><g><path d="M 6.875 -28.875 L 0.546875 -28.875 L 0.546875 -35.5 L 20.171875 -35.5 L 20.171875 -28.875 L 13.640625 -28.875 L 13.640625 0 L 6.875 0 Z M 6.875 -28.875 "/></g></g></g><g fill="#1e1e1e" fill-opacity="1"><g transform="translate(122.811976, 56.436626)"><g><path d="M 27.1875 0 L 24.46875 -7.3125 L 9.734375 -7.3125 L 7.015625 0 L 0 0 L 13.6875 -35.5 L 20.515625 -35.5 L 34.203125 0 Z M 12.265625 -13.9375 L 22 -13.9375 L 17.109375 -27 Z M 12.265625 -13.9375 "/></g></g></g><g fill="#1e1e1e" fill-opacity="1"><g transform="translate(156.030014, 56.436626)"><g><path d="M 10.828125 -35.5 L 10.828125 -6.421875 L 20.671875 -6.421875 L 20.671875 0 L 4.046875 0 L 4.046875 -35.5 Z M 10.828125 -35.5 "/></g></g></g></g></g><g transform="matrix(1, 0, 0, 1, 144, 284)"><g clip-path="url(#a9afef6bed)"><g fill="#1e1e1e" fill-opacity="1"><g transform="translate(1.244589, 9.339701)"><g><path d="M 2.015625 0.15625 C 1.617188 0.15625 1.273438 0.0507812 0.984375 -0.15625 C 0.691406 -0.375 0.429688 -0.695312 0.203125 -1.125 L 0.71875 -1.421875 C 0.894531 -1.097656 1.085938 -0.851562 1.296875 -0.6875 C 1.515625 -0.519531 1.738281 -0.4375 1.96875 -0.4375 C 2.175781 -0.4375 2.363281 -0.476562 2.53125 -0.5625 C 2.707031 -0.65625 2.84375 -0.78125 2.9375 -0.9375 C 3.03125 -1.09375 3.078125 -1.265625 3.078125 -1.453125 C 3.078125 -1.640625 3.023438 -1.8125 2.921875 -1.96875 C 2.828125 -2.125 2.679688 -2.285156 2.484375 -2.453125 C 2.285156 -2.628906 1.945312 -2.910156 1.46875 -3.296875 C 1.25 -3.472656 1.078125 -3.628906 0.953125 -3.765625 C 0.835938 -3.898438 0.75 -4.039062 0.6875 -4.1875 C 0.625 -4.34375 0.59375 -4.53125 0.59375 -4.75 C 0.59375 -5.019531 0.65625 -5.257812 0.78125 -5.46875 C 0.914062 -5.6875 1.09375 -5.851562 1.3125 -5.96875 C 1.53125 -6.09375 1.773438 -6.15625 2.046875 -6.15625 C 2.378906 -6.15625 2.664062 -6.066406 2.90625 -5.890625 C 3.15625 -5.722656 3.394531 -5.484375 3.625 -5.171875 L 3.140625 -4.796875 C 3.003906 -4.960938 2.882812 -5.09375 2.78125 -5.1875 C 2.6875 -5.289062 2.578125 -5.375 2.453125 -5.4375 C 2.328125 -5.5 2.1875 -5.53125 2.03125 -5.53125 C 1.863281 -5.53125 1.71875 -5.492188 1.59375 -5.421875 C 1.46875 -5.359375 1.375 -5.265625 1.3125 -5.140625 C 1.25 -5.023438 1.21875 -4.898438 1.21875 -4.765625 C 1.21875 -4.578125 1.273438 -4.398438 1.390625 -4.234375 C 1.503906 -4.078125 1.664062 -3.921875 1.875 -3.765625 C 2.320312 -3.441406 2.664062 -3.171875 2.90625 -2.953125 C 3.144531 -2.742188 3.335938 -2.515625 3.484375 -2.265625 C 3.640625 -2.023438 3.71875 -1.757812 3.71875 -1.46875 C 3.71875 -1.1875 3.640625 -0.921875 3.484375 -0.671875 C 3.335938 -0.421875 3.132812 -0.21875 2.875 -0.0625 C 2.625 0.0820312 2.335938 0.15625 2.015625 0.15625 Z M 2.015625 0.15625 "/></g></g></g><g fill="#1e1e1e" fill-opacity="1"><g transform="translate(5.313622, 9.339701)"><g><path d="M 7.21875 0 L 6.640625 0 L 6.078125 -4.078125 L 6.046875 -4.296875 L 5.953125 -4.09375 L 3.921875 0 L 3.78125 0 L 1.734375 -4.09375 L 1.625 -4.328125 L 1.59375 -4.078125 L 1.046875 0 L 0.453125 0 L 1.3125 -6 L 1.40625 -6 L 3.765625 -1.265625 L 3.859375 -1.078125 L 3.953125 -1.28125 L 6.265625 -6 L 6.375 -6 Z M 7.21875 0 "/></g></g></g><g fill="#1e1e1e" fill-opacity="1"><g transform="translate(12.992149, 9.339701)"><g><path d="M 5.140625 0 L 4.21875 -1.96875 L 1.59375 -1.96875 L 0.671875 0 L 0.046875 0 L 2.84375 -6 L 2.984375 -6 L 5.765625 0 Z M 1.859375 -2.546875 L 3.953125 -2.546875 L 2.90625 -4.796875 Z M 1.859375 -2.546875 "/></g></g></g><g fill="#1e1e1e" fill-opacity="1"><g transform="translate(18.799086, 9.339701)"><g><path d="M 2.4375 -6 C 3.125 -6 3.632812 -5.859375 3.96875 -5.578125 C 4.3125 -5.296875 4.484375 -4.90625 4.484375 -4.40625 C 4.484375 -4.050781 4.394531 -3.753906 4.21875 -3.515625 C 4.050781 -3.273438 3.8125 -3.09375 3.5 -2.96875 C 3.1875 -2.851562 2.820312 -2.796875 2.40625 -2.796875 L 4.578125 0 L 3.828125 0 L 1.703125 -2.796875 L 1.328125 -2.796875 L 1.328125 0 L 0.734375 0 L 0.734375 -6 Z M 2.40625 -3.375 C 2.863281 -3.375 3.21875 -3.457031 3.46875 -3.625 C 3.726562 -3.789062 3.859375 -4.050781 3.859375 -4.40625 C 3.859375 -4.707031 3.75 -4.953125 3.53125 -5.140625 C 3.3125 -5.328125 2.988281 -5.421875 2.5625 -5.421875 L 1.328125 -5.421875 L 1.328125 -3.375 Z M 2.40625 -3.375 "/></g></g></g><g fill="#1e1e1e" fill-opacity="1"><g transform="translate(23.745428, 9.339701)"><g><path d="M 1.484375 -5.421875 L 0.140625 -5.421875 L 0.140625 -6 L 3.421875 -6 L 3.421875 -5.421875 L 2.09375 -5.421875 L 2.09375 0 L 1.484375 0 Z M 1.484375 -5.421875 "/></g></g></g><g fill="#1e1e1e" fill-opacity="1"><g transform="translate(27.304785, 9.339701)"><g><path d="M 0.734375 -6 L 4.15625 -6 L 4.15625 -5.421875 L 1.328125 -5.421875 L 1.328125 -3.53125 L 4.15625 -3.53125 L 4.15625 -2.953125 L 1.328125 -2.953125 L 1.328125 -0.578125 L 4.15625 -0.578125 L 4.15625 0 L 0.734375 0 Z M 0.734375 -6 "/></g></g></g><g fill="#1e1e1e" fill-opacity="1"><g transform="translate(31.774873, 9.339701)"><g><path d="M 2.4375 -6 C 3.125 -6 3.632812 -5.859375 3.96875 -5.578125 C 4.3125 -5.296875 4.484375 -4.90625 4.484375 -4.40625 C 4.484375 -4.050781 4.394531 -3.753906 4.21875 -3.515625 C 4.050781 -3.273438 3.8125 -3.09375 3.5 -2.96875 C 3.1875 -2.851562 2.820312 -2.796875 2.40625 -2.796875 L 4.578125 0 L 3.828125 0 L 1.703125 -2.796875 L 1.328125 -2.796875 L 1.328125 0 L 0.734375 0 L 0.734375 -6 Z M 2.40625 -3.375 C 2.863281 -3.375 3.21875 -3.457031 3.46875 -3.625 C 3.726562 -3.789062 3.859375 -4.050781 3.859375 -4.40625 C 3.859375 -4.707031 3.75 -4.953125 3.53125 -5.140625 C 3.3125 -5.328125 2.988281 -5.421875 2.5625 -5.421875 L 1.328125 -5.421875 L 1.328125 -3.375 Z M 2.40625 -3.375 "/></g></g></g><g fill="#1e1e1e" fill-opacity="1"><g transform="translate(36.721215, 9.339701)"><g/></g></g><g fill="#1e1e1e" fill-opacity="1"><g transform="translate(39.035633, 9.339701)"><g><path d="M 7.21875 0 L 6.640625 0 L 6.078125 -4.078125 L 6.046875 -4.296875 L 5.953125 -4.09375 L 3.921875 0 L 3.78125 0 L 1.734375 -4.09375 L 1.625 -4.328125 L 1.59375 -4.078125 L 1.046875 0 L 0.453125 0 L 1.3125 -6 L 1.40625 -6 L 3.765625 -1.265625 L 3.859375 -1.078125 L 3.953125 -1.28125 L 6.265625 -6 L 6.375 -6 Z M 7.21875 0 "/></g></g></g><g fill="#1e1e1e" fill-opacity="1"><g transform="translate(46.714159, 9.339701)"><g><path d="M 5.140625 0 L 4.21875 -1.96875 L 1.59375 -1.96875 L 0.671875 0 L 0.046875 0 L 2.84375 -6 L 2.984375 -6 L 5.765625 0 Z M 1.859375 -2.546875 L 3.953125 -2.546875 L 2.90625 -4.796875 Z M 1.859375 -2.546875 "/></g></g></g><g fill="#1e1e1e" fill-opacity="1"><g transform="translate(52.521097, 9.339701)"><g><path d="M 2.4375 -6 C 3.125 -6 3.632812 -5.859375 3.96875 -5.578125 C 4.3125 -5.296875 4.484375 -4.90625 4.484375 -4.40625 C 4.484375 -4.050781 4.394531 -3.753906 4.21875 -3.515625 C 4.050781 -3.273438 3.8125 -3.09375 3.5 -2.96875 C 3.1875 -2.851562 2.820312 -2.796875 2.40625 -2.796875 L 4.578125 0 L 3.828125 0 L 1.703125 -2.796875 L 1.328125 -2.796875 L 1.328125 0 L 0.734375 0 L 0.734375 -6 Z M 2.40625 -3.375 C 2.863281 -3.375 3.21875 -3.457031 3.46875 -3.625 C 3.726562 -3.789062 3.859375 -4.050781 3.859375 -4.40625 C 3.859375 -4.707031 3.75 -4.953125 3.53125 -5.140625 C 3.3125 -5.328125 2.988281 -5.421875 2.5625 -5.421875 L 1.328125 -5.421875 L 1.328125 -3.375 Z M 2.40625 -3.375 "/></g></g></g><g fill="#1e1e1e" fill-opacity="1"><g transform="translate(57.467438, 9.339701)"><g><path d="M 4.765625 0 L 4.015625 0 L 1.328125 -2.96875 L 1.328125 0 L 0.734375 0 L 0.734375 -6 L 1.328125 -6 L 1.328125 -3.515625 L 3.75 -6 L 4.484375 -6 L 1.828125 -3.234375 Z M 4.765625 0 "/></g></g></g><g fill="#1e1e1e" fill-opacity="1"><g transform="translate(62.229959, 9.339701)"><g><path d="M 0.734375 -6 L 4.15625 -6 L 4.15625 -5.421875 L 1.328125 -5.421875 L 1.328125 -3.53125 L 4.15625 -3.53125 L 4.15625 -2.953125 L 1.328125 -2.953125 L 1.328125 -0.578125 L 4.15625 -0.578125 L 4.15625 0 L 0.734375 0 Z M 0.734375 -6 "/></g></g></g><g fill="#1e1e1e" fill-opacity="1"><g transform="translate(66.700048, 9.339701)"><g><path d="M 1.484375 -5.421875 L 0.140625 -5.421875 L 0.140625 -6 L 3.421875 -6 L 3.421875 -5.421875 L 2.09375 -5.421875 L 2.09375 0 L 1.484375 0 Z M 1.484375 -5.421875 "/></g></g></g><g fill="#1e1e1e" fill-opacity="1"><g transform="translate(70.259404, 9.339701)"><g><path d="M 0.734375 -6 L 1.328125 -6 L 1.328125 0 L 0.734375 0 Z M 0.734375 -6 "/></g></g></g><g fill="#1e1e1e" fill-opacity="1"><g transform="translate(72.306453, 9.339701)"><g><path d="M 4.828125 -6 L 5.4375 -6 L 5.4375 0 L 5.296875 0 L 1.328125 -4.546875 L 1.328125 0 L 0.734375 0 L 0.734375 -6 L 0.859375 -6 L 4.828125 -1.40625 Z M 4.828125 -6 "/></g></g></g><g clip-path="url(#8e36398301)"><g fill="#1e1e1e" fill-opacity="1"><g transform="translate(78.455958, 9.339701)"><g><path d="M 6.875 -2.890625 L 6.875 -2.875 C 6.875 -2.25 6.75 -1.707031 6.5 -1.25 C 6.25 -0.800781 5.894531 -0.457031 5.4375 -0.21875 C 4.976562 0.0195312 4.453125 0.140625 3.859375 0.140625 C 3.191406 0.140625 2.597656 -0.00390625 2.078125 -0.296875 C 1.566406 -0.585938 1.171875 -0.972656 0.890625 -1.453125 C 0.609375 -1.929688 0.46875 -2.445312 0.46875 -3 C 0.46875 -3.570312 0.609375 -4.097656 0.890625 -4.578125 C 1.171875 -5.054688 1.5625 -5.4375 2.0625 -5.71875 C 2.5625 -6.007812 3.128906 -6.15625 3.765625 -6.15625 C 4.304688 -6.15625 4.796875 -6.054688 5.234375 -5.859375 C 5.679688 -5.671875 6.109375 -5.378906 6.515625 -4.984375 L 6.0625 -4.5625 C 5.726562 -4.882812 5.363281 -5.128906 4.96875 -5.296875 C 4.570312 -5.472656 4.175781 -5.5625 3.78125 -5.5625 C 3.28125 -5.5625 2.828125 -5.453125 2.421875 -5.234375 C 2.015625 -5.015625 1.691406 -4.707031 1.453125 -4.3125 C 1.222656 -3.925781 1.109375 -3.492188 1.109375 -3.015625 C 1.109375 -2.554688 1.226562 -2.128906 1.46875 -1.734375 C 1.707031 -1.335938 2.035156 -1.019531 2.453125 -0.78125 C 2.878906 -0.550781 3.351562 -0.4375 3.875 -0.4375 C 4.257812 -0.4375 4.617188 -0.507812 4.953125 -0.65625 C 5.285156 -0.800781 5.5625 -1.015625 5.78125 -1.296875 C 6.007812 -1.578125 6.148438 -1.910156 6.203125 -2.296875 L 4.28125 -2.296875 L 4.28125 -2.890625 Z M 6.875 -2.890625 "/></g></g></g></g><g fill="#1e1e1e" fill-opacity="1"><g transform="translate(14.22351, 18.39122)"><g><path d="M 2 -6 C 2.40625 -6 2.742188 -5.9375 3.015625 -5.8125 C 3.296875 -5.6875 3.503906 -5.515625 3.640625 -5.296875 C 3.773438 -5.078125 3.84375 -4.828125 3.84375 -4.546875 C 3.84375 -4.273438 3.773438 -4.03125 3.640625 -3.8125 C 3.515625 -3.59375 3.320312 -3.414062 3.0625 -3.28125 C 3.90625 -2.988281 4.328125 -2.46875 4.328125 -1.71875 C 4.328125 -1.414062 4.25 -1.128906 4.09375 -0.859375 C 3.945312 -0.597656 3.722656 -0.390625 3.421875 -0.234375 C 3.128906 -0.078125 2.78125 0 2.375 0 L 0.734375 0 L 0.734375 -6 Z M 1.734375 -3.484375 C 2.203125 -3.484375 2.5625 -3.566406 2.8125 -3.734375 C 3.070312 -3.910156 3.203125 -4.179688 3.203125 -4.546875 C 3.203125 -4.804688 3.109375 -5.015625 2.921875 -5.171875 C 2.734375 -5.335938 2.460938 -5.421875 2.109375 -5.421875 L 1.328125 -5.421875 L 1.328125 -3.484375 Z M 2.25 -0.578125 C 2.570312 -0.578125 2.84375 -0.628906 3.0625 -0.734375 C 3.28125 -0.835938 3.441406 -0.972656 3.546875 -1.140625 C 3.648438 -1.316406 3.703125 -1.507812 3.703125 -1.71875 C 3.703125 -1.96875 3.632812 -2.179688 3.5 -2.359375 C 3.363281 -2.535156 3.164062 -2.671875 2.90625 -2.765625 C 2.644531 -2.859375 2.328125 -2.90625 1.953125 -2.90625 L 1.328125 -2.90625 L 1.328125 -0.578125 Z M 2.25 -0.578125 "/></g></g></g><g fill="#1e1e1e" fill-opacity="1"><g transform="translate(19.002743, 18.39122)"><g><path d="M 0.734375 -6 L 4.15625 -6 L 4.15625 -5.421875 L 1.328125 -5.421875 L 1.328125 -3.53125 L 4.15625 -3.53125 L 4.15625 -2.953125 L 1.328125 -2.953125 L 1.328125 -0.578125 L 4.15625 -0.578125 L 4.15625 0 L 0.734375 0 Z M 0.734375 -6 "/></g></g></g><g fill="#1e1e1e" fill-opacity="1"><g transform="translate(23.472831, 18.39122)"><g><path d="M 1.484375 -5.421875 L 0.140625 -5.421875 L 0.140625 -6 L 3.421875 -6 L 3.421875 -5.421875 L 2.09375 -5.421875 L 2.09375 0 L 1.484375 0 Z M 1.484375 -5.421875 "/></g></g></g><g fill="#1e1e1e" fill-opacity="1"><g transform="translate(27.032188, 18.39122)"><g><path d="M 1.484375 -5.421875 L 0.140625 -5.421875 L 0.140625 -6 L 3.421875 -6 L 3.421875 -5.421875 L 2.09375 -5.421875 L 2.09375 0 L 1.484375 0 Z M 1.484375 -5.421875 "/></g></g></g><g fill="#1e1e1e" fill-opacity="1"><g transform="translate(30.591544, 18.39122)"><g><path d="M 0.734375 -6 L 4.15625 -6 L 4.15625 -5.421875 L 1.328125 -5.421875 L 1.328125 -3.53125 L 4.15625 -3.53125 L 4.15625 -2.953125 L 1.328125 -2.953125 L 1.328125 -0.578125 L 4.15625 -0.578125 L 4.15625 0 L 0.734375 0 Z M 0.734375 -6 "/></g></g></g><g fill="#1e1e1e" fill-opacity="1"><g transform="translate(35.061633, 18.39122)"><g><path d="M 2.4375 -6 C 3.125 -6 3.632812 -5.859375 3.96875 -5.578125 C 4.3125 -5.296875 4.484375 -4.90625 4.484375 -4.40625 C 4.484375 -4.050781 4.394531 -3.753906 4.21875 -3.515625 C 4.050781 -3.273438 3.8125 -3.09375 3.5 -2.96875 C 3.1875 -2.851562 2.820312 -2.796875 2.40625 -2.796875 L 4.578125 0 L 3.828125 0 L 1.703125 -2.796875 L 1.328125 -2.796875 L 1.328125 0 L 0.734375 0 L 0.734375 -6 Z M 2.40625 -3.375 C 2.863281 -3.375 3.21875 -3.457031 3.46875 -3.625 C 3.726562 -3.789062 3.859375 -4.050781 3.859375 -4.40625 C 3.859375 -4.707031 3.75 -4.953125 3.53125 -5.140625 C 3.3125 -5.328125 2.988281 -5.421875 2.5625 -5.421875 L 1.328125 -5.421875 L 1.328125 -3.375 Z M 2.40625 -3.375 "/></g></g></g><g fill="#1e1e1e" fill-opacity="1"><g transform="translate(40.007974, 18.39122)"><g/></g></g><g fill="#1e1e1e" fill-opacity="1"><g transform="translate(42.322392, 18.39122)"><g><path d="M 2.4375 -6 C 3.125 -6 3.632812 -5.859375 3.96875 -5.578125 C 4.3125 -5.296875 4.484375 -4.90625 4.484375 -4.40625 C 4.484375 -4.050781 4.394531 -3.753906 4.21875 -3.515625 C 4.050781 -3.273438 3.8125 -3.09375 3.5 -2.96875 C 3.1875 -2.851562 2.820312 -2.796875 2.40625 -2.796875 L 4.578125 0 L 3.828125 0 L 1.703125 -2.796875 L 1.328125 -2.796875 L 1.328125 0 L 0.734375 0 L 0.734375 -6 Z M 2.40625 -3.375 C 2.863281 -3.375 3.21875 -3.457031 3.46875 -3.625 C 3.726562 -3.789062 3.859375 -4.050781 3.859375 -4.40625 C 3.859375 -4.707031 3.75 -4.953125 3.53125 -5.140625 C 3.3125 -5.328125 2.988281 -5.421875 2.5625 -5.421875 L 1.328125 -5.421875 L 1.328125 -3.375 Z M 2.40625 -3.375 "/></g></g></g><g fill="#1e1e1e" fill-opacity="1"><g transform="translate(47.268734, 18.39122)"><g><path d="M 0.734375 -6 L 4.15625 -6 L 4.15625 -5.421875 L 1.328125 -5.421875 L 1.328125 -3.53125 L 4.15625 -3.53125 L 4.15625 -2.953125 L 1.328125 -2.953125 L 1.328125 -0.578125 L 4.15625 -0.578125 L 4.15625 0 L 0.734375 0 Z M 0.734375 -6 "/></g></g></g><g fill="#1e1e1e" fill-opacity="1"><g transform="translate(51.738823, 18.39122)"><g><path d="M 2.015625 0.15625 C 1.617188 0.15625 1.273438 0.0507812 0.984375 -0.15625 C 0.691406 -0.375 0.429688 -0.695312 0.203125 -1.125 L 0.71875 -1.421875 C 0.894531 -1.097656 1.085938 -0.851562 1.296875 -0.6875 C 1.515625 -0.519531 1.738281 -0.4375 1.96875 -0.4375 C 2.175781 -0.4375 2.363281 -0.476562 2.53125 -0.5625 C 2.707031 -0.65625 2.84375 -0.78125 2.9375 -0.9375 C 3.03125 -1.09375 3.078125 -1.265625 3.078125 -1.453125 C 3.078125 -1.640625 3.023438 -1.8125 2.921875 -1.96875 C 2.828125 -2.125 2.679688 -2.285156 2.484375 -2.453125 C 2.285156 -2.628906 1.945312 -2.910156 1.46875 -3.296875 C 1.25 -3.472656 1.078125 -3.628906 0.953125 -3.765625 C 0.835938 -3.898438 0.75 -4.039062 0.6875 -4.1875 C 0.625 -4.34375 0.59375 -4.53125 0.59375 -4.75 C 0.59375 -5.019531 0.65625 -5.257812 0.78125 -5.46875 C 0.914062 -5.6875 1.09375 -5.851562 1.3125 -5.96875 C 1.53125 -6.09375 1.773438 -6.15625 2.046875 -6.15625 C 2.378906 -6.15625 2.664062 -6.066406 2.90625 -5.890625 C 3.15625 -5.722656 3.394531 -5.484375 3.625 -5.171875 L 3.140625 -4.796875 C 3.003906 -4.960938 2.882812 -5.09375 2.78125 -5.1875 C 2.6875 -5.289062 2.578125 -5.375 2.453125 -5.4375 C 2.328125 -5.5 2.1875 -5.53125 2.03125 -5.53125 C 1.863281 -5.53125 1.71875 -5.492188 1.59375 -5.421875 C 1.46875 -5.359375 1.375 -5.265625 1.3125 -5.140625 C 1.25 -5.023438 1.21875 -4.898438 1.21875 -4.765625 C 1.21875 -4.578125 1.273438 -4.398438 1.390625 -4.234375 C 1.503906 -4.078125 1.664062 -3.921875 1.875 -3.765625 C 2.320312 -3.441406 2.664062 -3.171875 2.90625 -2.953125 C 3.144531 -2.742188 3.335938 -2.515625 3.484375 -2.265625 C 3.640625 -2.023438 3.71875 -1.757812 3.71875 -1.46875 C 3.71875 -1.1875 3.640625 -0.921875 3.484375 -0.671875 C 3.335938 -0.421875 3.132812 -0.21875 2.875 -0.0625 C 2.625 0.0820312 2.335938 0.15625 2.015625 0.15625 Z M 2.015625 0.15625 "/></g></g></g><g fill="#1e1e1e" fill-opacity="1"><g transform="translate(55.807856, 18.39122)"><g><path d="M 2.734375 0.15625 C 2.328125 0.15625 1.972656 0.0664062 1.671875 -0.109375 C 1.378906 -0.296875 1.148438 -0.554688 0.984375 -0.890625 C 0.828125 -1.222656 0.75 -1.625 0.75 -2.09375 L 0.75 -6 L 1.359375 -6 L 1.359375 -1.984375 C 1.359375 -1.679688 1.40625 -1.414062 1.5 -1.1875 C 1.601562 -0.957031 1.757812 -0.773438 1.96875 -0.640625 C 2.1875 -0.503906 2.441406 -0.4375 2.734375 -0.4375 C 3.046875 -0.4375 3.300781 -0.503906 3.5 -0.640625 C 3.707031 -0.773438 3.863281 -0.957031 3.96875 -1.1875 C 4.070312 -1.414062 4.125 -1.671875 4.125 -1.953125 L 4.125 -6 L 4.734375 -6 L 4.734375 -2.09375 C 4.734375 -1.625 4.648438 -1.222656 4.484375 -0.890625 C 4.328125 -0.554688 4.097656 -0.296875 3.796875 -0.109375 C 3.503906 0.0664062 3.148438 0.15625 2.734375 0.15625 Z M 2.734375 0.15625 "/></g></g></g><g fill="#1e1e1e" fill-opacity="1"><g transform="translate(61.280587, 18.39122)"><g><path d="M 1.328125 -6 L 1.328125 -0.578125 L 3.640625 -0.578125 L 3.640625 0 L 0.734375 0 L 0.734375 -6 Z M 1.328125 -6 "/></g></g></g><g fill="#1e1e1e" fill-opacity="1"><g transform="translate(65.140737, 18.39122)"><g><path d="M 1.484375 -5.421875 L 0.140625 -5.421875 L 0.140625 -6 L 3.421875 -6 L 3.421875 -5.421875 L 2.09375 -5.421875 L 2.09375 0 L 1.484375 0 Z M 1.484375 -5.421875 "/></g></g></g><g fill="#1e1e1e" fill-opacity="1"><g transform="translate(68.700094, 18.39122)"><g><path d="M 2.015625 0.15625 C 1.617188 0.15625 1.273438 0.0507812 0.984375 -0.15625 C 0.691406 -0.375 0.429688 -0.695312 0.203125 -1.125 L 0.71875 -1.421875 C 0.894531 -1.097656 1.085938 -0.851562 1.296875 -0.6875 C 1.515625 -0.519531 1.738281 -0.4375 1.96875 -0.4375 C 2.175781 -0.4375 2.363281 -0.476562 2.53125 -0.5625 C 2.707031 -0.65625 2.84375 -0.78125 2.9375 -0.9375 C 3.03125 -1.09375 3.078125 -1.265625 3.078125 -1.453125 C 3.078125 -1.640625 3.023438 -1.8125 2.921875 -1.96875 C 2.828125 -2.125 2.679688 -2.285156 2.484375 -2.453125 C 2.285156 -2.628906 1.945312 -2.910156 1.46875 -3.296875 C 1.25 -3.472656 1.078125 -3.628906 0.953125 -3.765625 C 0.835938 -3.898438 0.75 -4.039062 0.6875 -4.1875 C 0.625 -4.34375 0.59375 -4.53125 0.59375 -4.75 C 0.59375 -5.019531 0.65625 -5.257812 0.78125 -5.46875 C 0.914062 -5.6875 1.09375 -5.851562 1.3125 -5.96875 C 1.53125 -6.09375 1.773438 -6.15625 2.046875 -6.15625 C 2.378906 -6.15625 2.664062 -6.066406 2.90625 -5.890625 C 3.15625 -5.722656 3.394531 -5.484375 3.625 -5.171875 L 3.140625 -4.796875 C 3.003906 -4.960938 2.882812 -5.09375 2.78125 -5.1875 C 2.6875 -5.289062 2.578125 -5.375 2.453125 -5.4375 C 2.328125 -5.5 2.1875 -5.53125 2.03125 -5.53125 C 1.863281 -5.53125 1.71875 -5.492188 1.59375 -5.421875 C 1.46875 -5.359375 1.375 -5.265625 1.3125 -5.140625 C 1.25 -5.023438 1.21875 -4.898438 1.21875 -4.765625 C 1.21875 -4.578125 1.273438 -4.398438 1.390625 -4.234375 C 1.503906 -4.078125 1.664062 -3.921875 1.875 -3.765625 C 2.320312 -3.441406 2.664062 -3.171875 2.90625 -2.953125 C 3.144531 -2.742188 3.335938 -2.515625 3.484375 -2.265625 C 3.640625 -2.023438 3.71875 -1.757812 3.71875 -1.46875 C 3.71875 -1.1875 3.640625 -0.921875 3.484375 -0.671875 C 3.335938 -0.421875 3.132812 -0.21875 2.875 -0.0625 C 2.625 0.0820312 2.335938 0.15625 2.015625 0.15625 Z M 2.015625 0.15625 "/></g></g></g></g></g><g transform="matrix(1, 0, 0, 1, 107, 244)"><g clip-path="url(#5a13d571c8)"><g fill="#1e1e1e" fill-opacity="1"><g transform="translate(0.663434, 32.950514)"><g><path d="M 25.40625 0 L 23.34375 0 L 21.40625 -14.34375 L 21.296875 -15.109375 L 20.9375 -14.375 L 13.828125 0 L 13.296875 0 L 6.09375 -14.40625 L 5.703125 -15.203125 L 5.59375 -14.328125 L 3.671875 0 L 1.625 0 L 4.609375 -21.109375 L 4.96875 -21.109375 L 13.234375 -4.46875 L 13.5625 -3.796875 L 13.90625 -4.5 L 22.0625 -21.109375 L 22.40625 -21.109375 Z M 25.40625 0 "/></g></g></g><g fill="#1e1e1e" fill-opacity="1"><g transform="translate(27.095537, 32.950514)"><g><path d="M 18.078125 0 L 14.84375 -6.9375 L 5.59375 -6.9375 L 2.359375 0 L 0.140625 0 L 10 -21.109375 L 10.5 -21.109375 L 20.296875 0 Z M 6.53125 -8.9375 L 13.90625 -8.9375 L 10.234375 -16.84375 Z M 6.53125 -8.9375 "/></g></g></g><g fill="#1e1e1e" fill-opacity="1"><g transform="translate(46.941626, 32.950514)"><g><path d="M 8.59375 -21.109375 C 11 -21.109375 12.800781 -20.609375 14 -19.609375 C 15.195312 -18.609375 15.796875 -17.238281 15.796875 -15.5 C 15.796875 -14.238281 15.488281 -13.1875 14.875 -12.34375 C 14.269531 -11.507812 13.414062 -10.878906 12.3125 -10.453125 C 11.21875 -10.035156 9.9375 -9.828125 8.46875 -9.828125 L 16.078125 0 L 13.46875 0 L 6 -9.828125 L 4.671875 -9.828125 L 4.671875 0 L 2.5625 0 L 2.5625 -21.109375 Z M 8.46875 -11.875 C 10.09375 -11.875 11.347656 -12.164062 12.234375 -12.75 C 13.128906 -13.34375 13.578125 -14.257812 13.578125 -15.5 C 13.578125 -16.570312 13.195312 -17.429688 12.4375 -18.078125 C 11.675781 -18.734375 10.53125 -19.0625 9 -19.0625 L 4.671875 -19.0625 L 4.671875 -11.875 Z M 8.46875 -11.875 "/></g></g></g><g fill="#1e1e1e" fill-opacity="1"><g transform="translate(63.759319, 32.950514)"><g><path d="M 16.765625 0 L 14.140625 0 L 4.671875 -10.46875 L 4.671875 0 L 2.5625 0 L 2.5625 -21.109375 L 4.671875 -21.109375 L 4.671875 -12.34375 L 13.203125 -21.109375 L 15.796875 -21.109375 L 6.4375 -11.375 Z M 16.765625 0 "/></g></g></g><g fill="#1e1e1e" fill-opacity="1"><g transform="translate(79.930169, 32.950514)"><g><path d="M 2.5625 -21.109375 L 14.609375 -21.109375 L 14.609375 -19.078125 L 4.671875 -19.078125 L 4.671875 -12.40625 L 14.609375 -12.40625 L 14.609375 -10.40625 L 4.671875 -10.40625 L 4.671875 -2.0625 L 14.609375 -2.0625 L 14.609375 0 L 2.5625 0 Z M 2.5625 -21.109375 "/></g></g></g><g fill="#1e1e1e" fill-opacity="1"><g transform="translate(95.071952, 32.950514)"><g><path d="M 5.234375 -19.0625 L 0.46875 -19.0625 L 0.46875 -21.109375 L 12.0625 -21.109375 L 12.0625 -19.0625 L 7.359375 -19.0625 L 7.359375 0 L 5.234375 0 Z M 5.234375 -19.0625 "/></g></g></g><g fill="#1e1e1e" fill-opacity="1"><g transform="translate(107.008936, 32.950514)"><g><path d="M 2.5625 -21.109375 L 4.671875 -21.109375 L 4.671875 0 L 2.5625 0 Z M 2.5625 -21.109375 "/></g></g></g><g fill="#1e1e1e" fill-opacity="1"><g transform="translate(113.624181, 32.950514)"><g><path d="M 17 -21.109375 L 19.109375 -21.109375 L 19.109375 0 L 18.640625 0 L 4.671875 -15.96875 L 4.671875 0 L 2.5625 0 L 2.5625 -21.109375 L 3 -21.109375 L 17 -4.9375 Z M 17 -21.109375 "/></g></g></g><g fill="#1e1e1e" fill-opacity="1"><g transform="translate(134.675753, 32.950514)"><g><path d="M 24.203125 -10.140625 L 24.203125 -10.09375 C 24.203125 -7.894531 23.753906 -6 22.859375 -4.40625 C 21.972656 -2.820312 20.726562 -1.609375 19.125 -0.765625 C 17.53125 0.078125 15.679688 0.5 13.578125 0.5 C 11.234375 0.5 9.148438 -0.0078125 7.328125 -1.03125 C 5.515625 -2.050781 4.117188 -3.398438 3.140625 -5.078125 C 2.160156 -6.765625 1.671875 -8.59375 1.671875 -10.5625 C 1.671875 -12.5625 2.160156 -14.398438 3.140625 -16.078125 C 4.117188 -17.765625 5.484375 -19.113281 7.234375 -20.125 C 8.992188 -21.132812 11.003906 -21.640625 13.265625 -21.640625 C 15.160156 -21.640625 16.882812 -21.300781 18.4375 -20.625 C 19.988281 -19.945312 21.488281 -18.925781 22.9375 -17.5625 L 21.3125 -16.03125 C 20.144531 -17.1875 18.863281 -18.066406 17.46875 -18.671875 C 16.070312 -19.273438 14.691406 -19.578125 13.328125 -19.578125 C 11.554688 -19.578125 9.953125 -19.1875 8.515625 -18.40625 C 7.078125 -17.625 5.941406 -16.546875 5.109375 -15.171875 C 4.285156 -13.796875 3.875 -12.273438 3.875 -10.609375 C 3.875 -9.003906 4.296875 -7.503906 5.140625 -6.109375 C 5.984375 -4.722656 7.148438 -3.617188 8.640625 -2.796875 C 10.128906 -1.972656 11.796875 -1.5625 13.640625 -1.5625 C 14.992188 -1.5625 16.257812 -1.816406 17.4375 -2.328125 C 18.613281 -2.835938 19.585938 -3.582031 20.359375 -4.5625 C 21.140625 -5.539062 21.625 -6.71875 21.8125 -8.09375 L 15.078125 -8.09375 L 15.078125 -10.140625 Z M 24.203125 -10.140625 "/></g></g></g></g></g></svg>