<svg xmlns="http://www.w3.org/2000/svg" xmlns:xlink="http://www.w3.org/1999/xlink" width="500" zoomAndPan="magnify" viewBox="0 0 375 374.999991" height="500" preserveAspectRatio="xMidYMid meet" version="1.0"><defs><g/><clipPath id="b6b1c99762"><path d="M 37.5 133.390625 L 111 133.390625 L 111 206.890625 L 37.5 206.890625 Z M 37.5 133.390625 " clip-rule="nonzero"/></clipPath><clipPath id="e806ffc3ca"><path d="M 0.746094 0.636719 L 74 0.636719 L 74 73.890625 L 0.746094 73.890625 Z M 0.746094 0.636719 " clip-rule="nonzero"/></clipPath><clipPath id="9238a5605d"><rect x="0" width="74" y="0" height="74"/></clipPath><clipPath id="47a55f8abb"><path d="M 84.9375 180.828125 L 111.1875 180.828125 L 111.1875 207.078125 L 84.9375 207.078125 Z M 84.9375 180.828125 " clip-rule="nonzero"/></clipPath><clipPath id="50e404b6d1"><rect x="0" width="215" y="0" height="72"/></clipPath></defs><rect x="-37.5" width="450" fill="#ffffff" y="-37.499999" height="449.999989" fill-opacity="1"/><rect x="-37.5" width="450" fill="#c1ff72" y="-37.499999" height="449.999989" fill-opacity="1"/><g clip-path="url(#b6b1c99762)"><g transform="matrix(1, 0, 0, 1, 37, 133)"><g clip-path="url(#9238a5605d)"><g clip-path="url(#e806ffc3ca)"><path fill="#000000" d="M 0.5 74.136719 C 41.230469 74.136719 74.246094 41.121094 74.246094 0.390625 L 0.5 0.390625 Z M 0.5 74.136719 " fill-opacity="1" fill-rule="nonzero"/></g></g></g></g><g clip-path="url(#47a55f8abb)"><path fill="#000000" d="M 111.246094 180.828125 C 96.71875 180.828125 84.9375 192.609375 84.9375 207.136719 L 111.246094 207.136719 Z M 111.246094 180.828125 " fill-opacity="1" fill-rule="nonzero"/></g><g transform="matrix(1, 0, 0, 1, 136, 135)"><g clip-path="url(#50e404b6d1)"><g fill="#000000" fill-opacity="1"><g transform="translate(0.358404, 56.911459)"><g><path d="M 15.46875 0 L 5.71875 0 L 5.71875 -41.40625 L 15.0625 -41.40625 L 15.0625 -33.90625 C 16.03125 -36.1875 17.453125 -38.003906 19.328125 -39.359375 C 21.210938 -40.722656 23.492188 -41.40625 26.171875 -41.40625 L 30.609375 -41.40625 L 30.609375 -33.03125 L 26.703125 -33.03125 C 24.472656 -33.03125 22.507812 -32.488281 20.8125 -31.40625 C 19.125 -30.332031 17.8125 -28.773438 16.875 -26.734375 C 15.9375 -24.703125 15.46875 -22.207031 15.46875 -19.25 Z M 15.46875 0 "/></g></g></g><g fill="#000000" fill-opacity="1"><g transform="translate(26.769407, 56.911459)"><g><path d="M 45.109375 -21.421875 C 45.109375 -20.910156 45.09375 -20.425781 45.0625 -19.96875 C 45.039062 -19.519531 44.988281 -18.90625 44.90625 -18.125 L 12.5625 -18.125 C 12.914062 -15.863281 13.632812 -13.941406 14.71875 -12.359375 C 15.8125 -10.773438 17.160156 -9.5625 18.765625 -8.71875 C 20.378906 -7.875 22.140625 -7.453125 24.046875 -7.453125 C 26.515625 -7.453125 28.515625 -7.941406 30.046875 -8.921875 C 31.578125 -9.898438 32.691406 -11.265625 33.390625 -13.015625 L 44.015625 -13.015625 C 43.503906 -11.160156 42.664062 -9.375 41.5 -7.65625 C 40.332031 -5.9375 38.898438 -4.410156 37.203125 -3.078125 C 35.515625 -1.753906 33.578125 -0.703125 31.390625 0.078125 C 29.203125 0.859375 26.820312 1.25 24.25 1.25 C 21.132812 1.25 18.265625 0.679688 15.640625 -0.453125 C 13.023438 -1.597656 10.753906 -3.175781 8.828125 -5.1875 C 6.910156 -7.207031 5.421875 -9.546875 4.359375 -12.203125 C 3.304688 -14.859375 2.78125 -17.691406 2.78125 -20.703125 C 2.78125 -23.734375 3.304688 -26.570312 4.359375 -29.21875 C 5.421875 -31.863281 6.910156 -34.191406 8.828125 -36.203125 C 10.753906 -38.222656 13.023438 -39.800781 15.640625 -40.9375 C 18.265625 -42.082031 21.132812 -42.65625 24.25 -42.65625 C 27.363281 -42.65625 30.203125 -42.085938 32.765625 -40.953125 C 35.328125 -39.828125 37.523438 -38.273438 39.359375 -36.296875 C 41.203125 -34.328125 42.617188 -32.066406 43.609375 -29.515625 C 44.609375 -26.972656 45.109375 -24.273438 45.109375 -21.421875 Z M 12.96875 -25.65625 L 35.15625 -25.65625 C 35.019531 -27.207031 34.441406 -28.617188 33.421875 -29.890625 C 32.398438 -31.171875 31.082031 -32.203125 29.46875 -32.984375 C 27.863281 -33.765625 26.109375 -34.15625 24.203125 -34.15625 C 22.566406 -34.15625 20.992188 -33.851562 19.484375 -33.25 C 17.984375 -32.644531 16.660156 -31.71875 15.515625 -30.46875 C 14.378906 -29.21875 13.53125 -27.613281 12.96875 -25.65625 Z M 12.96875 -25.65625 "/></g></g></g><g fill="#000000" fill-opacity="1"><g transform="translate(68.64505, 56.911459)"><g><path d="M 24.171875 1.25 C 21.078125 1.25 18.226562 0.679688 15.625 -0.453125 C 13.019531 -1.597656 10.753906 -3.175781 8.828125 -5.1875 C 6.910156 -7.207031 5.421875 -9.546875 4.359375 -12.203125 C 3.304688 -14.859375 2.78125 -17.691406 2.78125 -20.703125 C 2.78125 -23.710938 3.304688 -26.535156 4.359375 -29.171875 C 5.421875 -31.816406 6.910156 -34.15625 8.828125 -36.1875 C 10.753906 -38.21875 13.019531 -39.800781 15.625 -40.9375 C 18.226562 -42.082031 21.078125 -42.65625 24.171875 -42.65625 C 27.734375 -42.65625 30.914062 -41.960938 33.71875 -40.578125 C 36.53125 -39.191406 38.882812 -37.300781 40.78125 -34.90625 C 42.675781 -32.519531 44.007812 -29.8125 44.78125 -26.78125 L 34.84375 -26.78125 C 33.925781 -29.09375 32.515625 -30.804688 30.609375 -31.921875 C 28.703125 -33.035156 26.566406 -33.59375 24.203125 -33.59375 C 22.703125 -33.59375 21.253906 -33.300781 19.859375 -32.71875 C 18.460938 -32.144531 17.207031 -31.304688 16.09375 -30.203125 C 14.976562 -29.109375 14.085938 -27.757812 13.421875 -26.15625 C 12.765625 -24.5625 12.4375 -22.742188 12.4375 -20.703125 C 12.4375 -18.660156 12.765625 -16.835938 13.421875 -15.234375 C 14.085938 -13.640625 14.976562 -12.285156 16.09375 -11.171875 C 17.207031 -10.054688 18.46875 -9.207031 19.875 -8.625 C 21.28125 -8.050781 22.722656 -7.765625 24.203125 -7.765625 C 26.566406 -7.765625 28.703125 -8.347656 30.609375 -9.515625 C 32.515625 -10.691406 33.925781 -12.566406 34.84375 -15.140625 L 44.75 -15.140625 C 44.050781 -11.941406 42.75 -9.109375 40.84375 -6.640625 C 38.9375 -4.171875 36.566406 -2.238281 33.734375 -0.84375 C 30.898438 0.550781 27.710938 1.25 24.171875 1.25 Z M 24.171875 1.25 "/></g></g></g><g fill="#000000" fill-opacity="1"><g transform="translate(110.11797, 56.911459)"><g><path d="M 31.171875 0 L 22.75 0 C 21.519531 0 20.253906 -0.113281 18.953125 -0.34375 C 17.648438 -0.570312 16.40625 -0.992188 15.21875 -1.609375 C 14.039062 -2.222656 12.988281 -3.113281 12.0625 -4.28125 C 11.132812 -5.457031 10.394531 -6.976562 9.84375 -8.84375 C 9.289062 -10.707031 9.015625 -13.007812 9.015625 -15.75 L 9.015625 -33.03125 L 0.4375 -33.03125 L 0.4375 -41.40625 L 9.015625 -41.40625 L 9.015625 -53.53125 L 18.765625 -53.609375 L 18.765625 -41.40625 L 31.171875 -41.40625 L 31.171875 -33.03125 L 18.765625 -33.03125 L 18.765625 -15.3125 C 18.765625 -13.375 19.046875 -11.878906 19.609375 -10.828125 C 20.171875 -9.785156 20.914062 -9.066406 21.84375 -8.671875 C 22.769531 -8.285156 23.742188 -8.09375 24.765625 -8.09375 L 31.171875 -8.09375 Z M 31.171875 0 "/></g></g></g><g fill="#000000" fill-opacity="1"><g transform="translate(138.019056, 56.911459)"><g><path d="M 24.53125 1.25 C 21.382812 1.25 18.484375 0.6875 15.828125 -0.4375 C 13.171875 -1.570312 10.867188 -3.144531 8.921875 -5.15625 C 6.972656 -7.164062 5.460938 -9.5 4.390625 -12.15625 C 3.316406 -14.820312 2.78125 -17.671875 2.78125 -20.703125 C 2.78125 -23.734375 3.316406 -26.570312 4.390625 -29.21875 C 5.460938 -31.863281 6.972656 -34.191406 8.921875 -36.203125 C 10.867188 -38.222656 13.171875 -39.800781 15.828125 -40.9375 C 18.484375 -42.082031 21.394531 -42.65625 24.5625 -42.65625 C 27.757812 -42.65625 30.6875 -42.082031 33.34375 -40.9375 C 36 -39.800781 38.304688 -38.222656 40.265625 -36.203125 C 42.234375 -34.191406 43.753906 -31.863281 44.828125 -29.21875 C 45.898438 -26.570312 46.4375 -23.734375 46.4375 -20.703125 C 46.4375 -17.640625 45.898438 -14.785156 44.828125 -12.140625 C 43.753906 -9.492188 42.234375 -7.164062 40.265625 -5.15625 C 38.304688 -3.144531 35.992188 -1.570312 33.328125 -0.4375 C 30.660156 0.6875 27.726562 1.25 24.53125 1.25 Z M 24.609375 -7.8125 C 26.941406 -7.8125 29.019531 -8.367188 30.84375 -9.484375 C 32.675781 -10.597656 34.117188 -12.117188 35.171875 -14.046875 C 36.234375 -15.984375 36.765625 -18.203125 36.765625 -20.703125 C 36.765625 -23.203125 36.234375 -25.421875 35.171875 -27.359375 C 34.117188 -29.304688 32.675781 -30.835938 30.84375 -31.953125 C 29.019531 -33.066406 26.941406 -33.625 24.609375 -33.625 C 22.296875 -33.625 20.21875 -33.066406 18.375 -31.953125 C 16.539062 -30.835938 15.09375 -29.304688 14.03125 -27.359375 C 12.96875 -25.421875 12.4375 -23.203125 12.4375 -20.703125 C 12.4375 -18.203125 12.96875 -15.984375 14.03125 -14.046875 C 15.09375 -12.117188 16.539062 -10.597656 18.375 -9.484375 C 20.21875 -8.367188 22.296875 -7.8125 24.609375 -7.8125 Z M 24.609375 -7.8125 "/></g></g></g><g fill="#000000" fill-opacity="1"><g transform="translate(181.787506, 56.911459)"><g><path d="M 15.46875 0 L 5.71875 0 L 5.71875 -41.40625 L 15.0625 -41.40625 L 15.0625 -33.90625 C 16.03125 -36.1875 17.453125 -38.003906 19.328125 -39.359375 C 21.210938 -40.722656 23.492188 -41.40625 26.171875 -41.40625 L 30.609375 -41.40625 L 30.609375 -33.03125 L 26.703125 -33.03125 C 24.472656 -33.03125 22.507812 -32.488281 20.8125 -31.40625 C 19.125 -30.332031 17.8125 -28.773438 16.875 -26.734375 C 15.9375 -24.703125 15.46875 -22.207031 15.46875 -19.25 Z M 15.46875 0 "/></g></g></g></g></g></svg>