<svg xmlns="http://www.w3.org/2000/svg" xmlns:xlink="http://www.w3.org/1999/xlink" width="500" zoomAndPan="magnify" viewBox="0 0 375 374.999991" height="500" preserveAspectRatio="xMidYMid meet" version="1.0"><defs><g/><clipPath id="b7ddc0bd85"><path d="M 1.066406 11.21875 L 76.886719 11.21875 L 76.886719 84.453125 L 1.066406 84.453125 Z M 1.066406 11.21875 " clip-rule="nonzero"/></clipPath><clipPath id="bb3e4ae2d8"><path d="M 42.671875 11.21875 L 76.503906 11.21875 L 76.503906 43.414062 L 42.671875 43.414062 Z M 42.671875 11.21875 " clip-rule="nonzero"/></clipPath><clipPath id="1fb549a32f"><path d="M 0.671875 0.21875 L 34.503906 0.21875 L 34.503906 32.414062 L 0.671875 32.414062 Z M 0.671875 0.21875 " clip-rule="nonzero"/></clipPath><clipPath id="5f09b43682"><rect x="0" width="35" y="0" height="33"/></clipPath><clipPath id="860e59db23"><path d="M 46.9375 0.152344 L 80.769531 0.152344 L 80.769531 8.871094 L 46.9375 8.871094 Z M 46.9375 0.152344 " clip-rule="nonzero"/></clipPath><clipPath id="e4a4528e94"><path d="M 0.9375 0.152344 L 34.769531 0.152344 L 34.769531 8.871094 L 0.9375 8.871094 Z M 0.9375 0.152344 " clip-rule="nonzero"/></clipPath><clipPath id="f89dbd08de"><rect x="0" width="35" y="0" height="9"/></clipPath><clipPath id="bcf57ec268"><path d="M 78.523438 0.144531 L 87.242188 0.144531 L 87.242188 38.363281 L 78.523438 38.363281 Z M 78.523438 0.144531 " clip-rule="nonzero"/></clipPath><clipPath id="e31a77d352"><path d="M 0.523438 0.144531 L 9.242188 0.144531 L 9.242188 38.363281 L 0.523438 38.363281 Z M 0.523438 0.144531 " clip-rule="nonzero"/></clipPath><clipPath id="113aa98257"><rect x="0" width="10" y="0" height="39"/></clipPath><clipPath id="38c6ab3b90"><rect x="0" width="88" y="0" height="85"/></clipPath><clipPath id="e6744034e5"><rect x="0" width="193" y="0" height="52"/></clipPath></defs><rect x="-37.5" width="450" fill="#ffffff" y="-37.499999" height="449.999989" fill-opacity="1"/><rect x="-37.5" width="450" fill="#fffef0" y="-37.499999" height="449.999989" fill-opacity="1"/><g transform="matrix(1, 0, 0, 1, 49, 131)"><g clip-path="url(#38c6ab3b90)"><g clip-path="url(#b7ddc0bd85)"><path fill="#003934" d="M 76.460938 52.304688 L 49.527344 52.304688 L 67.734375 70.511719 L 61.722656 76.527344 L 43.167969 57.972656 L 43.167969 84.316406 L 34.667969 84.316406 L 34.667969 58.289062 L 15.34375 77.609375 L 8.9375 71.207031 L 27.839844 52.304688 L 1.101562 52.304688 L 1.101562 43.230469 L 28.441406 43.230469 L 10.039062 24.828125 L 16.054688 18.816406 L 34.667969 37.445312 L 34.667969 11.21875 L 43.167969 11.21875 L 43.167969 36.960938 L 62.21875 17.910156 L 68.625 24.332031 L 49.722656 43.230469 L 76.460938 43.230469 Z M 76.460938 52.304688 " fill-opacity="1" fill-rule="nonzero"/></g><g clip-path="url(#bb3e4ae2d8)"><g transform="matrix(1, 0, 0, 1, 42, 11)"><g clip-path="url(#5f09b43682)"><g clip-path="url(#1fb549a32f)"><path fill="#fffef0" d="M 0.671875 0.21875 L 34.5 0.21875 L 34.5 32.414062 L 0.671875 32.414062 Z M 0.671875 0.21875 " fill-opacity="1" fill-rule="nonzero"/></g></g></g></g><g clip-path="url(#860e59db23)"><g transform="matrix(1, 0, 0, 1, 46, 0)"><g clip-path="url(#f89dbd08de)"><g clip-path="url(#e4a4528e94)"><path fill="#003934" d="M 0.9375 0.152344 L 34.765625 0.152344 L 34.765625 8.871094 L 0.9375 8.871094 Z M 0.9375 0.152344 " fill-opacity="1" fill-rule="nonzero"/></g></g></g></g><g clip-path="url(#bcf57ec268)"><g transform="matrix(1, 0, 0, 1, 78, 0)"><g clip-path="url(#113aa98257)"><g clip-path="url(#e31a77d352)"><path fill="#003934" d="M 0.523438 38.363281 L 0.523438 0.144531 L 9.242188 0.144531 L 9.242188 38.363281 Z M 0.523438 38.363281 " fill-opacity="1" fill-rule="nonzero"/></g></g></g></g></g></g><g transform="matrix(1, 0, 0, 1, 135, 164)"><g clip-path="url(#e6744034e5)"><g fill="#000000" fill-opacity="1"><g transform="translate(1.532652, 40.654434)"><g><path d="M 11 10.0625 L 4.0625 10.0625 L 4.0625 -29.46875 L 10.65625 -29.46875 L 10.65625 -24.5 C 11.726562 -26.28125 13.148438 -27.695312 14.921875 -28.75 C 16.703125 -29.800781 18.65625 -30.328125 20.78125 -30.328125 C 22.882812 -30.328125 24.804688 -29.921875 26.546875 -29.109375 C 28.296875 -28.296875 29.8125 -27.175781 31.09375 -25.75 C 32.375 -24.332031 33.367188 -22.679688 34.078125 -20.796875 C 34.785156 -18.910156 35.140625 -16.890625 35.140625 -14.734375 C 35.140625 -12.578125 34.785156 -10.550781 34.078125 -8.65625 C 33.367188 -6.757812 32.367188 -5.09375 31.078125 -3.65625 C 29.796875 -2.226562 28.289062 -1.113281 26.5625 -0.3125 C 24.832031 0.488281 22.929688 0.890625 20.859375 0.890625 C 19.429688 0.890625 18.078125 0.65625 16.796875 0.1875 C 15.515625 -0.28125 14.367188 -0.9375 13.359375 -1.78125 C 12.347656 -2.632812 11.515625 -3.628906 10.859375 -4.765625 L 11 -1.34375 Z M 19.609375 -5.5 C 21.171875 -5.5 22.609375 -5.867188 23.921875 -6.609375 C 25.234375 -7.359375 26.285156 -8.425781 27.078125 -9.8125 C 27.867188 -11.195312 28.265625 -12.835938 28.265625 -14.734375 C 28.265625 -16.585938 27.867188 -18.203125 27.078125 -19.578125 C 26.296875 -20.953125 25.25 -22.019531 23.9375 -22.78125 C 22.632812 -23.550781 21.179688 -23.9375 19.578125 -23.9375 C 18.367188 -23.9375 17.242188 -23.703125 16.203125 -23.234375 C 15.160156 -22.765625 14.242188 -22.109375 13.453125 -21.265625 C 12.660156 -20.421875 12.039062 -19.445312 11.59375 -18.34375 C 11.144531 -17.238281 10.921875 -16.035156 10.921875 -14.734375 C 10.921875 -13.398438 11.148438 -12.164062 11.609375 -11.03125 C 12.066406 -9.90625 12.695312 -8.925781 13.5 -8.09375 C 14.300781 -7.257812 15.226562 -6.617188 16.28125 -6.171875 C 17.332031 -5.722656 18.441406 -5.5 19.609375 -5.5 Z M 19.609375 -5.5 "/></g></g></g><g fill="#000000" fill-opacity="1"><g transform="translate(37.357223, 40.654434)"><g><path d="M 15.84375 0.890625 C 13.863281 0.890625 12.023438 0.488281 10.328125 -0.3125 C 8.640625 -1.113281 7.171875 -2.226562 5.921875 -3.65625 C 4.671875 -5.09375 3.703125 -6.757812 3.015625 -8.65625 C 2.328125 -10.550781 1.984375 -12.578125 1.984375 -14.734375 C 1.984375 -16.890625 2.328125 -18.910156 3.015625 -20.796875 C 3.710938 -22.679688 4.6875 -24.335938 5.9375 -25.765625 C 7.195312 -27.203125 8.664062 -28.328125 10.34375 -29.140625 C 12.03125 -29.953125 13.859375 -30.359375 15.828125 -30.359375 C 18.234375 -30.359375 20.367188 -29.835938 22.234375 -28.796875 C 24.109375 -27.753906 25.515625 -26.316406 26.453125 -24.484375 L 26.453125 -29.46875 L 33.046875 -29.46875 L 33.046875 0 L 26.453125 0 L 26.453125 -4.953125 C 25.492188 -3.117188 24.082031 -1.6875 22.21875 -0.65625 C 20.363281 0.375 18.238281 0.890625 15.84375 0.890625 Z M 17.515625 -5.53125 C 18.710938 -5.53125 19.835938 -5.765625 20.890625 -6.234375 C 21.941406 -6.703125 22.863281 -7.351562 23.65625 -8.1875 C 24.445312 -9.019531 25.0625 -9.992188 25.5 -11.109375 C 25.945312 -12.222656 26.171875 -13.429688 26.171875 -14.734375 C 26.171875 -16.015625 25.945312 -17.210938 25.5 -18.328125 C 25.050781 -19.441406 24.429688 -20.421875 23.640625 -21.265625 C 22.859375 -22.109375 21.941406 -22.765625 20.890625 -23.234375 C 19.835938 -23.703125 18.710938 -23.9375 17.515625 -23.9375 C 15.929688 -23.9375 14.484375 -23.550781 13.171875 -22.78125 C 11.859375 -22.019531 10.8125 -20.953125 10.03125 -19.578125 C 9.25 -18.203125 8.859375 -16.585938 8.859375 -14.734375 C 8.859375 -12.816406 9.253906 -11.171875 10.046875 -9.796875 C 10.835938 -8.421875 11.890625 -7.363281 13.203125 -6.625 C 14.523438 -5.894531 15.960938 -5.53125 17.515625 -5.53125 Z M 17.515625 -5.53125 "/></g></g></g><g fill="#000000" fill-opacity="1"><g transform="translate(73.181794, 40.654434)"><g><path d="M 11 0 L 4.0625 0 L 4.0625 -29.46875 L 10.71875 -29.46875 L 10.71875 -24.140625 C 11.40625 -25.765625 12.414062 -27.054688 13.75 -28.015625 C 15.09375 -28.984375 16.71875 -29.46875 18.625 -29.46875 L 21.78125 -29.46875 L 21.78125 -23.5 L 19 -23.5 C 17.414062 -23.5 16.019531 -23.117188 14.8125 -22.359375 C 13.613281 -21.597656 12.675781 -20.488281 12 -19.03125 C 11.332031 -17.582031 11 -15.804688 11 -13.703125 Z M 11 0 "/></g></g></g><g fill="#000000" fill-opacity="1"><g transform="translate(94.561243, 40.654434)"><g><path d="M 32.109375 -15.25 C 32.109375 -14.882812 32.097656 -14.539062 32.078125 -14.21875 C 32.054688 -13.894531 32.015625 -13.457031 31.953125 -12.90625 L 8.9375 -12.90625 C 9.1875 -11.289062 9.695312 -9.921875 10.46875 -8.796875 C 11.25 -7.671875 12.210938 -6.804688 13.359375 -6.203125 C 14.503906 -5.597656 15.753906 -5.296875 17.109375 -5.296875 C 18.867188 -5.296875 20.289062 -5.644531 21.375 -6.34375 C 22.46875 -7.039062 23.265625 -8.015625 23.765625 -9.265625 L 31.328125 -9.265625 C 30.960938 -7.941406 30.363281 -6.664062 29.53125 -5.4375 C 28.707031 -4.21875 27.691406 -3.132812 26.484375 -2.1875 C 25.273438 -1.25 23.890625 -0.503906 22.328125 0.046875 C 20.773438 0.609375 19.082031 0.890625 17.25 0.890625 C 15.039062 0.890625 13.003906 0.484375 11.140625 -0.328125 C 9.273438 -1.140625 7.660156 -2.257812 6.296875 -3.6875 C 4.929688 -5.125 3.867188 -6.785156 3.109375 -8.671875 C 2.359375 -10.566406 1.984375 -12.585938 1.984375 -14.734375 C 1.984375 -16.890625 2.359375 -18.910156 3.109375 -20.796875 C 3.867188 -22.679688 4.929688 -24.335938 6.296875 -25.765625 C 7.660156 -27.203125 9.273438 -28.328125 11.140625 -29.140625 C 13.003906 -29.953125 15.039062 -30.359375 17.25 -30.359375 C 19.46875 -30.359375 21.488281 -29.957031 23.3125 -29.15625 C 25.144531 -28.351562 26.710938 -27.25 28.015625 -25.84375 C 29.328125 -24.4375 30.335938 -22.820312 31.046875 -21 C 31.753906 -19.1875 32.109375 -17.269531 32.109375 -15.25 Z M 9.234375 -18.265625 L 25.015625 -18.265625 C 24.921875 -19.367188 24.507812 -20.375 23.78125 -21.28125 C 23.0625 -22.1875 22.128906 -22.914062 20.984375 -23.46875 C 19.835938 -24.03125 18.585938 -24.3125 17.234375 -24.3125 C 16.066406 -24.3125 14.945312 -24.09375 13.875 -23.65625 C 12.800781 -23.226562 11.859375 -22.566406 11.046875 -21.671875 C 10.234375 -20.785156 9.628906 -19.648438 9.234375 -18.265625 Z M 9.234375 -18.265625 "/></g></g></g><g fill="#000000" fill-opacity="1"><g transform="translate(126.9465, 40.654434)"><g><path d="M 8.765625 0 L 0.75 0 L 10.484375 -15.1875 L 1.125 -29.46875 L 9.265625 -29.46875 L 15.3125 -19.78125 L 15.328125 -19.78125 L 21.390625 -29.46875 L 29.5 -29.46875 L 20.15625 -15.1875 L 29.921875 0 L 21.703125 0 L 15.25 -10.34375 Z M 8.765625 0 "/></g></g></g><g fill="#000000" fill-opacity="1"><g transform="translate(156.322346, 40.654434)"><g><path d="M 15.84375 0.890625 C 13.863281 0.890625 12.023438 0.488281 10.328125 -0.3125 C 8.640625 -1.113281 7.171875 -2.226562 5.921875 -3.65625 C 4.671875 -5.09375 3.703125 -6.757812 3.015625 -8.65625 C 2.328125 -10.550781 1.984375 -12.578125 1.984375 -14.734375 C 1.984375 -16.890625 2.328125 -18.910156 3.015625 -20.796875 C 3.710938 -22.679688 4.6875 -24.335938 5.9375 -25.765625 C 7.195312 -27.203125 8.664062 -28.328125 10.34375 -29.140625 C 12.03125 -29.953125 13.859375 -30.359375 15.828125 -30.359375 C 18.234375 -30.359375 20.367188 -29.835938 22.234375 -28.796875 C 24.109375 -27.753906 25.515625 -26.316406 26.453125 -24.484375 L 26.453125 -29.46875 L 33.046875 -29.46875 L 33.046875 0 L 26.453125 0 L 26.453125 -4.953125 C 25.492188 -3.117188 24.082031 -1.6875 22.21875 -0.65625 C 20.363281 0.375 18.238281 0.890625 15.84375 0.890625 Z M 17.515625 -5.53125 C 18.710938 -5.53125 19.835938 -5.765625 20.890625 -6.234375 C 21.941406 -6.703125 22.863281 -7.351562 23.65625 -8.1875 C 24.445312 -9.019531 25.0625 -9.992188 25.5 -11.109375 C 25.945312 -12.222656 26.171875 -13.429688 26.171875 -14.734375 C 26.171875 -16.015625 25.945312 -17.210938 25.5 -18.328125 C 25.050781 -19.441406 24.429688 -20.421875 23.640625 -21.265625 C 22.859375 -22.109375 21.941406 -22.765625 20.890625 -23.234375 C 19.835938 -23.703125 18.710938 -23.9375 17.515625 -23.9375 C 15.929688 -23.9375 14.484375 -23.550781 13.171875 -22.78125 C 11.859375 -22.019531 10.8125 -20.953125 10.03125 -19.578125 C 9.25 -18.203125 8.859375 -16.585938 8.859375 -14.734375 C 8.859375 -12.816406 9.253906 -11.171875 10.046875 -9.796875 C 10.835938 -8.421875 11.890625 -7.363281 13.203125 -6.625 C 14.523438 -5.894531 15.960938 -5.53125 17.515625 -5.53125 Z M 17.515625 -5.53125 "/></g></g></g></g></g></svg>