<svg xmlns="http://www.w3.org/2000/svg" xmlns:xlink="http://www.w3.org/1999/xlink" width="500" zoomAndPan="magnify" viewBox="0 0 375 374.999991" height="500" preserveAspectRatio="xMidYMid meet" version="1.0"><defs><g/><clipPath id="c5ccb48bd3"><rect x="0" width="222" y="0" height="244"/></clipPath><clipPath id="a64930af4b"><path d="M 70.972656 106.601562 L 165.902344 106.601562 L 165.902344 310.863281 L 70.972656 310.863281 Z M 70.972656 106.601562 " clip-rule="nonzero"/></clipPath><clipPath id="d42303c705"><path d="M 0.972656 0.601562 L 95.902344 0.601562 L 95.902344 204.863281 L 0.972656 204.863281 Z M 0.972656 0.601562 " clip-rule="nonzero"/></clipPath><clipPath id="6136559440"><rect x="0" width="96" y="0" height="205"/></clipPath><clipPath id="a9d5fb872c"><path d="M 129.457031 123.242188 L 133.980469 123.242188 L 133.980469 281.378906 L 129.457031 281.378906 Z M 129.457031 123.242188 " clip-rule="nonzero"/></clipPath><clipPath id="cd4cf12163"><path d="M 0.457031 0.242188 L 4.980469 0.242188 L 4.980469 158.378906 L 0.457031 158.378906 Z M 0.457031 0.242188 " clip-rule="nonzero"/></clipPath><clipPath id="3e8a8d847f"><rect x="0" width="5" y="0" height="159"/></clipPath><clipPath id="cb09e52016"><rect x="0" width="38" y="0" height="90"/></clipPath><clipPath id="68e63cefea"><rect x="0" width="37" y="0" height="71"/></clipPath></defs><rect x="-37.5" width="450" fill="#ffffff" y="-37.499999" height="449.999989" fill-opacity="1"/><rect x="-37.5" width="450" fill="#deddd6" y="-37.499999" height="449.999989" fill-opacity="1"/><g transform="matrix(1, 0, 0, 1, 81, 109)"><g clip-path="url(#c5ccb48bd3)"><g fill="#333333" fill-opacity="1"><g transform="translate(8.156155, 173.545657)"><g><path d="M 93.25 -160.625 L 158.09375 0 L 118.765625 0 L 106.890625 -32.125 L 45.75 -32.125 L 33.875 0 L -5.453125 0 L 59.375 -160.625 Z M 94.421875 -64.25 L 76.515625 -110.96875 L 76.125 -110.96875 L 58.21875 -64.25 Z M 94.421875 -64.25 "/></g></g></g><g fill="#333333" fill-opacity="1"><g transform="translate(160.78166, 173.545657)"><g><path d="M 48.28125 -160.625 L 48.28125 0 L 11.6875 0 L 11.6875 -160.625 Z M 48.28125 -160.625 "/></g></g></g></g></g><g clip-path="url(#a64930af4b)"><g transform="matrix(1, 0, 0, 1, 70, 106)"><g clip-path="url(#6136559440)"><g clip-path="url(#d42303c705)"><path fill="#deddd6" d="M 0.972656 0.601562 L 95.902344 0.601562 L 95.902344 204.925781 L 0.972656 204.925781 Z M 0.972656 0.601562 " fill-opacity="1" fill-rule="nonzero"/></g></g></g></g><g clip-path="url(#a9d5fb872c)"><g transform="matrix(1, 0, 0, 1, 129, 123)"><g clip-path="url(#3e8a8d847f)"><g clip-path="url(#cd4cf12163)"><path fill="#333333" d="M 0.457031 0.242188 L 4.980469 0.242188 L 4.980469 158.378906 L 0.457031 158.378906 Z M 0.457031 0.242188 " fill-opacity="1" fill-rule="nonzero"/></g></g></g></g><g transform="matrix(1, 0, 0, 1, 134, 194)"><g clip-path="url(#cb09e52016)"><g fill="#333333" fill-opacity="1"><g transform="translate(26.919502, 89.324025)"><g><path d="M -24.15625 -7.265625 L 0 -7.265625 L 0 -1.75 L -24.15625 -1.75 Z M -24.15625 -7.265625 "/></g></g></g><g fill="#333333" fill-opacity="1"><g transform="translate(26.919502, 80.305317)"><g><path d="M -14.984375 -7.265625 L 0 -7.265625 L 0 -1.75 L -24.15625 -1.75 L -24.15625 -7.265625 L -9.171875 -16.859375 L -9.171875 -16.921875 L -24.15625 -16.921875 L -24.15625 -22.421875 L 0 -22.421875 L 0 -16.921875 L -14.984375 -7.3125 Z M -14.984375 -7.265625 "/></g></g></g><g fill="#333333" fill-opacity="1"><g transform="translate(26.919502, 57.524609)"><g><path d="M -19.328125 -0.234375 L -24.15625 -0.234375 L -24.15625 -17.21875 L -19.328125 -17.21875 L -19.328125 -11.484375 L 0 -11.484375 L 0 -5.96875 L -19.328125 -5.96875 Z M -19.328125 -0.234375 "/></g></g></g><g fill="#333333" fill-opacity="1"><g transform="translate(26.919502, 40.072819)"><g><path d="M -24.15625 -15.578125 L -19.328125 -15.578125 L -19.328125 -7.265625 L -14.53125 -7.265625 L -14.53125 -15.21875 L -9.6875 -15.21875 L -9.6875 -7.265625 L -4.828125 -7.265625 L -4.828125 -15.578125 L 0 -15.578125 L 0 -1.75 L -24.15625 -1.75 Z M -24.15625 -15.578125 "/></g></g></g><g fill="#333333" fill-opacity="1"><g transform="translate(26.919502, 23.08953)"><g><path d="M -24.15625 -1.75 L -24.15625 -10.390625 C -24.15625 -12.710938 -23.535156 -14.601562 -22.296875 -16.0625 C -21.054688 -17.53125 -19.285156 -18.265625 -16.984375 -18.265625 C -15.203125 -18.265625 -13.710938 -17.820312 -12.515625 -16.9375 C -11.316406 -16.050781 -10.472656 -14.847656 -9.984375 -13.328125 L 0 -21.640625 L 0 -14.640625 L -9.546875 -7.265625 L 0 -7.265625 L 0 -1.75 Z M -13.4375 -7.265625 L -13.4375 -7.90625 C -13.4375 -8.414062 -13.445312 -8.84375 -13.46875 -9.1875 C -13.488281 -9.539062 -13.554688 -9.941406 -13.671875 -10.390625 C -13.785156 -10.835938 -13.953125 -11.195312 -14.171875 -11.46875 C -14.390625 -11.75 -14.703125 -11.984375 -15.109375 -12.171875 C -15.515625 -12.367188 -16.007812 -12.46875 -16.59375 -12.46875 C -17.1875 -12.46875 -17.6875 -12.367188 -18.09375 -12.171875 C -18.5 -11.984375 -18.8125 -11.75 -19.03125 -11.46875 C -19.25 -11.195312 -19.414062 -10.835938 -19.53125 -10.390625 C -19.644531 -9.941406 -19.710938 -9.539062 -19.734375 -9.1875 C -19.753906 -8.84375 -19.765625 -8.414062 -19.765625 -7.90625 L -19.765625 -7.265625 Z M -13.4375 -7.265625 "/></g></g></g></g></g><g transform="matrix(1, 0, 0, 1, 131, 127)"><g clip-path="url(#68e63cefea)"><g fill="#333333" fill-opacity="1"><g transform="translate(28.581283, 70.11071)"><g><path d="M 0 -10.609375 L 0 -9.4375 L -20.9375 -0.75 L -20.9375 -1.921875 L -1.28125 -10.03125 L -20.9375 -18.125 L -20.9375 -19.296875 Z M 0 -10.609375 "/></g></g></g><g fill="#333333" fill-opacity="1"><g transform="translate(28.581283, 51.668337)"><g><path d="M 0 -4.21875 L 0 -3.09375 L -20.9375 -3.09375 L -20.9375 -4.21875 Z M 0 -4.21875 "/></g></g></g><g fill="#333333" fill-opacity="1"><g transform="translate(28.581283, 45.948952)"><g><path d="M -11.171875 -14.75 L -10.15625 -14.75 L -10.15625 -4.21875 L -1.015625 -4.21875 L -1.015625 -15.796875 L 0 -15.796875 L 0 -3.09375 L -20.9375 -3.09375 L -20.9375 -15.671875 L -19.9375 -15.671875 L -19.9375 -4.21875 L -11.171875 -4.21875 Z M -11.171875 -14.75 "/></g></g></g><g fill="#333333" fill-opacity="1"><g transform="translate(28.581283, 30.099286)"><g><path d="M -20.9375 -2.0625 L -1.421875 -8.046875 L -20.9375 -14.21875 L -20.9375 -15.265625 L -1.421875 -21.5 L -20.9375 -27.484375 L -20.9375 -28.609375 L 0 -22.078125 L 0 -20.859375 L -19.140625 -14.734375 L 0 -8.609375 L 0 -7.375 L -20.9375 -0.875 Z M -20.9375 -2.0625 "/></g></g></g></g></g></svg>