<svg xmlns="http://www.w3.org/2000/svg" xmlns:xlink="http://www.w3.org/1999/xlink" width="500" zoomAndPan="magnify" viewBox="0 0 375 374.999991" height="500" preserveAspectRatio="xMidYMid meet" version="1.0"><defs><g/><clipPath id="7726c6128d"><path d="M 308.117188 151.988281 L 343.367188 151.988281 L 343.367188 172 L 308.117188 172 Z M 308.117188 151.988281 " clip-rule="nonzero"/></clipPath><clipPath id="8b1d6ff512"><rect x="0" width="203" y="0" height="94"/></clipPath><clipPath id="9d9374414f"><path d="M 52 0.0390625 L 86 0.0390625 L 86 53 L 52 53 Z M 52 0.0390625 " clip-rule="nonzero"/></clipPath><clipPath id="c9d5ccc16f"><rect x="0" width="111" y="0" height="73"/></clipPath></defs><rect x="-37.5" width="450" fill="#ffffff" y="-37.499999" height="449.999989" fill-opacity="1"/><rect x="-37.5" width="450" fill="#1e1e1e" y="-37.499999" height="449.999989" fill-opacity="1"/><g clip-path="url(#7726c6128d)"><path fill="#f9f5f2" d="M 325.765625 154.34375 L 331.734375 160.3125 L 308.140625 160.3125 L 308.140625 163.644531 L 331.734375 163.644531 L 325.765625 169.613281 L 328.121094 171.96875 L 338.113281 161.980469 L 328.121094 151.988281 Z M 339.777344 151.988281 L 339.777344 171.96875 L 343.109375 171.96875 L 343.109375 151.988281 Z M 339.777344 151.988281 " fill-opacity="1" fill-rule="nonzero"/></g><g transform="matrix(1, 0, 0, 1, 145, 131)"><g clip-path="url(#8b1d6ff512)"><g fill="#f9f5f2" fill-opacity="1"><g transform="translate(0.654426, 76.26464)"><g><path d="M 16.03125 0.578125 C 13.1875 0.578125 10.722656 0.046875 8.640625 -1.015625 C 6.566406 -2.078125 4.988281 -3.46875 3.90625 -5.1875 C 2.832031 -6.90625 2.296875 -8.71875 2.296875 -10.625 L 2.296875 -11.0625 L 11.890625 -11.0625 L 11.890625 -10.6875 C 11.890625 -9.707031 12.269531 -8.847656 13.03125 -8.109375 C 13.800781 -7.367188 14.882812 -7 16.28125 -7 C 17.46875 -7 18.421875 -7.285156 19.140625 -7.859375 C 19.859375 -8.429688 20.21875 -9.179688 20.21875 -10.109375 C 20.21875 -10.960938 19.878906 -11.640625 19.203125 -12.140625 C 18.523438 -12.648438 17.675781 -12.988281 16.65625 -13.15625 L 13.03125 -13.921875 C 10.570312 -14.347656 8.300781 -15.332031 6.21875 -16.875 C 4.144531 -18.425781 3.109375 -20.8125 3.109375 -24.03125 C 3.109375 -27.300781 4.285156 -29.835938 6.640625 -31.640625 C 8.992188 -33.441406 12.015625 -34.34375 15.703125 -34.34375 C 18.460938 -34.34375 20.835938 -33.851562 22.828125 -32.875 C 24.816406 -31.90625 26.320312 -30.625 27.34375 -29.03125 C 28.363281 -27.4375 28.875 -25.75 28.875 -23.96875 L 28.875 -23.65625 L 19.265625 -23.65625 L 19.265625 -23.84375 C 19.265625 -24.695312 18.945312 -25.484375 18.3125 -26.203125 C 17.675781 -26.921875 16.703125 -27.28125 15.390625 -27.28125 C 14.285156 -27.28125 13.40625 -27.015625 12.75 -26.484375 C 12.09375 -25.953125 11.765625 -25.222656 11.765625 -24.296875 C 11.765625 -22.640625 13.144531 -21.554688 15.90625 -21.046875 L 19.84375 -20.15625 C 22.507812 -19.5625 24.765625 -18.476562 26.609375 -16.90625 C 28.453125 -15.34375 29.375 -13.117188 29.375 -10.234375 C 29.375 -8.035156 28.789062 -6.117188 27.625 -4.484375 C 26.457031 -2.847656 24.859375 -1.59375 22.828125 -0.71875 C 20.796875 0.144531 18.53125 0.578125 16.03125 0.578125 Z M 16.03125 0.578125 "/></g></g></g><g fill="#f9f5f2" fill-opacity="1"><g transform="translate(26.919601, 76.26464)"><g><path d="M 23.59375 0.578125 C 20.789062 0.578125 18.625 -0.0546875 17.09375 -1.328125 C 15.570312 -2.609375 14.453125 -3.96875 13.734375 -5.40625 L 13.234375 -5.40625 L 13.234375 13.296875 L 3.25 13.296875 L 3.25 -33.640625 L 13.234375 -33.640625 L 13.234375 -28.6875 L 13.734375 -28.6875 C 14.328125 -29.957031 15.394531 -31.21875 16.9375 -32.46875 C 18.488281 -33.71875 20.6875 -34.34375 23.53125 -34.34375 C 27.726562 -34.34375 30.957031 -32.769531 33.21875 -29.625 C 35.488281 -26.488281 36.625 -22.234375 36.625 -16.859375 C 36.625 -11.554688 35.488281 -7.320312 33.21875 -4.15625 C 30.957031 -1 27.75 0.578125 23.59375 0.578125 Z M 19.90625 -7.25 C 22.195312 -7.25 23.878906 -8.203125 24.953125 -10.109375 C 26.035156 -12.015625 26.578125 -14.265625 26.578125 -16.859375 C 26.578125 -19.441406 26.035156 -21.65625 24.953125 -23.5 C 23.878906 -25.34375 22.195312 -26.265625 19.90625 -26.265625 C 17.613281 -26.265625 15.925781 -25.332031 14.84375 -23.46875 C 13.769531 -21.601562 13.234375 -19.398438 13.234375 -16.859375 C 13.234375 -14.265625 13.78125 -12.015625 14.875 -10.109375 C 15.976562 -8.203125 17.65625 -7.25 19.90625 -7.25 Z M 19.90625 -7.25 "/></g></g></g><g fill="#f9f5f2" fill-opacity="1"><g transform="translate(61.261488, 76.26464)"><g><path d="M 15.078125 0.578125 C 10.921875 0.578125 7.707031 -1 5.4375 -4.15625 C 3.164062 -7.320312 2.03125 -11.554688 2.03125 -16.859375 C 2.03125 -22.191406 3.195312 -26.4375 5.53125 -29.59375 C 7.863281 -32.757812 11.085938 -34.34375 15.203125 -34.34375 C 18.035156 -34.34375 20.210938 -33.71875 21.734375 -32.46875 C 23.265625 -31.21875 24.328125 -29.957031 24.921875 -28.6875 L 25.4375 -28.6875 L 25.4375 -33.640625 L 35.421875 -33.640625 L 35.421875 0 L 25.4375 0 L 25.4375 -5.40625 L 24.921875 -5.40625 C 24.285156 -4.050781 23.191406 -2.710938 21.640625 -1.390625 C 20.097656 -0.078125 17.910156 0.578125 15.078125 0.578125 Z M 18.828125 -7.375 C 21.066406 -7.375 22.738281 -8.316406 23.84375 -10.203125 C 24.945312 -12.085938 25.5 -14.328125 25.5 -16.921875 C 25.5 -19.460938 24.945312 -21.675781 23.84375 -23.5625 C 22.738281 -25.445312 21.066406 -26.390625 18.828125 -26.390625 C 16.492188 -26.390625 14.785156 -25.46875 13.703125 -23.625 C 12.617188 -21.78125 12.078125 -19.566406 12.078125 -16.984375 C 12.078125 -14.347656 12.617188 -12.085938 13.703125 -10.203125 C 14.785156 -8.316406 16.492188 -7.375 18.828125 -7.375 Z M 18.828125 -7.375 "/></g></g></g><g fill="#f9f5f2" fill-opacity="1"><g transform="translate(95.730558, 76.26464)"><g><path d="M 18.5625 0.578125 C 14.957031 0.578125 11.9375 -0.25 9.5 -1.90625 C 7.0625 -3.5625 5.257812 -5.710938 4.09375 -8.359375 C 2.9375 -11.015625 2.359375 -13.867188 2.359375 -16.921875 C 2.359375 -19.972656 2.9375 -22.820312 4.09375 -25.46875 C 5.257812 -28.113281 7.0625 -30.253906 9.5 -31.890625 C 11.9375 -33.523438 14.957031 -34.34375 18.5625 -34.34375 C 23.0625 -34.34375 26.632812 -33.046875 29.28125 -30.453125 C 31.9375 -27.867188 33.5625 -24.585938 34.15625 -20.609375 L 24.484375 -20.609375 C 24.234375 -22.347656 23.617188 -23.742188 22.640625 -24.796875 C 21.660156 -25.859375 20.347656 -26.390625 18.703125 -26.390625 C 16.328125 -26.390625 14.628906 -25.46875 13.609375 -23.625 C 12.585938 -21.78125 12.078125 -19.546875 12.078125 -16.921875 C 12.078125 -14.242188 12.585938 -11.984375 13.609375 -10.140625 C 14.628906 -8.296875 16.328125 -7.375 18.703125 -7.375 C 20.347656 -7.375 21.660156 -7.914062 22.640625 -9 C 23.617188 -10.082031 24.234375 -11.46875 24.484375 -13.15625 L 34.15625 -13.15625 C 33.5625 -9.175781 31.945312 -5.890625 29.3125 -3.296875 C 26.6875 -0.710938 23.101562 0.578125 18.5625 0.578125 Z M 18.5625 0.578125 "/></g></g></g><g fill="#f9f5f2" fill-opacity="1"><g transform="translate(127.019833, 76.26464)"><g><path d="M 18.5 0.578125 C 14.9375 0.578125 11.9375 -0.238281 9.5 -1.875 C 7.0625 -3.507812 5.257812 -5.648438 4.09375 -8.296875 C 2.9375 -10.953125 2.359375 -13.804688 2.359375 -16.859375 C 2.359375 -19.910156 2.9375 -22.757812 4.09375 -25.40625 C 5.257812 -28.050781 7.0625 -30.203125 9.5 -31.859375 C 11.9375 -33.515625 14.984375 -34.34375 18.640625 -34.34375 C 23.378906 -34.34375 27.148438 -32.847656 29.953125 -29.859375 C 32.753906 -26.867188 34.15625 -22.535156 34.15625 -16.859375 L 34.15625 -14.125 L 11.890625 -14.125 L 11.890625 -13.609375 C 11.890625 -11.867188 12.492188 -10.375 13.703125 -9.125 C 14.910156 -7.875 16.445312 -7.25 18.3125 -7.25 C 19.757812 -7.25 20.988281 -7.578125 22 -8.234375 C 23.019531 -8.890625 23.742188 -9.769531 24.171875 -10.875 L 33.890625 -10.875 C 33.046875 -7.519531 31.296875 -4.769531 28.640625 -2.625 C 25.992188 -0.488281 22.613281 0.578125 18.5 0.578125 Z M 24.671875 -20.484375 C 24.628906 -22.765625 24.046875 -24.457031 22.921875 -25.5625 C 21.796875 -26.664062 20.300781 -27.21875 18.4375 -27.21875 C 16.53125 -27.21875 15.015625 -26.625 13.890625 -25.4375 C 12.765625 -24.25 12.179688 -22.597656 12.140625 -20.484375 Z M 24.671875 -20.484375 "/></g></g></g><g fill="#f9f5f2" fill-opacity="1"><g transform="translate(158.436291, 76.26464)"><g><path d="M 16.03125 0.578125 C 13.1875 0.578125 10.722656 0.046875 8.640625 -1.015625 C 6.566406 -2.078125 4.988281 -3.46875 3.90625 -5.1875 C 2.832031 -6.90625 2.296875 -8.71875 2.296875 -10.625 L 2.296875 -11.0625 L 11.890625 -11.0625 L 11.890625 -10.6875 C 11.890625 -9.707031 12.269531 -8.847656 13.03125 -8.109375 C 13.800781 -7.367188 14.882812 -7 16.28125 -7 C 17.46875 -7 18.421875 -7.285156 19.140625 -7.859375 C 19.859375 -8.429688 20.21875 -9.179688 20.21875 -10.109375 C 20.21875 -10.960938 19.878906 -11.640625 19.203125 -12.140625 C 18.523438 -12.648438 17.675781 -12.988281 16.65625 -13.15625 L 13.03125 -13.921875 C 10.570312 -14.347656 8.300781 -15.332031 6.21875 -16.875 C 4.144531 -18.425781 3.109375 -20.8125 3.109375 -24.03125 C 3.109375 -27.300781 4.285156 -29.835938 6.640625 -31.640625 C 8.992188 -33.441406 12.015625 -34.34375 15.703125 -34.34375 C 18.460938 -34.34375 20.835938 -33.851562 22.828125 -32.875 C 24.816406 -31.90625 26.320312 -30.625 27.34375 -29.03125 C 28.363281 -27.4375 28.875 -25.75 28.875 -23.96875 L 28.875 -23.65625 L 19.265625 -23.65625 L 19.265625 -23.84375 C 19.265625 -24.695312 18.945312 -25.484375 18.3125 -26.203125 C 17.675781 -26.921875 16.703125 -27.28125 15.390625 -27.28125 C 14.285156 -27.28125 13.40625 -27.015625 12.75 -26.484375 C 12.09375 -25.953125 11.765625 -25.222656 11.765625 -24.296875 C 11.765625 -22.640625 13.144531 -21.554688 15.90625 -21.046875 L 19.84375 -20.15625 C 22.507812 -19.5625 24.765625 -18.476562 26.609375 -16.90625 C 28.453125 -15.34375 29.375 -13.117188 29.375 -10.234375 C 29.375 -8.035156 28.789062 -6.117188 27.625 -4.484375 C 26.457031 -2.847656 24.859375 -1.59375 22.828125 -0.71875 C 20.796875 0.144531 18.53125 0.578125 16.03125 0.578125 Z M 16.03125 0.578125 "/></g></g></g><g fill="#f9f5f2" fill-opacity="1"><g transform="translate(184.701466, 76.26464)"><g><path d="M 10.6875 0.578125 C 9.113281 0.578125 7.816406 0.046875 6.796875 -1.015625 C 5.785156 -2.078125 5.28125 -3.367188 5.28125 -4.890625 C 5.28125 -6.421875 5.785156 -7.703125 6.796875 -8.734375 C 7.816406 -9.773438 9.113281 -10.296875 10.6875 -10.296875 C 12.25 -10.296875 13.550781 -9.773438 14.59375 -8.734375 C 15.632812 -7.703125 16.15625 -6.421875 16.15625 -4.890625 C 16.15625 -3.367188 15.625 -2.078125 14.5625 -1.015625 C 13.5 0.046875 12.207031 0.578125 10.6875 0.578125 Z M 10.6875 0.578125 "/></g></g></g></g></g><g transform="matrix(1, 0, 0, 1, 36, 155)"><g clip-path="url(#c9d5ccc16f)"><g fill="#f9f5f2" fill-opacity="1"><g transform="translate(1.389128, 51.740972)"><g><path d="M 19.609375 -40.9375 L 20.96875 -40.9375 L 18.453125 -32.140625 L 23.5 -32.140625 L 22.921875 -29.90625 L 17.796875 -29.90625 L 11.390625 -7.5 C 10.804688 -5.570312 10.515625 -4.273438 10.515625 -3.609375 C 10.515625 -2.742188 10.878906 -2.3125 11.609375 -2.3125 C 12.234375 -2.3125 13 -2.65625 13.90625 -3.34375 C 14.820312 -4.039062 15.675781 -4.820312 16.46875 -5.6875 C 17.257812 -6.550781 17.679688 -7.082031 17.734375 -7.28125 L 19.09375 -7.28125 C 17.226562 -4.300781 15.359375 -2.195312 13.484375 -0.96875 C 11.609375 0.25 9.898438 0.859375 8.359375 0.859375 C 7.546875 0.859375 6.800781 0.546875 6.125 -0.078125 C 5.457031 -0.703125 5.125 -1.660156 5.125 -2.953125 C 5.125 -3.816406 5.410156 -5.332031 5.984375 -7.5 L 12.390625 -29.90625 L 6.984375 -29.90625 L 7.5 -31.5 C 10.332031 -31.976562 12.648438 -33.070312 14.453125 -34.78125 C 16.253906 -36.488281 17.972656 -38.539062 19.609375 -40.9375 Z M 19.609375 -40.9375 "/></g></g></g><g fill="#f9f5f2" fill-opacity="1"><g transform="translate(20.342266, 51.740972)"><g><path d="M 22.421875 -32.9375 C 23.710938 -32.9375 24.882812 -32.488281 25.9375 -31.59375 C 27 -30.707031 27.648438 -29.472656 27.890625 -27.890625 L 28.03125 -27.890625 L 29.1875 -32.140625 L 34.890625 -32.9375 L 27.46875 -6.921875 C 27.414062 -6.828125 27.289062 -6.46875 27.09375 -5.84375 C 26.90625 -5.21875 26.8125 -4.59375 26.8125 -3.96875 C 26.8125 -3.582031 26.90625 -3.28125 27.09375 -3.0625 C 27.289062 -2.84375 27.507812 -2.734375 27.75 -2.734375 C 28.375 -2.734375 29.164062 -3.164062 30.125 -4.03125 C 31.082031 -4.894531 32 -6.097656 32.875 -7.640625 L 33.953125 -6.921875 C 32.648438 -4.515625 31 -2.613281 29 -1.21875 C 27.007812 0.164062 25.25 0.859375 23.71875 0.859375 C 22.851562 0.859375 22.203125 0.546875 21.765625 -0.078125 C 21.335938 -0.703125 21.125 -1.46875 21.125 -2.375 C 21.125 -3 21.253906 -4.019531 21.515625 -5.4375 C 21.773438 -6.851562 22.195312 -8.285156 22.78125 -9.734375 L 22.625 -9.875 C 17.25 -2.71875 12.375 0.859375 8 0.859375 C 6.082031 0.859375 4.554688 0.03125 3.421875 -1.625 C 2.296875 -3.28125 1.734375 -5.191406 1.734375 -7.359375 C 1.734375 -11.097656 2.820312 -14.972656 5 -18.984375 C 7.1875 -23.003906 9.898438 -26.332031 13.140625 -28.96875 C 16.390625 -31.613281 19.484375 -32.9375 22.421875 -32.9375 Z M 7.5 -8.71875 C 7.5 -6.84375 7.929688 -5.472656 8.796875 -4.609375 C 9.660156 -3.742188 10.671875 -3.3125 11.828125 -3.3125 C 13.316406 -3.3125 14.925781 -3.984375 16.65625 -5.328125 C 18.382812 -6.679688 19.976562 -8.398438 21.4375 -10.484375 C 22.90625 -12.578125 24 -14.703125 24.71875 -16.859375 C 25.4375 -18.972656 25.960938 -20.710938 26.296875 -22.078125 C 26.640625 -23.453125 26.8125 -24.789062 26.8125 -26.09375 C 26.8125 -27.96875 26.378906 -29.347656 25.515625 -30.234375 C 24.648438 -31.117188 23.640625 -31.5625 22.484375 -31.5625 C 20.222656 -31.5625 17.925781 -30.179688 15.59375 -27.421875 C 13.269531 -24.660156 11.335938 -21.429688 9.796875 -17.734375 C 8.265625 -14.035156 7.5 -11.03125 7.5 -8.71875 Z M 7.5 -8.71875 "/></g></g></g><g clip-path="url(#9d9374414f)"><g fill="#f9f5f2" fill-opacity="1"><g transform="translate(51.330657, 51.740972)"><g><path d="M 20.828125 -51.6875 L 13.546875 -26.375 L 13.6875 -26.234375 C 15.5625 -28.585938 17.457031 -30.289062 19.375 -31.34375 C 21.300781 -32.40625 23.15625 -32.9375 24.9375 -32.9375 C 27.34375 -32.9375 29.410156 -32.117188 31.140625 -30.484375 C 32.867188 -28.847656 33.734375 -26.351562 33.734375 -23 C 33.734375 -19.632812 32.722656 -16.078125 30.703125 -12.328125 C 28.679688 -8.578125 26.035156 -5.441406 22.765625 -2.921875 C 19.503906 -0.398438 16.117188 0.859375 12.609375 0.859375 C 8.960938 0.859375 5.3125 -0.601562 1.65625 -3.53125 L 12.765625 -42.09375 C 12.898438 -42.53125 13.097656 -43.203125 13.359375 -44.109375 C 13.628906 -45.023438 13.765625 -45.816406 13.765625 -46.484375 C 13.765625 -47.929688 12.945312 -48.65625 11.3125 -48.65625 C 10.976562 -48.65625 10.609375 -48.601562 10.203125 -48.5 C 9.796875 -48.40625 9.46875 -48.359375 9.21875 -48.359375 L 9.15625 -49.8125 L 19.75 -51.6875 Z M 12.90625 -0.65625 C 15.789062 -0.65625 18.375 -1.804688 20.65625 -4.109375 C 22.9375 -6.410156 24.710938 -9.253906 25.984375 -12.640625 C 27.253906 -16.035156 27.890625 -19.269531 27.890625 -22.34375 C 27.890625 -24.507812 27.457031 -26.238281 26.59375 -27.53125 C 25.726562 -28.832031 24.382812 -29.484375 22.5625 -29.484375 C 20.445312 -29.484375 18.332031 -28.648438 16.21875 -26.984375 C 14.101562 -25.328125 12.539062 -22.75 11.53125 -19.25 L 6.78125 -2.734375 C 7.832031 -2.066406 8.835938 -1.550781 9.796875 -1.1875 C 10.765625 -0.832031 11.800781 -0.65625 12.90625 -0.65625 Z M 12.90625 -0.65625 "/></g></g></g></g><g fill="#f9f5f2" fill-opacity="1"><g transform="translate(82.319048, 51.740972)"><g><path d="M 17.015625 -32.9375 C 18.742188 -32.9375 20.375 -32.53125 21.90625 -31.71875 C 22.769531 -31.332031 23.375 -31.140625 23.71875 -31.140625 C 24.625 -31.140625 25.367188 -31.738281 25.953125 -32.9375 L 27.25 -32.9375 L 25.296875 -21.984375 L 24 -21.984375 C 24 -25.109375 23.382812 -27.460938 22.15625 -29.046875 C 20.9375 -30.628906 19.4375 -31.421875 17.65625 -31.421875 C 16.363281 -31.421875 15.296875 -31.007812 14.453125 -30.1875 C 13.609375 -29.375 13.1875 -28.46875 13.1875 -27.46875 C 13.1875 -26.3125 13.519531 -25.144531 14.1875 -23.96875 C 14.863281 -22.789062 15.925781 -21.238281 17.375 -19.3125 C 19.007812 -17.195312 20.257812 -15.347656 21.125 -13.765625 C 21.988281 -12.179688 22.421875 -10.523438 22.421875 -8.796875 C 22.421875 -7.160156 21.972656 -5.609375 21.078125 -4.140625 C 20.191406 -2.679688 18.929688 -1.484375 17.296875 -0.546875 C 15.660156 0.390625 13.765625 0.859375 11.609375 0.859375 C 10.359375 0.859375 8.84375 0.546875 7.0625 -0.078125 C 5.8125 -0.460938 4.992188 -0.65625 4.609375 -0.65625 C 3.703125 -0.65625 2.882812 -0.148438 2.15625 0.859375 L 0.65625 0.859375 L 2.734375 -10.671875 L 4.1875 -10.671875 C 4.375 -7.785156 4.957031 -5.394531 5.9375 -3.5 C 6.925781 -1.601562 8.765625 -0.65625 11.453125 -0.65625 C 13.328125 -0.65625 14.789062 -1.289062 15.84375 -2.5625 C 16.90625 -3.832031 17.4375 -5.164062 17.4375 -6.5625 C 17.4375 -7.570312 17.148438 -8.613281 16.578125 -9.6875 C 16.003906 -10.769531 15.351562 -11.835938 14.625 -12.890625 C 13.90625 -13.953125 13.425781 -14.65625 13.1875 -15 L 12.109375 -16.578125 C 10.859375 -18.304688 9.929688 -19.796875 9.328125 -21.046875 C 8.734375 -22.296875 8.4375 -23.640625 8.4375 -25.078125 C 8.4375 -26.804688 8.890625 -28.257812 9.796875 -29.4375 C 10.710938 -30.613281 11.84375 -31.488281 13.1875 -32.0625 C 14.53125 -32.644531 15.804688 -32.9375 17.015625 -32.9375 Z M 17.015625 -32.9375 "/></g></g></g></g></g><path stroke-linecap="butt" transform="matrix(0.75, 0, 0, 0.75, 40.000915, 213.218657)" fill="none" stroke-linejoin="miter" d="M -0.00121988 2.500124 L 99.337328 2.500124 " stroke="#f9f5f2" stroke-width="5" stroke-opacity="1" stroke-miterlimit="4"/></svg>