<svg xmlns="http://www.w3.org/2000/svg" xmlns:xlink="http://www.w3.org/1999/xlink" width="500" zoomAndPan="magnify" viewBox="0 0 375 374.999991" height="500" preserveAspectRatio="xMidYMid meet" version="1.0"><defs><g/><clipPath id="e73f0702ae"><rect x="0" width="50" y="0" height="88"/></clipPath><clipPath id="c0abebcfc9"><path d="M 85.640625 108.855469 L 128.757812 108.855469 L 128.757812 151.972656 L 85.640625 151.972656 Z M 85.640625 108.855469 " clip-rule="nonzero"/></clipPath><clipPath id="1012756c55"><path d="M 107.199219 108.855469 C 95.292969 108.855469 85.640625 118.507812 85.640625 130.414062 C 85.640625 142.320312 95.292969 151.972656 107.199219 151.972656 C 119.105469 151.972656 128.757812 142.320312 128.757812 130.414062 C 128.757812 118.507812 119.105469 108.855469 107.199219 108.855469 Z M 107.199219 108.855469 " clip-rule="nonzero"/></clipPath><clipPath id="0acde5ef2a"><path d="M 0.640625 0.855469 L 43.757812 0.855469 L 43.757812 43.972656 L 0.640625 43.972656 Z M 0.640625 0.855469 " clip-rule="nonzero"/></clipPath><clipPath id="7a6028a9ea"><path d="M 22.199219 0.855469 C 10.292969 0.855469 0.640625 10.507812 0.640625 22.414062 C 0.640625 34.320312 10.292969 43.972656 22.199219 43.972656 C 34.105469 43.972656 43.757812 34.320312 43.757812 22.414062 C 43.757812 10.507812 34.105469 0.855469 22.199219 0.855469 Z M 22.199219 0.855469 " clip-rule="nonzero"/></clipPath><clipPath id="ab610011e4"><rect x="0" width="44" y="0" height="44"/></clipPath></defs><rect x="-37.5" width="450" fill="#ffffff" y="-37.499999" height="449.999989" fill-opacity="1"/><rect x="-37.5" width="450" fill="#efeeeb" y="-37.499999" height="449.999989" fill-opacity="1"/><g fill="#1e1e1e" fill-opacity="1"><g transform="translate(78.537474, 275.771759)"><g><path d="M 29.078125 -125.234375 C 25.609375 -125.234375 22.460938 -126.132812 19.640625 -127.9375 C 16.816406 -129.75 14.609375 -132.210938 13.015625 -135.328125 C 11.429688 -138.441406 10.640625 -141.734375 10.640625 -145.203125 C 10.640625 -148.390625 11.46875 -151.359375 13.125 -154.109375 C 14.789062 -156.859375 17.035156 -158.988281 19.859375 -160.5 C 22.679688 -162.019531 25.753906 -162.78125 29.078125 -162.78125 C 32.554688 -162.78125 35.671875 -161.910156 38.421875 -160.171875 C 41.171875 -158.441406 43.375 -156.128906 45.03125 -153.234375 C 46.695312 -150.335938 47.53125 -147.15625 47.53125 -143.6875 C 47.53125 -140.351562 46.695312 -137.273438 45.03125 -134.453125 C 43.375 -131.640625 41.132812 -129.398438 38.3125 -127.734375 C 35.488281 -126.066406 32.410156 -125.234375 29.078125 -125.234375 Z M 14.765625 -115.25 L 43.625 -115.25 L 43.625 0 L 14.765625 0 Z M 14.765625 -115.25 "/></g></g></g><g fill="#1e1e1e" fill-opacity="1"><g transform="translate(118.90718, 275.771759)"><g><path d="M 43.40625 -115.25 L 43.40625 -103.53125 C 49.34375 -108.445312 54.988281 -112.132812 60.34375 -114.59375 C 65.695312 -117.0625 71.410156 -118.296875 77.484375 -118.296875 C 84.722656 -118.296875 91.34375 -116.703125 97.34375 -113.515625 C 103.351562 -110.328125 108.128906 -105.726562 111.671875 -99.71875 C 115.210938 -93.71875 116.984375 -86.738281 116.984375 -78.78125 L 116.984375 0 L 88.125 0 L 88.125 -54.484375 C 88.125 -63.160156 87.6875 -70.101562 86.8125 -75.3125 C 85.945312 -80.519531 84.101562 -84.570312 81.28125 -87.46875 C 78.457031 -90.363281 74.226562 -91.8125 68.59375 -91.8125 C 63.8125 -91.8125 59.503906 -90.472656 55.671875 -87.796875 C 51.835938 -85.117188 48.832031 -81.175781 46.65625 -75.96875 C 44.488281 -70.757812 43.40625 -64.390625 43.40625 -56.859375 L 43.40625 0 L 14.546875 0 L 14.546875 -115.25 Z M 43.40625 -115.25 "/></g></g></g><g fill="#1e1e1e" fill-opacity="1"><g transform="translate(231.334858, 275.771759)"><g><path d="M 18.015625 -90.296875 L 3.25 -90.296875 L 3.25 -115.25 L 18.015625 -115.25 L 18.015625 -157.796875 L 46.875 -157.796875 L 46.875 -115.25 L 64.03125 -115.25 L 64.03125 -90.296875 L 46.875 -90.296875 L 46.875 0 L 18.015625 0 Z M 18.015625 -90.296875 "/></g></g></g><g transform="matrix(1, 0, 0, 1, 276, 191)"><g clip-path="url(#e73f0702ae)"><g fill="#1e1e1e" fill-opacity="1"><g transform="translate(12.255326, 0.766537)"><g><path d="M 24.890625 3.015625 L 24.890625 17.21875 L 22.484375 17.21875 L 22.484375 5.515625 L 14.625 5.515625 L 14.625 17.21875 L 12.265625 17.21875 L 12.265625 5.515625 L 2.421875 5.515625 L 2.421875 17.21875 L 0 17.21875 L 0 3.015625 Z M 24.890625 3.015625 "/></g></g></g><g fill="#1e1e1e" fill-opacity="1"><g transform="translate(12.255326, 19.306968)"><g><path d="M 24.890625 10.125 C 24.890625 12.957031 24.296875 15.078125 23.109375 16.484375 C 21.929688 17.898438 20.316406 18.609375 18.265625 18.609375 C 16.785156 18.609375 15.546875 18.25 14.546875 17.53125 C 13.554688 16.820312 12.8125 15.816406 12.3125 14.515625 C 11.820312 13.222656 11.578125 11.710938 11.578125 9.984375 L 0 18.953125 L 0 15.875 L 11.578125 7.0625 L 11.578125 5.515625 L 0 5.515625 L 0 3.015625 L 24.890625 3.015625 Z M 14 9.984375 C 14 11.898438 14.34375 13.382812 15.03125 14.4375 C 15.726562 15.488281 16.804688 16.015625 18.265625 16.015625 C 19.535156 16.015625 20.550781 15.5625 21.3125 14.65625 C 22.070312 13.757812 22.453125 12.410156 22.453125 10.609375 L 22.453125 5.515625 L 14 5.515625 Z M 14 9.984375 "/></g></g></g><g fill="#1e1e1e" fill-opacity="1"><g transform="translate(12.255326, 39.822747)"><g><path d="M 24.890625 1.140625 L 24.890625 3.84375 L 5.65625 12.09375 L 24.890625 20.484375 L 24.890625 23.1875 L 0 12.375 L 0 11.8125 Z M 24.890625 1.140625 "/></g></g></g><g fill="#1e1e1e" fill-opacity="1"><g transform="translate(12.255326, 64.150572)"><g><path d="M -0.625 11.375 C -0.625 9.6875 -0.253906 8.222656 0.484375 6.984375 C 1.222656 5.742188 2.289062 4.789062 3.6875 4.125 C 5.082031 3.457031 6.753906 3.125 8.703125 3.125 L 24.890625 3.125 L 24.890625 5.609375 L 8.21875 5.609375 C 6.96875 5.609375 5.863281 5.820312 4.90625 6.25 C 3.945312 6.675781 3.1875 7.320312 2.625 8.1875 C 2.070312 9.0625 1.796875 10.125 1.796875 11.375 C 1.796875 12.632812 2.070312 13.691406 2.625 14.546875 C 3.1875 15.410156 3.945312 16.054688 4.90625 16.484375 C 5.863281 16.910156 6.929688 17.125 8.109375 17.125 L 24.890625 17.125 L 24.890625 19.609375 L 8.703125 19.609375 C 6.753906 19.609375 5.082031 19.273438 3.6875 18.609375 C 2.289062 17.941406 1.222656 16.988281 0.484375 15.75 C -0.253906 14.507812 -0.625 13.050781 -0.625 11.375 Z M -0.625 11.375 "/></g></g></g></g></g><g clip-path="url(#c0abebcfc9)"><g clip-path="url(#1012756c55)"><g transform="matrix(1, 0, 0, 1, 85, 108)"><g clip-path="url(#ab610011e4)"><g clip-path="url(#0acde5ef2a)"><g clip-path="url(#7a6028a9ea)"><path fill="#d64238" d="M 0.640625 0.855469 L 43.757812 0.855469 L 43.757812 43.972656 L 0.640625 43.972656 Z M 0.640625 0.855469 " fill-opacity="1" fill-rule="nonzero"/></g></g></g></g></g></g></svg>