<svg xmlns="http://www.w3.org/2000/svg" xmlns:xlink="http://www.w3.org/1999/xlink" width="500" zoomAndPan="magnify" viewBox="0 0 375 374.999991" height="500" preserveAspectRatio="xMidYMid meet" version="1.0"><defs><g/><clipPath id="817acf0722"><path d="M 94.453125 110.273438 L 305.875 110.273438 L 305.875 194.449219 L 94.453125 194.449219 Z M 94.453125 110.273438 " clip-rule="nonzero"/></clipPath><clipPath id="ccb4a82d0d"><path d="M 263.570312 110.273438 C 286.8125 110.273438 305.65625 129.117188 305.65625 152.363281 C 305.65625 175.605469 286.8125 194.449219 263.570312 194.449219 L 136.542969 194.449219 C 113.296875 194.449219 94.453125 175.605469 94.453125 152.363281 C 94.453125 129.117188 113.296875 110.273438 136.542969 110.273438 Z M 263.570312 110.273438 " clip-rule="nonzero"/></clipPath><clipPath id="f2847fb367"><path d="M 0.453125 0.273438 L 211.761719 0.273438 L 211.761719 84.449219 L 0.453125 84.449219 Z M 0.453125 0.273438 " clip-rule="nonzero"/></clipPath><clipPath id="11dab98fd2"><path d="M 169.570312 0.273438 C 192.8125 0.273438 211.65625 19.117188 211.65625 42.363281 C 211.65625 65.605469 192.8125 84.449219 169.570312 84.449219 L 42.542969 84.449219 C 19.296875 84.449219 0.453125 65.605469 0.453125 42.363281 C 0.453125 19.117188 19.296875 0.273438 42.542969 0.273438 Z M 169.570312 0.273438 " clip-rule="nonzero"/></clipPath><clipPath id="99ddfbb353"><rect x="0" width="212" y="0" height="85"/></clipPath><clipPath id="c3240d7eac"><rect x="0" width="294" y="0" height="99"/></clipPath><clipPath id="f71a2d08c1"><rect x="0" width="99" y="0" height="21"/></clipPath><clipPath id="5f503ed342"><path d="M 59 56 L 375 56 L 375 230 L 59 230 Z M 59 56 " clip-rule="nonzero"/></clipPath><clipPath id="40a36b9de8"><path d="M 377.683594 -18.109375 L 431.6875 134.625 L 86.617188 256.625 L 32.617188 103.890625 Z M 377.683594 -18.109375 " clip-rule="nonzero"/></clipPath><clipPath id="e11d791974"><path d="M 377.683594 -18.109375 L 431.6875 134.625 L 86.617188 256.625 L 32.617188 103.890625 Z M 377.683594 -18.109375 " clip-rule="nonzero"/></clipPath></defs><rect x="-37.5" width="450" fill="#ffffff" y="-37.499999" height="449.999989" fill-opacity="1"/><rect x="-37.5" width="450" fill="#fffef0" y="-37.499999" height="449.999989" fill-opacity="1"/><g clip-path="url(#817acf0722)"><g clip-path="url(#ccb4a82d0d)"><g transform="matrix(1, 0, 0, 1, 94, 110)"><g clip-path="url(#99ddfbb353)"><g clip-path="url(#f2847fb367)"><g clip-path="url(#11dab98fd2)"><path fill="#000000" d="M 0.453125 0.273438 L 211.546875 0.273438 L 211.546875 84.449219 L 0.453125 84.449219 Z M 0.453125 0.273438 " fill-opacity="1" fill-rule="nonzero"/></g></g></g></g></g></g><g transform="matrix(1, 0, 0, 1, 52, 183)"><g clip-path="url(#c3240d7eac)"><g fill="#000000" fill-opacity="1"><g transform="translate(1.466355, 74.539275)"><g><path d="M 5.046875 0 L 5.046875 -51.890625 L 25.875 -51.890625 C 31.257812 -51.890625 35.375 -50.640625 38.21875 -48.140625 C 41.0625 -45.648438 42.484375 -42.453125 42.484375 -38.546875 C 42.484375 -35.285156 41.601562 -32.675781 39.84375 -30.71875 C 38.09375 -28.769531 35.957031 -27.453125 33.4375 -26.765625 C 36.40625 -26.171875 38.851562 -24.695312 40.78125 -22.34375 C 42.707031 -20 43.671875 -17.269531 43.671875 -14.15625 C 43.671875 -10.050781 42.1875 -6.664062 39.21875 -4 C 36.25 -1.332031 32.046875 0 26.609375 0 Z M 14.53125 -30.09375 L 24.46875 -30.09375 C 27.132812 -30.09375 29.179688 -30.710938 30.609375 -31.953125 C 32.046875 -33.191406 32.765625 -34.945312 32.765625 -37.21875 C 32.765625 -39.394531 32.0625 -41.113281 30.65625 -42.375 C 29.25 -43.632812 27.132812 -44.265625 24.3125 -44.265625 L 14.53125 -44.265625 Z M 14.53125 -7.703125 L 25.140625 -7.703125 C 27.953125 -7.703125 30.132812 -8.359375 31.6875 -9.671875 C 33.25 -10.984375 34.03125 -12.828125 34.03125 -15.203125 C 34.03125 -17.617188 33.210938 -19.519531 31.578125 -20.90625 C 29.953125 -22.289062 27.753906 -22.984375 24.984375 -22.984375 L 14.53125 -22.984375 Z M 14.53125 -7.703125 "/></g></g></g><g fill="#000000" fill-opacity="1"><g transform="translate(46.614688, 74.539275)"><g><path d="M 22.46875 0.890625 C 18.90625 0.890625 15.703125 0.078125 12.859375 -1.546875 C 10.015625 -3.179688 7.765625 -5.441406 6.109375 -8.328125 C 4.460938 -11.222656 3.640625 -14.578125 3.640625 -18.390625 C 3.640625 -22.191406 4.476562 -25.535156 6.15625 -28.421875 C 7.832031 -31.316406 10.09375 -33.578125 12.9375 -35.203125 C 15.78125 -36.835938 18.976562 -37.65625 22.53125 -37.65625 C 26.039062 -37.65625 29.21875 -36.835938 32.0625 -35.203125 C 34.90625 -33.578125 37.15625 -31.316406 38.8125 -28.421875 C 40.46875 -25.535156 41.296875 -22.191406 41.296875 -18.390625 C 41.296875 -14.578125 40.46875 -11.222656 38.8125 -8.328125 C 37.15625 -5.441406 34.894531 -3.179688 32.03125 -1.546875 C 29.164062 0.078125 25.976562 0.890625 22.46875 0.890625 Z M 22.46875 -7.34375 C 24.9375 -7.34375 27.082031 -8.269531 28.90625 -10.125 C 30.738281 -11.976562 31.65625 -14.734375 31.65625 -18.390625 C 31.65625 -22.046875 30.738281 -24.800781 28.90625 -26.65625 C 27.082031 -28.507812 24.957031 -29.4375 22.53125 -29.4375 C 20.007812 -29.4375 17.847656 -28.507812 16.046875 -26.65625 C 14.242188 -24.800781 13.34375 -22.046875 13.34375 -18.390625 C 13.34375 -14.734375 14.242188 -11.976562 16.046875 -10.125 C 17.847656 -8.269531 19.988281 -7.34375 22.46875 -7.34375 Z M 22.46875 -7.34375 "/></g></g></g><g fill="#000000" fill-opacity="1"><g transform="translate(89.909659, 74.539275)"><g><path d="M 4.8125 0 L 4.8125 -36.78125 L 13.203125 -36.78125 L 13.9375 -30.546875 C 15.070312 -32.722656 16.710938 -34.453125 18.859375 -35.734375 C 21.015625 -37.015625 23.550781 -37.65625 26.46875 -37.65625 C 31.019531 -37.65625 34.550781 -36.222656 37.0625 -33.359375 C 39.582031 -30.492188 40.84375 -26.296875 40.84375 -20.765625 L 40.84375 0 L 31.359375 0 L 31.359375 -19.875 C 31.359375 -23.03125 30.710938 -25.445312 29.421875 -27.125 C 28.140625 -28.8125 26.140625 -29.65625 23.421875 -29.65625 C 20.753906 -29.65625 18.566406 -28.710938 16.859375 -26.828125 C 15.160156 -24.953125 14.3125 -22.335938 14.3125 -18.984375 L 14.3125 0 Z M 4.8125 0 "/></g></g></g><g fill="#000000" fill-opacity="1"><g transform="translate(133.352888, 74.539275)"><g><path d="M 17.5 0.890625 C 14.332031 0.890625 11.734375 0.382812 9.703125 -0.625 C 7.679688 -1.644531 6.175781 -2.992188 5.1875 -4.671875 C 4.195312 -6.347656 3.703125 -8.203125 3.703125 -10.234375 C 3.703125 -13.640625 5.035156 -16.40625 7.703125 -18.53125 C 10.378906 -20.65625 14.382812 -21.71875 19.71875 -21.71875 L 29.0625 -21.71875 L 29.0625 -22.609375 C 29.0625 -25.128906 28.34375 -26.984375 26.90625 -28.171875 C 25.476562 -29.359375 23.703125 -29.953125 21.578125 -29.953125 C 19.648438 -29.953125 17.96875 -29.492188 16.53125 -28.578125 C 15.101562 -27.660156 14.210938 -26.316406 13.859375 -24.546875 L 4.59375 -24.546875 C 4.84375 -27.210938 5.742188 -29.53125 7.296875 -31.5 C 8.859375 -33.476562 10.875 -35 13.34375 -36.0625 C 15.8125 -37.125 18.582031 -37.65625 21.65625 -37.65625 C 26.894531 -37.65625 31.019531 -36.34375 34.03125 -33.71875 C 37.039062 -31.101562 38.546875 -27.398438 38.546875 -22.609375 L 38.546875 0 L 30.46875 0 L 29.578125 -5.9375 C 28.492188 -3.957031 26.972656 -2.320312 25.015625 -1.03125 C 23.066406 0.25 20.5625 0.890625 17.5 0.890625 Z M 19.640625 -6.53125 C 22.359375 -6.53125 24.472656 -7.414062 25.984375 -9.1875 C 27.492188 -10.96875 28.445312 -13.171875 28.84375 -15.796875 L 20.765625 -15.796875 C 18.242188 -15.796875 16.4375 -15.335938 15.34375 -14.421875 C 14.257812 -13.503906 13.71875 -12.378906 13.71875 -11.046875 C 13.71875 -9.609375 14.257812 -8.492188 15.34375 -7.703125 C 16.4375 -6.921875 17.867188 -6.53125 19.640625 -6.53125 Z M 19.640625 -6.53125 "/></g></g></g><g fill="#000000" fill-opacity="1"><g transform="translate(174.49793, 74.539275)"><g><path d="M 4.8125 0 L 4.8125 -36.78125 L 13.203125 -36.78125 L 13.9375 -30.546875 C 15.070312 -32.722656 16.710938 -34.453125 18.859375 -35.734375 C 21.015625 -37.015625 23.550781 -37.65625 26.46875 -37.65625 C 31.019531 -37.65625 34.550781 -36.222656 37.0625 -33.359375 C 39.582031 -30.492188 40.84375 -26.296875 40.84375 -20.765625 L 40.84375 0 L 31.359375 0 L 31.359375 -19.875 C 31.359375 -23.03125 30.710938 -25.445312 29.421875 -27.125 C 28.140625 -28.8125 26.140625 -29.65625 23.421875 -29.65625 C 20.753906 -29.65625 18.566406 -28.710938 16.859375 -26.828125 C 15.160156 -24.953125 14.3125 -22.335938 14.3125 -18.984375 L 14.3125 0 Z M 4.8125 0 "/></g></g></g><g fill="#000000" fill-opacity="1"><g transform="translate(217.941159, 74.539275)"><g><path d="M 2.453125 0 L 2.453125 -7.640625 L 21.203125 -28.921875 L 2.671875 -28.921875 L 2.671875 -36.78125 L 32.03125 -36.78125 L 32.03125 -29.140625 L 12.96875 -7.859375 L 32.40625 -7.859375 L 32.40625 0 Z M 2.453125 0 "/></g></g></g><g fill="#000000" fill-opacity="1"><g transform="translate(251.820932, 74.539275)"><g><path d="M 17.5 0.890625 C 14.332031 0.890625 11.734375 0.382812 9.703125 -0.625 C 7.679688 -1.644531 6.175781 -2.992188 5.1875 -4.671875 C 4.195312 -6.347656 3.703125 -8.203125 3.703125 -10.234375 C 3.703125 -13.640625 5.035156 -16.40625 7.703125 -18.53125 C 10.378906 -20.65625 14.382812 -21.71875 19.71875 -21.71875 L 29.0625 -21.71875 L 29.0625 -22.609375 C 29.0625 -25.128906 28.34375 -26.984375 26.90625 -28.171875 C 25.476562 -29.359375 23.703125 -29.953125 21.578125 -29.953125 C 19.648438 -29.953125 17.96875 -29.492188 16.53125 -28.578125 C 15.101562 -27.660156 14.210938 -26.316406 13.859375 -24.546875 L 4.59375 -24.546875 C 4.84375 -27.210938 5.742188 -29.53125 7.296875 -31.5 C 8.859375 -33.476562 10.875 -35 13.34375 -36.0625 C 15.8125 -37.125 18.582031 -37.65625 21.65625 -37.65625 C 26.894531 -37.65625 31.019531 -36.34375 34.03125 -33.71875 C 37.039062 -31.101562 38.546875 -27.398438 38.546875 -22.609375 L 38.546875 0 L 30.46875 0 L 29.578125 -5.9375 C 28.492188 -3.957031 26.972656 -2.320312 25.015625 -1.03125 C 23.066406 0.25 20.5625 0.890625 17.5 0.890625 Z M 19.640625 -6.53125 C 22.359375 -6.53125 24.472656 -7.414062 25.984375 -9.1875 C 27.492188 -10.96875 28.445312 -13.171875 28.84375 -15.796875 L 20.765625 -15.796875 C 18.242188 -15.796875 16.4375 -15.335938 15.34375 -14.421875 C 14.257812 -13.503906 13.71875 -12.378906 13.71875 -11.046875 C 13.71875 -9.609375 14.257812 -8.492188 15.34375 -7.703125 C 16.4375 -6.921875 17.867188 -6.53125 19.640625 -6.53125 Z M 19.640625 -6.53125 "/></g></g></g></g></g><g transform="matrix(1, 0, 0, 1, 250, 261)"><g clip-path="url(#f71a2d08c1)"><g fill="#000000" fill-opacity="1"><g transform="translate(0.979001, 15.503596)"><g><path d="M 4.53125 0.171875 C 3.769531 0.171875 3.097656 0.0390625 2.515625 -0.21875 C 1.941406 -0.476562 1.488281 -0.847656 1.15625 -1.328125 C 0.820312 -1.816406 0.648438 -2.410156 0.640625 -3.109375 L 2.625 -3.109375 C 2.644531 -2.628906 2.816406 -2.222656 3.140625 -1.890625 C 3.472656 -1.566406 3.929688 -1.40625 4.515625 -1.40625 C 5.015625 -1.40625 5.410156 -1.523438 5.703125 -1.765625 C 6.003906 -2.003906 6.15625 -2.328125 6.15625 -2.734375 C 6.15625 -3.148438 6.023438 -3.476562 5.765625 -3.71875 C 5.503906 -3.957031 5.15625 -4.148438 4.71875 -4.296875 C 4.289062 -4.441406 3.832031 -4.597656 3.34375 -4.765625 C 2.539062 -5.046875 1.929688 -5.398438 1.515625 -5.828125 C 1.097656 -6.265625 0.890625 -6.84375 0.890625 -7.5625 C 0.878906 -8.164062 1.019531 -8.6875 1.3125 -9.125 C 1.613281 -9.570312 2.023438 -9.914062 2.546875 -10.15625 C 3.078125 -10.394531 3.679688 -10.515625 4.359375 -10.515625 C 5.046875 -10.515625 5.648438 -10.390625 6.171875 -10.140625 C 6.703125 -9.898438 7.117188 -9.554688 7.421875 -9.109375 C 7.722656 -8.671875 7.882812 -8.144531 7.90625 -7.53125 L 5.875 -7.53125 C 5.863281 -7.894531 5.722656 -8.21875 5.453125 -8.5 C 5.179688 -8.78125 4.804688 -8.921875 4.328125 -8.921875 C 3.910156 -8.929688 3.5625 -8.828125 3.28125 -8.609375 C 3 -8.398438 2.859375 -8.09375 2.859375 -7.6875 C 2.859375 -7.34375 2.96875 -7.070312 3.1875 -6.875 C 3.40625 -6.675781 3.703125 -6.503906 4.078125 -6.359375 C 4.453125 -6.222656 4.878906 -6.078125 5.359375 -5.921875 C 5.867188 -5.742188 6.332031 -5.535156 6.75 -5.296875 C 7.175781 -5.066406 7.519531 -4.753906 7.78125 -4.359375 C 8.039062 -3.972656 8.171875 -3.472656 8.171875 -2.859375 C 8.171875 -2.316406 8.03125 -1.816406 7.75 -1.359375 C 7.476562 -0.898438 7.070312 -0.53125 6.53125 -0.25 C 5.988281 0.03125 5.320312 0.171875 4.53125 0.171875 Z M 4.53125 0.171875 "/></g></g></g><g fill="#000000" fill-opacity="1"><g transform="translate(14.712147, 15.503596)"><g><path d="M 3.40625 0 L 3.40625 -8.8125 L 0.40625 -8.8125 L 0.40625 -10.34375 L 8.328125 -10.34375 L 8.328125 -8.8125 L 5.296875 -8.8125 L 5.296875 0 Z M 3.40625 0 "/></g></g></g><g fill="#000000" fill-opacity="1"><g transform="translate(28.356736, 15.503596)"><g><path d="M 4.984375 0.171875 C 4.234375 0.171875 3.550781 0.0234375 2.9375 -0.265625 C 2.320312 -0.566406 1.832031 -1.019531 1.46875 -1.625 C 1.113281 -2.238281 0.9375 -3.015625 0.9375 -3.953125 L 0.9375 -10.34375 L 2.828125 -10.34375 L 2.828125 -3.9375 C 2.828125 -3.132812 3.019531 -2.535156 3.40625 -2.140625 C 3.800781 -1.742188 4.34375 -1.546875 5.03125 -1.546875 C 5.707031 -1.546875 6.242188 -1.742188 6.640625 -2.140625 C 7.035156 -2.535156 7.234375 -3.132812 7.234375 -3.9375 L 7.234375 -10.34375 L 9.125 -10.34375 L 9.125 -3.953125 C 9.125 -3.015625 8.9375 -2.238281 8.5625 -1.625 C 8.1875 -1.019531 7.6875 -0.566406 7.0625 -0.265625 C 6.4375 0.0234375 5.742188 0.171875 4.984375 0.171875 Z M 4.984375 0.171875 "/></g></g></g><g fill="#000000" fill-opacity="1"><g transform="translate(43.329832, 15.503596)"><g><path d="M 1 0 L 1 -10.34375 L 4.53125 -10.34375 C 5.738281 -10.34375 6.734375 -10.125 7.515625 -9.6875 C 8.304688 -9.257812 8.890625 -8.660156 9.265625 -7.890625 C 9.640625 -7.117188 9.828125 -6.210938 9.828125 -5.171875 C 9.828125 -4.128906 9.640625 -3.21875 9.265625 -2.4375 C 8.890625 -1.664062 8.304688 -1.066406 7.515625 -0.640625 C 6.734375 -0.210938 5.738281 0 4.53125 0 Z M 2.890625 -1.625 L 4.4375 -1.625 C 5.3125 -1.625 6 -1.765625 6.5 -2.046875 C 7 -2.328125 7.359375 -2.726562 7.578125 -3.25 C 7.796875 -3.78125 7.90625 -4.421875 7.90625 -5.171875 C 7.90625 -5.910156 7.796875 -6.546875 7.578125 -7.078125 C 7.359375 -7.609375 7 -8.015625 6.5 -8.296875 C 6 -8.578125 5.3125 -8.71875 4.4375 -8.71875 L 2.890625 -8.71875 Z M 2.890625 -1.625 "/></g></g></g><g fill="#000000" fill-opacity="1"><g transform="translate(58.745759, 15.503596)"><g><path d="M 1 0 L 1 -10.34375 L 2.890625 -10.34375 L 2.890625 0 Z M 1 0 "/></g></g></g><g fill="#000000" fill-opacity="1"><g transform="translate(67.563412, 15.503596)"><g><path d="M 5.84375 0.171875 C 4.8125 0.171875 3.910156 -0.0507812 3.140625 -0.5 C 2.367188 -0.957031 1.765625 -1.585938 1.328125 -2.390625 C 0.890625 -3.191406 0.671875 -4.117188 0.671875 -5.171875 C 0.671875 -6.222656 0.890625 -7.148438 1.328125 -7.953125 C 1.765625 -8.753906 2.367188 -9.378906 3.140625 -9.828125 C 3.910156 -10.285156 4.8125 -10.515625 5.84375 -10.515625 C 6.875 -10.515625 7.773438 -10.285156 8.546875 -9.828125 C 9.328125 -9.378906 9.929688 -8.753906 10.359375 -7.953125 C 10.796875 -7.148438 11.015625 -6.222656 11.015625 -5.171875 C 11.015625 -4.117188 10.796875 -3.191406 10.359375 -2.390625 C 9.929688 -1.585938 9.328125 -0.957031 8.546875 -0.5 C 7.773438 -0.0507812 6.875 0.171875 5.84375 0.171875 Z M 5.84375 -1.515625 C 6.832031 -1.515625 7.617188 -1.835938 8.203125 -2.484375 C 8.785156 -3.140625 9.078125 -4.035156 9.078125 -5.171875 C 9.078125 -6.296875 8.785156 -7.179688 8.203125 -7.828125 C 7.617188 -8.484375 6.832031 -8.8125 5.84375 -8.8125 C 4.863281 -8.8125 4.078125 -8.484375 3.484375 -7.828125 C 2.890625 -7.179688 2.59375 -6.296875 2.59375 -5.171875 C 2.59375 -4.035156 2.890625 -3.140625 3.484375 -2.484375 C 4.078125 -1.835938 4.863281 -1.515625 5.84375 -1.515625 Z M 5.84375 -1.515625 "/></g></g></g><g fill="#000000" fill-opacity="1"><g transform="translate(84.160246, 15.503596)"><g><path d="M 4.53125 0.171875 C 3.769531 0.171875 3.097656 0.0390625 2.515625 -0.21875 C 1.941406 -0.476562 1.488281 -0.847656 1.15625 -1.328125 C 0.820312 -1.816406 0.648438 -2.410156 0.640625 -3.109375 L 2.625 -3.109375 C 2.644531 -2.628906 2.816406 -2.222656 3.140625 -1.890625 C 3.472656 -1.566406 3.929688 -1.40625 4.515625 -1.40625 C 5.015625 -1.40625 5.410156 -1.523438 5.703125 -1.765625 C 6.003906 -2.003906 6.15625 -2.328125 6.15625 -2.734375 C 6.15625 -3.148438 6.023438 -3.476562 5.765625 -3.71875 C 5.503906 -3.957031 5.15625 -4.148438 4.71875 -4.296875 C 4.289062 -4.441406 3.832031 -4.597656 3.34375 -4.765625 C 2.539062 -5.046875 1.929688 -5.398438 1.515625 -5.828125 C 1.097656 -6.265625 0.890625 -6.84375 0.890625 -7.5625 C 0.878906 -8.164062 1.019531 -8.6875 1.3125 -9.125 C 1.613281 -9.570312 2.023438 -9.914062 2.546875 -10.15625 C 3.078125 -10.394531 3.679688 -10.515625 4.359375 -10.515625 C 5.046875 -10.515625 5.648438 -10.390625 6.171875 -10.140625 C 6.703125 -9.898438 7.117188 -9.554688 7.421875 -9.109375 C 7.722656 -8.671875 7.882812 -8.144531 7.90625 -7.53125 L 5.875 -7.53125 C 5.863281 -7.894531 5.722656 -8.21875 5.453125 -8.5 C 5.179688 -8.78125 4.804688 -8.921875 4.328125 -8.921875 C 3.910156 -8.929688 3.5625 -8.828125 3.28125 -8.609375 C 3 -8.398438 2.859375 -8.09375 2.859375 -7.6875 C 2.859375 -7.34375 2.96875 -7.070312 3.1875 -6.875 C 3.40625 -6.675781 3.703125 -6.503906 4.078125 -6.359375 C 4.453125 -6.222656 4.878906 -6.078125 5.359375 -5.921875 C 5.867188 -5.742188 6.332031 -5.535156 6.75 -5.296875 C 7.175781 -5.066406 7.519531 -4.753906 7.78125 -4.359375 C 8.039062 -3.972656 8.171875 -3.472656 8.171875 -2.859375 C 8.171875 -2.316406 8.03125 -1.816406 7.75 -1.359375 C 7.476562 -0.898438 7.070312 -0.53125 6.53125 -0.25 C 5.988281 0.03125 5.320312 0.171875 4.53125 0.171875 Z M 4.53125 0.171875 "/></g></g></g></g></g><g clip-path="url(#5f503ed342)"><g clip-path="url(#40a36b9de8)"><g clip-path="url(#e11d791974)"><path fill="#fffef0" d="M 162.253906 229.390625 C 135.195312 154.199219 134.734375 153.980469 59.234375 180.195312 C 134.433594 153.132812 134.652344 152.664062 108.4375 77.183594 C 129.460938 135.601562 134.4375 148.757812 171.019531 139.429688 L 404.230469 56.976562 L 405.015625 59.1875 L 171.785156 141.648438 C 137.484375 157.378906 141.886719 170.746094 162.253906 229.390625 Z M 162.253906 229.390625 " fill-opacity="1" fill-rule="nonzero"/></g></g></g></svg>