<svg xmlns="http://www.w3.org/2000/svg" xmlns:xlink="http://www.w3.org/1999/xlink" width="500" zoomAndPan="magnify" viewBox="0 0 375 374.999991" height="500" preserveAspectRatio="xMidYMid meet" version="1.0"><defs><g/><clipPath id="13668f9100"><rect x="0" width="178" y="0" height="115"/></clipPath><clipPath id="7418b9b793"><rect x="0" width="93" y="0" height="16"/></clipPath></defs><rect x="-37.5" width="450" fill="#ffffff" y="-37.499999" height="449.999989" fill-opacity="1"/><rect x="-37.5" width="450" fill="#ffffff" y="-37.499999" height="449.999989" fill-opacity="1"/><path fill="#000000" d="M 196.617188 124.996094 C 196.539062 124.945312 196.335938 124.886719 196.195312 124.996094 C 196.050781 125.105469 195.453125 125.414062 195.453125 125.414062 C 195.636719 125.617188 196.082031 125.980469 196.671875 126.011719 C 197.265625 126.042969 197.695312 125.3125 197.695312 125.3125 C 197.421875 125.308594 197.1875 124.996094 196.960938 124.933594 C 196.734375 124.871094 196.617188 124.996094 196.617188 124.996094 Z M 196.617188 124.996094 " fill-opacity="1" fill-rule="nonzero"/><path fill="#000000" d="M 260.734375 146.59375 C 260.539062 148.253906 259.085938 150.195312 257.230469 149.328125 C 252.851562 147.277344 258.300781 139.847656 237.960938 131.742188 C 229.804688 128.488281 217.492188 135.15625 210.269531 139.925781 C 209.332031 139.027344 208.371094 138.113281 207.53125 137.15625 C 207.042969 136.640625 206.570312 135.773438 206.210938 135.164062 C 206.035156 134.859375 205.867188 134.550781 205.691406 134.246094 C 206.511719 133.632812 211.046875 129.972656 212.292969 123.03125 C 213.664062 115.390625 208.074219 113.324219 205.046875 113.035156 C 202.023438 112.75 200.828125 108.742188 193.183594 109.65625 C 185.542969 110.574219 182.289062 117.558594 183.546875 122.707031 C 184.753906 127.664062 184.1875 130.820312 184.144531 131.046875 C 182.433594 132.730469 180.792969 134.484375 179.363281 136.421875 C 179.273438 136.5625 179.183594 136.667969 179.085938 136.835938 C 178.917969 137.175781 179.042969 137.570312 179.183594 137.871094 C 180.09375 139.734375 181.28125 141.449219 182.378906 143.207031 C 183.269531 144.519531 184.148438 145.898438 185.371094 146.9375 C 185.632812 147.15625 185.9375 147.289062 186.289062 147.28125 C 187.425781 147.429688 188.414062 148.019531 189.273438 148.773438 C 184.5 155.296875 176.53125 159.679688 166.332031 159.777344 C 156.113281 159.875 157.472656 151.472656 147.9375 150.496094 C 138.398438 149.519531 132.65625 158.605469 132.65625 158.605469 C 126.816406 159.875 126.132812 163.394531 123.507812 166.714844 C 120.871094 170.042969 113.863281 168.304688 113.863281 168.304688 C 115.90625 173.605469 112.5 182.15625 119.019531 190.65625 C 125.542969 199.15625 128.074219 196.03125 135.859375 198.960938 C 143.195312 201.722656 151.394531 200.238281 152.316406 200.054688 C 154.332031 199.027344 156.3125 197.921875 158.25 196.738281 C 163.488281 193.539062 168.398438 189.808594 172.882812 185.609375 C 175.613281 183.042969 178.132812 180.257812 180.601562 177.441406 C 183.765625 173.839844 186.816406 170.117188 189.632812 166.230469 C 190.953125 164.40625 192.265625 162.578125 193.425781 160.644531 C 194.363281 159.074219 195.242188 157.441406 195.839844 155.707031 C 195.859375 155.652344 195.6875 156.507812 195.550781 156.886719 C 194.886719 158.707031 193.992188 160.4375 193.035156 162.113281 C 191.878906 164.136719 190.628906 166.101562 189.28125 168.007812 C 186.507812 171.941406 183.492188 175.710938 180.328125 179.335938 C 177.671875 182.378906 174.921875 185.320312 171.925781 188.027344 C 170.488281 189.320312 169.007812 190.570312 167.488281 191.773438 C 167.898438 191.691406 168.3125 191.617188 168.714844 191.554688 C 174.148438 190.699219 180.074219 191.589844 184.722656 194.667969 C 184.863281 194.761719 181.769531 193.652344 180.300781 193.21875 C 177.742188 192.464844 175.035156 192.144531 172.371094 192.226562 C 171.046875 192.265625 169.734375 192.414062 168.4375 192.6875 C 167.328125 192.917969 166.25 193.28125 165.15625 193.570312 C 162.519531 195.523438 159.785156 197.34375 156.957031 198.996094 C 155.917969 199.601562 154.863281 200.183594 153.800781 200.746094 C 166.171875 206.441406 175.75 194.382812 178.007812 199.941406 C 180.34375 205.707031 187.640625 206.875 191.632812 204.730469 C 192.707031 204.152344 193.597656 202.484375 194.324219 200.359375 C 194.980469 198.433594 195.375 196.425781 195.5625 194.394531 C 195.636719 193.609375 195.710938 192.820312 195.789062 192.03125 C 196.515625 184.503906 197.339844 176.984375 198.128906 169.460938 C 198.519531 165.710938 198.917969 161.957031 199.371094 158.210938 C 199.601562 156.339844 199.835938 154.472656 200.058594 152.601562 C 200.273438 150.777344 200.425781 148.9375 200.742188 147.128906 C 200.757812 147.042969 200.578125 151.335938 200.402344 153.425781 C 200.226562 155.523438 200.089844 157.621094 199.902344 159.722656 C 199.226562 167.246094 198.496094 174.769531 197.78125 182.292969 C 197.734375 182.800781 197.683594 183.308594 197.636719 183.816406 C 197.132812 188.992188 201.007812 193.582031 206.175781 193.875 C 210.894531 194.144531 216.003906 192.023438 217.722656 189.585938 C 221.03125 184.894531 227.261719 184.507812 229.59375 180.304688 C 231.929688 176.105469 235.628906 172.195312 243.804688 170.832031 C 251.980469 169.464844 259.472656 160.863281 261.417969 155.003906 C 262.515625 151.679688 260.734375 146.59375 260.734375 146.59375 Z M 188.414062 133.378906 C 187.34375 135.089844 187.816406 137.597656 188.75 139.605469 C 189.371094 140.941406 189.777344 142.242188 190.015625 143.09375 C 189.761719 143.320312 189.507812 143.546875 189.257812 143.777344 C 188.894531 144.078125 188.738281 144.390625 188.457031 144.675781 C 188.164062 144.929688 187.796875 145.097656 187.425781 145.238281 C 187.195312 145.316406 186.894531 145.488281 186.699219 145.261719 C 184.9375 142.976562 184.003906 140.160156 183.132812 137.4375 C 184.703125 135.734375 186.527344 134.304688 188.464844 133.039062 C 188.445312 133.160156 188.425781 133.273438 188.414062 133.378906 Z M 190.558594 145.789062 C 189.488281 145.703125 188.75 145.917969 188.75 145.917969 C 188.75 145.917969 189.789062 146.730469 190.257812 147.546875 C 190.726562 148.363281 189.871094 148.0625 189.871094 148.0625 C 189.976562 148.882812 189.546875 148.824219 189.371094 148.765625 C 188.503906 147.945312 187.488281 147.296875 186.300781 147.121094 C 185.65625 147.132812 185.222656 146.566406 184.816406 146.136719 C 183.195312 144.1875 181.917969 141.976562 180.609375 139.8125 C 180.210938 139.136719 179.75 138.484375 179.4375 137.757812 C 179.316406 137.496094 179.210938 137.21875 179.332031 136.960938 C 180.890625 134.703125 182.773438 132.679688 184.695312 130.703125 C 187.050781 129.085938 187.621094 127.320312 188.75 126.839844 C 189.964844 126.324219 190.789062 127.296875 190.789062 127.296875 C 190.046875 127.925781 190.789062 128.902344 189.417969 130.882812 C 188.910156 131.621094 188.644531 132.289062 188.511719 132.835938 C 186.429688 134.097656 184.480469 135.570312 182.832031 137.367188 C 183.679688 140.1875 184.644531 143.109375 186.546875 145.410156 C 186.808594 145.703125 187.203125 145.546875 187.496094 145.410156 C 187.871094 145.25 188.246094 145.070312 188.558594 144.78125 C 188.847656 144.460938 188.953125 144.191406 189.339844 143.859375 C 189.574219 143.636719 189.808594 143.421875 190.046875 143.203125 C 190.191406 143.742188 190.261719 144.074219 190.261719 144.074219 C 189.917969 144.332031 189.316406 144.847656 189.316406 144.847656 C 191.070312 144.972656 191.628906 145.878906 190.558594 145.789062 Z M 194.664062 135.097656 C 194.414062 134.320312 193.453125 133.34375 192.332031 132.738281 C 193.085938 132.484375 193.773438 132.179688 194.210938 131.761719 C 195.570312 130.46875 194.210938 128.5 194.210938 128.5 C 194.730469 127.011719 193.578125 126.015625 193.578125 126.015625 C 194.210938 125.597656 193.777344 125.402344 194.277344 122.914062 C 194.789062 120.398438 195.277344 119.476562 195.277344 119.476562 C 196.226562 119.304688 197.527344 118.9375 197.527344 118.9375 C 198 120.769531 199.90625 123.347656 199.90625 123.347656 C 199.679688 125.292969 198.710938 127.011719 198.710938 127.011719 C 198.710938 127.011719 198.195312 128.671875 198.652344 129.816406 C 199.109375 130.960938 200.933594 131.59375 202.699219 131.878906 C 204.464844 132.164062 205.550781 134.339844 205.550781 134.339844 C 205.550781 134.339844 205.554688 134.335938 205.554688 134.335938 C 206.027344 135.40625 206.554688 136.460938 207.292969 137.355469 C 208.160156 138.332031 209.132812 139.199219 210.160156 139.996094 C 209.203125 140.628906 208.332031 141.230469 207.582031 141.765625 C 206.085938 140.214844 204.640625 138.5 203.15625 136.976562 C 203.921875 138.101562 204.785156 139.15625 205.691406 140.167969 C 206.242188 140.757812 206.800781 141.355469 207.410156 141.890625 C 207.289062 141.976562 207.175781 142.058594 207.0625 142.140625 C 206.796875 142.179688 206.535156 142.25 206.273438 142.316406 C 205.421875 142.550781 204.582031 142.84375 203.738281 143.085938 C 203.382812 143.148438 202.921875 143.394531 202.613281 143.140625 C 202.191406 142.652344 202.183594 141.910156 201.824219 141.359375 C 201.757812 141.261719 201.640625 141.148438 201.492188 141.113281 C 200.910156 140.980469 200.378906 140.707031 199.886719 140.359375 C 199.9375 138.832031 200.695312 137.503906 200.695312 137.503906 C 200.726562 137.480469 200.761719 137.4375 200.792969 137.382812 C 200.804688 137.375 200.808594 137.371094 200.816406 137.363281 C 201.386719 136.960938 202.078125 136.746094 202.777344 136.824219 C 202.820312 136.832031 202.820312 136.769531 202.789062 136.757812 C 202.15625 136.53125 201.519531 136.667969 200.945312 136.980469 C 201.167969 136.121094 201.105469 134.476562 199.28125 133.726562 C 196.886719 132.738281 194.664062 135.097656 194.664062 135.097656 Z M 200.488281 144.640625 C 200.503906 144.464844 200.46875 144.324219 200.398438 144.207031 C 200.953125 144.578125 201.539062 144.894531 202.125 145.207031 C 200.816406 145.464844 200.488281 144.640625 200.488281 144.640625 Z M 205.15625 143.5625 C 203.980469 144.476562 203.09375 144.933594 202.421875 145.132812 C 201.730469 144.550781 200.859375 144.171875 200 143.925781 C 200.003906 143.925781 200.007812 143.929688 200.007812 143.929688 C 199.84375 143.886719 199.648438 143.871094 199.410156 143.898438 C 198.683594 143.980469 198.765625 143.253906 198.765625 143.253906 C 197.996094 143.253906 197.78125 142.824219 197.78125 142.824219 C 198.679688 142.566406 199.277344 142.136719 199.277344 142.136719 C 199.277344 142.136719 198.9375 141.707031 198.382812 141.878906 C 197.828125 142.046875 197.226562 141.835938 197.226562 141.835938 C 197.570312 140.761719 199.324219 141.019531 199.324219 141.019531 C 199.023438 140.589844 196.671875 139.515625 197.785156 139.515625 C 198.554688 139.515625 199.261719 139.988281 199.625 140.28125 C 199.703125 140.351562 199.785156 140.425781 199.871094 140.492188 C 199.875 140.5 199.882812 140.503906 199.882812 140.503906 C 200.34375 140.875 200.859375 141.175781 201.4375 141.339844 C 201.691406 141.460938 201.742188 141.816406 201.84375 142.082031 C 201.988281 142.523438 202.0625 142.984375 202.40625 143.351562 C 202.785156 143.730469 203.382812 143.460938 203.816406 143.359375 C 204.667969 143.101562 205.484375 142.75 206.320312 142.457031 C 206.515625 142.386719 206.710938 142.316406 206.902344 142.25 C 206.171875 142.785156 205.582031 143.234375 205.15625 143.5625 Z M 205.15625 143.5625 " fill-opacity="1" fill-rule="nonzero"/><g transform="matrix(1, 0, 0, 1, 100, 171)"><g clip-path="url(#13668f9100)"><g fill="#000000" fill-opacity="1"><g transform="translate(6.26208, 74.107618)"><g><path d="M 9.984375 1.875 C 9.898438 2.6875 9.757812 3.492188 9.5625 4.296875 C 9.363281 5.097656 9.207031 5.890625 9.09375 6.671875 C 9.082031 6.796875 9.066406 6.925781 9.046875 7.0625 C 9.023438 7.207031 9.007812 7.34375 9 7.46875 C 9.019531 7.601562 9.050781 7.742188 9.09375 7.890625 C 9.132812 8.035156 9.023438 8.125 8.765625 8.15625 C 8.265625 8.207031 7.960938 8.023438 7.859375 7.609375 C 7.796875 7.242188 7.753906 6.878906 7.734375 6.515625 C 7.660156 1.367188 7.972656 -3.722656 8.671875 -8.765625 C 9.367188 -13.816406 10.269531 -18.84375 11.375 -23.84375 C 11.988281 -26.46875 12.765625 -29.035156 13.703125 -31.546875 C 14.640625 -34.054688 15.769531 -36.476562 17.09375 -38.8125 C 17.601562 -39.695312 18.15625 -40.550781 18.75 -41.375 C 19.351562 -42.195312 20.066406 -42.929688 20.890625 -43.578125 C 21.078125 -43.742188 21.28125 -43.882812 21.5 -44 C 21.71875 -44.113281 21.957031 -44.160156 22.21875 -44.140625 C 22.257812 -44.128906 22.316406 -44.117188 22.390625 -44.109375 C 22.460938 -44.097656 22.503906 -44.0625 22.515625 -44 C 22.523438 -43.925781 22.503906 -43.875 22.453125 -43.84375 C 22.410156 -43.820312 22.367188 -43.785156 22.328125 -43.734375 C 21.710938 -43.335938 21.203125 -42.859375 20.796875 -42.296875 C 20.398438 -41.742188 20.007812 -41.164062 19.625 -40.5625 C 18.644531 -39.101562 17.835938 -37.5625 17.203125 -35.9375 C 16.566406 -34.3125 15.972656 -32.644531 15.421875 -30.9375 C 14.804688 -28.976562 14.28125 -26.976562 13.84375 -24.9375 C 13.40625 -22.894531 13.019531 -20.863281 12.6875 -18.84375 C 12.675781 -18.738281 12.664062 -18.648438 12.65625 -18.578125 C 12.65625 -18.515625 12.648438 -18.4375 12.640625 -18.34375 C 12.660156 -18.34375 12.671875 -18.335938 12.671875 -18.328125 C 12.671875 -18.316406 12.6875 -18.3125 12.71875 -18.3125 C 13.113281 -19.1875 13.503906 -20.0625 13.890625 -20.9375 C 14.285156 -21.820312 14.671875 -22.703125 15.046875 -23.578125 C 16.160156 -26.148438 17.488281 -28.578125 19.03125 -30.859375 C 20.570312 -33.148438 22.382812 -35.253906 24.46875 -37.171875 C 25.832031 -38.453125 27.3125 -39.539062 28.90625 -40.4375 C 30.5 -41.34375 32.222656 -41.992188 34.078125 -42.390625 C 35.046875 -42.609375 36.015625 -42.726562 36.984375 -42.75 C 37.953125 -42.78125 38.910156 -42.660156 39.859375 -42.390625 C 41.191406 -42.066406 42.285156 -41.421875 43.140625 -40.453125 C 43.992188 -39.484375 44.515625 -38.320312 44.703125 -36.96875 C 44.847656 -35.726562 44.828125 -34.519531 44.640625 -33.34375 C 44.460938 -32.164062 44.144531 -31.015625 43.6875 -29.890625 C 42.5625 -27.078125 41.125 -24.476562 39.375 -22.09375 C 37.632812 -19.707031 35.664062 -17.5 33.46875 -15.46875 C 31.414062 -13.5625 29.265625 -11.816406 27.015625 -10.234375 C 24.765625 -8.660156 22.304688 -7.367188 19.640625 -6.359375 C 19.546875 -6.335938 19.453125 -6.300781 19.359375 -6.25 C 19.273438 -6.207031 19.300781 -6.097656 19.4375 -5.921875 C 20.125 -5.128906 20.722656 -4.289062 21.234375 -3.40625 C 21.742188 -2.519531 22.257812 -1.628906 22.78125 -0.734375 C 22.976562 -0.429688 23.191406 -0.132812 23.421875 0.15625 C 23.648438 0.457031 23.890625 0.726562 24.140625 0.96875 C 25.109375 1.78125 26.175781 1.976562 27.34375 1.5625 C 28.125 1.269531 28.851562 0.894531 29.53125 0.4375 C 30.207031 -0.0078125 30.851562 -0.507812 31.46875 -1.0625 C 32.78125 -2.207031 34.019531 -3.445312 35.1875 -4.78125 C 36.351562 -6.113281 37.519531 -7.425781 38.6875 -8.71875 C 38.8125 -8.875 38.929688 -9.019531 39.046875 -9.15625 C 39.171875 -9.289062 39.300781 -9.441406 39.4375 -9.609375 C 39.644531 -9.859375 39.828125 -9.894531 39.984375 -9.71875 C 40.085938 -9.632812 40.101562 -9.554688 40.03125 -9.484375 C 39.96875 -9.410156 39.914062 -9.34375 39.875 -9.28125 C 38.550781 -7.695312 37.234375 -6.085938 35.921875 -4.453125 C 34.617188 -2.816406 33.144531 -1.335938 31.5 -0.015625 C 30.769531 0.578125 29.992188 1.078125 29.171875 1.484375 C 28.359375 1.898438 27.484375 2.179688 26.546875 2.328125 C 25.640625 2.472656 24.804688 2.378906 24.046875 2.046875 C 23.285156 1.722656 22.609375 1.21875 22.015625 0.53125 C 21.597656 0.03125 21.226562 -0.484375 20.90625 -1.015625 C 20.582031 -1.554688 20.238281 -2.109375 19.875 -2.671875 C 19.59375 -3.117188 19.300781 -3.5625 19 -4 C 18.707031 -4.445312 18.40625 -4.878906 18.09375 -5.296875 C 17.851562 -5.597656 17.535156 -5.695312 17.140625 -5.59375 C 16.148438 -5.320312 15.144531 -5.144531 14.125 -5.0625 C 13.113281 -4.988281 12.101562 -5.117188 11.09375 -5.453125 C 10.832031 -5.546875 10.703125 -5.515625 10.703125 -5.359375 C 10.710938 -5.210938 10.710938 -5.09375 10.703125 -5 C 10.578125 -3.84375 10.453125 -2.695312 10.328125 -1.5625 C 10.210938 -0.425781 10.097656 0.71875 9.984375 1.875 Z M 11.875 -10.890625 C 11.769531 -10.515625 11.671875 -10.125 11.578125 -9.71875 C 11.492188 -9.320312 11.390625 -8.929688 11.265625 -8.546875 C 11.523438 -8.585938 11.769531 -8.625 12 -8.65625 C 12.226562 -8.695312 12.445312 -8.726562 12.65625 -8.75 C 13.664062 -8.851562 14.613281 -8.789062 15.5 -8.5625 C 16.394531 -8.34375 17.234375 -7.894531 18.015625 -7.21875 C 18.222656 -7.039062 18.421875 -6.945312 18.609375 -6.9375 C 18.804688 -6.9375 19.007812 -6.984375 19.21875 -7.078125 C 22.300781 -8.316406 25.15625 -9.976562 27.78125 -12.0625 C 30.644531 -14.300781 33.21875 -16.773438 35.5 -19.484375 C 37.789062 -22.191406 39.664062 -25.226562 41.125 -28.59375 C 41.632812 -29.78125 42.023438 -30.988281 42.296875 -32.21875 C 42.578125 -33.457031 42.695312 -34.734375 42.65625 -36.046875 C 42.601562 -37.679688 42.109375 -39.019531 41.171875 -40.0625 C 40.234375 -41.101562 39.003906 -41.691406 37.484375 -41.828125 C 37.128906 -41.867188 36.785156 -41.890625 36.453125 -41.890625 C 36.128906 -41.890625 35.789062 -41.859375 35.4375 -41.796875 C 34.40625 -41.648438 33.421875 -41.398438 32.484375 -41.046875 C 31.546875 -40.703125 30.640625 -40.273438 29.765625 -39.765625 C 27.773438 -38.585938 26 -37.179688 24.4375 -35.546875 C 22.875 -33.910156 21.472656 -32.113281 20.234375 -30.15625 C 16.492188 -24.175781 13.707031 -17.753906 11.875 -10.890625 Z M 10.984375 -6.96875 C 10.953125 -6.726562 11 -6.578125 11.125 -6.515625 C 11.25 -6.453125 11.375 -6.378906 11.5 -6.296875 C 11.769531 -6.148438 12.0625 -6.035156 12.375 -5.953125 C 12.6875 -5.878906 12.988281 -5.820312 13.28125 -5.78125 C 13.925781 -5.726562 14.546875 -5.757812 15.140625 -5.875 C 15.734375 -6 16.351562 -6.160156 17 -6.359375 C 16.601562 -6.691406 16.222656 -6.984375 15.859375 -7.234375 C 15.492188 -7.492188 15.101562 -7.679688 14.6875 -7.796875 C 14.1875 -7.960938 13.679688 -8.050781 13.171875 -8.0625 C 12.660156 -8.082031 12.144531 -7.992188 11.625 -7.796875 C 11.238281 -7.671875 11.023438 -7.394531 10.984375 -6.96875 Z M 10.984375 -6.96875 "/></g></g></g><g fill="#000000" fill-opacity="1"><g transform="translate(45.625921, 70.082793)"><g><path d="M 1.90625 -8.578125 C 2.351562 -8.273438 2.453125 -7.859375 2.203125 -7.328125 C 1.960938 -6.785156 1.703125 -6.257812 1.421875 -5.75 C 1.148438 -5.25 0.878906 -4.722656 0.609375 -4.171875 C 0.046875 -2.953125 -0.410156 -1.703125 -0.765625 -0.421875 C -1.128906 0.847656 -1.304688 2.171875 -1.296875 3.546875 C -1.285156 3.921875 -1.257812 4.28125 -1.21875 4.625 C -1.1875 4.976562 -1.109375 5.335938 -0.984375 5.703125 C -0.890625 5.992188 -0.773438 6.175781 -0.640625 6.25 C -0.503906 6.332031 -0.285156 6.347656 0.015625 6.296875 C 0.429688 6.234375 0.796875 6.085938 1.109375 5.859375 C 1.421875 5.640625 1.726562 5.398438 2.03125 5.140625 C 2.5625 4.703125 3.03125 4.210938 3.4375 3.671875 C 3.84375 3.128906 4.265625 2.59375 4.703125 2.0625 C 5.460938 1.082031 6.253906 0.140625 7.078125 -0.765625 C 7.898438 -1.679688 8.804688 -2.515625 9.796875 -3.265625 C 10.484375 -3.796875 11.191406 -4.28125 11.921875 -4.71875 C 12.660156 -5.15625 13.382812 -5.59375 14.09375 -6.03125 C 14.46875 -6.25 14.84375 -6.472656 15.21875 -6.703125 C 15.59375 -6.929688 15.960938 -7.144531 16.328125 -7.34375 C 16.441406 -7.40625 16.546875 -7.460938 16.640625 -7.515625 C 16.742188 -7.578125 16.863281 -7.597656 17 -7.578125 C 17.1875 -7.597656 17.285156 -7.539062 17.296875 -7.40625 C 17.335938 -7.289062 17.269531 -7.195312 17.09375 -7.125 C 16.351562 -6.78125 15.648438 -6.394531 14.984375 -5.96875 C 14.328125 -5.539062 13.648438 -5.117188 12.953125 -4.703125 C 11.742188 -3.953125 10.644531 -3.09375 9.65625 -2.125 C 8.664062 -1.164062 7.742188 -0.140625 6.890625 0.953125 C 6.191406 1.867188 5.484375 2.78125 4.765625 3.6875 C 4.046875 4.59375 3.28125 5.460938 2.46875 6.296875 C 2.394531 6.390625 2.3125 6.488281 2.21875 6.59375 C 2.132812 6.695312 2.039062 6.789062 1.9375 6.875 C 0.757812 7.769531 -0.347656 7.722656 -1.390625 6.734375 C -1.660156 6.429688 -1.890625 6.113281 -2.078125 5.78125 C -2.273438 5.445312 -2.441406 5.109375 -2.578125 4.765625 C -2.878906 3.835938 -3.007812 2.90625 -2.96875 1.96875 C -2.96875 0.164062 -2.671875 -1.539062 -2.078125 -3.15625 C -1.492188 -4.769531 -0.742188 -6.332031 0.171875 -7.84375 C 0.253906 -7.9375 0.332031 -8.03125 0.40625 -8.125 C 0.476562 -8.21875 0.554688 -8.316406 0.640625 -8.421875 C 1.003906 -8.859375 1.425781 -8.910156 1.90625 -8.578125 Z M 3.328125 -10.4375 C 3.085938 -10.507812 2.859375 -10.617188 2.640625 -10.765625 C 2.421875 -10.910156 2.257812 -11.101562 2.15625 -11.34375 C 2.082031 -11.507812 2.078125 -11.640625 2.140625 -11.734375 C 2.203125 -11.828125 2.316406 -11.875 2.484375 -11.875 C 2.785156 -11.882812 3.0625 -11.785156 3.3125 -11.578125 C 3.570312 -11.378906 3.71875 -11.15625 3.75 -10.90625 C 3.78125 -10.75 3.753906 -10.625 3.671875 -10.53125 C 3.597656 -10.4375 3.484375 -10.40625 3.328125 -10.4375 Z M 3.328125 -10.4375 "/></g></g></g><g fill="#000000" fill-opacity="1"><g transform="translate(63.017641, 68.304546)"><g><path d="M 29.046875 -9.03125 C 29.191406 -9.113281 29.304688 -9.097656 29.390625 -8.984375 C 29.503906 -8.859375 29.484375 -8.722656 29.328125 -8.578125 C 28.984375 -8.296875 28.640625 -8.023438 28.296875 -7.765625 C 27.960938 -7.503906 27.609375 -7.226562 27.234375 -6.9375 C 26.566406 -6.425781 25.890625 -5.90625 25.203125 -5.375 C 24.515625 -4.851562 23.820312 -4.347656 23.125 -3.859375 C 22.375 -3.316406 21.582031 -2.828125 20.75 -2.390625 C 19.925781 -1.960938 19.050781 -1.609375 18.125 -1.328125 C 17.601562 -1.160156 17.101562 -1.164062 16.625 -1.34375 C 16.15625 -1.53125 15.757812 -1.828125 15.4375 -2.234375 C 15.113281 -2.648438 14.953125 -3.097656 14.953125 -3.578125 C 14.941406 -3.828125 14.929688 -4.066406 14.921875 -4.296875 C 14.910156 -4.535156 14.90625 -4.796875 14.90625 -5.078125 C 14.71875 -5.097656 14.546875 -5.0625 14.390625 -4.96875 C 14.234375 -4.875 14.09375 -4.773438 13.96875 -4.671875 C 13.40625 -4.304688 12.867188 -3.894531 12.359375 -3.4375 C 11.847656 -2.976562 11.347656 -2.507812 10.859375 -2.03125 C 10.722656 -1.914062 10.601562 -1.785156 10.5 -1.640625 C 10.394531 -1.503906 10.234375 -1.472656 10.015625 -1.546875 C 9.773438 -1.640625 9.566406 -1.765625 9.390625 -1.921875 C 9.222656 -2.085938 9.113281 -2.296875 9.0625 -2.546875 C 9.019531 -2.773438 9.015625 -2.992188 9.046875 -3.203125 C 9.085938 -3.421875 9.128906 -3.628906 9.171875 -3.828125 C 9.453125 -4.992188 9.800781 -6.117188 10.21875 -7.203125 C 10.644531 -8.285156 11.128906 -9.351562 11.671875 -10.40625 C 12.191406 -11.414062 12.75 -12.398438 13.34375 -13.359375 C 13.9375 -14.316406 14.457031 -15.3125 14.90625 -16.34375 C 15.007812 -16.613281 15.125 -16.878906 15.25 -17.140625 C 15.375 -17.398438 15.484375 -17.648438 15.578125 -17.890625 C 15.648438 -18.085938 15.707031 -18.28125 15.75 -18.46875 C 15.800781 -18.664062 15.828125 -18.882812 15.828125 -19.125 C 15.492188 -19.132812 15.203125 -19.09375 14.953125 -19 C 14.703125 -18.90625 14.453125 -18.796875 14.203125 -18.671875 C 13.296875 -18.234375 12.445312 -17.703125 11.65625 -17.078125 C 10.875 -16.460938 10.113281 -15.800781 9.375 -15.09375 C 7.71875 -13.457031 6.273438 -11.675781 5.046875 -9.75 C 3.816406 -7.832031 2.691406 -5.820312 1.671875 -3.71875 C 1.484375 -3.332031 1.296875 -2.9375 1.109375 -2.53125 C 0.929688 -2.125 0.738281 -1.726562 0.53125 -1.34375 C 0.3125 -0.957031 0.03125 -0.882812 -0.3125 -1.125 C -0.5 -1.269531 -0.65625 -1.429688 -0.78125 -1.609375 C -0.90625 -1.785156 -0.96875 -2.003906 -0.96875 -2.265625 C -0.9375 -3.171875 -0.890625 -4.070312 -0.828125 -4.96875 C -0.773438 -5.875 -0.609375 -6.769531 -0.328125 -7.65625 C -0.234375 -7.894531 -0.132812 -8.117188 -0.03125 -8.328125 C 0.0703125 -8.546875 0.1875 -8.75 0.3125 -8.9375 C 0.519531 -9.3125 0.785156 -9.421875 1.109375 -9.265625 C 1.328125 -9.171875 1.488281 -9.023438 1.59375 -8.828125 C 1.707031 -8.628906 1.71875 -8.429688 1.625 -8.234375 C 1.488281 -7.941406 1.367188 -7.644531 1.265625 -7.34375 C 1.171875 -7.050781 1.070312 -6.75 0.96875 -6.4375 C 0.925781 -6.269531 0.878906 -6.085938 0.828125 -5.890625 C 0.773438 -5.703125 0.757812 -5.492188 0.78125 -5.265625 C 0.957031 -5.367188 1.078125 -5.488281 1.140625 -5.625 C 1.203125 -5.757812 1.273438 -5.894531 1.359375 -6.03125 C 1.867188 -6.96875 2.378906 -7.890625 2.890625 -8.796875 C 3.398438 -9.703125 3.960938 -10.578125 4.578125 -11.421875 C 5.472656 -12.660156 6.394531 -13.867188 7.34375 -15.046875 C 8.289062 -16.222656 9.320312 -17.304688 10.4375 -18.296875 C 11.613281 -19.296875 12.914062 -20.039062 14.34375 -20.53125 C 14.882812 -20.738281 15.40625 -20.734375 15.90625 -20.515625 C 16.40625 -20.296875 16.804688 -19.945312 17.109375 -19.46875 C 17.421875 -19 17.535156 -18.488281 17.453125 -17.9375 C 17.390625 -17.445312 17.265625 -16.972656 17.078125 -16.515625 C 16.898438 -16.066406 16.707031 -15.640625 16.5 -15.234375 C 16.070312 -14.421875 15.640625 -13.613281 15.203125 -12.8125 C 14.765625 -12.019531 14.320312 -11.226562 13.875 -10.4375 C 13.445312 -9.6875 13.070312 -8.929688 12.75 -8.171875 C 12.4375 -7.410156 12.140625 -6.644531 11.859375 -5.875 C 11.773438 -5.59375 11.65625 -5.328125 11.5 -5.078125 C 11.351562 -4.828125 11.273438 -4.550781 11.265625 -4.25 C 11.410156 -4.195312 11.507812 -4.207031 11.5625 -4.28125 C 11.625 -4.351562 11.691406 -4.40625 11.765625 -4.4375 C 12.171875 -4.757812 12.570312 -5.085938 12.96875 -5.421875 C 13.363281 -5.765625 13.765625 -6.070312 14.171875 -6.34375 C 14.410156 -6.488281 14.644531 -6.613281 14.875 -6.71875 C 15.101562 -6.820312 15.359375 -6.796875 15.640625 -6.640625 C 16.222656 -6.285156 16.539062 -5.765625 16.59375 -5.078125 C 16.59375 -4.867188 16.570312 -4.65625 16.53125 -4.4375 C 16.5 -4.226562 16.472656 -4.015625 16.453125 -3.796875 C 16.429688 -3.734375 16.414062 -3.664062 16.40625 -3.59375 C 16.40625 -3.519531 16.398438 -3.445312 16.390625 -3.375 C 16.347656 -2.914062 16.382812 -2.613281 16.5 -2.46875 C 16.613281 -2.332031 16.925781 -2.289062 17.4375 -2.34375 C 18.226562 -2.394531 18.972656 -2.550781 19.671875 -2.8125 C 20.378906 -3.070312 21.070312 -3.382812 21.75 -3.75 C 22.625 -4.226562 23.453125 -4.769531 24.234375 -5.375 C 25.023438 -5.988281 25.820312 -6.59375 26.625 -7.1875 C 26.988281 -7.46875 27.359375 -7.75 27.734375 -8.03125 C 28.109375 -8.320312 28.484375 -8.601562 28.859375 -8.875 C 28.890625 -8.914062 28.953125 -8.96875 29.046875 -9.03125 Z M 29.046875 -9.03125 "/></g></g></g><g fill="#000000" fill-opacity="1"><g transform="translate(92.70411, 65.269201)"><g><path d="M 6.734375 -22.328125 C 5.691406 -20.046875 4.707031 -17.734375 3.78125 -15.390625 C 2.863281 -13.054688 1.992188 -10.710938 1.171875 -8.359375 C 1.035156 -7.972656 0.910156 -7.59375 0.796875 -7.21875 C 0.691406 -6.84375 0.582031 -6.445312 0.46875 -6.03125 C 0.644531 -6.101562 0.769531 -6.1875 0.84375 -6.28125 C 0.925781 -6.382812 1.007812 -6.484375 1.09375 -6.578125 C 1.6875 -7.378906 2.367188 -8.097656 3.140625 -8.734375 C 3.566406 -9.085938 4.015625 -9.289062 4.484375 -9.34375 C 4.953125 -9.40625 5.441406 -9.375 5.953125 -9.25 C 6.210938 -9.175781 6.421875 -9.050781 6.578125 -8.875 C 6.734375 -8.707031 6.867188 -8.507812 6.984375 -8.28125 C 7.179688 -7.894531 7.300781 -7.492188 7.34375 -7.078125 C 7.382812 -6.660156 7.390625 -6.25 7.359375 -5.84375 C 7.347656 -5.6875 7.328125 -5.546875 7.296875 -5.421875 C 7.265625 -5.296875 7.273438 -5.144531 7.328125 -4.96875 C 7.773438 -5.125 8.195312 -5.285156 8.59375 -5.453125 C 9 -5.617188 9.414062 -5.785156 9.84375 -5.953125 C 10.59375 -6.234375 11.34375 -6.515625 12.09375 -6.796875 C 12.84375 -7.085938 13.597656 -7.351562 14.359375 -7.59375 C 14.472656 -7.625 14.59375 -7.648438 14.71875 -7.671875 C 14.84375 -7.703125 14.960938 -7.722656 15.078125 -7.734375 C 15.222656 -7.742188 15.375 -7.738281 15.53125 -7.71875 C 15.6875 -7.707031 15.804688 -7.613281 15.890625 -7.4375 C 15.503906 -7.28125 15.113281 -7.128906 14.71875 -6.984375 C 14.332031 -6.835938 13.945312 -6.6875 13.5625 -6.53125 C 12.53125 -6.144531 11.507812 -5.738281 10.5 -5.3125 C 9.5 -4.882812 8.503906 -4.425781 7.515625 -3.9375 C 7.316406 -3.84375 7.175781 -3.726562 7.09375 -3.59375 C 7.007812 -3.457031 6.941406 -3.296875 6.890625 -3.109375 C 6.421875 -1.359375 5.847656 0.335938 5.171875 1.984375 C 4.492188 3.640625 3.6875 5.253906 2.75 6.828125 C 2.238281 7.691406 1.660156 8.507812 1.015625 9.28125 C 0.378906 10.0625 -0.363281 10.726562 -1.21875 11.28125 C -1.757812 11.644531 -2.3125 11.929688 -2.875 12.140625 C -3.445312 12.347656 -4.066406 12.453125 -4.734375 12.453125 C -5.585938 12.421875 -6.234375 12.160156 -6.671875 11.671875 C -7.109375 11.191406 -7.34375 10.566406 -7.375 9.796875 C -7.394531 9.265625 -7.3125 8.738281 -7.125 8.21875 C -6.9375 7.707031 -6.738281 7.222656 -6.53125 6.765625 C -6.207031 6.140625 -5.847656 5.570312 -5.453125 5.0625 C -5.066406 4.550781 -4.640625 4.0625 -4.171875 3.59375 C -3.660156 3.03125 -3.347656 2.429688 -3.234375 1.796875 C -2.910156 0.367188 -2.554688 -1.046875 -2.171875 -2.453125 C -1.785156 -3.859375 -1.382812 -5.257812 -0.96875 -6.65625 C -0.3125 -8.882812 0.414062 -11.078125 1.21875 -13.234375 C 2.019531 -15.398438 2.878906 -17.535156 3.796875 -19.640625 C 4.492188 -21.242188 5.207031 -22.832031 5.9375 -24.40625 C 6.675781 -25.988281 7.441406 -27.554688 8.234375 -29.109375 C 8.734375 -30.097656 9.226562 -31.085938 9.71875 -32.078125 C 10.21875 -33.078125 10.765625 -34.050781 11.359375 -35 C 11.578125 -35.34375 11.800781 -35.691406 12.03125 -36.046875 C 12.257812 -36.398438 12.484375 -36.742188 12.703125 -37.078125 C 12.765625 -37.203125 12.835938 -37.300781 12.921875 -37.375 C 13.003906 -37.445312 13.113281 -37.492188 13.25 -37.515625 C 13.8125 -37.617188 14.007812 -37.394531 13.84375 -36.84375 C 13.71875 -36.445312 13.5625 -36.085938 13.375 -35.765625 C 13.1875 -35.441406 13.007812 -35.109375 12.84375 -34.765625 C 11.769531 -32.703125 10.722656 -30.640625 9.703125 -28.578125 C 8.679688 -26.515625 7.691406 -24.429688 6.734375 -22.328125 Z M 4.65625 -1.703125 C 4.6875 -1.796875 4.71875 -1.878906 4.75 -1.953125 C 4.78125 -2.035156 4.753906 -2.125 4.671875 -2.21875 C 4.597656 -2.25 4.535156 -2.25 4.484375 -2.21875 C 4.429688 -2.195312 4.375 -2.15625 4.3125 -2.09375 C 3.4375 -1.550781 2.578125 -0.972656 1.734375 -0.359375 C 0.898438 0.242188 0.0703125 0.890625 -0.75 1.578125 C -1.019531 1.804688 -1.269531 2.0625 -1.5 2.34375 C -1.738281 2.625 -1.863281 2.972656 -1.875 3.390625 C -1.894531 3.472656 -1.914062 3.546875 -1.9375 3.609375 C -1.96875 3.679688 -2 3.769531 -2.03125 3.875 C -2.164062 4.226562 -2.296875 4.445312 -2.421875 4.53125 C -2.554688 4.613281 -2.820312 4.644531 -3.21875 4.625 C -3.320312 4.582031 -3.414062 4.5625 -3.5 4.5625 C -3.59375 4.5625 -3.695312 4.613281 -3.8125 4.71875 C -4.351562 5.414062 -4.847656 6.140625 -5.296875 6.890625 C -5.742188 7.648438 -6.046875 8.472656 -6.203125 9.359375 C -6.347656 10.003906 -6.21875 10.640625 -5.8125 11.265625 C -5.539062 11.679688 -5.144531 11.878906 -4.625 11.859375 C -4.351562 11.828125 -4.09375 11.753906 -3.84375 11.640625 C -3.601562 11.535156 -3.378906 11.425781 -3.171875 11.3125 C -2.359375 10.851562 -1.644531 10.300781 -1.03125 9.65625 C -0.425781 9.007812 0.125 8.296875 0.625 7.515625 C 1.550781 6.109375 2.332031 4.625 2.96875 3.0625 C 3.613281 1.5 4.175781 -0.0859375 4.65625 -1.703125 Z M 2.703125 -6.578125 C 1.867188 -5.609375 1.15625 -4.554688 0.5625 -3.421875 C -0.0195312 -2.296875 -0.570312 -1.15625 -1.09375 0 C -1.101562 0.0703125 -1.113281 0.144531 -1.125 0.21875 C -1.144531 0.289062 -1.128906 0.378906 -1.078125 0.484375 C -0.890625 0.421875 -0.71875 0.316406 -0.5625 0.171875 C -0.414062 0.0351562 -0.269531 -0.0820312 -0.125 -0.1875 C 0.632812 -0.757812 1.410156 -1.316406 2.203125 -1.859375 C 2.992188 -2.398438 3.789062 -2.898438 4.59375 -3.359375 C 4.757812 -3.472656 4.90625 -3.597656 5.03125 -3.734375 C 5.164062 -3.878906 5.242188 -4.066406 5.265625 -4.296875 C 5.316406 -4.703125 5.363281 -5.113281 5.40625 -5.53125 C 5.445312 -5.945312 5.457031 -6.367188 5.4375 -6.796875 C 5.382812 -7.253906 5.289062 -7.675781 5.15625 -8.0625 C 5.0625 -8.363281 4.859375 -8.414062 4.546875 -8.21875 C 3.898438 -7.789062 3.285156 -7.242188 2.703125 -6.578125 Z M 2.703125 -6.578125 "/></g></g></g><g fill="#000000" fill-opacity="1"><g transform="translate(108.339445, 63.670539)"><g><path d="M 6.75 0.75 C 5.28125 1.46875 3.988281 1.679688 2.875 1.390625 C 1.769531 1.109375 0.71875 0.316406 -0.28125 -0.984375 C -1.28125 -2.328125 -1.570312 -3.800781 -1.15625 -5.40625 C -0.789062 -6.75 -0.175781 -7.863281 0.6875 -8.75 C 1.5625 -9.644531 2.617188 -10.34375 3.859375 -10.84375 C 4.359375 -11.039062 4.835938 -11.097656 5.296875 -11.015625 C 5.753906 -10.929688 6.203125 -10.757812 6.640625 -10.5 C 7.210938 -10.15625 7.378906 -9.671875 7.140625 -9.046875 C 7.046875 -8.796875 6.941406 -8.597656 6.828125 -8.453125 C 6.367188 -7.929688 5.875 -7.441406 5.34375 -6.984375 C 4.820312 -6.535156 4.242188 -6.160156 3.609375 -5.859375 C 2.960938 -5.585938 2.3125 -5.5 1.65625 -5.59375 C 1.414062 -5.632812 1.238281 -5.601562 1.125 -5.5 C 1.007812 -5.40625 0.914062 -5.257812 0.84375 -5.0625 C 0.5 -4.070312 0.410156 -3.140625 0.578125 -2.265625 C 0.753906 -1.390625 1.207031 -0.554688 1.9375 0.234375 C 2.238281 0.523438 2.570312 0.703125 2.9375 0.765625 C 3.3125 0.835938 3.695312 0.835938 4.09375 0.765625 C 4.625 0.671875 5.132812 0.519531 5.625 0.3125 C 6.125 0.113281 6.601562 -0.125 7.0625 -0.40625 C 7.46875 -0.65625 8.050781 -1.050781 8.8125 -1.59375 C 9.570312 -2.144531 10.453125 -2.757812 11.453125 -3.4375 C 12.453125 -4.113281 13.519531 -4.789062 14.65625 -5.46875 C 15.789062 -6.15625 16.945312 -6.769531 18.125 -7.3125 C 19.300781 -7.851562 20.441406 -8.238281 21.546875 -8.46875 C 21.679688 -8.476562 21.820312 -8.472656 21.96875 -8.453125 C 22.125 -8.429688 22.257812 -8.3125 22.375 -8.09375 C 20.789062 -7.726562 19.234375 -7.132812 17.703125 -6.3125 C 16.179688 -5.5 14.726562 -4.625 13.34375 -3.6875 C 11.96875 -2.75 10.71875 -1.867188 9.59375 -1.046875 C 8.46875 -0.234375 7.519531 0.363281 6.75 0.75 Z M 5.625 -9.703125 C 5.207031 -9.679688 4.734375 -9.507812 4.203125 -9.1875 C 3.671875 -8.863281 3.179688 -8.476562 2.734375 -8.03125 C 2.285156 -7.59375 1.992188 -7.160156 1.859375 -6.734375 C 2.316406 -6.734375 2.816406 -6.890625 3.359375 -7.203125 C 3.910156 -7.515625 4.398438 -7.898438 4.828125 -8.359375 C 5.265625 -8.816406 5.53125 -9.265625 5.625 -9.703125 Z M 5.625 -9.703125 "/></g></g></g><g fill="#000000" fill-opacity="1"><g transform="translate(130.793716, 61.374662)"><g><path d="M -1.40625 11.15625 C -1.914062 11.1875 -2.398438 11.0625 -2.859375 10.78125 C -3.328125 10.5 -3.664062 10.125 -3.875 9.65625 C -4.1875 8.914062 -4.34375 8.175781 -4.34375 7.4375 C -4.351562 6.695312 -4.269531 5.957031 -4.09375 5.21875 C -3.863281 4.34375 -3.5625 3.488281 -3.1875 2.65625 C -2.820312 1.832031 -2.425781 1.003906 -2 0.171875 C -1.757812 -0.296875 -1.523438 -0.765625 -1.296875 -1.234375 C -1.078125 -1.710938 -0.851562 -2.1875 -0.625 -2.65625 C -0.457031 -2.945312 -0.332031 -3.25 -0.25 -3.5625 C -0.164062 -3.875 -0.128906 -4.191406 -0.140625 -4.515625 C -0.117188 -4.691406 -0.132812 -4.847656 -0.1875 -4.984375 C -0.25 -5.117188 -0.378906 -5.234375 -0.578125 -5.328125 C -0.828125 -5.472656 -1.003906 -5.671875 -1.109375 -5.921875 C -1.222656 -6.179688 -1.253906 -6.457031 -1.203125 -6.75 C -1.117188 -7.414062 -0.722656 -7.851562 -0.015625 -8.0625 C 0.492188 -8.207031 0.953125 -8.085938 1.359375 -7.703125 C 1.535156 -7.609375 1.59375 -7.425781 1.53125 -7.15625 C 1.519531 -7.0625 1.492188 -6.960938 1.453125 -6.859375 C 1.421875 -6.753906 1.367188 -6.671875 1.296875 -6.609375 C 1.035156 -6.328125 0.859375 -6.046875 0.765625 -5.765625 C 0.679688 -5.492188 0.835938 -5.1875 1.234375 -4.84375 C 1.441406 -4.71875 1.535156 -4.523438 1.515625 -4.265625 C 1.492188 -4.003906 1.457031 -3.753906 1.40625 -3.515625 C 1.332031 -3.085938 1.21875 -2.679688 1.0625 -2.296875 C 0.90625 -1.910156 0.734375 -1.523438 0.546875 -1.140625 C 0.00390625 -0.078125 -0.535156 0.988281 -1.078125 2.0625 C -1.628906 3.144531 -2.117188 4.257812 -2.546875 5.40625 C -2.742188 5.988281 -2.90625 6.570312 -3.03125 7.15625 C -3.15625 7.75 -3.1875 8.347656 -3.125 8.953125 C -3.050781 9.847656 -2.773438 10.421875 -2.296875 10.671875 C -1.816406 10.929688 -1.195312 10.835938 -0.4375 10.390625 C -0.125 10.222656 0.175781 10.035156 0.46875 9.828125 C 0.757812 9.617188 1.03125 9.382812 1.28125 9.125 C 1.34375 9.050781 1.421875 8.988281 1.515625 8.9375 C 1.609375 8.894531 1.703125 8.925781 1.796875 9.03125 C 1.898438 9.113281 1.914062 9.191406 1.84375 9.265625 C 1.769531 9.347656 1.707031 9.421875 1.65625 9.484375 C 1.457031 9.734375 1.164062 9.988281 0.78125 10.25 C 0.40625 10.519531 0.0195312 10.738281 -0.375 10.90625 C -0.769531 11.082031 -1.113281 11.164062 -1.40625 11.15625 Z M -1.40625 11.15625 "/></g></g></g><g fill="#000000" fill-opacity="1"><g transform="translate(139.920064, 60.441523)"><g><path d="M 1.90625 -8.578125 C 2.351562 -8.273438 2.453125 -7.859375 2.203125 -7.328125 C 1.960938 -6.785156 1.703125 -6.257812 1.421875 -5.75 C 1.148438 -5.25 0.878906 -4.722656 0.609375 -4.171875 C 0.046875 -2.953125 -0.410156 -1.703125 -0.765625 -0.421875 C -1.128906 0.847656 -1.304688 2.171875 -1.296875 3.546875 C -1.285156 3.921875 -1.257812 4.28125 -1.21875 4.625 C -1.1875 4.976562 -1.109375 5.335938 -0.984375 5.703125 C -0.890625 5.992188 -0.773438 6.175781 -0.640625 6.25 C -0.503906 6.332031 -0.285156 6.347656 0.015625 6.296875 C 0.429688 6.234375 0.796875 6.085938 1.109375 5.859375 C 1.421875 5.640625 1.726562 5.398438 2.03125 5.140625 C 2.5625 4.703125 3.03125 4.210938 3.4375 3.671875 C 3.84375 3.128906 4.265625 2.59375 4.703125 2.0625 C 5.460938 1.082031 6.253906 0.140625 7.078125 -0.765625 C 7.898438 -1.679688 8.804688 -2.515625 9.796875 -3.265625 C 10.484375 -3.796875 11.191406 -4.28125 11.921875 -4.71875 C 12.660156 -5.15625 13.382812 -5.59375 14.09375 -6.03125 C 14.46875 -6.25 14.84375 -6.472656 15.21875 -6.703125 C 15.59375 -6.929688 15.960938 -7.144531 16.328125 -7.34375 C 16.441406 -7.40625 16.546875 -7.460938 16.640625 -7.515625 C 16.742188 -7.578125 16.863281 -7.597656 17 -7.578125 C 17.1875 -7.597656 17.285156 -7.539062 17.296875 -7.40625 C 17.335938 -7.289062 17.269531 -7.195312 17.09375 -7.125 C 16.351562 -6.78125 15.648438 -6.394531 14.984375 -5.96875 C 14.328125 -5.539062 13.648438 -5.117188 12.953125 -4.703125 C 11.742188 -3.953125 10.644531 -3.09375 9.65625 -2.125 C 8.664062 -1.164062 7.742188 -0.140625 6.890625 0.953125 C 6.191406 1.867188 5.484375 2.78125 4.765625 3.6875 C 4.046875 4.59375 3.28125 5.460938 2.46875 6.296875 C 2.394531 6.390625 2.3125 6.488281 2.21875 6.59375 C 2.132812 6.695312 2.039062 6.789062 1.9375 6.875 C 0.757812 7.769531 -0.347656 7.722656 -1.390625 6.734375 C -1.660156 6.429688 -1.890625 6.113281 -2.078125 5.78125 C -2.273438 5.445312 -2.441406 5.109375 -2.578125 4.765625 C -2.878906 3.835938 -3.007812 2.90625 -2.96875 1.96875 C -2.96875 0.164062 -2.671875 -1.539062 -2.078125 -3.15625 C -1.492188 -4.769531 -0.742188 -6.332031 0.171875 -7.84375 C 0.253906 -7.9375 0.332031 -8.03125 0.40625 -8.125 C 0.476562 -8.21875 0.554688 -8.316406 0.640625 -8.421875 C 1.003906 -8.859375 1.425781 -8.910156 1.90625 -8.578125 Z M 3.328125 -10.4375 C 3.085938 -10.507812 2.859375 -10.617188 2.640625 -10.765625 C 2.421875 -10.910156 2.257812 -11.101562 2.15625 -11.34375 C 2.082031 -11.507812 2.078125 -11.640625 2.140625 -11.734375 C 2.203125 -11.828125 2.316406 -11.875 2.484375 -11.875 C 2.785156 -11.882812 3.0625 -11.785156 3.3125 -11.578125 C 3.570312 -11.378906 3.71875 -11.15625 3.75 -10.90625 C 3.78125 -10.75 3.753906 -10.625 3.671875 -10.53125 C 3.597656 -10.4375 3.484375 -10.40625 3.328125 -10.4375 Z M 3.328125 -10.4375 "/></g></g></g><g fill="#000000" fill-opacity="1"><g transform="translate(157.311784, 58.663276)"><g><path d="M 1.8125 -3.28125 C 1.8125 -3.28125 1.8125 -3.269531 1.8125 -3.25 C 1.8125 -3.226562 1.804688 -3.179688 1.796875 -3.109375 C 1.796875 -3.109375 2.132812 -3.128906 2.8125 -3.171875 C 3.5 -3.222656 4.492188 -3.441406 5.796875 -3.828125 C 5.960938 -3.898438 6.296875 -4.035156 6.796875 -4.234375 C 7.296875 -4.429688 7.878906 -4.691406 8.546875 -5.015625 C 9.210938 -5.335938 9.894531 -5.691406 10.59375 -6.078125 C 11.289062 -6.460938 11.910156 -6.851562 12.453125 -7.25 C 12.578125 -7.363281 12.695312 -7.398438 12.8125 -7.359375 C 12.925781 -7.328125 13.007812 -7.304688 13.0625 -7.296875 C 11.601562 -6.171875 10.117188 -5.210938 8.609375 -4.421875 C 7.097656 -3.640625 5.710938 -3.085938 4.453125 -2.765625 C 3.203125 -2.441406 2.226562 -2.375 1.53125 -2.5625 C 1.375 -2.5625 1.238281 -2.488281 1.125 -2.34375 C 0.9375 -2.113281 0.734375 -1.898438 0.515625 -1.703125 C 0.304688 -1.515625 0.0976562 -1.316406 -0.109375 -1.109375 C -0.148438 -1.085938 -0.191406 -1.054688 -0.234375 -1.015625 C -0.273438 -0.972656 -0.320312 -0.9375 -0.375 -0.90625 C -0.78125 -0.582031 -1.191406 -0.515625 -1.609375 -0.703125 C -2.035156 -0.898438 -2.289062 -1.257812 -2.375 -1.78125 C -2.40625 -2.101562 -2.390625 -2.414062 -2.328125 -2.71875 C -2.265625 -3.03125 -2.164062 -3.332031 -2.03125 -3.625 C -1.90625 -3.914062 -1.945312 -4.1875 -2.15625 -4.4375 C -2.800781 -5.238281 -3.148438 -6.171875 -3.203125 -7.234375 C -3.210938 -7.546875 -3.171875 -7.859375 -3.078125 -8.171875 C -2.984375 -8.492188 -2.84375 -8.789062 -2.65625 -9.0625 C -1.96875 -10.175781 -0.972656 -10.882812 0.328125 -11.1875 C 1.085938 -11.382812 1.765625 -11.289062 2.359375 -10.90625 C 2.960938 -10.519531 3.351562 -9.941406 3.53125 -9.171875 C 3.625 -8.660156 3.644531 -8.171875 3.59375 -7.703125 C 3.550781 -7.234375 3.460938 -6.765625 3.328125 -6.296875 C 3.171875 -5.765625 2.984375 -5.269531 2.765625 -4.8125 C 2.546875 -4.351562 2.257812 -3.90625 1.90625 -3.46875 C 1.882812 -3.4375 1.867188 -3.410156 1.859375 -3.390625 C 1.847656 -3.367188 1.832031 -3.332031 1.8125 -3.28125 Z M 0.046875 -2.578125 C 0.128906 -2.679688 0.109375 -2.773438 -0.015625 -2.859375 C -0.109375 -2.890625 -0.203125 -2.925781 -0.296875 -2.96875 C -0.398438 -3.019531 -0.503906 -3.066406 -0.609375 -3.109375 C -0.773438 -3.210938 -0.894531 -3.175781 -0.96875 -3 C -1.15625 -2.550781 -1.28125 -2.09375 -1.34375 -1.625 C -1.375 -1.53125 -1.359375 -1.457031 -1.296875 -1.40625 C -0.984375 -1.519531 -0.722656 -1.679688 -0.515625 -1.890625 C -0.316406 -2.097656 -0.128906 -2.328125 0.046875 -2.578125 Z M 0.859375 -3.671875 C 1.253906 -4.222656 1.550781 -4.816406 1.75 -5.453125 C 1.957031 -6.085938 2.097656 -6.734375 2.171875 -7.390625 C 2.265625 -8.234375 2.179688 -8.832031 1.921875 -9.1875 C 1.671875 -9.539062 1.40625 -9.753906 1.125 -9.828125 C 0.851562 -9.910156 0.71875 -9.953125 0.71875 -9.953125 C 0.0820312 -9.941406 -0.472656 -9.734375 -0.953125 -9.328125 C -1.429688 -8.929688 -1.78125 -8.445312 -2 -7.875 C -2.226562 -7.3125 -2.316406 -6.734375 -2.265625 -6.140625 C -2.222656 -5.554688 -2.007812 -5.054688 -1.625 -4.640625 C -1.53125 -4.835938 -1.425781 -5.015625 -1.3125 -5.171875 C -1.207031 -5.328125 -1.113281 -5.484375 -1.03125 -5.640625 C -0.789062 -6.054688 -0.492188 -6.414062 -0.140625 -6.71875 C 0.253906 -7.007812 0.632812 -6.941406 1 -6.515625 C 1.125 -6.359375 1.179688 -6.234375 1.171875 -6.140625 C 1.160156 -6.046875 1.054688 -5.894531 0.859375 -5.6875 C 0.648438 -5.476562 0.445312 -5.257812 0.25 -5.03125 C 0.0507812 -4.800781 -0.128906 -4.554688 -0.296875 -4.296875 C -0.410156 -4.078125 -0.460938 -3.941406 -0.453125 -3.890625 C -0.453125 -3.847656 -0.222656 -3.734375 0.234375 -3.546875 C 0.421875 -3.472656 0.53125 -3.429688 0.5625 -3.421875 C 0.601562 -3.410156 0.644531 -3.421875 0.6875 -3.453125 C 0.738281 -3.472656 0.769531 -3.507812 0.78125 -3.5625 C 0.800781 -3.613281 0.828125 -3.648438 0.859375 -3.671875 Z M 0.859375 -3.671875 "/></g></g></g></g></g><g transform="matrix(1, 0, 0, 1, 143, 251)"><g clip-path="url(#7418b9b793)"><g fill="#000000" fill-opacity="1"><g transform="translate(1.283158, 9.804227)"><g><path d="M 3.984375 -4.359375 C 4.617188 -4.316406 5.148438 -4.125 5.578125 -3.78125 C 6.003906 -3.445312 6.21875 -2.960938 6.21875 -2.328125 C 6.21875 -1.921875 6.109375 -1.535156 5.890625 -1.171875 C 5.671875 -0.816406 5.359375 -0.53125 4.953125 -0.3125 C 4.554688 -0.09375 4.070312 0.015625 3.5 0.015625 C 3.351562 0.015625 3.140625 0.0078125 2.859375 0 C 2.578125 0 2.300781 0 2.03125 0 L 1.71875 0 L 0.484375 0.046875 L 0.4375 -0.21875 L 1.40625 -0.390625 C 1.40625 -0.597656 1.410156 -0.867188 1.421875 -1.203125 C 1.429688 -1.535156 1.4375 -1.882812 1.4375 -2.25 L 1.4375 -5.15625 C 1.4375 -5.394531 1.429688 -5.632812 1.421875 -5.875 C 1.421875 -6.113281 1.414062 -6.320312 1.40625 -6.5 C 1.40625 -6.632812 1.347656 -6.734375 1.234375 -6.796875 C 1.128906 -6.867188 1.003906 -6.921875 0.859375 -6.953125 C 0.710938 -6.984375 0.582031 -7 0.46875 -7 L 0.515625 -7.265625 L 1.71875 -7.21875 C 1.957031 -7.21875 2.207031 -7.222656 2.46875 -7.234375 C 2.738281 -7.242188 3.015625 -7.25 3.296875 -7.25 C 3.679688 -7.25 4.03125 -7.207031 4.34375 -7.125 C 4.65625 -7.039062 4.90625 -6.898438 5.09375 -6.703125 C 5.28125 -6.503906 5.375 -6.21875 5.375 -5.84375 C 5.375 -5.382812 5.25 -5.039062 5 -4.8125 C 4.75 -4.59375 4.410156 -4.441406 3.984375 -4.359375 Z M 3.421875 -0.328125 C 3.753906 -0.328125 4.0625 -0.414062 4.34375 -0.59375 C 4.632812 -0.769531 4.863281 -1.007812 5.03125 -1.3125 C 5.207031 -1.613281 5.296875 -1.945312 5.296875 -2.3125 C 5.296875 -2.65625 5.234375 -2.9375 5.109375 -3.15625 C 4.984375 -3.382812 4.816406 -3.566406 4.609375 -3.703125 C 4.410156 -3.835938 4.195312 -3.9375 3.96875 -4 C 3.75 -4.0625 3.535156 -4.101562 3.328125 -4.125 C 3.117188 -4.144531 2.945312 -4.15625 2.8125 -4.15625 L 2.71875 -4.484375 L 2.890625 -4.484375 C 3.023438 -4.484375 3.179688 -4.5 3.359375 -4.53125 C 3.546875 -4.5625 3.726562 -4.617188 3.90625 -4.703125 C 4.082031 -4.796875 4.226562 -4.925781 4.34375 -5.09375 C 4.457031 -5.269531 4.515625 -5.5 4.515625 -5.78125 C 4.515625 -6.164062 4.394531 -6.441406 4.15625 -6.609375 C 3.914062 -6.773438 3.628906 -6.863281 3.296875 -6.875 C 3.140625 -6.882812 2.988281 -6.890625 2.84375 -6.890625 C 2.695312 -6.890625 2.523438 -6.882812 2.328125 -6.875 C 2.328125 -5.675781 2.328125 -4.664062 2.328125 -3.84375 C 2.335938 -3.019531 2.34375 -2.351562 2.34375 -1.84375 C 2.34375 -1.34375 2.34375 -0.972656 2.34375 -0.734375 C 2.351562 -0.503906 2.359375 -0.367188 2.359375 -0.328125 Z M 3.421875 -0.328125 "/></g></g></g><g fill="#000000" fill-opacity="1"><g transform="translate(12.373123, 9.804227)"><g><path d="M 4.234375 0.15625 C 3.503906 0.15625 2.84375 0 2.25 -0.3125 C 1.664062 -0.625 1.203125 -1.0625 0.859375 -1.625 C 0.523438 -2.195312 0.359375 -2.863281 0.359375 -3.625 C 0.359375 -4.257812 0.460938 -4.804688 0.671875 -5.265625 C 0.890625 -5.734375 1.175781 -6.125 1.53125 -6.4375 C 1.894531 -6.75 2.3125 -6.976562 2.78125 -7.125 C 3.257812 -7.28125 3.753906 -7.359375 4.265625 -7.359375 C 5.003906 -7.359375 5.664062 -7.203125 6.25 -6.890625 C 6.832031 -6.578125 7.289062 -6.132812 7.625 -5.5625 C 7.957031 -5 8.125 -4.335938 8.125 -3.578125 C 8.125 -2.941406 8.015625 -2.390625 7.796875 -1.921875 C 7.585938 -1.453125 7.300781 -1.0625 6.9375 -0.75 C 6.582031 -0.445312 6.171875 -0.21875 5.703125 -0.0625 C 5.234375 0.0820312 4.742188 0.15625 4.234375 0.15625 Z M 1.328125 -3.578125 C 1.335938 -3.128906 1.410156 -2.695312 1.546875 -2.28125 C 1.691406 -1.875 1.890625 -1.515625 2.140625 -1.203125 C 2.390625 -0.890625 2.691406 -0.640625 3.046875 -0.453125 C 3.398438 -0.273438 3.789062 -0.191406 4.21875 -0.203125 C 4.539062 -0.203125 4.875 -0.265625 5.21875 -0.390625 C 5.5625 -0.523438 5.882812 -0.726562 6.1875 -1 C 6.488281 -1.269531 6.726562 -1.617188 6.90625 -2.046875 C 7.082031 -2.484375 7.171875 -3.003906 7.171875 -3.609375 C 7.160156 -4.222656 7.03125 -4.785156 6.78125 -5.296875 C 6.539062 -5.804688 6.203125 -6.21875 5.765625 -6.53125 C 5.335938 -6.84375 4.835938 -7 4.265625 -7 C 3.941406 -6.988281 3.609375 -6.914062 3.265625 -6.78125 C 2.921875 -6.65625 2.597656 -6.457031 2.296875 -6.1875 C 2.003906 -5.914062 1.765625 -5.566406 1.578125 -5.140625 C 1.398438 -4.710938 1.316406 -4.191406 1.328125 -3.578125 Z M 1.328125 -3.578125 "/></g></g></g><g fill="#000000" fill-opacity="1"><g transform="translate(25.372908, 9.804227)"><g><path d="M 7.421875 -6.96875 L 6.5625 -6.8125 C 6.550781 -6.550781 6.539062 -6.25 6.53125 -5.90625 C 6.519531 -5.570312 6.515625 -5.242188 6.515625 -4.921875 L 6.515625 -3.171875 C 6.515625 -2.078125 6.3125 -1.25 5.90625 -0.6875 C 5.5 -0.125 4.847656 0.15625 3.953125 0.15625 C 3.015625 0.15625 2.300781 -0.117188 1.8125 -0.671875 C 1.332031 -1.234375 1.09375 -2.0625 1.09375 -3.15625 L 1.09375 -4.875 C 1.09375 -5.175781 1.09375 -5.46875 1.09375 -5.75 C 1.09375 -6.039062 1.085938 -6.289062 1.078125 -6.5 C 1.054688 -6.707031 0.957031 -6.832031 0.78125 -6.875 C 0.601562 -6.925781 0.414062 -6.96875 0.21875 -7 L 0.265625 -7.25 L 1.390625 -7.1875 L 1.703125 -7.1875 L 2.96875 -7.234375 L 3.015625 -6.96875 L 2.03125 -6.78125 C 2.019531 -6.539062 2.007812 -6.253906 2 -5.921875 C 1.988281 -5.597656 1.984375 -5.25 1.984375 -4.875 L 1.984375 -3.171875 C 1.984375 -1.242188 2.671875 -0.28125 4.046875 -0.28125 C 5.453125 -0.28125 6.15625 -1.242188 6.15625 -3.171875 L 6.15625 -4.921875 C 6.15625 -5.210938 6.148438 -5.492188 6.140625 -5.765625 C 6.140625 -6.046875 6.140625 -6.289062 6.140625 -6.5 C 6.128906 -6.632812 6.0625 -6.734375 5.9375 -6.796875 C 5.820312 -6.859375 5.6875 -6.898438 5.53125 -6.921875 C 5.375 -6.953125 5.226562 -6.976562 5.09375 -7 L 5.140625 -7.25 L 6.28125 -7.1875 L 6.328125 -7.1875 L 7.375 -7.234375 Z M 7.421875 -6.96875 "/></g></g></g><g fill="#000000" fill-opacity="1"><g transform="translate(37.550892, 9.804227)"><g><path d="M 3.40625 -6.8125 C 3.394531 -6.75 3.382812 -6.625 3.375 -6.4375 C 3.375 -6.25 3.375 -6.039062 3.375 -5.8125 L 3.375 -2.25 C 3.375 -1.96875 3.375 -1.6875 3.375 -1.40625 C 3.382812 -1.132812 3.394531 -0.894531 3.40625 -0.6875 C 3.414062 -0.5625 3.472656 -0.46875 3.578125 -0.40625 C 3.679688 -0.34375 3.800781 -0.296875 3.9375 -0.265625 C 4.082031 -0.242188 4.21875 -0.222656 4.34375 -0.203125 L 4.3125 0.046875 L 3.15625 0 L 2.796875 0 L 1.5625 0.046875 L 1.515625 -0.21875 L 2.453125 -0.390625 C 2.472656 -0.648438 2.484375 -0.941406 2.484375 -1.265625 C 2.492188 -1.597656 2.5 -1.925781 2.5 -2.25 L 2.5 -5.8125 C 2.5 -6.039062 2.492188 -6.25 2.484375 -6.4375 C 2.484375 -6.625 2.484375 -6.75 2.484375 -6.8125 C 2.191406 -6.8125 1.898438 -6.804688 1.609375 -6.796875 C 1.328125 -6.796875 1.066406 -6.785156 0.828125 -6.765625 L 0.390625 -5.75 L 0.09375 -5.828125 L 0.296875 -7.265625 C 0.410156 -7.253906 0.5625 -7.238281 0.75 -7.21875 C 0.9375 -7.207031 1.125 -7.195312 1.3125 -7.1875 L 4.59375 -7.1875 C 4.789062 -7.195312 4.976562 -7.207031 5.15625 -7.21875 C 5.34375 -7.238281 5.5 -7.253906 5.625 -7.265625 L 5.8125 -5.828125 L 5.515625 -5.75 L 5.0625 -6.765625 C 4.84375 -6.785156 4.585938 -6.796875 4.296875 -6.796875 C 4.015625 -6.804688 3.71875 -6.8125 3.40625 -6.8125 Z M 3.40625 -6.8125 "/></g></g></g><g fill="#000000" fill-opacity="1"><g transform="translate(47.992675, 9.804227)"><g><path d="M 2.359375 -0.6875 C 2.367188 -0.5625 2.425781 -0.46875 2.53125 -0.40625 C 2.632812 -0.34375 2.753906 -0.296875 2.890625 -0.265625 C 3.035156 -0.242188 3.171875 -0.222656 3.296875 -0.203125 L 3.265625 0.0625 L 2.109375 0 L 1.734375 0 L 0.484375 0.046875 L 0.4375 -0.21875 L 1.40625 -0.390625 C 1.414062 -0.597656 1.425781 -0.867188 1.4375 -1.203125 C 1.445312 -1.546875 1.453125 -1.894531 1.453125 -2.25 L 1.453125 -4.90625 C 1.453125 -5.195312 1.445312 -5.484375 1.4375 -5.765625 C 1.425781 -6.046875 1.414062 -6.289062 1.40625 -6.5 C 1.40625 -6.625 1.351562 -6.71875 1.25 -6.78125 C 1.144531 -6.84375 1.019531 -6.882812 0.875 -6.90625 C 0.738281 -6.9375 0.601562 -6.96875 0.46875 -7 L 0.515625 -7.25 L 1.671875 -7.1875 L 2.046875 -7.1875 L 3.28125 -7.234375 L 3.328125 -6.96875 L 2.375 -6.796875 C 2.363281 -6.566406 2.351562 -6.28125 2.34375 -5.9375 C 2.332031 -5.601562 2.328125 -5.257812 2.328125 -4.90625 L 2.328125 -2.25 C 2.328125 -1.96875 2.328125 -1.6875 2.328125 -1.40625 C 2.335938 -1.132812 2.347656 -0.894531 2.359375 -0.6875 Z M 2.359375 -0.6875 "/></g></g></g><g fill="#000000" fill-opacity="1"><g transform="translate(56.304717, 9.804227)"><g><path d="M 13.359375 1.40625 L 13.46875 1.65625 C 13.40625 1.695312 13.269531 1.757812 13.0625 1.84375 C 12.863281 1.9375 12.632812 2.019531 12.375 2.09375 C 12.125 2.164062 11.878906 2.207031 11.640625 2.21875 C 11.378906 2.21875 11.109375 2.207031 10.828125 2.1875 C 10.554688 2.175781 10.25 2.128906 9.90625 2.046875 C 9.570312 1.960938 9.1875 1.832031 8.75 1.65625 C 8.320312 1.476562 7.816406 1.226562 7.234375 0.90625 C 6.835938 0.675781 6.492188 0.484375 6.203125 0.328125 C 5.921875 0.179688 5.679688 0.0703125 5.484375 0 C 5.066406 0.101562 4.648438 0.15625 4.234375 0.15625 C 3.503906 0.15625 2.84375 0 2.25 -0.3125 C 1.664062 -0.625 1.203125 -1.0625 0.859375 -1.625 C 0.523438 -2.195312 0.359375 -2.863281 0.359375 -3.625 C 0.359375 -4.257812 0.460938 -4.804688 0.671875 -5.265625 C 0.890625 -5.734375 1.175781 -6.125 1.53125 -6.4375 C 1.894531 -6.75 2.3125 -6.976562 2.78125 -7.125 C 3.257812 -7.28125 3.753906 -7.359375 4.265625 -7.359375 C 5.003906 -7.359375 5.664062 -7.203125 6.25 -6.890625 C 6.832031 -6.578125 7.289062 -6.132812 7.625 -5.5625 C 7.957031 -5 8.125 -4.335938 8.125 -3.578125 C 8.125 -2.710938 7.9375 -2.003906 7.5625 -1.453125 C 7.1875 -0.898438 6.703125 -0.488281 6.109375 -0.21875 C 6.328125 -0.144531 6.597656 -0.0390625 6.921875 0.09375 C 7.242188 0.226562 7.570312 0.382812 7.90625 0.5625 C 8.789062 0.988281 9.550781 1.289062 10.1875 1.46875 C 10.832031 1.65625 11.40625 1.734375 11.90625 1.703125 C 12.40625 1.679688 12.890625 1.582031 13.359375 1.40625 Z M 4.21875 -0.203125 C 4.539062 -0.203125 4.875 -0.265625 5.21875 -0.390625 C 5.5625 -0.523438 5.882812 -0.726562 6.1875 -1 C 6.488281 -1.269531 6.726562 -1.617188 6.90625 -2.046875 C 7.082031 -2.484375 7.171875 -3.003906 7.171875 -3.609375 C 7.160156 -4.222656 7.03125 -4.785156 6.78125 -5.296875 C 6.539062 -5.804688 6.203125 -6.21875 5.765625 -6.53125 C 5.335938 -6.84375 4.835938 -7 4.265625 -7 C 3.941406 -6.988281 3.609375 -6.914062 3.265625 -6.78125 C 2.921875 -6.65625 2.597656 -6.457031 2.296875 -6.1875 C 2.003906 -5.914062 1.765625 -5.566406 1.578125 -5.140625 C 1.398438 -4.710938 1.316406 -4.191406 1.328125 -3.578125 C 1.335938 -3.128906 1.410156 -2.695312 1.546875 -2.28125 C 1.691406 -1.875 1.890625 -1.515625 2.140625 -1.203125 C 2.390625 -0.890625 2.691406 -0.640625 3.046875 -0.453125 C 3.398438 -0.273438 3.789062 -0.191406 4.21875 -0.203125 Z M 4.21875 -0.203125 "/></g></g></g><g fill="#000000" fill-opacity="1"><g transform="translate(69.304501, 9.804227)"><g><path d="M 7.421875 -6.96875 L 6.5625 -6.8125 C 6.550781 -6.550781 6.539062 -6.25 6.53125 -5.90625 C 6.519531 -5.570312 6.515625 -5.242188 6.515625 -4.921875 L 6.515625 -3.171875 C 6.515625 -2.078125 6.3125 -1.25 5.90625 -0.6875 C 5.5 -0.125 4.847656 0.15625 3.953125 0.15625 C 3.015625 0.15625 2.300781 -0.117188 1.8125 -0.671875 C 1.332031 -1.234375 1.09375 -2.0625 1.09375 -3.15625 L 1.09375 -4.875 C 1.09375 -5.175781 1.09375 -5.46875 1.09375 -5.75 C 1.09375 -6.039062 1.085938 -6.289062 1.078125 -6.5 C 1.054688 -6.707031 0.957031 -6.832031 0.78125 -6.875 C 0.601562 -6.925781 0.414062 -6.96875 0.21875 -7 L 0.265625 -7.25 L 1.390625 -7.1875 L 1.703125 -7.1875 L 2.96875 -7.234375 L 3.015625 -6.96875 L 2.03125 -6.78125 C 2.019531 -6.539062 2.007812 -6.253906 2 -5.921875 C 1.988281 -5.597656 1.984375 -5.25 1.984375 -4.875 L 1.984375 -3.171875 C 1.984375 -1.242188 2.671875 -0.28125 4.046875 -0.28125 C 5.453125 -0.28125 6.15625 -1.242188 6.15625 -3.171875 L 6.15625 -4.921875 C 6.15625 -5.210938 6.148438 -5.492188 6.140625 -5.765625 C 6.140625 -6.046875 6.140625 -6.289062 6.140625 -6.5 C 6.128906 -6.632812 6.0625 -6.734375 5.9375 -6.796875 C 5.820312 -6.859375 5.6875 -6.898438 5.53125 -6.921875 C 5.375 -6.953125 5.226562 -6.976562 5.09375 -7 L 5.140625 -7.25 L 6.28125 -7.1875 L 6.328125 -7.1875 L 7.375 -7.234375 Z M 7.421875 -6.96875 "/></g></g></g><g fill="#000000" fill-opacity="1"><g transform="translate(81.482485, 9.804227)"><g><path d="M 5.5625 -1.578125 L 5.875 -1.46875 L 5.4375 0.09375 C 5.25 0.0703125 5.082031 0.0507812 4.9375 0.03125 C 4.789062 0.0195312 4.617188 0.0078125 4.421875 0 L 1.71875 0 L 0.484375 0.046875 L 0.4375 -0.21875 L 1.390625 -0.390625 C 1.398438 -0.648438 1.410156 -0.941406 1.421875 -1.265625 C 1.441406 -1.585938 1.453125 -1.921875 1.453125 -2.265625 L 1.453125 -4.90625 C 1.453125 -5.195312 1.445312 -5.484375 1.4375 -5.765625 C 1.4375 -6.046875 1.425781 -6.289062 1.40625 -6.5 C 1.40625 -6.632812 1.351562 -6.726562 1.25 -6.78125 C 1.144531 -6.84375 1.019531 -6.882812 0.875 -6.90625 C 0.738281 -6.9375 0.601562 -6.96875 0.46875 -7 L 0.515625 -7.234375 L 1.828125 -7.1875 L 4.1875 -7.1875 C 4.382812 -7.195312 4.570312 -7.210938 4.75 -7.234375 C 4.9375 -7.253906 5.085938 -7.269531 5.203125 -7.28125 L 5.40625 -5.84375 L 5.109375 -5.75 L 4.765625 -6.78125 C 4.554688 -6.800781 4.234375 -6.816406 3.796875 -6.828125 C 3.367188 -6.835938 2.882812 -6.84375 2.34375 -6.84375 L 2.34375 -3.734375 C 2.78125 -3.734375 3.132812 -3.734375 3.40625 -3.734375 C 3.675781 -3.742188 3.882812 -3.753906 4.03125 -3.765625 C 4.15625 -3.773438 4.234375 -3.851562 4.265625 -4 C 4.304688 -4.15625 4.332031 -4.296875 4.34375 -4.421875 L 4.625 -4.375 L 4.609375 -3.6875 L 4.640625 -2.765625 L 4.359375 -2.71875 L 4.234375 -3.359375 C 4.085938 -3.367188 3.859375 -3.375 3.546875 -3.375 C 3.242188 -3.375 2.84375 -3.378906 2.34375 -3.390625 L 2.34375 -0.34375 L 4.984375 -0.375 Z M 5.5625 -1.578125 "/></g></g></g></g></g></svg>