<svg xmlns="http://www.w3.org/2000/svg" xmlns:xlink="http://www.w3.org/1999/xlink" width="500" zoomAndPan="magnify" viewBox="0 0 375 374.999991" height="500" preserveAspectRatio="xMidYMid meet" version="1.0"><defs><g/><clipPath id="5544ff5a83"><path d="M 18 2 L 22.761719 2 L 22.761719 7 L 18 7 Z M 18 2 " clip-rule="nonzero"/></clipPath><clipPath id="fff4cb0383"><rect x="0" width="23" y="0" height="9"/></clipPath><clipPath id="714613ea27"><rect x="0" width="30" y="0" height="9"/></clipPath></defs><rect x="-37.5" width="450" fill="#ffffff" y="-37.499999" height="449.999989" fill-opacity="1"/><rect x="-37.5" width="450" fill="#e4e2dd" y="-37.499999" height="449.999989" fill-opacity="1"/><g fill="#292929" fill-opacity="1"><g transform="translate(128.460934, 162.869411)"><g><path d="M 15.328125 -21.40625 C 15.328125 -22.382812 14.976562 -23.320312 14.28125 -24.21875 C 13.59375 -25.125 12.707031 -26.054688 11.625 -27.015625 C 10.539062 -27.972656 9.375 -29.015625 8.125 -30.140625 C 6.875 -31.265625 5.707031 -32.550781 4.625 -34 C 3.539062 -35.457031 2.648438 -37.144531 1.953125 -39.0625 C 1.265625 -40.988281 0.921875 -43.195312 0.921875 -45.6875 C 0.921875 -49.125 1.59375 -51.992188 2.9375 -54.296875 C 4.289062 -56.609375 6.039062 -58.359375 8.1875 -59.546875 C 10.332031 -60.734375 12.59375 -61.328125 14.96875 -61.328125 L 33.796875 -61.328125 L 33.796875 -42.9375 L 28.890625 -42.9375 C 28.066406 -42.9375 27.203125 -42.894531 26.296875 -42.8125 C 25.398438 -42.726562 24.644531 -42.457031 24.03125 -42 C 23.425781 -41.550781 23.125 -40.757812 23.125 -39.625 C 23.125 -38.632812 23.445312 -37.78125 24.09375 -37.0625 C 24.75 -36.351562 25.597656 -35.660156 26.640625 -34.984375 C 27.691406 -34.304688 28.796875 -33.539062 29.953125 -32.6875 C 31.117188 -31.832031 32.222656 -30.789062 33.265625 -29.5625 C 34.304688 -28.332031 35.15625 -26.796875 35.8125 -24.953125 C 36.46875 -23.117188 36.796875 -20.851562 36.796875 -18.15625 C 36.796875 -14.632812 36.117188 -11.503906 34.765625 -8.765625 C 33.421875 -6.023438 31.5 -3.878906 29 -2.328125 C 26.507812 -0.773438 23.546875 0 20.109375 0 L 1.78125 0 L 1.78125 -18.40625 L 8.828125 -18.40625 C 10.992188 -18.40625 12.617188 -18.617188 13.703125 -19.046875 C 14.785156 -19.472656 15.328125 -20.257812 15.328125 -21.40625 Z M 15.328125 -21.40625 "/></g></g></g><g fill="#292929" fill-opacity="1"><g transform="translate(160.164912, 162.869411)"><g><path d="M 0.921875 -42.984375 L 0.921875 -61.328125 L 40.78125 -61.328125 L 40.78125 -42.984375 L 30.046875 -42.984375 L 30.046875 0 L 11.65625 0 L 11.65625 -42.984375 Z M 0.921875 -42.984375 "/></g></g></g><g fill="#292929" fill-opacity="1"><g transform="translate(195.854969, 162.869411)"><g><path d="M 24.53125 0.921875 C 21.050781 0.921875 17.859375 0.347656 14.953125 -0.796875 C 12.054688 -1.941406 9.535156 -3.566406 7.390625 -5.671875 C 5.242188 -7.773438 3.578125 -10.296875 2.390625 -13.234375 C 1.203125 -16.179688 0.609375 -19.4375 0.609375 -23 C 0.609375 -26.476562 1.179688 -29.675781 2.328125 -32.59375 C 3.472656 -35.519531 5.109375 -38.046875 7.234375 -40.171875 C 9.359375 -42.296875 11.882812 -43.953125 14.8125 -45.140625 C 17.738281 -46.328125 20.976562 -46.921875 24.53125 -46.921875 C 28.007812 -46.921875 31.195312 -46.347656 34.09375 -45.203125 C 37 -44.054688 39.523438 -42.429688 41.671875 -40.328125 C 43.816406 -38.222656 45.484375 -35.695312 46.671875 -32.75 C 47.859375 -29.800781 48.453125 -26.550781 48.453125 -23 C 48.453125 -19.4375 47.859375 -16.179688 46.671875 -13.234375 C 45.484375 -10.296875 43.816406 -7.773438 41.671875 -5.671875 C 39.523438 -3.566406 37 -1.941406 34.09375 -0.796875 C 31.195312 0.347656 28.007812 0.921875 24.53125 0.921875 Z M 19.3125 -23.0625 C 19.3125 -21.507812 19.78125 -20.25 20.71875 -19.28125 C 21.664062 -18.320312 22.9375 -17.84375 24.53125 -17.84375 C 26.082031 -17.84375 27.347656 -18.320312 28.328125 -19.28125 C 29.316406 -20.25 29.8125 -21.507812 29.8125 -23.0625 C 29.8125 -24.65625 29.316406 -25.929688 28.328125 -26.890625 C 27.347656 -27.847656 26.082031 -28.328125 24.53125 -28.328125 C 22.976562 -28.328125 21.71875 -27.847656 20.75 -26.890625 C 19.789062 -25.929688 19.3125 -24.65625 19.3125 -23.0625 Z M 19.3125 -23.0625 "/></g></g></g><g fill="#292929" fill-opacity="1"><g transform="translate(128.460934, 253.825253)"><g><path d="M 1.34375 -89.078125 L 23.546875 -89.078125 L 38.875 -54.578125 L 38.875 -89.078125 L 61.171875 -89.078125 L 61.171875 0 L 38.796875 0 L 23.625 -34.15625 L 23.625 0 L 1.34375 0 Z M 1.34375 -89.078125 "/></g></g></g><g fill="#292929" fill-opacity="1"><g transform="translate(190.967622, 253.825253)"><g><path d="M 54.21875 0 L 1.34375 0 L 1.34375 -89.078125 L 54.21875 -89.078125 L 54.21875 -62.328125 L 28.09375 -62.328125 L 28.09375 -57.875 L 48.859375 -57.875 L 48.859375 -31.125 L 28.09375 -31.125 L 28.09375 -26.75 L 54.21875 -26.75 Z M 54.21875 0 "/></g></g></g><g transform="matrix(1, 0, 0, 1, 223, 100)"><g clip-path="url(#fff4cb0383)"><g fill="#292929" fill-opacity="1"><g transform="translate(1.448345, 6.644678)"><g><path d="M 1.859375 0.0625 C 1.554688 0.0625 1.289062 0.0234375 1.0625 -0.046875 C 0.832031 -0.117188 0.613281 -0.242188 0.40625 -0.421875 C 0.300781 -0.523438 0.25 -0.632812 0.25 -0.75 C 0.25 -0.84375 0.28125 -0.925781 0.34375 -1 C 0.414062 -1.070312 0.503906 -1.109375 0.609375 -1.109375 C 0.679688 -1.109375 0.75 -1.082031 0.8125 -1.03125 C 0.976562 -0.894531 1.140625 -0.796875 1.296875 -0.734375 C 1.453125 -0.671875 1.640625 -0.640625 1.859375 -0.640625 C 2.085938 -0.640625 2.285156 -0.691406 2.453125 -0.796875 C 2.617188 -0.898438 2.703125 -1.03125 2.703125 -1.1875 C 2.703125 -1.375 2.617188 -1.519531 2.453125 -1.625 C 2.285156 -1.726562 2.023438 -1.804688 1.671875 -1.859375 C 0.765625 -1.992188 0.3125 -2.410156 0.3125 -3.109375 C 0.3125 -3.367188 0.378906 -3.59375 0.515625 -3.78125 C 0.648438 -3.976562 0.832031 -4.125 1.0625 -4.21875 C 1.300781 -4.320312 1.566406 -4.375 1.859375 -4.375 C 2.117188 -4.375 2.363281 -4.332031 2.59375 -4.25 C 2.820312 -4.175781 3.007812 -4.078125 3.15625 -3.953125 C 3.28125 -3.859375 3.34375 -3.75 3.34375 -3.625 C 3.34375 -3.53125 3.304688 -3.445312 3.234375 -3.375 C 3.160156 -3.300781 3.078125 -3.265625 2.984375 -3.265625 C 2.921875 -3.265625 2.867188 -3.285156 2.828125 -3.328125 C 2.710938 -3.410156 2.5625 -3.488281 2.375 -3.5625 C 2.1875 -3.632812 2.015625 -3.671875 1.859375 -3.671875 C 1.597656 -3.671875 1.394531 -3.617188 1.25 -3.515625 C 1.113281 -3.421875 1.046875 -3.296875 1.046875 -3.140625 C 1.046875 -2.960938 1.117188 -2.828125 1.265625 -2.734375 C 1.410156 -2.648438 1.640625 -2.582031 1.953125 -2.53125 C 2.304688 -2.46875 2.585938 -2.382812 2.796875 -2.28125 C 3.003906 -2.1875 3.160156 -2.054688 3.265625 -1.890625 C 3.378906 -1.722656 3.4375 -1.503906 3.4375 -1.234375 C 3.4375 -0.972656 3.363281 -0.742188 3.21875 -0.546875 C 3.070312 -0.347656 2.875 -0.195312 2.625 -0.09375 C 2.382812 0.0078125 2.128906 0.0625 1.859375 0.0625 Z M 1.859375 0.0625 "/></g></g></g><g fill="#292929" fill-opacity="1"><g transform="translate(4.793883, 6.644678)"><g><path d="M 3.296875 -4.328125 C 3.410156 -4.328125 3.5 -4.289062 3.5625 -4.21875 C 3.632812 -4.15625 3.671875 -4.070312 3.671875 -3.96875 C 3.671875 -3.851562 3.632812 -3.765625 3.5625 -3.703125 C 3.5 -3.640625 3.410156 -3.609375 3.296875 -3.609375 L 2.328125 -3.609375 L 2.328125 -0.375 C 2.328125 -0.269531 2.285156 -0.179688 2.203125 -0.109375 C 2.128906 -0.0351562 2.035156 0 1.921875 0 C 1.804688 0 1.710938 -0.0351562 1.640625 -0.109375 C 1.566406 -0.179688 1.53125 -0.269531 1.53125 -0.375 L 1.53125 -3.609375 L 0.5625 -3.609375 C 0.445312 -3.609375 0.351562 -3.640625 0.28125 -3.703125 C 0.21875 -3.773438 0.1875 -3.863281 0.1875 -3.96875 C 0.1875 -4.070312 0.222656 -4.15625 0.296875 -4.21875 C 0.367188 -4.289062 0.457031 -4.328125 0.5625 -4.328125 Z M 3.296875 -4.328125 "/></g></g></g><g fill="#292929" fill-opacity="1"><g transform="translate(8.318428, 6.644678)"><g><path d="M 3.53125 -4.328125 C 3.632812 -4.328125 3.71875 -4.289062 3.78125 -4.21875 C 3.851562 -4.144531 3.890625 -4.054688 3.890625 -3.953125 L 3.890625 -1.71875 C 3.890625 -1.375 3.816406 -1.066406 3.671875 -0.796875 C 3.523438 -0.535156 3.320312 -0.332031 3.0625 -0.1875 C 2.800781 -0.0390625 2.503906 0.03125 2.171875 0.03125 C 1.835938 0.03125 1.539062 -0.0390625 1.28125 -0.1875 C 1.019531 -0.332031 0.816406 -0.535156 0.671875 -0.796875 C 0.535156 -1.066406 0.46875 -1.375 0.46875 -1.71875 L 0.46875 -3.953125 C 0.46875 -4.054688 0.503906 -4.144531 0.578125 -4.21875 C 0.648438 -4.289062 0.742188 -4.328125 0.859375 -4.328125 C 0.953125 -4.328125 1.035156 -4.289062 1.109375 -4.21875 C 1.191406 -4.144531 1.234375 -4.054688 1.234375 -3.953125 L 1.234375 -1.71875 C 1.234375 -1.519531 1.273438 -1.34375 1.359375 -1.1875 C 1.441406 -1.03125 1.554688 -0.910156 1.703125 -0.828125 C 1.847656 -0.742188 2.003906 -0.703125 2.171875 -0.703125 C 2.347656 -0.703125 2.515625 -0.742188 2.671875 -0.828125 C 2.828125 -0.910156 2.953125 -1.03125 3.046875 -1.1875 C 3.140625 -1.34375 3.1875 -1.519531 3.1875 -1.71875 L 3.1875 -3.953125 C 3.1875 -4.054688 3.21875 -4.144531 3.28125 -4.21875 C 3.34375 -4.289062 3.425781 -4.328125 3.53125 -4.328125 Z M 3.53125 -4.328125 "/></g></g></g><g fill="#292929" fill-opacity="1"><g transform="translate(12.330602, 6.644678)"><g><path d="M 2.3125 -4.328125 C 2.695312 -4.328125 3.03125 -4.226562 3.3125 -4.03125 C 3.59375 -3.84375 3.804688 -3.582031 3.953125 -3.25 C 4.097656 -2.925781 4.171875 -2.5625 4.171875 -2.15625 C 4.171875 -1.757812 4.097656 -1.394531 3.953125 -1.0625 C 3.804688 -0.738281 3.59375 -0.476562 3.3125 -0.28125 C 3.03125 -0.09375 2.695312 0 2.3125 0 L 0.84375 0 C 0.726562 0 0.632812 -0.0351562 0.5625 -0.109375 C 0.5 -0.179688 0.46875 -0.269531 0.46875 -0.375 L 0.46875 -3.9375 C 0.46875 -4.050781 0.5 -4.144531 0.5625 -4.21875 C 0.632812 -4.289062 0.726562 -4.328125 0.84375 -4.328125 Z M 2.25 -0.703125 C 2.625 -0.703125 2.898438 -0.835938 3.078125 -1.109375 C 3.265625 -1.390625 3.359375 -1.738281 3.359375 -2.15625 C 3.359375 -2.582031 3.265625 -2.929688 3.078125 -3.203125 C 2.890625 -3.472656 2.613281 -3.609375 2.25 -3.609375 L 1.234375 -3.609375 L 1.234375 -0.703125 Z M 2.25 -0.703125 "/></g></g></g><g fill="#292929" fill-opacity="1"><g transform="translate(16.404506, 6.644678)"><g><path d="M 1.234375 -0.375 C 1.234375 -0.269531 1.191406 -0.179688 1.109375 -0.109375 C 1.035156 -0.0351562 0.945312 0 0.84375 0 C 0.726562 0 0.632812 -0.0351562 0.5625 -0.109375 C 0.5 -0.179688 0.46875 -0.269531 0.46875 -0.375 L 0.46875 -3.9375 C 0.46875 -4.050781 0.503906 -4.144531 0.578125 -4.21875 C 0.648438 -4.289062 0.742188 -4.328125 0.859375 -4.328125 C 0.960938 -4.328125 1.050781 -4.289062 1.125 -4.21875 C 1.195312 -4.144531 1.234375 -4.050781 1.234375 -3.9375 Z M 1.234375 -0.375 "/></g></g></g><g clip-path="url(#5544ff5a83)"><g fill="#292929" fill-opacity="1"><g transform="translate(17.762477, 6.644678)"><g><path d="M 4.4375 -2.15625 C 4.4375 -1.75 4.34375 -1.375 4.15625 -1.03125 C 3.976562 -0.695312 3.726562 -0.429688 3.40625 -0.234375 C 3.09375 -0.0351562 2.738281 0.0625 2.34375 0.0625 C 1.9375 0.0625 1.570312 -0.0351562 1.25 -0.234375 C 0.9375 -0.429688 0.691406 -0.695312 0.515625 -1.03125 C 0.335938 -1.375 0.25 -1.75 0.25 -2.15625 C 0.25 -2.5625 0.335938 -2.9375 0.515625 -3.28125 C 0.691406 -3.625 0.9375 -3.890625 1.25 -4.078125 C 1.570312 -4.273438 1.9375 -4.375 2.34375 -4.375 C 2.738281 -4.375 3.09375 -4.273438 3.40625 -4.078125 C 3.726562 -3.890625 3.976562 -3.625 4.15625 -3.28125 C 4.34375 -2.9375 4.4375 -2.5625 4.4375 -2.15625 Z M 3.640625 -2.15625 C 3.640625 -2.4375 3.582031 -2.6875 3.46875 -2.90625 C 3.351562 -3.132812 3.195312 -3.3125 3 -3.4375 C 2.800781 -3.570312 2.582031 -3.640625 2.34375 -3.640625 C 2.09375 -3.640625 1.867188 -3.570312 1.671875 -3.4375 C 1.472656 -3.3125 1.316406 -3.132812 1.203125 -2.90625 C 1.097656 -2.6875 1.046875 -2.4375 1.046875 -2.15625 C 1.046875 -1.882812 1.097656 -1.632812 1.203125 -1.40625 C 1.316406 -1.175781 1.472656 -0.992188 1.671875 -0.859375 C 1.867188 -0.734375 2.09375 -0.671875 2.34375 -0.671875 C 2.582031 -0.671875 2.800781 -0.738281 3 -0.875 C 3.195312 -1.007812 3.351562 -1.1875 3.46875 -1.40625 C 3.582031 -1.632812 3.640625 -1.882812 3.640625 -2.15625 Z M 3.640625 -2.15625 "/></g></g></g></g></g></g><g transform="matrix(1, 0, 0, 1, 216, 105)"><g clip-path="url(#714613ea27)"><g fill="#292929" fill-opacity="1"><g transform="translate(0.797861, 7.107615)"><g><path d="M 2.90625 -0.703125 C 3.007812 -0.703125 3.097656 -0.664062 3.171875 -0.59375 C 3.242188 -0.53125 3.28125 -0.453125 3.28125 -0.359375 C 3.28125 -0.253906 3.242188 -0.164062 3.171875 -0.09375 C 3.097656 -0.03125 3.007812 0 2.90625 0 L 0.84375 0 C 0.726562 0 0.632812 -0.0351562 0.5625 -0.109375 C 0.5 -0.179688 0.46875 -0.269531 0.46875 -0.375 L 0.46875 -3.9375 C 0.46875 -4.050781 0.5 -4.144531 0.5625 -4.21875 C 0.632812 -4.289062 0.726562 -4.328125 0.84375 -4.328125 L 2.90625 -4.328125 C 3.007812 -4.328125 3.097656 -4.289062 3.171875 -4.21875 C 3.242188 -4.144531 3.28125 -4.054688 3.28125 -3.953125 C 3.28125 -3.847656 3.242188 -3.765625 3.171875 -3.703125 C 3.109375 -3.640625 3.019531 -3.609375 2.90625 -3.609375 L 1.234375 -3.609375 L 1.234375 -2.5625 L 2.625 -2.5625 C 2.738281 -2.5625 2.828125 -2.523438 2.890625 -2.453125 C 2.960938 -2.390625 3 -2.304688 3 -2.203125 C 3 -2.097656 2.960938 -2.015625 2.890625 -1.953125 C 2.828125 -1.890625 2.738281 -1.859375 2.625 -1.859375 L 1.234375 -1.859375 L 1.234375 -0.703125 Z M 2.90625 -0.703125 "/></g></g></g><g fill="#292929" fill-opacity="1"><g transform="translate(3.989085, 7.107615)"><g><path d="M 1.859375 0.0625 C 1.554688 0.0625 1.289062 0.0234375 1.0625 -0.046875 C 0.832031 -0.117188 0.613281 -0.242188 0.40625 -0.421875 C 0.300781 -0.523438 0.25 -0.632812 0.25 -0.75 C 0.25 -0.84375 0.28125 -0.925781 0.34375 -1 C 0.414062 -1.070312 0.503906 -1.109375 0.609375 -1.109375 C 0.679688 -1.109375 0.75 -1.082031 0.8125 -1.03125 C 0.976562 -0.894531 1.140625 -0.796875 1.296875 -0.734375 C 1.453125 -0.671875 1.640625 -0.640625 1.859375 -0.640625 C 2.085938 -0.640625 2.285156 -0.691406 2.453125 -0.796875 C 2.617188 -0.898438 2.703125 -1.03125 2.703125 -1.1875 C 2.703125 -1.375 2.617188 -1.519531 2.453125 -1.625 C 2.285156 -1.726562 2.023438 -1.804688 1.671875 -1.859375 C 0.765625 -1.992188 0.3125 -2.410156 0.3125 -3.109375 C 0.3125 -3.367188 0.378906 -3.59375 0.515625 -3.78125 C 0.648438 -3.976562 0.832031 -4.125 1.0625 -4.21875 C 1.300781 -4.320312 1.566406 -4.375 1.859375 -4.375 C 2.117188 -4.375 2.363281 -4.332031 2.59375 -4.25 C 2.820312 -4.175781 3.007812 -4.078125 3.15625 -3.953125 C 3.28125 -3.859375 3.34375 -3.75 3.34375 -3.625 C 3.34375 -3.53125 3.304688 -3.445312 3.234375 -3.375 C 3.160156 -3.300781 3.078125 -3.265625 2.984375 -3.265625 C 2.921875 -3.265625 2.867188 -3.285156 2.828125 -3.328125 C 2.710938 -3.410156 2.5625 -3.488281 2.375 -3.5625 C 2.1875 -3.632812 2.015625 -3.671875 1.859375 -3.671875 C 1.597656 -3.671875 1.394531 -3.617188 1.25 -3.515625 C 1.113281 -3.421875 1.046875 -3.296875 1.046875 -3.140625 C 1.046875 -2.960938 1.117188 -2.828125 1.265625 -2.734375 C 1.410156 -2.648438 1.640625 -2.582031 1.953125 -2.53125 C 2.304688 -2.46875 2.585938 -2.382812 2.796875 -2.28125 C 3.003906 -2.1875 3.160156 -2.054688 3.265625 -1.890625 C 3.378906 -1.722656 3.4375 -1.503906 3.4375 -1.234375 C 3.4375 -0.972656 3.363281 -0.742188 3.21875 -0.546875 C 3.070312 -0.347656 2.875 -0.195312 2.625 -0.09375 C 2.382812 0.0078125 2.128906 0.0625 1.859375 0.0625 Z M 1.859375 0.0625 "/></g></g></g><g fill="#292929" fill-opacity="1"><g transform="translate(7.334623, 7.107615)"><g><path d="M 3.296875 -4.328125 C 3.410156 -4.328125 3.5 -4.289062 3.5625 -4.21875 C 3.632812 -4.15625 3.671875 -4.070312 3.671875 -3.96875 C 3.671875 -3.851562 3.632812 -3.765625 3.5625 -3.703125 C 3.5 -3.640625 3.410156 -3.609375 3.296875 -3.609375 L 2.328125 -3.609375 L 2.328125 -0.375 C 2.328125 -0.269531 2.285156 -0.179688 2.203125 -0.109375 C 2.128906 -0.0351562 2.035156 0 1.921875 0 C 1.804688 0 1.710938 -0.0351562 1.640625 -0.109375 C 1.566406 -0.179688 1.53125 -0.269531 1.53125 -0.375 L 1.53125 -3.609375 L 0.5625 -3.609375 C 0.445312 -3.609375 0.351562 -3.640625 0.28125 -3.703125 C 0.21875 -3.773438 0.1875 -3.863281 0.1875 -3.96875 C 0.1875 -4.070312 0.222656 -4.15625 0.296875 -4.21875 C 0.367188 -4.289062 0.457031 -4.328125 0.5625 -4.328125 Z M 3.296875 -4.328125 "/></g></g></g><g fill="#292929" fill-opacity="1"><g transform="translate(10.859168, 7.107615)"><g><path d="M 2.3125 -4.328125 C 2.695312 -4.328125 3.03125 -4.226562 3.3125 -4.03125 C 3.59375 -3.84375 3.804688 -3.582031 3.953125 -3.25 C 4.097656 -2.925781 4.171875 -2.5625 4.171875 -2.15625 C 4.171875 -1.757812 4.097656 -1.394531 3.953125 -1.0625 C 3.804688 -0.738281 3.59375 -0.476562 3.3125 -0.28125 C 3.03125 -0.09375 2.695312 0 2.3125 0 L 0.84375 0 C 0.726562 0 0.632812 -0.0351562 0.5625 -0.109375 C 0.5 -0.179688 0.46875 -0.269531 0.46875 -0.375 L 0.46875 -3.9375 C 0.46875 -4.050781 0.5 -4.144531 0.5625 -4.21875 C 0.632812 -4.289062 0.726562 -4.328125 0.84375 -4.328125 Z M 2.25 -0.703125 C 2.625 -0.703125 2.898438 -0.835938 3.078125 -1.109375 C 3.265625 -1.390625 3.359375 -1.738281 3.359375 -2.15625 C 3.359375 -2.582031 3.265625 -2.929688 3.078125 -3.203125 C 2.890625 -3.472656 2.613281 -3.609375 2.25 -3.609375 L 1.234375 -3.609375 L 1.234375 -0.703125 Z M 2.25 -0.703125 "/></g></g></g><g fill="#292929" fill-opacity="1"><g transform="translate(14.933072, 7.107615)"><g/></g></g><g fill="#292929" fill-opacity="1"><g transform="translate(16.321912, 7.107615)"><g><path d="M 2.78125 -0.671875 C 2.875 -0.671875 2.953125 -0.640625 3.015625 -0.578125 C 3.085938 -0.515625 3.125 -0.429688 3.125 -0.328125 C 3.125 -0.234375 3.085938 -0.15625 3.015625 -0.09375 C 2.953125 -0.03125 2.875 0 2.78125 0 L 0.671875 0 C 0.566406 0 0.484375 -0.03125 0.421875 -0.09375 C 0.359375 -0.164062 0.328125 -0.253906 0.328125 -0.359375 C 0.328125 -0.453125 0.363281 -0.539062 0.4375 -0.625 L 1.796875 -2.0625 C 1.941406 -2.226562 2.054688 -2.394531 2.140625 -2.5625 C 2.234375 -2.726562 2.28125 -2.878906 2.28125 -3.015625 C 2.28125 -3.203125 2.210938 -3.363281 2.078125 -3.5 C 1.953125 -3.632812 1.800781 -3.703125 1.625 -3.703125 C 1.507812 -3.703125 1.390625 -3.660156 1.265625 -3.578125 C 1.148438 -3.503906 1.039062 -3.398438 0.9375 -3.265625 C 0.863281 -3.160156 0.769531 -3.109375 0.65625 -3.109375 C 0.5625 -3.109375 0.476562 -3.144531 0.40625 -3.21875 C 0.332031 -3.289062 0.296875 -3.367188 0.296875 -3.453125 C 0.296875 -3.515625 0.3125 -3.578125 0.34375 -3.640625 C 0.382812 -3.703125 0.445312 -3.773438 0.53125 -3.859375 C 0.6875 -4.015625 0.867188 -4.140625 1.078125 -4.234375 C 1.285156 -4.328125 1.484375 -4.375 1.671875 -4.375 C 1.941406 -4.375 2.179688 -4.316406 2.390625 -4.203125 C 2.597656 -4.085938 2.753906 -3.929688 2.859375 -3.734375 C 2.972656 -3.535156 3.03125 -3.304688 3.03125 -3.046875 C 3.03125 -2.796875 2.960938 -2.535156 2.828125 -2.265625 C 2.691406 -2.003906 2.515625 -1.753906 2.296875 -1.515625 L 1.5 -0.671875 Z M 2.78125 -0.671875 "/></g></g></g><g fill="#292929" fill-opacity="1"><g transform="translate(19.290929, 7.107615)"><g><path d="M 1.890625 0.0625 C 1.546875 0.0625 1.25 -0.03125 1 -0.21875 C 0.75 -0.40625 0.5625 -0.664062 0.4375 -1 C 0.3125 -1.332031 0.25 -1.71875 0.25 -2.15625 C 0.25 -2.601562 0.3125 -2.992188 0.4375 -3.328125 C 0.5625 -3.660156 0.75 -3.914062 1 -4.09375 C 1.25 -4.28125 1.546875 -4.375 1.890625 -4.375 C 2.234375 -4.375 2.53125 -4.28125 2.78125 -4.09375 C 3.03125 -3.914062 3.21875 -3.660156 3.34375 -3.328125 C 3.476562 -2.992188 3.546875 -2.601562 3.546875 -2.15625 C 3.546875 -1.71875 3.476562 -1.332031 3.34375 -1 C 3.21875 -0.664062 3.03125 -0.40625 2.78125 -0.21875 C 2.53125 -0.03125 2.234375 0.0625 1.890625 0.0625 Z M 1.890625 -0.671875 C 2.160156 -0.671875 2.367188 -0.796875 2.515625 -1.046875 C 2.660156 -1.304688 2.734375 -1.675781 2.734375 -2.15625 C 2.734375 -2.644531 2.660156 -3.015625 2.515625 -3.265625 C 2.367188 -3.515625 2.160156 -3.640625 1.890625 -3.640625 C 1.628906 -3.640625 1.421875 -3.515625 1.265625 -3.265625 C 1.117188 -3.015625 1.046875 -2.644531 1.046875 -2.15625 C 1.046875 -1.675781 1.117188 -1.304688 1.265625 -1.046875 C 1.421875 -0.796875 1.628906 -0.671875 1.890625 -0.671875 Z M 1.890625 -0.671875 "/></g></g></g><g fill="#292929" fill-opacity="1"><g transform="translate(22.741405, 7.107615)"><g><path d="M 2.78125 -0.671875 C 2.875 -0.671875 2.953125 -0.640625 3.015625 -0.578125 C 3.085938 -0.515625 3.125 -0.429688 3.125 -0.328125 C 3.125 -0.234375 3.085938 -0.15625 3.015625 -0.09375 C 2.953125 -0.03125 2.875 0 2.78125 0 L 0.671875 0 C 0.566406 0 0.484375 -0.03125 0.421875 -0.09375 C 0.359375 -0.164062 0.328125 -0.253906 0.328125 -0.359375 C 0.328125 -0.453125 0.363281 -0.539062 0.4375 -0.625 L 1.796875 -2.0625 C 1.941406 -2.226562 2.054688 -2.394531 2.140625 -2.5625 C 2.234375 -2.726562 2.28125 -2.878906 2.28125 -3.015625 C 2.28125 -3.203125 2.210938 -3.363281 2.078125 -3.5 C 1.953125 -3.632812 1.800781 -3.703125 1.625 -3.703125 C 1.507812 -3.703125 1.390625 -3.660156 1.265625 -3.578125 C 1.148438 -3.503906 1.039062 -3.398438 0.9375 -3.265625 C 0.863281 -3.160156 0.769531 -3.109375 0.65625 -3.109375 C 0.5625 -3.109375 0.476562 -3.144531 0.40625 -3.21875 C 0.332031 -3.289062 0.296875 -3.367188 0.296875 -3.453125 C 0.296875 -3.515625 0.3125 -3.578125 0.34375 -3.640625 C 0.382812 -3.703125 0.445312 -3.773438 0.53125 -3.859375 C 0.6875 -4.015625 0.867188 -4.140625 1.078125 -4.234375 C 1.285156 -4.328125 1.484375 -4.375 1.671875 -4.375 C 1.941406 -4.375 2.179688 -4.316406 2.390625 -4.203125 C 2.597656 -4.085938 2.753906 -3.929688 2.859375 -3.734375 C 2.972656 -3.535156 3.03125 -3.304688 3.03125 -3.046875 C 3.03125 -2.796875 2.960938 -2.535156 2.828125 -2.265625 C 2.691406 -2.003906 2.515625 -1.753906 2.296875 -1.515625 L 1.5 -0.671875 Z M 2.78125 -0.671875 "/></g></g></g><g fill="#292929" fill-opacity="1"><g transform="translate(25.710422, 7.107615)"><g><path d="M 1.828125 -2.734375 C 2.054688 -2.734375 2.253906 -2.671875 2.421875 -2.546875 C 2.597656 -2.421875 2.734375 -2.257812 2.828125 -2.0625 C 2.921875 -1.863281 2.96875 -1.648438 2.96875 -1.421875 C 2.96875 -1.117188 2.898438 -0.851562 2.765625 -0.625 C 2.628906 -0.40625 2.4375 -0.234375 2.1875 -0.109375 C 1.945312 0.00390625 1.660156 0.0625 1.328125 0.0625 C 1.179688 0.0625 1.035156 0.0390625 0.890625 0 C 0.742188 -0.03125 0.613281 -0.078125 0.5 -0.140625 C 0.34375 -0.222656 0.265625 -0.332031 0.265625 -0.46875 C 0.265625 -0.570312 0.300781 -0.664062 0.375 -0.75 C 0.445312 -0.832031 0.53125 -0.875 0.625 -0.875 C 0.707031 -0.875 0.796875 -0.84375 0.890625 -0.78125 C 1.066406 -0.644531 1.265625 -0.578125 1.484375 -0.578125 C 1.609375 -0.578125 1.726562 -0.609375 1.84375 -0.671875 C 1.957031 -0.734375 2.050781 -0.820312 2.125 -0.9375 C 2.195312 -1.0625 2.234375 -1.203125 2.234375 -1.359375 C 2.234375 -1.585938 2.164062 -1.757812 2.03125 -1.875 C 1.894531 -2 1.734375 -2.0625 1.546875 -2.0625 C 1.460938 -2.0625 1.390625 -2.050781 1.328125 -2.03125 C 1.265625 -2.019531 1.226562 -2.015625 1.21875 -2.015625 C 1.113281 -1.984375 1.023438 -1.96875 0.953125 -1.96875 C 0.867188 -1.96875 0.796875 -2 0.734375 -2.0625 C 0.679688 -2.125 0.65625 -2.203125 0.65625 -2.296875 C 0.65625 -2.347656 0.664062 -2.394531 0.6875 -2.4375 C 0.707031 -2.488281 0.742188 -2.539062 0.796875 -2.59375 L 1.75 -3.640625 L 0.53125 -3.640625 C 0.425781 -3.640625 0.34375 -3.671875 0.28125 -3.734375 C 0.21875 -3.804688 0.1875 -3.890625 0.1875 -3.984375 C 0.1875 -4.078125 0.21875 -4.15625 0.28125 -4.21875 C 0.34375 -4.289062 0.425781 -4.328125 0.53125 -4.328125 L 2.421875 -4.328125 C 2.546875 -4.328125 2.640625 -4.289062 2.703125 -4.21875 C 2.765625 -4.144531 2.796875 -4.054688 2.796875 -3.953125 C 2.796875 -3.847656 2.75 -3.75 2.65625 -3.65625 Z M 1.828125 -2.734375 "/></g></g></g></g></g></svg>