<svg xmlns="http://www.w3.org/2000/svg" xmlns:xlink="http://www.w3.org/1999/xlink" width="500" zoomAndPan="magnify" viewBox="0 0 375 374.999991" height="500" preserveAspectRatio="xMidYMid meet" version="1.0"><defs><g/><clipPath id="921b6136bd"><path d="M 170.421875 82.796875 L 294.921875 82.796875 L 294.921875 225.296875 L 170.421875 225.296875 Z M 170.421875 82.796875 " clip-rule="nonzero"/></clipPath><clipPath id="d709d55c8f"><path d="M 181 174 L 286 174 L 286 238 L 181 238 Z M 181 174 " clip-rule="nonzero"/></clipPath><clipPath id="9a18a60730"><path d="M 179.9375 186.035156 L 280.492188 172.527344 L 287.664062 225.933594 L 187.109375 239.441406 Z M 179.9375 186.035156 " clip-rule="nonzero"/></clipPath><clipPath id="2ff15cfa1f"><path d="M 192.574219 184.335938 L 267.734375 174.238281 C 271.085938 173.789062 274.476562 174.6875 277.164062 176.738281 C 279.855469 178.792969 281.617188 181.828125 282.066406 185.179688 L 285.847656 213.3125 C 286.296875 216.664062 285.398438 220.054688 283.347656 222.746094 C 281.292969 225.433594 278.257812 227.195312 274.90625 227.644531 L 199.746094 237.742188 C 196.394531 238.191406 193.003906 237.292969 190.316406 235.242188 C 187.625 233.191406 185.863281 230.15625 185.414062 226.804688 L 181.632812 198.671875 C 181.183594 195.320312 182.082031 191.925781 184.136719 189.238281 C 186.1875 186.550781 189.222656 184.785156 192.574219 184.335938 Z M 192.574219 184.335938 " clip-rule="nonzero"/></clipPath><clipPath id="2fe13d5dd0"><path d="M 0 0 L 105 0 L 105 64 L 0 64 Z M 0 0 " clip-rule="nonzero"/></clipPath><clipPath id="761fe21da1"><path d="M -1.0625 12.035156 L 99.492188 -1.472656 L 106.664062 51.933594 L 6.109375 65.441406 Z M -1.0625 12.035156 " clip-rule="nonzero"/></clipPath><clipPath id="dec9d050d7"><path d="M 11.574219 10.335938 L 86.734375 0.238281 C 90.085938 -0.210938 93.476562 0.6875 96.164062 2.738281 C 98.855469 4.792969 100.617188 7.828125 101.066406 11.179688 L 104.847656 39.3125 C 105.296875 42.664062 104.398438 46.054688 102.347656 48.746094 C 100.292969 51.433594 97.257812 53.195312 93.90625 53.644531 L 18.746094 63.742188 C 15.394531 64.191406 12.003906 63.292969 9.316406 61.242188 C 6.625 59.191406 4.863281 56.15625 4.414062 52.804688 L 0.632812 24.671875 C 0.183594 21.320312 1.082031 17.925781 3.136719 15.238281 C 5.1875 12.550781 8.222656 10.785156 11.574219 10.335938 Z M 11.574219 10.335938 " clip-rule="nonzero"/></clipPath><clipPath id="ddafbebcf5"><rect x="0" width="105" y="0" height="64"/></clipPath><clipPath id="2ef36987fd"><rect x="0" width="53" y="0" height="13"/></clipPath><clipPath id="82c13fca56"><rect x="0" width="236" y="0" height="125"/></clipPath></defs><rect x="-37.5" width="450" fill="#ffffff" y="-37.499999" height="449.999989" fill-opacity="1"/><rect x="-37.5" width="450" fill="#ffffff" y="-37.499999" height="449.999989" fill-opacity="1"/><g clip-path="url(#921b6136bd)"><path fill="#272727" d="M 208.953125 121.632812 C 209.039062 121.648438 209.082031 121.59375 209.125 121.535156 C 209.511719 121.003906 209.90625 120.476562 210.289062 119.941406 C 210.8125 119.214844 211.285156 118.460938 211.640625 117.636719 C 211.679688 117.550781 211.71875 117.464844 211.765625 117.382812 C 212.390625 116.320312 212.75 115.15625 213.089844 113.980469 C 213.582031 112.261719 214.125 110.5625 214.640625 108.851562 C 215.023438 107.59375 215.390625 106.332031 215.839844 105.09375 C 216.292969 103.851562 216.855469 102.667969 217.476562 101.507812 C 217.53125 101.410156 217.621094 101.324219 217.605469 101.195312 C 217.429688 101.164062 217.371094 101.316406 217.28125 101.40625 C 216.328125 102.351562 215.496094 103.402344 214.742188 104.511719 C 213.523438 106.296875 212.324219 108.097656 211.117188 109.890625 C 210.90625 110.199219 210.679688 110.5 210.453125 110.800781 C 210.355469 110.933594 210.242188 111.050781 210.085938 111.121094 C 209.796875 111.25 209.492188 111.042969 209.503906 110.730469 C 209.511719 110.53125 209.601562 110.367188 209.699219 110.207031 C 210.382812 109.082031 211.0625 107.957031 211.753906 106.835938 C 212.234375 106.054688 212.726562 105.28125 213.214844 104.507812 C 214.285156 102.8125 215.46875 101.207031 216.941406 99.835938 C 218.386719 98.488281 220.027344 97.460938 221.921875 96.859375 C 222.53125 96.667969 223.152344 96.535156 223.785156 96.503906 C 224.417969 96.472656 225.054688 96.558594 225.65625 96.777344 C 225.851562 96.847656 226.042969 96.957031 226.203125 97.089844 C 227.238281 97.953125 226.996094 98.984375 226.117188 99.71875 C 226.097656 99.734375 226.078125 99.746094 226.054688 99.757812 C 225.800781 99.917969 225.492188 99.945312 225.328125 99.804688 C 225.109375 99.617188 225.066406 99.375 225.160156 99.101562 C 225.175781 99.058594 225.195312 99.015625 225.210938 98.96875 C 225.339844 98.546875 225.226562 98.304688 224.824219 98.140625 C 224.578125 98.039062 224.316406 98.050781 224.0625 98.082031 C 222.738281 98.238281 221.570312 98.738281 220.59375 99.65625 C 220.058594 100.15625 219.597656 100.71875 219.199219 101.335938 C 218.523438 102.382812 217.949219 103.484375 217.464844 104.636719 C 216.6875 106.476562 216.113281 108.386719 215.523438 110.378906 C 215.78125 110.265625 215.875 110.074219 216.023438 109.953125 C 216.410156 109.636719 216.769531 109.605469 217.1875 109.878906 C 217.425781 110.035156 217.609375 110.246094 217.785156 110.46875 C 218.304688 111.132812 218.589844 111.898438 218.742188 112.714844 C 218.796875 112.992188 218.847656 113.269531 218.902344 113.546875 C 218.941406 113.757812 219.0625 113.886719 219.277344 113.90625 C 220.640625 114.039062 221.945312 114.441406 223.261719 114.777344 C 223.695312 114.886719 224.121094 115.03125 224.523438 115.222656 C 225.332031 115.601562 225.6875 116.277344 225.777344 117.125 C 225.804688 117.367188 225.726562 117.59375 225.640625 117.8125 C 225.488281 118.210938 225.207031 118.367188 224.800781 118.214844 C 224.246094 118 223.660156 117.941406 223.09375 117.785156 C 221.777344 117.417969 220.421875 117.269531 219.085938 117 C 218.742188 116.929688 218.652344 117 218.484375 117.332031 C 218.058594 118.167969 217.640625 119.011719 217.199219 119.839844 C 216.691406 120.773438 215.976562 121.5625 215.320312 122.386719 C 215.070312 122.699219 214.808594 123.003906 214.566406 123.320312 C 214.429688 123.496094 214.5 123.628906 214.734375 123.644531 C 214.945312 123.65625 215.15625 123.65625 215.367188 123.65625 C 216.09375 123.65625 216.824219 123.644531 217.550781 123.65625 C 219.152344 123.6875 220.742188 123.554688 222.332031 123.410156 C 223.175781 123.335938 224.019531 123.300781 224.859375 123.214844 C 225.492188 123.152344 226.121094 123.058594 226.757812 123.082031 C 226.921875 123.089844 227.085938 123.085938 227.25 123.109375 C 227.992188 123.214844 228.414062 123.753906 228.304688 124.503906 C 228.128906 125.707031 227.570312 126.683594 226.488281 127.292969 C 225.8125 127.675781 225.105469 127.992188 224.332031 128.128906 C 223.804688 128.222656 223.285156 128.339844 222.664062 128.464844 C 222.953125 128.667969 223.199219 128.707031 223.445312 128.714844 C 223.777344 128.726562 224.097656 128.785156 224.414062 128.875 C 224.621094 128.933594 224.8125 129.023438 224.976562 129.164062 C 225.246094 129.398438 225.367188 129.683594 225.285156 130.042969 C 225.191406 130.464844 225 130.835938 224.722656 131.164062 C 223.882812 132.167969 222.800781 132.730469 221.511719 132.886719 C 220.8125 132.972656 220.109375 133.023438 219.402344 133.042969 C 218.460938 133.066406 217.53125 133.214844 216.625 133.472656 C 215.851562 133.691406 215.15625 134.070312 214.5 134.550781 C 213.40625 135.347656 212.613281 136.355469 212.117188 137.621094 C 211.6875 138.714844 211.328125 139.832031 210.945312 140.941406 C 210.882812 141.125 210.859375 141.308594 210.894531 141.5 C 211.019531 142.128906 210.996094 142.761719 210.988281 143.398438 C 210.976562 144.160156 211.117188 144.890625 211.351562 145.609375 C 211.707031 146.707031 212.054688 147.804688 212.402344 148.898438 C 212.726562 149.910156 212.976562 150.9375 213.109375 151.988281 C 213.1875 152.621094 213.472656 153.089844 213.976562 153.445312 C 214.804688 154.023438 215.628906 154.605469 216.527344 155.074219 C 217.195312 155.417969 217.859375 155.769531 218.523438 156.128906 C 218.917969 156.339844 219.320312 156.519531 219.75 156.65625 C 220.800781 156.988281 221.847656 157.335938 222.863281 157.777344 C 224.097656 158.316406 225.398438 158.621094 226.734375 158.789062 C 227.296875 158.859375 227.855469 158.890625 228.417969 158.914062 C 229.25 158.953125 230.058594 158.828125 230.855469 158.601562 C 231.941406 158.296875 233.015625 157.960938 234.015625 157.425781 C 234.554688 157.136719 235.132812 156.925781 235.664062 156.625 C 237.449219 155.605469 239.089844 154.398438 240.441406 152.828125 C 240.933594 152.261719 241.484375 151.746094 241.96875 151.171875 C 243.246094 149.652344 244.296875 147.988281 245.21875 146.234375 C 246.148438 144.464844 247 142.660156 247.84375 140.847656 C 248.011719 140.488281 248.136719 140.105469 248.261719 139.726562 C 248.460938 139.125 248.648438 138.519531 248.828125 137.910156 C 248.914062 137.617188 248.972656 137.316406 249.027344 137.019531 C 249.125 136.511719 249.1875 135.992188 249.390625 135.515625 C 249.765625 134.636719 249.890625 133.707031 249.964844 132.769531 C 250.042969 131.808594 250.125 130.847656 250.105469 129.886719 C 250.066406 127.820312 249.992188 125.757812 249.621094 123.710938 C 249.375 122.351562 249.210938 120.972656 249.039062 119.597656 C 248.824219 117.894531 248.550781 116.203125 248.242188 114.515625 C 248.035156 113.359375 247.839844 112.203125 247.589844 111.054688 C 247.222656 109.351562 246.679688 107.699219 245.988281 106.097656 C 245.746094 105.539062 245.464844 104.996094 245.148438 104.472656 C 245.003906 104.230469 244.871094 103.980469 244.75 103.726562 C 244.691406 103.601562 244.660156 103.460938 244.644531 103.324219 C 244.621094 103.144531 244.726562 102.976562 244.871094 102.921875 C 245.015625 102.867188 245.148438 102.898438 245.265625 102.992188 C 245.335938 103.050781 245.398438 103.125 245.457031 103.195312 C 245.988281 103.859375 246.476562 104.546875 246.863281 105.304688 C 247.910156 107.375 248.644531 109.546875 249.066406 111.824219 C 249.523438 114.296875 249.96875 116.769531 250.292969 119.261719 C 250.460938 120.566406 250.601562 121.875 250.777344 123.179688 C 250.894531 124.039062 251.046875 124.894531 251.109375 125.761719 C 251.140625 126.183594 251.160156 126.605469 251.199219 127.027344 C 251.207031 127.128906 251.289062 127.195312 251.398438 127.148438 C 251.503906 127.101562 251.601562 127.03125 251.699219 126.96875 C 252.136719 126.671875 252.621094 126.503906 253.128906 126.394531 C 254.792969 126.035156 256.273438 127.140625 256.394531 128.84375 C 256.425781 129.285156 256.398438 129.734375 256.355469 130.179688 C 256.316406 130.644531 256.214844 131.105469 256.160156 131.574219 C 256.085938 132.183594 255.9375 132.773438 255.734375 133.351562 C 255.164062 134.96875 254.703125 136.621094 254.113281 138.234375 C 253.785156 139.136719 253.5625 140.078125 253.296875 141.003906 C 253.109375 141.664062 252.878906 142.300781 252.582031 142.914062 C 251.96875 144.183594 249.875 144.867188 248.570312 143.773438 C 248.5 143.710938 248.429688 143.648438 248.351562 143.597656 C 248.238281 143.519531 248.125 143.53125 248.046875 143.644531 C 247.96875 143.761719 247.902344 143.886719 247.835938 144.011719 C 247.300781 145.003906 246.765625 145.996094 246.238281 146.996094 C 245.558594 148.289062 244.789062 149.527344 243.871094 150.660156 C 243.308594 151.351562 243.121094 152.109375 243.179688 152.949219 C 243.242188 153.816406 243.316406 154.683594 243.488281 155.535156 C 243.59375 156.042969 243.699219 156.546875 243.796875 157.054688 C 244.390625 160.226562 245.257812 163.320312 246.34375 166.359375 C 246.46875 166.710938 246.617188 167.058594 246.753906 167.40625 C 246.84375 167.640625 247.011719 167.800781 247.246094 167.882812 C 248.441406 168.296875 249.585938 168.859375 250.839844 169.113281 C 251.367188 169.222656 251.878906 169.40625 252.394531 169.574219 C 253.179688 169.828125 253.976562 170.015625 254.789062 170.152344 C 255.992188 170.355469 257.191406 170.59375 258.390625 170.804688 C 259.824219 171.0625 261.257812 171.324219 262.695312 171.550781 C 263.574219 171.6875 264.464844 171.769531 265.351562 171.867188 C 266.84375 172.03125 268.351562 172.066406 269.847656 172.1875 C 271.726562 172.34375 273.601562 172.300781 275.480469 172.3125 C 276.585938 172.316406 277.6875 172.386719 278.789062 172.421875 C 279.964844 172.457031 281.140625 172.449219 282.3125 172.433594 C 283.382812 172.417969 284.421875 172.585938 285.445312 172.867188 C 286.234375 173.089844 287.019531 173.332031 287.808594 173.5625 C 288.847656 173.863281 289.753906 174.386719 290.546875 175.109375 C 291.046875 175.570312 291.578125 176 292.023438 176.523438 C 293.160156 177.859375 293.878906 179.40625 294.296875 181.085938 C 294.597656 182.289062 294.863281 183.511719 294.957031 184.757812 C 294.980469 185.085938 295.023438 185.414062 295.027344 185.742188 C 295.042969 187.714844 295.046875 189.6875 295.054688 191.664062 C 295.0625 193.4375 294.757812 195.171875 294.410156 196.898438 C 294.03125 198.765625 293.578125 200.613281 293.074219 202.449219 C 292.214844 205.574219 291.441406 208.722656 290.679688 211.875 C 290.308594 213.402344 289.90625 214.925781 289.527344 216.453125 C 289.242188 217.601562 288.753906 218.671875 288.234375 219.722656 C 287.804688 220.585938 287.339844 221.429688 286.886719 222.28125 C 286.777344 222.488281 286.6875 222.710938 286.488281 222.851562 C 286.4375 222.886719 286.355469 222.894531 286.289062 222.886719 C 286.183594 222.871094 286.132812 222.78125 286.121094 222.6875 C 286.089844 222.46875 286.199219 222.277344 286.277344 222.082031 C 286.546875 221.40625 286.808594 220.726562 287.09375 220.054688 C 287.855469 218.25 288.351562 216.371094 288.769531 214.460938 C 289.308594 211.980469 289.867188 209.507812 290.449219 207.039062 C 291.019531 204.613281 291.632812 202.199219 292.21875 199.78125 C 292.710938 197.769531 293.144531 195.75 293.382812 193.691406 C 293.476562 192.875 293.546875 192.050781 293.542969 191.234375 C 293.527344 189.1875 293.488281 187.144531 293.414062 185.101562 C 293.375 183.972656 293.085938 182.875 292.847656 181.773438 C 292.609375 180.6875 292.195312 179.667969 291.640625 178.699219 C 291.324219 178.144531 290.941406 177.648438 290.488281 177.195312 C 290.019531 176.730469 289.527344 176.300781 289.007812 175.894531 C 288.691406 175.644531 288.355469 175.429688 287.972656 175.296875 C 286.773438 174.882812 285.5625 174.511719 284.332031 174.207031 C 283.660156 174.039062 282.980469 174.050781 282.300781 174.023438 C 279.410156 173.914062 276.519531 173.914062 273.628906 173.886719 C 272.527344 173.875 271.425781 173.820312 270.320312 173.757812 C 268.984375 173.683594 267.652344 173.597656 266.316406 173.484375 C 265.453125 173.410156 264.589844 173.292969 263.730469 173.179688 C 261.121094 172.84375 258.546875 172.296875 255.960938 171.820312 C 255.382812 171.714844 254.808594 171.597656 254.230469 171.488281 C 253.539062 171.359375 252.851562 171.199219 252.183594 170.972656 C 251.402344 170.714844 250.613281 170.484375 249.832031 170.222656 C 249.390625 170.074219 248.957031 169.886719 248.519531 169.71875 C 248.320312 169.640625 248.128906 169.558594 247.929688 169.488281 C 247.804688 169.441406 247.675781 169.550781 247.710938 169.671875 C 247.761719 169.828125 247.820312 169.980469 247.882812 170.132812 C 248.222656 170.90625 248.632812 171.648438 249.046875 172.386719 C 249.210938 172.671875 249.363281 172.960938 249.515625 173.253906 C 249.578125 173.378906 249.621094 173.511719 249.609375 173.660156 C 249.597656 173.820312 249.433594 173.960938 249.269531 173.941406 C 249.074219 173.921875 248.921875 173.8125 248.773438 173.695312 C 248.429688 173.40625 248.132812 173.074219 247.859375 172.71875 C 246.957031 171.535156 246.242188 170.242188 245.691406 168.859375 C 245.507812 168.402344 245.3125 167.949219 245.0625 167.519531 C 244.96875 167.359375 244.890625 167.183594 244.839844 167.003906 C 244.449219 165.675781 244.042969 164.351562 243.6875 163.011719 C 243.199219 161.199219 242.671875 159.394531 242.328125 157.542969 C 242.089844 156.246094 241.867188 154.953125 241.820312 153.632812 C 241.816406 153.542969 241.824219 153.445312 241.707031 153.355469 C 241.484375 153.421875 241.359375 153.625 241.210938 153.792969 C 240.722656 154.367188 240.1875 154.894531 239.613281 155.382812 C 238.371094 156.433594 237.054688 157.375 235.585938 158.082031 C 234.65625 158.53125 233.75 159.042969 232.757812 159.355469 C 231.820312 159.648438 230.886719 159.972656 229.910156 160.132812 C 229.132812 160.265625 228.359375 160.265625 227.589844 160.203125 C 225.972656 160.0625 224.375 159.78125 222.855469 159.179688 C 222.484375 159.03125 222.113281 158.878906 221.75 158.714844 C 221.152344 158.4375 220.527344 158.238281 219.898438 158.042969 C 219.773438 158.003906 219.648438 158.109375 219.671875 158.230469 C 219.722656 158.457031 219.769531 158.691406 219.84375 158.910156 C 220.707031 161.472656 221.382812 164.089844 222.167969 166.675781 C 222.496094 167.753906 222.824219 168.832031 223.082031 169.929688 C 223.40625 171.304688 223.65625 172.691406 223.792969 174.09375 C 223.824219 174.398438 223.828125 174.707031 223.824219 175.011719 C 223.820312 175.148438 223.789062 175.289062 223.742188 175.421875 C 223.660156 175.640625 223.390625 175.683594 223.222656 175.515625 C 223.03125 175.328125 222.933594 175.085938 222.859375 174.839844 C 222.691406 174.300781 222.539062 173.757812 222.371094 173.21875 C 222.304688 173.003906 222.179688 172.96875 222.011719 173.132812 C 221.570312 173.558594 221.128906 173.984375 220.617188 174.320312 C 219.542969 175.035156 218.433594 175.703125 217.296875 176.320312 C 215.871094 177.09375 214.390625 177.75 212.917969 178.429688 C 212.023438 178.839844 211.113281 179.226562 210.300781 179.792969 C 209.984375 180.015625 209.636719 180.144531 209.238281 180.007812 C 209.09375 179.957031 209.019531 180.074219 209.011719 180.199219 C 208.996094 180.410156 208.992188 180.621094 208.996094 180.832031 C 209.023438 182.546875 209.09375 184.261719 209.269531 185.96875 C 209.34375 186.691406 209.402344 187.421875 209.425781 188.148438 C 209.460938 189.300781 209.59375 190.441406 209.691406 191.589844 C 209.757812 192.335938 209.808594 193.085938 209.839844 193.835938 C 209.886719 194.921875 210.070312 195.984375 210.214844 197.054688 C 210.453125 198.847656 210.894531 200.605469 211.195312 202.386719 C 211.460938 203.984375 211.738281 205.582031 212.0625 207.171875 C 212.152344 207.605469 212.191406 208.054688 212.234375 208.496094 C 212.339844 209.617188 212.433594 210.742188 212.535156 211.863281 C 212.578125 212.308594 212.632812 212.75 212.683594 213.195312 C 212.851562 214.59375 212.957031 216 212.996094 217.410156 C 213.011719 218.09375 213.199219 218.753906 213.316406 219.425781 C 213.363281 219.703125 213.429688 219.976562 213.480469 220.253906 C 213.503906 220.367188 213.523438 220.488281 213.523438 220.601562 C 213.515625 220.9375 213.308594 221.207031 213.011719 221.28125 C 212.699219 221.363281 212.398438 221.242188 212.21875 220.964844 C 212.074219 220.742188 212.023438 220.484375 211.972656 220.234375 C 211.757812 219.246094 211.566406 218.253906 211.347656 217.269531 C 211.097656 216.117188 210.992188 214.945312 210.8125 213.785156 C 210.59375 212.324219 210.367188 210.859375 210.15625 209.394531 C 209.957031 208 209.765625 206.605469 209.585938 205.207031 C 209.503906 204.554688 209.511719 203.894531 209.433594 203.242188 C 209.335938 202.425781 209.324219 201.601562 209.246094 200.785156 C 209.152344 199.777344 209.035156 198.773438 208.921875 197.773438 C 208.773438 196.511719 208.582031 195.261719 208.519531 193.992188 C 208.445312 192.539062 208.285156 191.089844 208.160156 189.640625 C 208.15625 189.59375 208.152344 189.546875 208.148438 189.5 C 208.113281 188.066406 207.976562 186.640625 207.855469 185.210938 C 207.660156 182.9375 207.667969 180.660156 207.71875 178.378906 C 207.71875 178.308594 207.726562 178.238281 207.722656 178.167969 C 207.6875 176.640625 207.816406 175.117188 207.882812 173.589844 C 207.921875 172.675781 207.945312 171.761719 207.996094 170.847656 C 208.085938 169.226562 208.28125 167.617188 208.605469 166.027344 C 208.816406 164.980469 209.292969 164.035156 209.816406 163.109375 C 210.464844 161.964844 211.117188 160.820312 211.671875 159.628906 C 211.878906 159.179688 212.050781 158.714844 212.183594 158.242188 C 212.308594 157.808594 212.355469 157.371094 212.371094 156.917969 C 212.421875 155.21875 212.210938 153.546875 211.890625 151.878906 C 211.589844 150.308594 211.140625 148.777344 210.691406 147.242188 C 210.5 146.589844 210.300781 145.941406 210.101562 145.277344 C 209.929688 145.34375 209.992188 145.476562 209.992188 145.570312 C 209.996094 146.628906 209.949219 147.6875 210.117188 148.738281 C 210.125 148.78125 210.125 148.832031 210.128906 148.878906 C 210.1875 150.144531 210.246094 151.410156 210.308594 152.675781 C 210.324219 153.003906 210.355469 153.332031 210.382812 153.660156 C 210.40625 153.917969 210.417969 154.175781 210.320312 154.425781 C 210.285156 154.515625 210.230469 154.589844 210.125 154.605469 C 209.984375 154.625 209.890625 154.546875 209.84375 154.4375 C 209.773438 154.265625 209.710938 154.085938 209.679688 153.902344 C 209.535156 152.996094 209.390625 152.09375 209.269531 151.1875 C 209.140625 150.207031 209.03125 149.226562 208.917969 148.25 C 208.875 147.898438 208.839844 147.546875 208.820312 147.199219 C 208.785156 146.589844 208.722656 145.976562 208.742188 145.367188 C 208.773438 144.359375 208.863281 143.347656 209.179688 142.378906 C 209.777344 140.546875 210.355469 138.710938 211.078125 136.921875 C 211.308594 136.351562 211.597656 135.816406 211.957031 135.320312 C 212.644531 134.367188 213.558594 133.671875 214.554688 133.078125 C 215.683594 132.40625 216.933594 132.109375 218.234375 131.972656 C 219.125 131.875 220.011719 131.84375 220.90625 131.820312 C 221.519531 131.804688 222.121094 131.679688 222.675781 131.398438 C 222.792969 131.335938 222.941406 131.296875 222.988281 131.140625 C 222.828125 131.035156 222.675781 131.140625 222.523438 131.15625 C 221.683594 131.238281 220.886719 131.09375 220.121094 130.738281 C 219.632812 130.507812 219.304688 130.203125 219.441406 129.589844 C 219.496094 129.332031 219.402344 129.246094 219.140625 129.238281 C 217.960938 129.207031 216.792969 129.304688 215.648438 129.601562 C 215.375 129.671875 215.105469 129.765625 214.832031 129.824219 C 213.546875 130.09375 212.492188 130.773438 211.550781 131.652344 C 210.480469 132.648438 209.570312 133.789062 208.636719 134.90625 C 207.820312 135.878906 207.042969 136.878906 206.3125 137.921875 C 206.140625 138.171875 205.945312 138.40625 205.753906 138.644531 C 205.648438 138.777344 205.527344 138.886719 205.363281 138.933594 C 205.222656 138.972656 205.078125 138.960938 204.964844 138.863281 C 204.847656 138.761719 204.804688 138.617188 204.855469 138.476562 C 204.917969 138.304688 205.003906 138.132812 205.101562 137.972656 C 206.34375 135.949219 207.734375 134.027344 209.289062 132.226562 C 209.964844 131.445312 210.6875 130.703125 211.511719 130.070312 C 212.304688 129.464844 213.171875 129.007812 214.140625 128.753906 C 215.117188 128.496094 216.082031 128.207031 217.09375 128.097656 C 217.703125 128.035156 218.3125 128.050781 218.921875 128.015625 C 219.554688 127.976562 220.1875 127.925781 220.816406 127.863281 C 220.976562 127.84375 221.132812 127.773438 221.285156 127.71875 C 222.101562 127.410156 222.9375 127.179688 223.792969 127.019531 C 224.417969 126.902344 225.03125 126.746094 225.597656 126.441406 C 225.691406 126.390625 225.824219 126.367188 225.851562 126.191406 C 225.613281 126.214844 225.386719 126.238281 225.160156 126.261719 C 224.949219 126.285156 224.738281 126.296875 224.53125 126.332031 C 224.175781 126.390625 223.828125 126.351562 223.484375 126.269531 C 223.074219 126.179688 222.8125 125.949219 222.757812 125.519531 C 222.734375 125.355469 222.703125 125.195312 222.660156 125.035156 C 222.59375 124.796875 222.507812 124.71875 222.257812 124.714844 C 221.882812 124.710938 221.503906 124.695312 221.132812 124.75 C 220.363281 124.859375 219.585938 124.855469 218.8125 124.875 C 217.636719 124.902344 216.460938 124.8125 215.289062 124.921875 C 215.035156 124.945312 214.773438 124.890625 214.515625 124.875 C 213.980469 124.839844 213.503906 124.996094 213.066406 125.3125 C 212.410156 125.785156 211.871094 126.375 211.351562 126.980469 C 210.179688 128.359375 209.035156 129.761719 207.828125 131.109375 C 206.933594 132.105469 206.019531 133.082031 205.148438 134.101562 C 204.769531 134.550781 204.410156 135.011719 204.03125 135.460938 C 203.804688 135.730469 203.566406 135.992188 203.324219 136.25 C 203.214844 136.371094 203.082031 136.472656 202.917969 136.515625 C 202.769531 136.554688 202.640625 136.523438 202.535156 136.40625 C 202.449219 136.3125 202.429688 136.191406 202.472656 136.078125 C 202.523438 135.949219 202.597656 135.828125 202.675781 135.714844 C 203.839844 134 205.148438 132.402344 206.511719 130.84375 C 207.542969 129.65625 208.523438 128.421875 209.539062 127.21875 C 210.117188 126.539062 210.707031 125.871094 211.3125 125.214844 C 211.839844 124.640625 212.441406 124.148438 213.15625 123.816406 C 213.359375 123.71875 213.5 123.578125 213.589844 123.378906 C 214 122.445312 214.609375 121.636719 215.21875 120.832031 C 215.703125 120.191406 216.125 119.519531 216.4375 118.777344 C 216.554688 118.496094 216.691406 118.21875 216.835938 117.953125 C 217.429688 116.84375 217.609375 115.648438 217.589844 114.40625 C 217.585938 114.175781 217.589844 113.941406 217.589844 113.707031 C 217.378906 113.683594 217.386719 113.832031 217.351562 113.921875 C 217.136719 114.417969 216.933594 114.917969 216.722656 115.417969 C 216.546875 115.828125 216.332031 116.222656 216.050781 116.570312 C 215.601562 117.121094 215.03125 117.382812 214.3125 117.28125 C 214.078125 117.246094 213.84375 117.242188 213.613281 117.195312 C 213.300781 117.128906 213.121094 117.261719 213.003906 117.53125 C 212.914062 117.726562 212.808594 117.910156 212.726562 118.101562 C 212.335938 118.992188 211.828125 119.808594 211.261719 120.589844 C 209.914062 122.453125 208.5625 124.320312 207.25 126.210938 C 205.992188 128.027344 204.632812 129.769531 203.253906 131.496094 C 202.523438 132.414062 201.800781 133.34375 201.089844 134.277344 C 200.429688 135.140625 199.878906 136.066406 199.449219 137.066406 C 199.089844 137.890625 198.871094 138.761719 198.773438 139.648438 C 198.617188 141.074219 198.546875 142.5 198.679688 143.9375 C 198.796875 145.222656 198.84375 146.515625 198.855469 147.808594 C 198.882812 151.144531 198.867188 154.480469 198.882812 157.820312 C 198.894531 159.726562 198.707031 161.617188 198.410156 163.5 C 198.328125 164.011719 198.285156 164.523438 198.296875 165.042969 C 198.316406 165.75 198.265625 166.449219 198.121094 167.144531 C 198.0625 167.417969 198.039062 167.703125 198.035156 167.984375 C 198.027344 168.875 198.019531 169.769531 198.035156 170.664062 C 198.074219 172.566406 198.078125 174.472656 197.980469 176.371094 C 197.910156 177.777344 197.964844 179.191406 197.777344 180.59375 C 197.761719 180.707031 197.761719 180.828125 197.757812 180.945312 C 197.703125 182.421875 197.660156 183.902344 197.585938 185.378906 C 197.546875 186.152344 197.457031 186.925781 197.378906 187.695312 C 197.273438 188.746094 197.160156 189.796875 197.042969 190.847656 C 196.886719 192.269531 196.730469 193.695312 196.566406 195.117188 C 196.445312 196.191406 196.320312 197.265625 196.191406 198.335938 C 196.023438 199.734375 195.851562 201.132812 195.683594 202.53125 C 195.570312 203.488281 195.472656 204.445312 195.363281 205.402344 C 195.25 206.359375 195.128906 207.3125 195.015625 208.269531 C 194.925781 209.015625 194.789062 209.753906 194.769531 210.511719 C 194.757812 211 194.664062 211.492188 194.625 211.980469 C 194.449219 214.140625 194.074219 216.265625 193.617188 218.378906 C 193.378906 219.460938 193.238281 220.554688 193.105469 221.652344 C 192.992188 222.605469 192.820312 223.554688 192.789062 224.519531 C 192.785156 224.660156 192.746094 224.800781 192.695312 224.929688 C 192.566406 225.257812 192.324219 225.414062 191.988281 225.410156 C 191.660156 225.40625 191.425781 225.238281 191.296875 224.90625 C 191.164062 224.566406 191.191406 224.214844 191.230469 223.863281 C 191.265625 223.535156 191.316406 223.210938 191.367188 222.886719 C 191.539062 221.773438 191.703125 220.65625 191.894531 219.546875 C 191.964844 219.117188 191.925781 218.722656 191.800781 218.300781 C 191.472656 217.199219 191.191406 216.082031 190.882812 214.972656 C 190.324219 212.984375 189.832031 210.976562 189.441406 208.945312 C 189.058594 206.9375 188.71875 204.925781 188.492188 202.890625 C 188.332031 201.464844 188.21875 200.039062 188.222656 198.605469 C 188.222656 198.230469 188.183594 197.855469 188.148438 197.480469 C 188.058594 196.519531 188.078125 195.554688 188.105469 194.59375 C 188.128906 193.722656 188.179688 192.855469 188.242188 191.988281 C 188.285156 191.351562 188.417969 190.738281 188.863281 190.230469 C 189.03125 190.039062 189.136719 189.792969 189.277344 189.574219 C 189.746094 188.855469 190.402344 188.316406 191.023438 187.742188 C 191.664062 187.152344 192.34375 186.613281 193.066406 186.125 C 193.339844 185.941406 193.601562 185.742188 193.855469 185.53125 C 194.472656 185.019531 195.109375 184.542969 195.824219 184.175781 C 196.132812 184.019531 196.289062 183.8125 196.277344 183.460938 C 196.242188 182.285156 196.363281 181.113281 196.445312 179.941406 C 196.554688 178.371094 196.496094 176.792969 196.609375 175.226562 C 196.78125 172.921875 196.648438 170.621094 196.671875 168.320312 C 196.679688 167.367188 196.789062 166.449219 197.136719 165.558594 C 197.320312 165.09375 197.324219 164.59375 197.382812 164.105469 C 197.464844 163.429688 197.5 162.75 197.589844 162.074219 C 197.65625 161.582031 197.671875 161.089844 197.699219 160.597656 C 197.785156 159.144531 197.886719 157.6875 197.796875 156.234375 C 197.652344 153.910156 197.75 151.582031 197.667969 149.257812 C 197.621094 147.917969 197.621094 146.578125 197.507812 145.246094 C 197.378906 143.765625 197.378906 142.289062 197.402344 140.808594 C 197.449219 138 198.394531 135.511719 200.222656 133.390625 C 201.191406 132.269531 201.785156 131.011719 202.070312 129.574219 C 202.238281 128.71875 202.34375 127.855469 202.460938 126.996094 C 202.511719 126.625 202.554688 126.25 202.636719 125.882812 C 202.867188 124.847656 202.964844 123.796875 203.066406 122.746094 C 203.148438 121.878906 203.269531 121.019531 203.359375 120.15625 C 203.457031 119.222656 203.539062 118.285156 203.625 117.351562 C 203.75 116.015625 203.730469 114.675781 203.789062 113.339844 C 203.816406 112.707031 203.871094 112.074219 204.035156 111.457031 C 204.109375 111.179688 204.214844 110.921875 204.410156 110.707031 C 204.683594 110.402344 205.019531 110.253906 205.421875 110.390625 C 206.222656 110.667969 206.988281 111.027344 207.613281 111.625 C 207.890625 111.886719 208.089844 112.207031 208.226562 112.5625 C 208.375 112.957031 208.535156 113.351562 208.636719 113.761719 C 208.925781 114.949219 209.191406 116.140625 209.183594 117.375 C 209.183594 117.726562 209.179688 118.078125 209.191406 118.433594 C 209.21875 119.375 209.113281 120.308594 208.945312 121.234375 C 208.917969 121.367188 208.851562 121.503906 208.953125 121.632812 Z M 192.710938 215.363281 C 192.824219 215.3125 192.835938 215.210938 192.847656 215.121094 C 192.953125 214.332031 193.0625 213.542969 193.15625 212.75 C 193.367188 210.933594 193.566406 209.113281 193.769531 207.292969 C 193.949219 205.6875 194.125 204.078125 194.304688 202.46875 C 194.417969 201.441406 194.527344 200.417969 194.648438 199.390625 C 194.804688 198.0625 194.976562 196.738281 195.128906 195.410156 C 195.300781 193.917969 195.453125 192.425781 195.613281 190.933594 C 195.78125 189.394531 195.957031 187.855469 196.101562 186.3125 C 196.132812 186.007812 196.261719 185.671875 196.03125 185.375 C 195.71875 185.4375 195.507812 185.667969 195.273438 185.851562 C 194.722656 186.285156 194.199219 186.765625 193.632812 187.179688 C 192.683594 187.875 191.808594 188.65625 190.972656 189.480469 C 190.210938 190.226562 189.773438 191.144531 189.570312 192.1875 C 189.453125 192.769531 189.53125 193.351562 189.519531 193.9375 C 189.480469 195.699219 189.730469 197.449219 189.734375 199.210938 C 189.734375 199.9375 189.792969 200.667969 189.886719 201.386719 C 190.179688 203.667969 190.464844 205.949219 191.003906 208.1875 C 191.238281 209.144531 191.367188 210.125 191.585938 211.085938 C 191.859375 212.300781 192.171875 213.503906 192.476562 214.710938 C 192.53125 214.933594 192.566406 215.167969 192.710938 215.363281 Z M 220.210938 165.621094 C 220.144531 165.679688 220.101562 165.703125 220.074219 165.738281 C 219.125 167.109375 217.269531 167.785156 215.503906 167.308594 C 215.324219 167.257812 215.117188 167.21875 214.984375 167.105469 C 214.621094 166.792969 214.328125 166.859375 214.027344 167.191406 C 213.902344 167.328125 213.734375 167.425781 213.59375 167.546875 C 212.519531 168.460938 211.304688 168.90625 209.878906 168.675781 C 209.550781 168.625 209.484375 168.683594 209.457031 168.976562 C 209.375 169.890625 209.265625 170.800781 209.273438 171.71875 C 209.273438 171.953125 209.257812 172.1875 209.242188 172.421875 C 209.171875 173.617188 209.085938 174.808594 209.035156 176.003906 C 209 176.800781 209.019531 177.601562 209.015625 178.402344 C 209.015625 178.519531 209.015625 178.636719 209.027344 178.753906 C 209.039062 178.898438 209.144531 178.953125 209.277344 178.871094 C 209.652344 178.632812 210.007812 178.351562 210.40625 178.15625 C 211.691406 177.527344 212.980469 176.898438 214.289062 176.320312 C 216.164062 175.492188 217.933594 174.476562 219.6875 173.425781 C 220.347656 173.027344 220.972656 172.5625 221.46875 171.945312 C 221.761719 171.582031 221.839844 171.230469 221.710938 170.773438 C 221.273438 169.214844 220.867188 167.648438 220.445312 166.082031 C 220.402344 165.929688 220.398438 165.75 220.210938 165.621094 Z M 216.542969 166.148438 C 217.765625 166.136719 218.769531 165.726562 219.609375 164.875 C 219.894531 164.589844 219.945312 164.320312 219.851562 163.929688 C 219.515625 162.515625 219.125 161.113281 218.742188 159.707031 C 218.539062 158.957031 218.234375 158.246094 217.914062 157.539062 C 217.773438 157.230469 217.570312 156.984375 217.261719 156.832031 C 217.050781 156.726562 216.847656 156.609375 216.640625 156.5 C 215.832031 156.070312 215.023438 155.640625 214.292969 155.082031 C 214.101562 154.933594 213.894531 154.636719 213.636719 154.785156 C 213.429688 154.902344 213.550781 155.21875 213.554688 155.445312 C 213.566406 155.960938 213.628906 156.476562 213.609375 156.992188 C 213.578125 157.886719 213.386719 158.761719 213.039062 159.589844 C 212.699219 160.390625 212.339844 161.179688 211.914062 161.941406 C 211.433594 162.800781 210.964844 163.667969 210.519531 164.546875 C 210.136719 165.308594 209.882812 166.113281 209.789062 166.964844 C 209.761719 167.242188 209.851562 167.359375 210.125 167.382812 C 210.847656 167.445312 211.527344 167.308594 212.140625 166.90625 C 213.996094 165.675781 215.367188 164.054688 216.164062 161.964844 C 216.382812 161.394531 216.554688 160.808594 216.691406 160.210938 C 216.75 159.960938 216.832031 159.714844 216.925781 159.476562 C 216.976562 159.34375 217.09375 159.238281 217.257812 159.269531 C 217.378906 159.292969 217.453125 159.394531 217.472656 159.519531 C 217.535156 159.914062 217.605469 160.304688 217.5625 160.710938 C 217.386719 162.402344 216.828125 163.953125 215.816406 165.332031 C 215.71875 165.464844 215.621094 165.59375 215.535156 165.734375 C 215.449219 165.878906 215.511719 166.042969 215.667969 166.0625 C 215.972656 166.101562 216.277344 166.121094 216.542969 166.148438 Z M 255.179688 129.546875 C 255.207031 129.136719 255.132812 128.816406 255.019531 128.507812 C 254.800781 127.9375 254.285156 127.542969 253.746094 127.558594 C 253.199219 127.574219 252.675781 127.699219 252.207031 127.996094 C 251.785156 128.269531 251.542969 128.613281 251.589844 129.160156 C 251.6875 130.359375 251.511719 131.546875 251.398438 132.738281 C 251.359375 133.136719 251.339844 133.535156 251.269531 133.925781 C 250.929688 135.820312 250.5 137.695312 249.804688 139.496094 C 249.511719 140.261719 249.296875 141.058594 248.902344 141.785156 C 248.820312 141.9375 248.785156 142.09375 248.878906 142.253906 C 249.355469 143.050781 250.117188 143.277344 250.859375 142.949219 C 251.226562 142.789062 251.472656 142.527344 251.636719 142.171875 C 251.914062 141.574219 252.101562 140.945312 252.257812 140.308594 C 252.5625 139.101562 252.914062 137.910156 253.332031 136.738281 C 253.582031 136.03125 253.796875 135.3125 254.027344 134.597656 C 254.15625 134.195312 254.269531 133.785156 254.429688 133.394531 C 254.945312 132.136719 255.015625 130.796875 255.179688 129.546875 Z M 207.246094 113.867188 C 207.214844 115.046875 206.996094 116.203125 206.882812 117.371094 C 206.8125 118.085938 206.472656 118.410156 205.757812 118.5 C 205.570312 118.523438 205.382812 118.515625 205.195312 118.539062 C 204.960938 118.570312 204.855469 118.667969 204.828125 118.898438 C 204.78125 119.246094 204.757812 119.597656 204.714844 119.949219 C 204.605469 120.832031 204.472656 121.714844 204.375 122.601562 C 204.28125 123.46875 204.191406 124.335938 204 125.179688 C 203.699219 126.488281 203.527344 127.816406 203.273438 129.128906 C 203.261719 129.199219 203.265625 129.269531 203.269531 129.339844 C 203.269531 129.359375 203.289062 129.394531 203.304688 129.398438 C 203.347656 129.402344 203.394531 129.402344 203.433594 129.382812 C 203.472656 129.363281 203.503906 129.324219 203.535156 129.285156 C 204.636719 127.792969 205.792969 126.339844 206.824219 124.792969 C 207.023438 124.492188 207.148438 124.171875 207.210938 123.820312 C 207.367188 122.96875 207.507812 122.109375 207.675781 121.257812 C 207.984375 119.695312 207.925781 118.121094 207.8125 116.554688 C 207.746094 115.644531 207.558594 114.742188 207.246094 113.867188 Z M 206.246094 113.992188 C 206.207031 113.628906 206.171875 113.207031 206.109375 112.789062 C 206.070312 112.535156 205.964844 112.292969 205.789062 112.097656 C 205.679688 111.972656 205.5625 111.8125 205.390625 111.835938 C 205.152344 111.867188 205.171875 112.113281 205.136719 112.285156 C 205.09375 112.488281 205.089844 112.703125 205.082031 112.914062 C 205.066406 113.453125 205.058594 113.992188 205.050781 114.535156 C 205.035156 115.332031 205.042969 116.128906 204.960938 116.925781 C 204.917969 117.371094 205.089844 117.535156 205.636719 117.421875 C 205.855469 117.375 205.917969 117.179688 205.945312 116.992188 C 206.003906 116.597656 206.046875 116.199219 206.085938 115.804688 C 206.144531 115.21875 206.1875 114.632812 206.246094 113.992188 Z M 214.457031 116.308594 C 214.84375 116.316406 215.015625 116.253906 215.203125 116.007812 C 215.359375 115.800781 215.5 115.582031 215.609375 115.347656 C 216.140625 114.21875 216.585938 113.058594 216.886719 111.84375 C 216.90625 111.777344 216.925781 111.707031 216.933594 111.640625 C 216.949219 111.460938 216.804688 111.199219 216.671875 111.179688 C 216.5 111.160156 216.433594 111.300781 216.351562 111.414062 C 215.910156 112.027344 215.59375 112.710938 215.300781 113.402344 C 214.992188 114.144531 214.625 114.851562 214.210938 115.535156 C 214.136719 115.65625 214.058594 115.769531 213.988281 115.894531 C 213.910156 116.046875 213.957031 116.179688 214.117188 116.230469 C 214.25 116.269531 214.386719 116.292969 214.457031 116.308594 Z M 219.347656 114.875 C 219.046875 114.847656 218.925781 114.949219 218.902344 115.21875 C 218.894531 115.289062 218.890625 115.359375 218.894531 115.429688 C 218.90625 115.695312 218.992188 115.816406 219.25 115.878906 C 219.5 115.9375 219.753906 115.996094 220.007812 116.023438 C 221.292969 116.164062 222.550781 116.441406 223.796875 116.785156 C 223.976562 116.835938 224.15625 116.890625 224.339844 116.929688 C 224.398438 116.941406 224.492188 116.925781 224.527344 116.886719 C 224.597656 116.808594 224.554688 116.710938 224.503906 116.628906 C 224.394531 116.441406 224.238281 116.296875 224.042969 116.207031 C 223.746094 116.070312 223.449219 115.921875 223.136719 115.835938 C 222.167969 115.558594 221.191406 115.304688 220.214844 115.050781 C 219.921875 114.976562 219.617188 114.929688 219.347656 114.875 Z M 224.375 125.472656 C 224.925781 125.492188 225.429688 125.390625 225.925781 125.265625 C 226.214844 125.191406 226.496094 125.058594 226.765625 124.921875 C 227.003906 124.800781 227.121094 124.570312 227.046875 124.421875 C 226.957031 124.238281 226.769531 124.261719 226.617188 124.273438 C 225.898438 124.339844 225.179688 124.417969 224.460938 124.492188 C 224.253906 124.515625 224.042969 124.546875 223.835938 124.582031 C 223.675781 124.609375 223.585938 124.71875 223.601562 124.875 C 223.644531 125.394531 223.816406 125.480469 224.195312 125.472656 C 224.265625 125.472656 224.335938 125.472656 224.375 125.472656 Z M 222.613281 130.277344 C 222.613281 130.277344 222.613281 130.28125 222.613281 130.28125 C 222.894531 130.28125 223.175781 130.28125 223.457031 130.28125 C 223.550781 130.28125 223.644531 130.277344 223.734375 130.269531 C 223.835938 130.257812 223.933594 130.214844 223.9375 130.113281 C 223.945312 130.007812 223.847656 129.953125 223.75 129.949219 C 222.898438 129.917969 222.089844 129.660156 221.273438 129.460938 C 221.09375 129.417969 220.90625 129.398438 220.71875 129.386719 C 220.628906 129.378906 220.542969 129.433594 220.5 129.53125 C 220.449219 129.648438 220.460938 129.765625 220.539062 129.859375 C 220.597656 129.929688 220.675781 129.992188 220.757812 130.03125 C 221.03125 130.175781 221.316406 130.273438 221.628906 130.277344 C 221.957031 130.28125 222.285156 130.277344 222.613281 130.277344 Z M 271.804688 135.640625 C 270.464844 132.691406 268.496094 130.246094 265.953125 128.253906 C 264.824219 127.371094 263.683594 126.503906 262.554688 125.621094 C 262.199219 125.347656 261.847656 125.074219 261.515625 124.777344 C 259.753906 123.183594 258.039062 121.550781 256.464844 119.765625 C 254.746094 117.816406 253.457031 115.632812 252.625 113.175781 C 252.152344 111.773438 251.695312 110.367188 251.226562 108.960938 C 250.660156 107.277344 249.820312 105.726562 248.777344 104.300781 C 247.585938 102.664062 245.90625 101.695312 243.996094 101.105469 C 243.863281 101.0625 243.722656 101.035156 243.582031 101.023438 C 243.320312 101 243.066406 101.054688 242.84375 101.199219 C 242.648438 101.328125 242.640625 101.609375 242.839844 101.730469 C 242.976562 101.816406 243.132812 101.871094 243.285156 101.925781 C 243.90625 102.148438 244.519531 102.386719 245.101562 102.699219 C 246.289062 103.347656 247.367188 104.140625 248.117188 105.292969 C 248.679688 106.160156 249.1875 107.0625 249.601562 108.011719 C 250.28125 109.566406 250.765625 111.1875 251.265625 112.800781 C 251.910156 114.882812 252.835938 116.828125 254.035156 118.640625 C 254.667969 119.601562 255.414062 120.480469 256.175781 121.34375 C 257.175781 122.46875 258.257812 123.507812 259.34375 124.550781 C 260.941406 126.085938 262.699219 127.421875 264.433594 128.789062 C 265.300781 129.472656 266.136719 130.1875 266.9375 130.949219 C 268.429688 132.363281 269.53125 134.050781 270.398438 135.886719 C 271.660156 138.550781 272.351562 141.363281 272.308594 144.335938 C 272.304688 144.6875 272.289062 145.042969 272.3125 145.390625 C 272.410156 146.777344 271.980469 148.039062 271.402344 149.257812 C 271.066406 149.964844 270.59375 150.601562 269.960938 151.054688 C 269.324219 151.507812 268.554688 151.699219 267.8125 151.917969 C 267.714844 151.945312 267.613281 151.882812 267.628906 151.765625 C 267.671875 151.464844 267.722656 151.164062 267.792969 150.867188 C 268.191406 149.175781 268.207031 147.464844 267.980469 145.753906 C 267.796875 144.371094 267.359375 143.058594 266.8125 141.777344 C 266.207031 140.351562 265.363281 139.085938 264.273438 137.996094 C 262.933594 136.660156 261.425781 135.546875 259.679688 134.78125 C 258.859375 134.425781 258.035156 134.085938 257.296875 133.566406 C 257.261719 133.539062 257.214844 133.519531 257.171875 133.5 C 257.035156 133.441406 256.898438 133.449219 256.78125 133.550781 C 256.652344 133.65625 256.617188 133.839844 256.691406 134 C 256.792969 134.21875 256.964844 134.375 257.15625 134.515625 C 257.589844 134.839844 258.050781 135.125 258.535156 135.363281 C 259.910156 136.046875 261.191406 136.855469 262.355469 137.867188 C 263.328125 138.707031 264.164062 139.652344 264.820312 140.746094 C 265.746094 142.289062 266.335938 143.976562 266.628906 145.753906 C 266.855469 147.105469 266.867188 148.46875 266.636719 149.820312 C 266.390625 151.28125 266.101562 152.730469 266.015625 154.210938 C 265.984375 154.6875 266.007812 155.152344 266.089844 155.613281 C 266.394531 157.40625 267.40625 158.636719 269.097656 159.308594 C 269.667969 159.535156 270.253906 159.703125 270.875 159.679688 C 271.347656 159.664062 271.503906 159.816406 271.320312 160.335938 C 271.183594 160.714844 271.011719 161.074219 270.808594 161.417969 C 270.011719 162.761719 268.882812 163.769531 267.601562 164.632812 C 266.773438 165.195312 265.882812 165.449219 264.875 165.398438 C 263.917969 165.347656 263.089844 165.046875 262.375 164.414062 C 261.824219 163.925781 261.347656 163.378906 260.957031 162.757812 C 260.1875 161.53125 259.597656 160.234375 259.417969 158.78125 C 259.289062 157.730469 259.316406 156.667969 259.410156 155.613281 C 259.546875 154.023438 259.871094 152.457031 260.164062 150.886719 C 260.472656 149.222656 260.851562 147.574219 261.242188 145.929688 C 261.476562 144.945312 261.640625 143.953125 261.632812 142.929688 C 261.625 141.769531 261.148438 140.792969 260.527344 139.863281 C 260.363281 139.621094 260.164062 139.5625 259.992188 139.652344 C 259.796875 139.753906 259.75 139.96875 259.875 140.273438 C 259.964844 140.492188 260.074219 140.699219 260.179688 140.910156 C 260.488281 141.535156 260.617188 142.191406 260.597656 142.890625 C 260.578125 143.695312 260.402344 144.472656 260.183594 145.242188 C 259.992188 145.917969 259.765625 146.589844 259.585938 147.269531 C 258.824219 150.179688 258.101562 153.09375 257.835938 156.105469 C 257.695312 157.695312 257.792969 159.25 258.296875 160.765625 C 258.839844 162.394531 259.691406 163.84375 260.882812 165.082031 C 260.964844 165.167969 261.046875 165.25 261.121094 165.34375 C 261.199219 165.441406 261.15625 165.578125 261.03125 165.632812 C 260.902344 165.6875 260.769531 165.738281 260.632812 165.773438 C 259.722656 166.027344 258.796875 166.152344 257.847656 166.128906 C 256.976562 166.105469 256.1875 165.859375 255.464844 165.371094 C 254.605469 164.792969 253.808594 164.136719 253.117188 163.359375 C 252.882812 163.097656 252.660156 162.816406 252.484375 162.515625 C 251.878906 161.496094 251.449219 160.40625 251.226562 159.242188 C 251.050781 158.320312 250.976562 157.378906 250.921875 156.441406 C 250.902344 156.117188 250.90625 155.78125 250.949219 155.457031 C 251.191406 153.679688 251.640625 151.960938 252.367188 150.3125 C 252.84375 149.238281 253.386719 148.195312 253.90625 147.140625 C 254.34375 146.246094 254.617188 145.304688 254.785156 144.324219 C 254.832031 144.046875 254.851562 143.765625 254.820312 143.484375 C 254.8125 143.390625 254.78125 143.300781 254.75 143.214844 C 254.6875 143.054688 254.460938 143.027344 254.34375 143.160156 C 254.164062 143.363281 254.125 143.621094 254.0625 143.871094 C 253.730469 145.148438 253.285156 146.382812 252.667969 147.554688 C 252.328125 148.199219 252.007812 148.855469 251.695312 149.511719 C 251.222656 150.511719 250.820312 151.535156 250.503906 152.597656 C 250.027344 154.210938 249.734375 155.835938 249.847656 157.53125 C 249.949219 159.039062 250.191406 160.515625 250.757812 161.925781 C 251.203125 163.03125 251.835938 164.007812 252.703125 164.832031 C 253.214844 165.320312 253.757812 165.765625 254.320312 166.191406 C 255.867188 167.375 257.59375 167.761719 259.5 167.367188 C 260.402344 167.183594 261.28125 166.933594 262.101562 166.507812 C 262.398438 166.351562 262.667969 166.339844 262.972656 166.472656 C 263.292969 166.617188 263.636719 166.71875 263.992188 166.726562 C 264.53125 166.742188 265.070312 166.75 265.613281 166.742188 C 266.332031 166.730469 266.992188 166.507812 267.613281 166.136719 C 268.941406 165.347656 270.066406 164.320312 271 163.09375 C 271.746094 162.113281 272.308594 161.03125 272.550781 159.804688 C 272.585938 159.621094 272.628906 159.4375 272.59375 159.25 C 272.539062 158.945312 272.296875 158.753906 271.988281 158.785156 C 271.875 158.800781 271.761719 158.84375 271.648438 158.871094 C 271.320312 158.941406 270.988281 158.945312 270.667969 158.859375 C 270.078125 158.699219 269.507812 158.476562 269.003906 158.117188 C 268.316406 157.625 267.84375 156.984375 267.550781 156.179688 C 267.1875 155.183594 267.28125 154.191406 267.417969 153.1875 C 267.4375 153.035156 267.53125 152.925781 267.671875 152.878906 C 267.804688 152.835938 267.945312 152.800781 268.082031 152.78125 C 268.828125 152.667969 269.546875 152.445312 270.257812 152.199219 C 270.664062 152.058594 271.027344 151.851562 271.335938 151.554688 C 271.902344 151.011719 272.371094 150.394531 272.699219 149.683594 C 273.027344 148.980469 273.296875 148.253906 273.488281 147.5 C 273.648438 146.859375 273.746094 146.210938 273.734375 145.546875 C 273.722656 144.867188 273.738281 144.183594 273.726562 143.503906 C 273.71875 143.152344 273.695312 142.796875 273.652344 142.449219 C 273.46875 141.027344 273.273438 139.609375 272.785156 138.25 C 272.691406 137.984375 272.734375 137.769531 272.894531 137.527344 C 273.496094 136.613281 273.886719 135.617188 274.066406 134.53125 C 274.175781 133.875 274.183594 133.222656 274.15625 132.566406 C 274.101562 131.226562 273.75 129.96875 273.066406 128.8125 C 272.3125 127.53125 271.378906 126.386719 270.386719 125.285156 C 269.601562 124.421875 268.703125 123.722656 267.671875 123.183594 C 267.152344 122.910156 266.636719 122.628906 266.125 122.335938 C 265.207031 121.8125 264.296875 121.273438 263.382812 120.746094 C 262.6875 120.34375 262.046875 119.871094 261.488281 119.292969 C 261.210938 119.003906 260.929688 118.722656 260.632812 118.453125 C 258.148438 116.210938 256.550781 113.457031 255.816406 110.1875 C 255.46875 108.628906 255.082031 107.082031 254.570312 105.566406 C 253.851562 103.449219 252.726562 101.613281 251.070312 100.109375 C 250.140625 99.265625 249.113281 98.574219 247.921875 98.148438 C 247.746094 98.085938 247.5625 98.023438 247.378906 97.996094 C 247.042969 97.945312 246.8125 98.066406 246.738281 98.292969 C 246.667969 98.507812 246.757812 98.710938 247.011719 98.886719 C 247.125 98.96875 247.25 99.039062 247.378906 99.097656 C 248.59375 99.648438 249.617188 100.453125 250.546875 101.410156 C 251.699219 102.589844 252.53125 103.953125 253.097656 105.5 C 253.695312 107.140625 254.101562 108.828125 254.464844 110.527344 C 254.828125 112.25 255.480469 113.847656 256.355469 115.363281 C 257.125 116.695312 258.035156 117.910156 259.15625 118.96875 C 259.566406 119.355469 259.972656 119.746094 260.363281 120.152344 C 261.023438 120.832031 261.765625 121.410156 262.59375 121.867188 C 264.03125 122.660156 265.425781 123.539062 266.898438 124.269531 C 267.792969 124.714844 268.566406 125.3125 269.246094 126.046875 C 270.082031 126.941406 270.839844 127.894531 271.53125 128.90625 C 272.613281 130.492188 272.96875 132.261719 272.808594 134.140625 C 272.746094 134.886719 272.558594 135.617188 272.195312 136.453125 C 272.023438 136.097656 271.910156 135.871094 271.804688 135.640625 Z M 230.589844 90.597656 C 231.3125 90.675781 231.96875 90.929688 232.410156 91.546875 C 233.03125 92.410156 233.292969 93.363281 232.929688 94.40625 C 232.5625 95.460938 232.039062 96.425781 231.179688 97.175781 C 230.914062 97.40625 230.628906 97.617188 230.359375 97.839844 C 230.230469 97.941406 230.09375 98.039062 229.984375 98.160156 C 229.816406 98.351562 229.785156 98.578125 229.902344 98.8125 C 230.023438 99.050781 230.289062 99.191406 230.550781 99.132812 C 230.707031 99.09375 230.867188 99.039062 231.007812 98.957031 C 231.699219 98.546875 232.355469 98.085938 232.859375 97.457031 C 233.464844 96.703125 233.960938 95.878906 234.289062 94.960938 C 234.816406 93.496094 234.585938 92.128906 233.746094 90.863281 C 233.207031 90.054688 232.457031 89.5 231.488281 89.285156 C 231.007812 89.179688 230.523438 89.105469 230.023438 89.097656 C 229.269531 89.082031 228.519531 89.15625 227.78125 89.28125 C 225.414062 89.6875 223.089844 90.246094 220.855469 91.148438 C 219.046875 91.882812 217.300781 92.746094 215.605469 93.714844 C 213.730469 94.792969 211.90625 95.945312 210.222656 97.316406 C 208.378906 98.820312 206.648438 100.441406 205.128906 102.273438 C 203.476562 104.265625 201.972656 106.367188 200.570312 108.539062 C 199.5625 110.097656 198.574219 111.667969 197.5625 113.222656 C 195.039062 117.113281 192.226562 120.785156 189.167969 124.269531 C 187.664062 125.984375 186.070312 127.613281 184.324219 129.082031 C 181.902344 131.121094 179.203125 132.65625 176.125 133.460938 C 174.832031 133.800781 173.554688 134.230469 172.195312 134.230469 C 172.105469 134.230469 172.011719 134.265625 171.925781 134.296875 C 171.804688 134.34375 171.734375 134.554688 171.8125 134.65625 C 171.878906 134.75 171.957031 134.847656 172.050781 134.90625 C 172.3125 135.078125 172.609375 135.148438 172.921875 135.152344 C 173.578125 135.160156 174.230469 135.136719 174.886719 135.039062 C 178.132812 134.542969 181.070312 133.3125 183.730469 131.40625 C 185.804688 129.921875 187.636719 128.167969 189.359375 126.300781 C 191.355469 124.144531 193.1875 121.847656 194.96875 119.511719 C 196.953125 116.914062 198.746094 114.183594 200.484375 111.417969 C 201.859375 109.230469 203.285156 107.078125 204.824219 104.996094 C 206.976562 102.082031 209.5 99.542969 212.414062 97.394531 C 214.023438 96.207031 215.75 95.207031 217.511719 94.257812 C 220.152344 92.835938 222.902344 91.707031 225.847656 91.085938 C 227.042969 90.835938 228.230469 90.550781 229.464844 90.59375 C 229.839844 90.59375 230.21875 90.558594 230.589844 90.597656 Z M 202.378906 118.949219 C 202.351562 118.828125 202.273438 118.738281 202.152344 118.703125 C 202.035156 118.671875 201.914062 118.703125 201.835938 118.800781 C 201.765625 118.890625 201.710938 119 201.65625 119.101562 C 201.5625 119.265625 201.492188 119.441406 201.386719 119.59375 C 200.554688 120.796875 199.625 121.914062 198.527344 122.882812 C 197.839844 123.488281 197.136719 124.074219 196.425781 124.65625 C 194.976562 125.847656 193.507812 127.019531 192.0625 128.21875 C 189.554688 130.292969 187.277344 132.585938 185.382812 135.246094 C 183.824219 137.425781 182.625 139.777344 181.960938 142.382812 C 181.46875 144.324219 181.160156 146.285156 181.300781 148.300781 C 181.449219 150.363281 181.902344 152.339844 182.804688 154.203125 C 183.125 154.863281 183.511719 155.472656 184.042969 155.988281 C 184.566406 156.496094 185.105469 156.980469 185.730469 157.367188 C 186.269531 157.703125 186.800781 158.046875 187.347656 158.363281 C 188.207031 158.859375 189.019531 159.414062 189.785156 160.039062 C 190.386719 160.527344 190.980469 161.027344 191.566406 161.535156 C 192.195312 162.074219 192.703125 162.71875 193.144531 163.417969 C 193.609375 164.152344 193.710938 164.941406 193.480469 165.785156 C 193.363281 166.199219 193.199219 166.578125 192.929688 166.914062 C 192.855469 167.011719 192.839844 167.136719 192.914062 167.242188 C 192.980469 167.347656 193.089844 167.398438 193.214844 167.390625 C 193.484375 167.378906 193.710938 167.253906 193.90625 167.078125 C 194.15625 166.855469 194.332031 166.578125 194.457031 166.269531 C 194.640625 165.808594 194.753906 165.332031 194.839844 164.84375 C 194.910156 164.464844 194.890625 164.101562 194.804688 163.730469 C 194.636719 163.003906 194.261719 162.382812 193.835938 161.789062 C 193.367188 161.136719 192.785156 160.59375 192.183594 160.0625 C 190.898438 158.925781 189.566406 157.847656 188.066406 156.996094 C 187.597656 156.730469 187.144531 156.433594 186.6875 156.148438 C 186.0625 155.761719 185.511719 155.292969 185.003906 154.761719 C 184.792969 154.539062 184.617188 154.292969 184.472656 154.023438 C 183.601562 152.40625 183.097656 150.679688 182.941406 148.859375 C 182.726562 146.367188 183.070312 143.9375 183.84375 141.566406 C 184.625 139.171875 185.886719 137.035156 187.425781 135.054688 C 188.085938 134.199219 188.800781 133.390625 189.53125 132.59375 C 190.246094 131.8125 190.972656 131.042969 191.765625 130.34375 C 194.039062 128.34375 196.324219 126.359375 198.609375 124.367188 C 199.839844 123.296875 200.914062 122.089844 201.78125 120.707031 C 201.957031 120.429688 202.105469 120.136719 202.25 119.839844 C 202.351562 119.628906 202.410156 119.398438 202.402344 119.113281 C 202.402344 119.089844 202.398438 119.015625 202.378906 118.949219 Z M 226.75 83.277344 C 224.824219 83.652344 223.007812 84.367188 221.242188 85.195312 C 218.023438 86.699219 215.152344 88.726562 212.5 91.074219 C 211.972656 91.539062 211.476562 92.042969 211.050781 92.609375 C 210.15625 93.789062 209.257812 94.964844 208.375 96.148438 C 207.996094 96.660156 207.648438 97.191406 207.296875 97.71875 C 207.207031 97.855469 207.125 98 207.074219 98.15625 C 207.023438 98.296875 207.082031 98.429688 207.214844 98.519531 C 207.324219 98.589844 207.4375 98.578125 207.546875 98.519531 C 207.738281 98.414062 207.863281 98.238281 207.992188 98.074219 C 208.3125 97.667969 208.628906 97.257812 208.953125 96.859375 C 209.710938 95.929688 210.472656 95.003906 211.238281 94.082031 C 211.777344 93.429688 212.316406 92.777344 212.960938 92.226562 C 213.785156 91.523438 214.621094 90.84375 215.492188 90.199219 C 218.300781 88.109375 221.320312 86.417969 224.636719 85.265625 C 225.410156 84.996094 226.199219 84.773438 227.011719 84.628906 C 227.800781 84.488281 228.59375 84.417969 229.386719 84.328125 C 231.019531 84.140625 232.621094 84.320312 234.214844 84.640625 C 234.996094 84.796875 235.671875 85.160156 236.277344 85.664062 C 236.839844 86.132812 237.332031 86.664062 237.734375 87.28125 C 238.535156 88.519531 239.078125 89.871094 239.402344 91.296875 C 239.902344 93.507812 239.472656 95.542969 238.0625 97.339844 C 237.023438 98.667969 235.828125 99.816406 234.265625 100.523438 C 234.144531 100.582031 234.03125 100.675781 233.929688 100.769531 C 233.832031 100.863281 233.90625 101.078125 234.035156 101.121094 C 234.21875 101.1875 234.40625 101.160156 234.589844 101.121094 C 235.1875 100.984375 235.757812 100.769531 236.28125 100.441406 C 237.738281 99.535156 238.960938 98.378906 239.933594 96.96875 C 240.953125 95.492188 241.269531 93.828125 241.089844 92.066406 C 240.933594 90.507812 240.378906 89.054688 239.695312 87.65625 C 239.085938 86.417969 238.261719 85.347656 237.164062 84.488281 C 236.449219 83.929688 235.679688 83.5 234.792969 83.300781 C 233.480469 83.007812 232.15625 82.828125 230.761719 82.898438 C 229.441406 82.839844 228.089844 83.019531 226.75 83.277344 Z M 230.207031 137.105469 C 229.855469 137.066406 229.390625 136.941406 229.039062 136.613281 C 228.765625 136.363281 228.527344 136.371094 228.210938 136.492188 C 227.699219 136.691406 227.164062 136.75 226.621094 136.605469 C 226.3125 136.523438 226.023438 136.578125 225.730469 136.703125 C 225.207031 136.929688 224.675781 136.890625 224.15625 136.671875 C 223.84375 136.539062 223.601562 136.320312 223.460938 136.003906 C 223.371094 135.800781 223.40625 135.613281 223.546875 135.484375 C 223.6875 135.359375 223.875 135.34375 224.066406 135.46875 C 224.261719 135.597656 224.421875 135.777344 224.652344 135.851562 C 224.742188 135.878906 224.835938 135.894531 224.929688 135.90625 C 225.109375 135.933594 225.195312 135.832031 225.128906 135.664062 C 225.078125 135.53125 225.015625 135.40625 224.964844 135.273438 C 224.910156 135.117188 224.898438 134.953125 224.925781 134.789062 C 224.976562 134.511719 225.226562 134.410156 225.457031 134.582031 C 225.566406 134.667969 225.664062 134.773438 225.769531 134.863281 C 226.605469 135.589844 227.773438 135.449219 228.554688 134.8125 C 228.707031 134.691406 228.804688 134.53125 228.855469 134.347656 C 228.9375 134.050781 229.039062 133.757812 229.078125 133.457031 C 229.15625 132.902344 229.226562 132.339844 229.25 131.777344 C 229.351562 129.1875 229.691406 126.628906 230.160156 124.085938 C 230.523438 122.121094 231.125 120.210938 231.949219 118.382812 C 232.234375 117.757812 232.566406 117.167969 233.070312 116.6875 C 233.394531 116.371094 233.757812 116.125 234.199219 116 C 235.035156 115.761719 235.882812 115.574219 236.746094 115.46875 C 237.492188 115.375 238.238281 115.273438 238.980469 115.148438 C 239.398438 115.078125 239.816406 115.046875 240.242188 115.046875 C 240.898438 115.046875 241.558594 115.054688 242.214844 115.050781 C 242.714844 115.050781 243.199219 115.144531 243.679688 115.25 C 244.117188 115.34375 244.515625 115.542969 244.894531 115.789062 C 246.082031 116.558594 247.007812 117.570312 247.757812 118.761719 C 248.03125 119.199219 248.324219 119.625 248.625 120.042969 C 248.859375 120.371094 248.875 120.691406 248.667969 121.027344 C 248.496094 121.296875 248.203125 121.371094 247.933594 121.210938 C 247.832031 121.152344 247.734375 121.082031 247.65625 120.996094 C 247.378906 120.699219 247.046875 120.480469 246.707031 120.273438 C 245.703125 119.660156 244.730469 119.003906 243.597656 118.628906 C 242.878906 118.390625 242.148438 118.242188 241.390625 118.214844 C 240.402344 118.179688 239.421875 118.28125 238.441406 118.410156 C 236.738281 118.632812 235.074219 119.042969 233.386719 119.34375 C 232.882812 119.4375 232.601562 119.683594 232.425781 120.144531 C 232.167969 120.824219 231.933594 121.515625 231.730469 122.214844 C 231.289062 123.730469 231.074219 125.289062 230.871094 126.851562 C 230.6875 128.25 230.601562 129.65625 230.496094 131.0625 C 230.433594 131.855469 230.457031 132.65625 230.335938 133.449219 C 230.230469 134.128906 230.109375 134.789062 229.757812 135.394531 C 229.59375 135.683594 229.648438 135.808594 229.953125 135.9375 C 230.28125 136.074219 230.609375 136.191406 230.976562 136.144531 C 231.152344 136.121094 231.3125 136.179688 231.378906 136.359375 C 231.441406 136.535156 231.351562 136.679688 231.234375 136.804688 C 230.988281 137.058594 230.675781 137.132812 230.207031 137.105469 Z M 246.105469 118.492188 C 245.523438 117.695312 244.855469 117.117188 244.089844 116.644531 C 243.808594 116.472656 243.5 116.347656 243.175781 116.289062 C 241.992188 116.078125 240.789062 116.015625 239.601562 116.152344 C 238.136719 116.320312 236.671875 116.519531 235.226562 116.84375 C 234.929688 116.910156 234.636719 116.992188 234.351562 117.101562 C 233.964844 117.246094 233.664062 117.5 233.484375 117.878906 C 233.433594 117.984375 233.367188 118.097656 233.453125 118.203125 C 233.523438 118.289062 233.625 118.238281 233.714844 118.214844 C 235.394531 117.785156 237.09375 117.425781 238.820312 117.246094 C 239.820312 117.144531 240.816406 117.023438 241.832031 117.132812 C 243.140625 117.277344 244.34375 117.683594 245.507812 118.265625 C 245.671875 118.34375 245.808594 118.484375 246.105469 118.492188 Z M 235.285156 145.960938 C 235.007812 145.875 234.792969 145.9375 234.566406 146.027344 C 233.851562 146.324219 233.144531 146.636719 232.457031 146.996094 C 231.476562 147.503906 230.449219 147.914062 229.359375 148.132812 C 228.238281 148.355469 227.113281 148.292969 225.988281 148.210938 C 225.710938 148.191406 225.429688 148.140625 225.152344 148.105469 C 223.992188 147.96875 222.917969 147.574219 221.917969 146.976562 C 221.515625 146.734375 221.128906 146.464844 220.75 146.191406 C 219.875 145.554688 218.984375 144.949219 217.976562 144.535156 C 217.914062 144.507812 217.855469 144.464844 217.804688 144.417969 C 217.566406 144.21875 217.640625 143.835938 217.9375 143.738281 C 218.046875 143.703125 218.171875 143.679688 218.285156 143.691406 C 218.675781 143.730469 218.957031 143.550781 219.203125 143.273438 C 219.878906 142.523438 220.558594 141.773438 221.238281 141.027344 C 221.519531 140.714844 221.796875 140.394531 222.101562 140.101562 C 222.632812 139.585938 223.257812 139.222656 223.96875 139.007812 C 224.582031 138.824219 225.175781 138.863281 225.757812 139.117188 C 225.949219 139.199219 226.140625 139.292969 226.328125 139.390625 C 226.746094 139.609375 227.171875 139.628906 227.625 139.488281 C 228.117188 139.335938 228.617188 139.210938 229.121094 139.101562 C 229.371094 139.046875 229.636719 139.035156 229.890625 139.039062 C 230.460938 139.050781 230.941406 139.285156 231.324219 139.695312 C 231.867188 140.28125 232.382812 140.886719 232.863281 141.527344 C 233.632812 142.5625 234.4375 143.574219 235.4375 144.40625 C 235.5625 144.511719 235.703125 144.605469 235.828125 144.707031 C 235.917969 144.78125 236.011719 144.859375 236.082031 144.953125 C 236.394531 145.363281 236.1875 145.878906 235.667969 145.957031 C 235.53125 145.976562 235.390625 145.960938 235.285156 145.960938 Z M 232.628906 145.441406 C 232.484375 145.378906 232.378906 145.332031 232.273438 145.289062 C 231.664062 145.042969 231.050781 144.808594 230.445312 144.554688 C 229.46875 144.144531 228.464844 143.8125 227.417969 143.664062 C 226.417969 143.515625 225.410156 143.488281 224.410156 143.726562 C 223.269531 144 222.140625 144.320312 220.976562 144.476562 C 220.90625 144.488281 220.835938 144.503906 220.773438 144.535156 C 220.714844 144.5625 220.648438 144.605469 220.625 144.660156 C 220.59375 144.730469 220.660156 144.789062 220.71875 144.828125 C 221.367188 145.25 222 145.699219 222.667969 146.085938 C 223.339844 146.472656 224.0625 146.765625 224.832031 146.890625 C 225.945312 147.074219 227.070312 147.125 228.199219 147.066406 C 228.503906 147.050781 228.804688 147.019531 229.105469 146.953125 C 230.324219 146.675781 231.464844 146.195312 232.546875 145.570312 C 232.566406 145.558594 232.574219 145.53125 232.628906 145.441406 Z M 233.773438 144.488281 C 233.371094 144.03125 232.964844 143.578125 232.570312 143.121094 C 232.371094 142.890625 232.148438 142.667969 232.003906 142.40625 C 231.664062 141.808594 231.171875 141.332031 230.777344 140.78125 C 230.421875 140.285156 229.9375 140.136719 229.355469 140.238281 C 229.238281 140.257812 229.125 140.277344 229.011719 140.308594 C 228.625 140.410156 228.238281 140.5 227.859375 140.625 C 227.25 140.828125 226.660156 140.78125 226.078125 140.535156 C 225.882812 140.457031 225.6875 140.371094 225.5 140.273438 C 225.058594 140.042969 224.609375 140.042969 224.140625 140.199219 C 223.660156 140.363281 223.253906 140.632812 222.914062 140.996094 C 222.257812 141.699219 221.613281 142.410156 220.960938 143.117188 C 220.945312 143.136719 220.925781 143.152344 220.917969 143.175781 C 220.90625 143.21875 220.886719 143.269531 220.902344 143.304688 C 220.914062 143.335938 220.972656 143.371094 221.007812 143.367188 C 221.121094 143.359375 221.238281 143.339844 221.351562 143.3125 C 222.328125 143.070312 223.308594 142.828125 224.285156 142.578125 C 225.300781 142.316406 226.332031 142.328125 227.355469 142.472656 C 228.78125 142.667969 230.136719 143.101562 231.425781 143.753906 C 232.15625 144.121094 232.925781 144.402344 233.773438 144.488281 Z M 180.503906 121.792969 C 181.984375 121.476562 183.378906 120.933594 184.765625 120.34375 C 188.214844 118.875 191.292969 116.835938 194.058594 114.316406 C 196.785156 111.828125 199.070312 108.980469 200.964844 105.816406 C 201.039062 105.695312 201.117188 105.578125 201.175781 105.453125 C 201.292969 105.207031 201.25 105 201.078125 104.886719 C 200.910156 104.78125 200.707031 104.832031 200.523438 105.046875 C 200.398438 105.1875 200.296875 105.34375 200.1875 105.5 C 198.785156 107.503906 197.226562 109.382812 195.488281 111.105469 C 194.320312 112.265625 193.070312 113.332031 191.769531 114.339844 C 190.539062 115.285156 189.289062 116.199219 187.945312 116.976562 C 186.109375 118.039062 184.183594 118.902344 182.199219 119.636719 C 181.003906 120.078125 179.773438 120.386719 178.507812 120.515625 C 177.433594 120.625 176.347656 120.617188 175.273438 120.519531 C 174.523438 120.453125 173.785156 120.300781 173.078125 120.035156 C 172.351562 119.765625 171.75 119.347656 171.3125 118.695312 C 171.210938 118.542969 171.089844 118.394531 170.964844 118.257812 C 170.878906 118.164062 170.757812 118.148438 170.636719 118.195312 C 170.519531 118.242188 170.457031 118.339844 170.445312 118.464844 C 170.421875 118.679688 170.464844 118.886719 170.53125 119.089844 C 170.683594 119.539062 170.910156 119.945312 171.246094 120.285156 C 171.785156 120.832031 172.4375 121.195312 173.144531 121.472656 C 174.476562 121.996094 175.882812 122.09375 177.355469 122.164062 C 178.367188 122.089844 179.445312 122.023438 180.503906 121.792969 Z M 263.320312 109.964844 C 263.050781 108.023438 262.671875 106.117188 261.839844 104.328125 C 261.550781 103.714844 261.21875 103.117188 260.894531 102.519531 C 260.027344 100.914062 258.777344 99.644531 257.3125 98.59375 C 256.261719 97.84375 255.125 97.210938 253.957031 96.660156 C 252.636719 96.039062 251.238281 95.769531 249.777344 95.878906 C 249.398438 95.910156 249.035156 95.988281 248.675781 96.105469 C 248.472656 96.171875 248.285156 96.269531 248.136719 96.429688 C 247.859375 96.730469 247.976562 97.144531 248.367188 97.265625 C 248.554688 97.320312 248.738281 97.289062 248.925781 97.265625 C 250.558594 97.066406 252.109375 97.328125 253.5625 98.109375 C 254.558594 98.644531 255.523438 99.226562 256.441406 99.882812 C 257.285156 100.484375 258.046875 101.203125 258.667969 102.027344 C 259.765625 103.484375 260.625 105.074219 261.144531 106.828125 C 261.746094 108.859375 262.164062 110.929688 262.285156 113.054688 C 262.316406 113.617188 262.367188 114.179688 262.441406 114.734375 C 262.523438 115.363281 262.613281 115.996094 262.820312 116.597656 C 262.878906 116.773438 262.957031 116.945312 263.042969 117.113281 C 263.085938 117.195312 263.179688 117.234375 263.28125 117.222656 C 263.386719 117.210938 263.453125 117.148438 263.496094 117.058594 C 263.609375 116.816406 263.597656 116.550781 263.5625 116.296875 C 263.414062 115.269531 263.480469 114.234375 263.449219 113.371094 C 263.425781 112.121094 263.46875 111.042969 263.320312 109.964844 Z M 269.328125 221.195312 C 269.355469 221.320312 269.433594 221.410156 269.558594 221.4375 C 269.71875 221.476562 269.84375 221.386719 269.894531 221.25 C 269.980469 221.007812 270.066406 220.757812 270.105469 220.507812 C 270.246094 219.507812 270.375 218.507812 270.5 217.503906 C 270.632812 216.433594 270.753906 215.359375 270.878906 214.289062 C 271.03125 212.984375 271.1875 211.675781 271.339844 210.371094 C 271.5 208.996094 271.644531 207.621094 271.816406 206.246094 C 272.027344 204.59375 272.253906 202.941406 272.488281 201.289062 C 272.734375 199.546875 272.976562 197.804688 273.335938 196.078125 C 273.453125 195.503906 273.570312 194.929688 273.679688 194.351562 C 273.730469 194.097656 273.75 193.839844 273.675781 193.582031 C 273.597656 193.316406 273.425781 193.148438 273.195312 193.132812 C 272.929688 193.113281 272.742188 193.246094 272.625 193.46875 C 272.558594 193.59375 272.507812 193.726562 272.46875 193.863281 C 272.132812 195.011719 271.773438 196.152344 271.558594 197.335938 C 271.199219 199.320312 270.882812 201.316406 270.609375 203.316406 C 270.429688 204.664062 270.230469 206.011719 270.132812 207.371094 C 270.085938 207.980469 269.996094 208.585938 269.9375 209.191406 C 269.820312 210.382812 269.699219 211.574219 269.597656 212.765625 C 269.527344 213.609375 269.511719 214.457031 269.417969 215.296875 C 269.25 216.769531 269.398438 218.253906 269.183594 219.726562 C 269.1875 220.21875 269.222656 220.710938 269.328125 221.195312 Z M 237 127.972656 C 237.027344 128.109375 237.050781 128.25 237.101562 128.378906 C 237.164062 128.539062 237.269531 128.664062 237.464844 128.65625 C 237.625 128.648438 237.722656 128.546875 237.78125 128.410156 C 237.84375 128.261719 237.894531 128.101562 237.933594 127.945312 C 238.035156 127.535156 238.128906 127.125 238.226562 126.710938 C 238.339844 126.242188 238.378906 126.207031 238.835938 126.238281 C 239.554688 126.292969 239.589844 126.207031 239.878906 127.023438 C 240.019531 127.417969 240.214844 127.796875 240.40625 128.171875 C 240.535156 128.425781 240.71875 128.640625 240.976562 128.78125 C 241.21875 128.914062 241.480469 128.769531 241.46875 128.5 C 241.460938 128.316406 241.417969 128.132812 241.378906 127.949219 C 241.285156 127.539062 241.175781 127.128906 241.085938 126.714844 C 241.058594 126.59375 241.125 126.453125 241.257812 126.457031 C 241.878906 126.476562 242.523438 126.378906 243.015625 126.9375 C 243.59375 127.589844 244.367188 127.933594 245.195312 128.160156 C 245.5625 128.261719 245.9375 128.277344 246.3125 128.199219 C 246.453125 128.167969 246.578125 128.097656 246.617188 127.941406 C 246.652344 127.78125 246.5625 127.664062 246.4375 127.59375 C 246.234375 127.480469 246.019531 127.382812 245.804688 127.285156 C 245.441406 127.121094 245.082031 126.945312 244.761719 126.707031 C 244.730469 126.6875 244.707031 126.621094 244.714844 126.582031 C 244.722656 126.546875 244.765625 126.492188 244.800781 126.484375 C 245.25 126.378906 245.6875 126.238281 246.164062 126.472656 C 246.582031 126.683594 247.058594 126.753906 247.527344 126.796875 C 247.761719 126.820312 247.996094 126.804688 248.214844 126.703125 C 248.445312 126.59375 248.492188 126.34375 248.292969 126.199219 C 248.179688 126.117188 248.054688 126.050781 247.925781 125.992188 C 247.734375 125.902344 247.535156 125.832031 247.34375 125.742188 C 247.246094 125.695312 247.222656 125.597656 247.296875 125.515625 C 247.386719 125.40625 247.496094 125.316406 247.597656 125.21875 C 247.914062 124.898438 248.160156 124.527344 248.367188 124.128906 C 248.492188 123.890625 248.441406 123.652344 248.269531 123.480469 C 248.105469 123.320312 247.863281 123.289062 247.617188 123.40625 C 247.53125 123.445312 247.453125 123.5 247.375 123.554688 C 247.046875 123.789062 246.671875 123.933594 246.289062 124.046875 C 245.589844 124.253906 244.863281 124.339844 244.136719 124.359375 C 242.894531 124.394531 241.652344 124.414062 240.414062 124.246094 C 239.179688 124.082031 237.945312 123.941406 236.710938 123.824219 C 236.128906 123.769531 235.554688 123.632812 234.960938 123.761719 C 234.585938 123.839844 234.316406 124.015625 234.109375 124.324219 C 233.757812 124.847656 233.886719 125.265625 234.5 125.457031 C 234.855469 125.570312 235.230469 125.621094 235.601562 125.6875 C 235.945312 125.75 236.296875 125.789062 236.644531 125.855469 C 236.910156 125.90625 237.011719 126.019531 237.023438 126.285156 C 237.039062 126.539062 237.027344 126.800781 237.027344 127.058594 C 236.96875 127.363281 236.945312 127.667969 237 127.972656 Z M 181.390625 151.875 C 181.59375 151.839844 181.675781 151.609375 181.550781 151.4375 C 181.410156 151.242188 181.210938 151.117188 181.007812 151.003906 C 180.617188 150.78125 180.257812 150.515625 179.914062 150.234375 C 179.164062 149.621094 178.554688 148.871094 177.898438 148.167969 C 177.65625 147.910156 177.527344 147.578125 177.425781 147.234375 C 177.023438 145.902344 177.011719 144.535156 177.242188 143.1875 C 177.734375 140.300781 179.25 137.960938 181.328125 135.957031 C 181.617188 135.683594 181.953125 135.460938 182.265625 135.214844 C 182.449219 135.066406 182.632812 134.917969 182.757812 134.714844 C 182.832031 134.582031 182.84375 134.445312 182.761719 134.3125 C 182.671875 134.175781 182.480469 134.101562 182.328125 134.164062 C 182.179688 134.230469 182.035156 134.316406 181.898438 134.402344 C 180.816406 135.082031 179.902344 135.953125 179.039062 136.886719 C 177.585938 138.453125 176.59375 140.269531 176.023438 142.3125 C 175.609375 143.785156 175.589844 145.28125 175.859375 146.78125 C 175.996094 147.550781 176.25 148.292969 176.773438 148.890625 C 177.707031 149.957031 178.78125 150.867188 180.039062 151.535156 C 180.417969 151.734375 180.832031 151.828125 181.238281 151.890625 C 181.296875 151.882812 181.34375 151.878906 181.390625 151.875 Z M 193.339844 147.515625 C 193.855469 148.972656 194.621094 150.28125 195.648438 151.433594 C 195.742188 151.539062 195.847656 151.636719 195.964844 151.714844 C 196.082031 151.800781 196.222656 151.828125 196.351562 151.722656 C 196.453125 151.636719 196.460938 151.515625 196.4375 151.398438 C 196.359375 151.050781 196.210938 150.734375 196.046875 150.421875 C 195.253906 148.890625 194.625 147.300781 194.417969 145.574219 C 194.292969 144.546875 194.269531 143.515625 194.472656 142.492188 C 194.882812 140.375 195.65625 138.390625 196.707031 136.515625 C 197.382812 135.304688 198.078125 134.109375 198.820312 132.9375 C 198.917969 132.777344 199.019531 132.617188 199.097656 132.449219 C 199.144531 132.34375 199.164062 132.222656 199.167969 132.109375 C 199.175781 131.847656 198.898438 131.699219 198.667969 131.832031 C 198.433594 131.964844 198.292969 132.183594 198.140625 132.390625 C 197.308594 133.527344 196.535156 134.707031 195.792969 135.902344 C 194.988281 137.207031 194.304688 138.566406 193.789062 140.007812 C 193.273438 141.449219 192.839844 142.910156 192.882812 144.496094 C 192.859375 145.511719 192.992188 146.53125 193.339844 147.515625 Z M 253.164062 165.828125 C 253.226562 165.671875 253.144531 165.550781 253.039062 165.453125 C 252.808594 165.246094 252.535156 165.109375 252.253906 164.984375 C 251.675781 164.722656 251.097656 164.46875 250.515625 164.210938 C 249.871094 163.925781 249.226562 163.640625 248.585938 163.355469 C 248.125 163.148438 247.746094 162.832031 247.449219 162.425781 C 247.035156 161.855469 246.664062 161.257812 246.394531 160.601562 C 245.902344 159.414062 245.691406 158.171875 245.6875 156.890625 C 245.6875 156.277344 245.773438 155.671875 245.796875 155.0625 C 245.832031 154.234375 245.957031 153.425781 246.132812 152.621094 C 246.421875 151.3125 246.761719 150.015625 247.488281 148.863281 C 247.527344 148.804688 247.558594 148.738281 247.582031 148.671875 C 247.617188 148.554688 247.59375 148.441406 247.507812 148.347656 C 247.421875 148.253906 247.3125 148.214844 247.191406 148.242188 C 246.949219 148.292969 246.761719 148.441406 246.628906 148.640625 C 246.449219 148.914062 246.273438 149.195312 246.125 149.488281 C 245.433594 150.839844 245.035156 152.285156 244.765625 153.769531 C 244.597656 154.695312 244.546875 155.636719 244.445312 156.566406 C 244.355469 157.425781 244.445312 158.261719 244.566406 159.09375 C 244.777344 160.511719 245.359375 161.785156 246.183594 162.957031 C 246.746094 163.753906 247.453125 164.332031 248.378906 164.644531 C 249.113281 164.890625 249.839844 165.164062 250.570312 165.414062 C 251.015625 165.566406 251.464844 165.710938 251.914062 165.839844 C 252.207031 165.921875 252.511719 165.96875 252.722656 166.011719 C 252.960938 166.003906 253.101562 165.984375 253.164062 165.828125 Z M 245.980469 90.757812 C 245.492188 90.144531 244.945312 89.605469 244.308594 89.15625 C 243.753906 88.757812 243.167969 88.414062 242.574219 88.082031 C 242.164062 87.851562 241.773438 87.59375 241.375 87.34375 C 241.253906 87.269531 241.140625 87.183594 241.015625 87.121094 C 240.84375 87.03125 240.671875 87.0625 240.566406 87.179688 C 240.4375 87.324219 240.445312 87.488281 240.535156 87.636719 C 240.632812 87.796875 240.75 87.945312 240.875 88.082031 C 241.144531 88.382812 241.484375 88.597656 241.816406 88.816406 C 242.445312 89.230469 243.082031 89.628906 243.664062 90.105469 C 244.730469 90.976562 245.496094 92.015625 245.777344 93.414062 C 245.992188 94.476562 245.867188 95.464844 245.449219 96.4375 C 245.277344 96.847656 245.070312 97.246094 244.75 97.566406 C 243.804688 98.507812 242.742188 99.257812 241.476562 99.710938 C 240.789062 99.953125 240.078125 100.101562 239.359375 100.21875 C 239.222656 100.238281 239.085938 100.28125 238.957031 100.328125 C 238.859375 100.367188 238.820312 100.5625 238.894531 100.636719 C 238.972656 100.71875 239.058594 100.804688 239.160156 100.855469 C 239.4375 100.996094 239.742188 101.035156 240.050781 101.027344 C 241.441406 100.988281 242.738281 100.617188 243.90625 99.855469 C 244.355469 99.558594 244.785156 99.230469 245.203125 98.886719 C 246.554688 97.769531 247.132812 96.273438 247.261719 94.546875 C 247.15625 93.183594 246.871094 91.875 245.980469 90.757812 Z M 251.878906 185.578125 C 252.355469 185.375 252.828125 185.164062 253.296875 184.945312 C 254.960938 184.175781 256.644531 183.457031 258.394531 182.902344 C 260.378906 182.269531 262.230469 181.367188 264.011719 180.304688 C 264.917969 179.757812 265.800781 179.175781 266.609375 178.492188 C 266.84375 178.296875 267.050781 178.070312 267.257812 177.847656 C 267.339844 177.761719 267.371094 177.636719 267.300781 177.523438 C 267.214844 177.378906 267.066406 177.367188 266.929688 177.417969 C 266.753906 177.480469 266.582031 177.558594 266.417969 177.648438 C 265.800781 177.992188 265.191406 178.34375 264.574219 178.683594 C 262.507812 179.808594 260.410156 180.859375 258.15625 181.566406 C 255.773438 182.316406 253.496094 183.320312 251.269531 184.445312 C 251.105469 184.53125 250.9375 184.621094 250.792969 184.738281 C 250.566406 184.921875 250.507812 185.207031 250.625 185.4375 C 250.742188 185.675781 250.949219 185.761719 251.203125 185.761719 C 251.445312 185.761719 251.664062 185.667969 251.878906 185.578125 Z M 225.113281 185.742188 C 225.816406 185.707031 226.515625 185.640625 227.199219 185.46875 C 227.542969 185.382812 227.878906 185.28125 228.167969 185.066406 C 228.285156 184.980469 228.375 184.878906 228.355469 184.71875 C 228.339844 184.570312 228.210938 184.457031 228 184.4375 C 227.765625 184.417969 227.53125 184.417969 227.296875 184.417969 C 226.265625 184.402344 225.234375 184.414062 224.203125 184.371094 C 222.941406 184.316406 221.679688 184.226562 220.417969 184.132812 C 219.390625 184.054688 218.359375 183.992188 217.375 183.648438 C 217.175781 183.582031 216.964844 183.546875 216.757812 183.503906 C 216.59375 183.46875 216.433594 183.496094 216.28125 183.574219 C 216.046875 183.691406 215.980469 183.957031 216.132812 184.167969 C 216.273438 184.363281 216.480469 184.476562 216.6875 184.585938 C 217.480469 185.019531 218.34375 185.234375 219.230469 185.34375 C 219.859375 185.417969 220.488281 185.46875 221.117188 185.539062 C 222.140625 185.652344 223.164062 185.785156 224.199219 185.742188 C 224.503906 185.742188 224.808594 185.757812 225.113281 185.742188 Z M 195.660156 169.65625 C 195.855469 169.53125 196.019531 169.355469 196.175781 169.179688 C 196.28125 169.0625 196.359375 168.910156 196.421875 168.761719 C 196.503906 168.554688 196.453125 168.339844 196.324219 168.246094 C 196.167969 168.136719 196.011719 168.179688 195.855469 168.246094 C 195.8125 168.261719 195.769531 168.285156 195.730469 168.308594 C 194.910156 168.734375 194.035156 168.988281 193.125 169.136719 C 192.148438 169.292969 190.976562 168.917969 190.296875 168.207031 C 190.179688 168.089844 190.078125 167.957031 189.957031 167.851562 C 189.71875 167.640625 189.46875 167.621094 189.25 167.777344 C 189.027344 167.933594 188.933594 168.175781 189.023438 168.457031 C 189.085938 168.65625 189.175781 168.851562 189.292969 169.027344 C 189.570312 169.441406 189.929688 169.777344 190.378906 170.007812 C 191.054688 170.351562 191.769531 170.566406 192.742188 170.601562 C 193.65625 170.550781 194.707031 170.261719 195.660156 169.65625 Z M 176.484375 135.691406 C 175.886719 136.015625 175.289062 136.339844 174.695312 136.667969 C 174.328125 136.871094 173.964844 137.085938 173.597656 137.292969 C 172.894531 137.691406 172.511719 138.300781 172.378906 139.085938 C 172.273438 139.71875 172.261719 140.347656 172.332031 140.980469 C 172.402344 141.625 172.695312 142.183594 173.097656 142.6875 C 173.265625 142.890625 173.46875 143.042969 173.730469 143.109375 C 173.945312 143.164062 174.175781 143.089844 174.292969 142.917969 C 174.414062 142.734375 174.367188 142.5625 174.246094 142.398438 C 174.191406 142.320312 174.128906 142.25 174.074219 142.175781 C 173.613281 141.511719 173.429688 140.777344 173.53125 139.976562 C 173.554688 139.789062 173.597656 139.605469 173.605469 139.417969 C 173.621094 138.882812 173.878906 138.480469 174.300781 138.179688 C 174.601562 137.960938 174.914062 137.75 175.230469 137.546875 C 175.78125 137.191406 176.324219 136.824219 176.808594 136.375 C 176.976562 136.214844 177.144531 136.050781 177.230469 135.824219 C 177.296875 135.65625 177.171875 135.46875 177.101562 135.472656 C 176.804688 135.492188 176.648438 135.601562 176.484375 135.691406 Z M 176.484375 135.691406 " fill-opacity="1" fill-rule="nonzero"/></g><g clip-path="url(#d709d55c8f)"><g clip-path="url(#9a18a60730)"><g clip-path="url(#2ff15cfa1f)"><g transform="matrix(1, 0, 0, 1, 181, 174)"><g clip-path="url(#ddafbebcf5)"><g clip-path="url(#2fe13d5dd0)"><g clip-path="url(#761fe21da1)"><g clip-path="url(#dec9d050d7)"><path fill="#ffffff" d="M -1.0625 12.035156 L 99.28125 -1.445312 L 106.457031 51.960938 L 6.109375 65.441406 Z M -1.0625 12.035156 " fill-opacity="1" fill-rule="nonzero"/></g></g></g></g></g></g></g></g><g transform="matrix(1, 0, 0, 1, 162, 259)"><g clip-path="url(#2ef36987fd)"><g fill="#000000" fill-opacity="1"><g transform="translate(1.312371, 9.590639)"><g><path d="M 0.984375 0 L 0.984375 -6.53125 L 3.46875 -6.53125 C 3.863281 -6.53125 4.203125 -6.46875 4.484375 -6.34375 C 4.765625 -6.21875 4.972656 -6.035156 5.109375 -5.796875 C 5.253906 -5.554688 5.328125 -5.273438 5.328125 -4.953125 C 5.328125 -4.671875 5.25 -4.414062 5.09375 -4.1875 C 4.945312 -3.957031 4.726562 -3.773438 4.4375 -3.640625 L 4.4375 -3.546875 C 4.875 -3.441406 5.203125 -3.25 5.421875 -2.96875 C 5.648438 -2.6875 5.765625 -2.328125 5.765625 -1.890625 C 5.765625 -1.285156 5.585938 -0.816406 5.234375 -0.484375 C 4.878906 -0.160156 4.351562 0 3.65625 0 Z M 3.421875 -3.796875 C 3.785156 -3.796875 4.066406 -3.890625 4.265625 -4.078125 C 4.460938 -4.265625 4.5625 -4.523438 4.5625 -4.859375 C 4.5625 -5.203125 4.46875 -5.460938 4.28125 -5.640625 C 4.09375 -5.816406 3.804688 -5.90625 3.421875 -5.90625 L 1.75 -5.90625 L 1.75 -3.796875 Z M 3.59375 -0.640625 C 4.519531 -0.640625 4.984375 -1.054688 4.984375 -1.890625 C 4.984375 -2.734375 4.519531 -3.15625 3.59375 -3.15625 L 1.75 -3.15625 L 1.75 -0.640625 Z M 3.59375 -0.640625 "/></g></g></g><g fill="#000000" fill-opacity="1"><g transform="translate(10.146357, 9.590639)"><g><path d="M 1.75 -3.078125 L 1.75 -0.640625 L 5.09375 -0.640625 L 5.09375 0 L 0.984375 0 L 0.984375 -6.53125 L 5.015625 -6.53125 L 5.015625 -5.90625 L 1.75 -5.90625 L 1.75 -3.71875 L 4.625 -3.71875 L 4.625 -3.078125 Z M 1.75 -3.078125 "/></g></g></g><g fill="#000000" fill-opacity="1"><g transform="translate(18.211535, 9.590639)"><g><path d="M 5.890625 0 L 5.0625 0 L 4.453125 -1.796875 L 1.671875 -1.796875 L 1.0625 0 L 0.265625 0 L 2.546875 -6.53125 L 3.609375 -6.53125 Z M 3.015625 -5.75 L 1.890625 -2.4375 L 4.234375 -2.4375 L 3.125 -5.75 Z M 3.015625 -5.75 "/></g></g></g><g fill="#000000" fill-opacity="1"><g transform="translate(26.898017, 9.590639)"><g><path d="M 3.375 0.09375 C 2.570312 0.09375 1.960938 -0.109375 1.546875 -0.515625 C 1.140625 -0.921875 0.9375 -1.523438 0.9375 -2.328125 L 0.9375 -6.53125 L 1.703125 -6.53125 L 1.703125 -2.328125 C 1.703125 -1.753906 1.835938 -1.320312 2.109375 -1.03125 C 2.390625 -0.75 2.8125 -0.609375 3.375 -0.609375 C 4.488281 -0.609375 5.046875 -1.179688 5.046875 -2.328125 L 5.046875 -6.53125 L 5.8125 -6.53125 L 5.8125 -2.328125 C 5.8125 -1.523438 5.601562 -0.921875 5.1875 -0.515625 C 4.78125 -0.109375 4.175781 0.09375 3.375 0.09375 Z M 3.375 0.09375 "/></g></g></g><g fill="#000000" fill-opacity="1"><g transform="translate(36.178984, 9.590639)"><g><path d="M 5.09375 -6.53125 L 5.09375 -5.890625 L 3.046875 -5.890625 L 3.046875 0 L 2.296875 0 L 2.296875 -5.890625 L 0.234375 -5.890625 L 0.234375 -6.53125 Z M 5.09375 -6.53125 "/></g></g></g><g fill="#000000" fill-opacity="1"><g transform="translate(44.0609, 9.590639)"><g><path d="M 3.1875 0 L 2.421875 0 L 2.421875 -2.5625 L 0.171875 -6.53125 L 1.015625 -6.53125 L 2.765625 -3.46875 L 2.890625 -3.46875 L 4.625 -6.53125 L 5.453125 -6.53125 L 3.1875 -2.5625 Z M 3.1875 0 "/></g></g></g></g></g><g transform="matrix(1, 0, 0, 1, 69, 156)"><g clip-path="url(#82c13fca56)"><g fill="#272727" fill-opacity="1"><g transform="translate(0.930319, 92.626203)"><g><path d="M 53.90625 -13.34375 C 56.207031 -12.769531 58.347656 -11.820312 60.328125 -10.5 C 62.304688 -9.1875 64.015625 -7.582031 65.453125 -5.6875 C 66.898438 -3.789062 68.035156 -1.671875 68.859375 0.671875 C 69.679688 3.023438 70.09375 5.476562 70.09375 8.03125 C 70.09375 5.8125 69.660156 3.753906 68.796875 1.859375 C 67.929688 -0.0351562 66.753906 -1.703125 65.265625 -3.140625 C 63.785156 -4.585938 62.097656 -5.722656 60.203125 -6.546875 C 58.304688 -7.367188 56.328125 -7.78125 54.265625 -7.78125 C 51.796875 -7.78125 49.570312 -7.222656 47.59375 -6.109375 C 45.613281 -5.003906 43.738281 -3.625 41.96875 -1.96875 C 40.195312 -0.320312 38.46875 1.46875 36.78125 3.40625 C 35.09375 5.34375 33.335938 7.132812 31.515625 8.78125 C 29.703125 10.425781 27.765625 11.804688 25.703125 12.921875 C 23.648438 14.035156 21.390625 14.59375 18.921875 14.59375 C 16.691406 14.59375 14.628906 14.15625 12.734375 13.28125 C 10.835938 12.414062 9.164062 11.222656 7.71875 9.703125 C 6.28125 8.179688 5.148438 6.410156 4.328125 4.390625 C 3.503906 2.367188 3.09375 0.203125 3.09375 -2.109375 C 3.09375 -5.816406 4.117188 -9.109375 6.171875 -11.984375 C 8.234375 -14.867188 10.875 -16.847656 14.09375 -17.921875 C 12.9375 -17.265625 12.03125 -16.210938 11.375 -14.765625 C 10.71875 -13.328125 10.390625 -11.910156 10.390625 -10.515625 C 10.390625 -8.285156 11.191406 -6.363281 12.796875 -4.75 C 14.398438 -3.144531 16.316406 -2.34375 18.546875 -2.34375 C 20.847656 -2.34375 23.171875 -2.898438 25.515625 -4.015625 C 27.867188 -5.128906 30.285156 -6.382812 32.765625 -7.78125 C 29.296875 -8.28125 26.078125 -9.3125 23.109375 -10.875 C 20.148438 -12.445312 17.578125 -14.425781 15.390625 -16.8125 C 13.203125 -19.195312 11.488281 -21.914062 10.25 -24.96875 C 9.019531 -28.019531 8.40625 -31.273438 8.40625 -34.734375 C 8.40625 -38.359375 9.101562 -41.78125 10.5 -45 C 11.90625 -48.21875 13.800781 -51.0625 16.1875 -53.53125 C 18.582031 -56 21.40625 -57.972656 24.65625 -59.453125 C 27.914062 -60.941406 31.398438 -61.769531 35.109375 -61.9375 C 32.472656 -61.28125 30.472656 -58.625 29.109375 -53.96875 C 27.753906 -49.3125 27.078125 -42.898438 27.078125 -34.734375 C 27.078125 -27.484375 27.628906 -21.613281 28.734375 -17.125 C 29.847656 -12.632812 31.476562 -9.6875 33.625 -8.28125 C 35.1875 -9.1875 36.726562 -10.03125 38.25 -10.8125 C 39.78125 -11.59375 41.367188 -12.234375 43.015625 -12.734375 C 44.085938 -15.035156 44.867188 -18.039062 45.359375 -21.75 C 45.859375 -25.46875 46.109375 -29.796875 46.109375 -34.734375 C 46.109375 -42.898438 45.425781 -49.3125 44.0625 -53.96875 C 42.707031 -58.625 40.710938 -61.28125 38.078125 -61.9375 C 41.785156 -61.769531 45.265625 -60.941406 48.515625 -59.453125 C 51.773438 -57.972656 54.597656 -56 56.984375 -53.53125 C 59.378906 -51.0625 61.273438 -48.21875 62.671875 -45 C 64.078125 -41.78125 64.78125 -38.359375 64.78125 -34.734375 C 64.78125 -30.367188 63.8125 -26.332031 61.875 -22.625 C 59.9375 -18.914062 57.28125 -15.820312 53.90625 -13.34375 Z M 47.59375 22.75 C 47.101562 23.320312 46.648438 23.9375 46.234375 24.59375 C 45.828125 25.257812 45.625 25.921875 45.625 26.578125 C 45.625 27.566406 45.953125 28.367188 46.609375 28.984375 C 47.265625 29.609375 48.171875 29.921875 49.328125 29.921875 C 46.929688 29.921875 44.660156 29.546875 42.515625 28.796875 C 40.378906 28.054688 38.46875 27.046875 36.78125 25.765625 C 35.09375 24.492188 33.753906 23.015625 32.765625 21.328125 C 31.773438 19.640625 31.28125 17.847656 31.28125 15.953125 C 31.28125 13.304688 32.226562 11.035156 34.125 9.140625 C 36.019531 7.253906 38.285156 6.3125 40.921875 6.3125 C 42.234375 6.3125 43.46875 6.554688 44.625 7.046875 C 45.78125 7.535156 46.789062 8.210938 47.65625 9.078125 C 48.519531 9.953125 49.195312 10.984375 49.6875 12.171875 C 50.1875 13.367188 50.4375 14.628906 50.4375 15.953125 C 50.4375 18.585938 49.488281 20.851562 47.59375 22.75 Z M 49.453125 -59.703125 C 46.898438 -61.597656 44.550781 -64.007812 42.40625 -66.9375 C 40.257812 -69.863281 39.1875 -73.179688 39.1875 -76.890625 C 39.1875 -79.523438 40.132812 -81.789062 42.03125 -83.6875 C 43.925781 -85.582031 46.191406 -86.53125 48.828125 -86.53125 C 50.148438 -86.53125 51.382812 -86.28125 52.53125 -85.78125 C 53.6875 -85.289062 54.695312 -84.613281 55.5625 -83.75 C 56.4375 -82.882812 57.117188 -81.851562 57.609375 -80.65625 C 58.097656 -79.46875 58.34375 -78.210938 58.34375 -76.890625 C 58.34375 -74.671875 57.742188 -72.859375 56.546875 -71.453125 C 55.359375 -70.054688 53.816406 -68.863281 51.921875 -67.875 C 50.523438 -67.125 49.492188 -66.441406 48.828125 -65.828125 C 48.171875 -65.210938 47.84375 -64.328125 47.84375 -63.171875 C 47.84375 -62.097656 48.378906 -60.941406 49.453125 -59.703125 Z M 49.453125 -59.703125 "/></g></g></g><g fill="#272727" fill-opacity="1"><g transform="translate(65.583255, 92.626203)"><g><path d="M 26.703125 -6.796875 C 26.703125 -5.316406 27.195312 -3.875 28.1875 -2.46875 C 29.175781 -1.070312 30.367188 -0.25 31.765625 0 L 3.09375 0 C 4.488281 -0.25 5.679688 -1.070312 6.671875 -2.46875 C 7.660156 -3.875 8.15625 -5.316406 8.15625 -6.796875 L 8.15625 -76.640625 C 8.15625 -78.128906 7.660156 -79.570312 6.671875 -80.96875 C 5.679688 -82.375 4.488281 -83.203125 3.09375 -83.453125 L 24.234375 -86.53125 L 24.59375 -86.53125 C 25.257812 -86.53125 25.773438 -86.320312 26.140625 -85.90625 C 26.515625 -85.5 26.703125 -84.96875 26.703125 -84.3125 Z M 26.703125 -6.796875 "/></g></g></g><g fill="#272727" fill-opacity="1"><g transform="translate(91.790386, 92.626203)"><g><path d="M 32.265625 -61.9375 C 36.054688 -61.769531 39.597656 -60.84375 42.890625 -59.15625 C 46.191406 -57.46875 49.078125 -55.222656 51.546875 -52.421875 C 54.023438 -49.617188 55.960938 -46.34375 57.359375 -42.59375 C 58.765625 -38.84375 59.46875 -34.863281 59.46875 -30.65625 C 59.46875 -26.457031 58.765625 -22.484375 57.359375 -18.734375 C 55.960938 -14.984375 54.023438 -11.707031 51.546875 -8.90625 C 49.078125 -6.101562 46.191406 -3.851562 42.890625 -2.15625 C 39.597656 -0.46875 36.054688 0.457031 32.265625 0.625 C 35.066406 0.0390625 37.1875 -2.90625 38.625 -8.21875 C 40.070312 -13.53125 40.796875 -21.007812 40.796875 -30.65625 C 40.796875 -40.300781 40.070312 -47.78125 38.625 -53.09375 C 37.1875 -58.414062 35.066406 -61.363281 32.265625 -61.9375 Z M 30.171875 -61.9375 C 27.441406 -61.363281 25.335938 -58.414062 23.859375 -53.09375 C 22.378906 -47.78125 21.640625 -40.300781 21.640625 -30.65625 C 21.640625 -21.007812 22.378906 -13.53125 23.859375 -8.21875 C 25.335938 -2.90625 27.441406 0.0390625 30.171875 0.625 C 26.378906 0.457031 22.832031 -0.46875 19.53125 -2.15625 C 16.238281 -3.851562 13.375 -6.101562 10.9375 -8.90625 C 8.507812 -11.707031 6.59375 -14.984375 5.1875 -18.734375 C 3.789062 -22.484375 3.09375 -26.457031 3.09375 -30.65625 C 3.09375 -34.863281 3.789062 -38.84375 5.1875 -42.59375 C 6.59375 -46.34375 8.507812 -49.617188 10.9375 -52.421875 C 13.375 -55.222656 16.238281 -57.46875 19.53125 -59.15625 C 22.832031 -60.84375 26.378906 -61.769531 30.171875 -61.9375 Z M 30.171875 -61.9375 "/></g></g></g><g fill="#272727" fill-opacity="1"><g transform="translate(145.688378, 92.626203)"><g><path d="M 87.28125 -46.984375 C 87.28125 -43.347656 86.988281 -39.96875 86.40625 -36.84375 C 86.738281 -38.90625 86.613281 -40.59375 86.03125 -41.90625 C 85.457031 -43.226562 84.347656 -43.890625 82.703125 -43.890625 C 81.628906 -43.890625 80.722656 -43.742188 79.984375 -43.453125 C 79.242188 -43.160156 78.296875 -43.015625 77.140625 -43.015625 C 75.816406 -43.015625 74.554688 -43.257812 73.359375 -43.75 C 72.171875 -44.25 71.144531 -44.929688 70.28125 -45.796875 C 69.414062 -46.660156 68.734375 -47.671875 68.234375 -48.828125 C 67.742188 -49.984375 67.5 -51.222656 67.5 -52.546875 C 67.5 -55.179688 68.445312 -57.445312 70.34375 -59.34375 C 72.238281 -61.238281 74.503906 -62.1875 77.140625 -62.1875 C 79.035156 -62.1875 80.742188 -61.691406 82.265625 -60.703125 C 83.796875 -59.710938 84.929688 -58.394531 85.671875 -56.75 L 85.796875 -56.75 C 86.453125 -55.257812 86.863281 -53.628906 87.03125 -51.859375 C 87.195312 -50.085938 87.28125 -48.460938 87.28125 -46.984375 Z M 52.78125 -5.8125 C 52.78125 -4.40625 53.421875 -3.269531 54.703125 -2.40625 C 55.984375 -1.539062 57.734375 -1.191406 59.953125 -1.359375 C 61.191406 -1.523438 62.53125 -1.8125 63.96875 -2.21875 C 65.414062 -2.632812 66.71875 -3.171875 67.875 -3.828125 C 65.8125 -2.429688 63.707031 -1.335938 61.5625 -0.546875 C 59.414062 0.234375 57.234375 0.625 55.015625 0.625 C 50.804688 0.625 47.363281 -0.835938 44.6875 -3.765625 C 42.007812 -6.691406 40.671875 -11.039062 40.671875 -16.8125 L 40.671875 -50.8125 C 40.671875 -52.375 40.175781 -53.832031 39.1875 -55.1875 C 38.195312 -56.550781 37.003906 -57.359375 35.609375 -57.609375 L 56.75 -60.703125 L 57.109375 -60.703125 C 58.515625 -60.703125 59.21875 -60 59.21875 -58.59375 L 59.21875 -18.296875 C 59.21875 -16.734375 58.882812 -15.414062 58.21875 -14.34375 C 57.5625 -13.269531 56.820312 -12.300781 56 -11.4375 C 55.175781 -10.570312 54.429688 -9.707031 53.765625 -8.84375 C 53.109375 -7.976562 52.78125 -6.96875 52.78125 -5.8125 Z M 20.28125 -5.8125 C 20.28125 -4.40625 20.914062 -3.269531 22.1875 -2.40625 C 23.46875 -1.539062 25.21875 -1.191406 27.4375 -1.359375 C 28.675781 -1.523438 30.015625 -1.8125 31.453125 -2.21875 C 32.898438 -2.632812 34.203125 -3.171875 35.359375 -3.828125 C 33.296875 -2.429688 31.191406 -1.335938 29.046875 -0.546875 C 26.910156 0.234375 24.726562 0.625 22.5 0.625 C 18.289062 0.625 14.847656 -0.835938 12.171875 -3.765625 C 9.492188 -6.691406 8.15625 -11.039062 8.15625 -16.8125 L 8.15625 -50.8125 C 8.15625 -52.375 7.660156 -53.832031 6.671875 -55.1875 C 5.679688 -56.550781 4.488281 -57.359375 3.09375 -57.609375 L 24.234375 -60.703125 L 24.59375 -60.703125 C 26 -60.703125 26.703125 -60 26.703125 -58.59375 L 26.703125 -18.296875 C 26.703125 -16.734375 26.367188 -15.414062 25.703125 -14.34375 C 25.046875 -13.269531 24.304688 -12.300781 23.484375 -11.4375 C 22.660156 -10.570312 21.921875 -9.707031 21.265625 -8.84375 C 20.609375 -7.976562 20.28125 -6.96875 20.28125 -5.8125 Z M 20.28125 -5.8125 "/></g></g></g></g></g></svg>