<svg xmlns="http://www.w3.org/2000/svg" xmlns:xlink="http://www.w3.org/1999/xlink" width="500" zoomAndPan="magnify" viewBox="0 0 375 374.999991" height="500" preserveAspectRatio="xMidYMid meet" version="1.0"><defs><filter x="0%" y="0%" width="100%" height="100%" id="9298e1da57"><feColorMatrix values="0 0 0 0 1 0 0 0 0 1 0 0 0 0 1 0 0 0 1 0" color-interpolation-filters="sRGB"/></filter><g/><clipPath id="0fe3f3cf9d"><path d="M 66 37 L 188 37 L 188 136 L 66 136 Z M 66 37 " clip-rule="nonzero"/></clipPath><clipPath id="d7a5b0266b"><path d="M 66.667969 37.5 L 304.769531 51.316406 L 291.601562 278.1875 L 53.503906 264.367188 Z M 66.667969 37.5 " clip-rule="nonzero"/></clipPath><clipPath id="6da6c8ce3d"><path d="M 66.667969 37.5 L 304.769531 51.316406 L 291.601562 278.1875 L 53.503906 264.367188 Z M 66.667969 37.5 " clip-rule="nonzero"/></clipPath><clipPath id="e0b7273231"><path d="M 81 112 L 188 112 L 188 170 L 81 170 Z M 81 112 " clip-rule="nonzero"/></clipPath><clipPath id="51dd2fd7e7"><path d="M 66.667969 37.5 L 304.769531 51.316406 L 291.601562 278.1875 L 53.503906 264.367188 Z M 66.667969 37.5 " clip-rule="nonzero"/></clipPath><clipPath id="1471957ea9"><path d="M 66.667969 37.5 L 304.769531 51.316406 L 291.601562 278.1875 L 53.503906 264.367188 Z M 66.667969 37.5 " clip-rule="nonzero"/></clipPath><clipPath id="ee25aebdb7"><path d="M 143 135 L 188 135 L 188 189 L 143 189 Z M 143 135 " clip-rule="nonzero"/></clipPath><clipPath id="7ac1e29b75"><path d="M 66.667969 37.5 L 304.769531 51.316406 L 291.601562 278.1875 L 53.503906 264.367188 Z M 66.667969 37.5 " clip-rule="nonzero"/></clipPath><clipPath id="81a14f1295"><path d="M 66.667969 37.5 L 304.769531 51.316406 L 291.601562 278.1875 L 53.503906 264.367188 Z M 66.667969 37.5 " clip-rule="nonzero"/></clipPath><clipPath id="d7fa2bc302"><path d="M 181 115 L 220 115 L 220 131 L 181 131 Z M 181 115 " clip-rule="nonzero"/></clipPath><clipPath id="92abca5092"><path d="M 66.667969 37.5 L 304.769531 51.316406 L 291.601562 278.1875 L 53.503906 264.367188 Z M 66.667969 37.5 " clip-rule="nonzero"/></clipPath><clipPath id="62b1ad583d"><path d="M 66.667969 37.5 L 304.769531 51.316406 L 291.601562 278.1875 L 53.503906 264.367188 Z M 66.667969 37.5 " clip-rule="nonzero"/></clipPath><clipPath id="307e71d53c"><path d="M 210 115 L 237 115 L 237 130 L 210 130 Z M 210 115 " clip-rule="nonzero"/></clipPath><clipPath id="a0d49522f6"><path d="M 66.667969 37.5 L 304.769531 51.316406 L 291.601562 278.1875 L 53.503906 264.367188 Z M 66.667969 37.5 " clip-rule="nonzero"/></clipPath><clipPath id="15fa466189"><path d="M 66.667969 37.5 L 304.769531 51.316406 L 291.601562 278.1875 L 53.503906 264.367188 Z M 66.667969 37.5 " clip-rule="nonzero"/></clipPath><clipPath id="9e643f3bb6"><path d="M 181 129 L 219 129 L 219 159 L 181 159 Z M 181 129 " clip-rule="nonzero"/></clipPath><clipPath id="854f5fff5b"><path d="M 66.667969 37.5 L 304.769531 51.316406 L 291.601562 278.1875 L 53.503906 264.367188 Z M 66.667969 37.5 " clip-rule="nonzero"/></clipPath><clipPath id="4ff12485cc"><path d="M 66.667969 37.5 L 304.769531 51.316406 L 291.601562 278.1875 L 53.503906 264.367188 Z M 66.667969 37.5 " clip-rule="nonzero"/></clipPath><clipPath id="2ed07981e5"><path d="M 236 124 L 301 124 L 301 133 L 236 133 Z M 236 124 " clip-rule="nonzero"/></clipPath><clipPath id="861a3703eb"><path d="M 66.667969 37.5 L 304.769531 51.316406 L 291.601562 278.1875 L 53.503906 264.367188 Z M 66.667969 37.5 " clip-rule="nonzero"/></clipPath><clipPath id="0f7f78a700"><path d="M 66.667969 37.5 L 304.769531 51.316406 L 291.601562 278.1875 L 53.503906 264.367188 Z M 66.667969 37.5 " clip-rule="nonzero"/></clipPath><clipPath id="9616a22524"><path d="M 217 124 L 241 124 L 241 159 L 217 159 Z M 217 124 " clip-rule="nonzero"/></clipPath><clipPath id="1a74309ace"><path d="M 66.667969 37.5 L 304.769531 51.316406 L 291.601562 278.1875 L 53.503906 264.367188 Z M 66.667969 37.5 " clip-rule="nonzero"/></clipPath><clipPath id="15b6baaa9d"><path d="M 66.667969 37.5 L 304.769531 51.316406 L 291.601562 278.1875 L 53.503906 264.367188 Z M 66.667969 37.5 " clip-rule="nonzero"/></clipPath><clipPath id="c9fd2d9bf1"><path d="M 217 124 L 237 124 L 237 159 L 217 159 Z M 217 124 " clip-rule="nonzero"/></clipPath><clipPath id="9c4df9cbe2"><path d="M 66.667969 37.5 L 304.769531 51.316406 L 291.601562 278.1875 L 53.503906 264.367188 Z M 66.667969 37.5 " clip-rule="nonzero"/></clipPath><clipPath id="ffa1ae0612"><path d="M 66.667969 37.5 L 304.769531 51.316406 L 291.601562 278.1875 L 53.503906 264.367188 Z M 66.667969 37.5 " clip-rule="nonzero"/></clipPath><clipPath id="12dfd9dec1"><path d="M 182 136 L 197 136 L 197 207 L 182 207 Z M 182 136 " clip-rule="nonzero"/></clipPath><clipPath id="c02872d1fa"><path d="M 66.667969 37.5 L 304.769531 51.316406 L 291.601562 278.1875 L 53.503906 264.367188 Z M 66.667969 37.5 " clip-rule="nonzero"/></clipPath><clipPath id="74259d38a1"><path d="M 66.667969 37.5 L 304.769531 51.316406 L 291.601562 278.1875 L 53.503906 264.367188 Z M 66.667969 37.5 " clip-rule="nonzero"/></clipPath><clipPath id="59bc34e9e1"><path d="M 187 135 L 218 135 L 218 199 L 187 199 Z M 187 135 " clip-rule="nonzero"/></clipPath><clipPath id="48b54ad4c4"><path d="M 66.667969 37.5 L 304.769531 51.316406 L 291.601562 278.1875 L 53.503906 264.367188 Z M 66.667969 37.5 " clip-rule="nonzero"/></clipPath><clipPath id="0a06e1b820"><path d="M 66.667969 37.5 L 304.769531 51.316406 L 291.601562 278.1875 L 53.503906 264.367188 Z M 66.667969 37.5 " clip-rule="nonzero"/></clipPath><clipPath id="52b0c6025c"><path d="M 146 171 L 180 171 L 180 260 L 146 260 Z M 146 171 " clip-rule="nonzero"/></clipPath><clipPath id="7bd960a3a4"><path d="M 66.667969 37.5 L 304.769531 51.316406 L 291.601562 278.1875 L 53.503906 264.367188 Z M 66.667969 37.5 " clip-rule="nonzero"/></clipPath><clipPath id="bd3e2219bc"><path d="M 66.667969 37.5 L 304.769531 51.316406 L 291.601562 278.1875 L 53.503906 264.367188 Z M 66.667969 37.5 " clip-rule="nonzero"/></clipPath><clipPath id="7585375022"><path d="M 146 171 L 165 171 L 165 260 L 146 260 Z M 146 171 " clip-rule="nonzero"/></clipPath><clipPath id="f18785a151"><path d="M 66.667969 37.5 L 304.769531 51.316406 L 291.601562 278.1875 L 53.503906 264.367188 Z M 66.667969 37.5 " clip-rule="nonzero"/></clipPath><clipPath id="ac6ff076b4"><path d="M 66.667969 37.5 L 304.769531 51.316406 L 291.601562 278.1875 L 53.503906 264.367188 Z M 66.667969 37.5 " clip-rule="nonzero"/></clipPath><clipPath id="d2c75e2af8"><path d="M 146 171 L 209 171 L 209 274 L 146 274 Z M 146 171 " clip-rule="nonzero"/></clipPath><clipPath id="9ac7200e17"><path d="M 66.667969 37.5 L 304.769531 51.316406 L 291.601562 278.1875 L 53.503906 264.367188 Z M 66.667969 37.5 " clip-rule="nonzero"/></clipPath><clipPath id="7011359e54"><path d="M 66.667969 37.5 L 304.769531 51.316406 L 291.601562 278.1875 L 53.503906 264.367188 Z M 66.667969 37.5 " clip-rule="nonzero"/></clipPath><clipPath id="6b7fc00e48"><path d="M 146 171 L 184 171 L 184 207 L 146 207 Z M 146 171 " clip-rule="nonzero"/></clipPath><clipPath id="78dd1f4ec6"><path d="M 66.667969 37.5 L 304.769531 51.316406 L 291.601562 278.1875 L 53.503906 264.367188 Z M 66.667969 37.5 " clip-rule="nonzero"/></clipPath><clipPath id="95d56d5e74"><path d="M 66.667969 37.5 L 304.769531 51.316406 L 291.601562 278.1875 L 53.503906 264.367188 Z M 66.667969 37.5 " clip-rule="nonzero"/></clipPath><clipPath id="2d0155ce07"><path d="M 146 171 L 222 171 L 222 274 L 146 274 Z M 146 171 " clip-rule="nonzero"/></clipPath><clipPath id="659acacb48"><path d="M 66.667969 37.5 L 304.769531 51.316406 L 291.601562 278.1875 L 53.503906 264.367188 Z M 66.667969 37.5 " clip-rule="nonzero"/></clipPath><clipPath id="bac11ffdc9"><path d="M 66.667969 37.5 L 304.769531 51.316406 L 291.601562 278.1875 L 53.503906 264.367188 Z M 66.667969 37.5 " clip-rule="nonzero"/></clipPath><clipPath id="9035977912"><path d="M 182 206 L 235 206 L 235 244 L 182 244 Z M 182 206 " clip-rule="nonzero"/></clipPath><clipPath id="b6c42b75a9"><path d="M 66.667969 37.5 L 304.769531 51.316406 L 291.601562 278.1875 L 53.503906 264.367188 Z M 66.667969 37.5 " clip-rule="nonzero"/></clipPath><clipPath id="010c5d37db"><path d="M 66.667969 37.5 L 304.769531 51.316406 L 291.601562 278.1875 L 53.503906 264.367188 Z M 66.667969 37.5 " clip-rule="nonzero"/></clipPath><clipPath id="011b7d27ea"><path d="M 182 198 L 235 198 L 235 244 L 182 244 Z M 182 198 " clip-rule="nonzero"/></clipPath><clipPath id="5f607bd60b"><path d="M 66.667969 37.5 L 304.769531 51.316406 L 291.601562 278.1875 L 53.503906 264.367188 Z M 66.667969 37.5 " clip-rule="nonzero"/></clipPath><clipPath id="a412dc0d07"><path d="M 66.667969 37.5 L 304.769531 51.316406 L 291.601562 278.1875 L 53.503906 264.367188 Z M 66.667969 37.5 " clip-rule="nonzero"/></clipPath><clipPath id="676b384b9d"><path d="M 222 131 L 227 131 L 227 136 L 222 136 Z M 222 131 " clip-rule="nonzero"/></clipPath><clipPath id="1460fb4603"><path d="M 66.667969 37.5 L 304.769531 51.316406 L 291.601562 278.1875 L 53.503906 264.367188 Z M 66.667969 37.5 " clip-rule="nonzero"/></clipPath><clipPath id="aa326081fd"><path d="M 66.667969 37.5 L 304.769531 51.316406 L 291.601562 278.1875 L 53.503906 264.367188 Z M 66.667969 37.5 " clip-rule="nonzero"/></clipPath><clipPath id="09eb02979d"><path d="M 0 54.921875 L 375 54.921875 L 375 375 L 0 375 Z M 0 54.921875 " clip-rule="nonzero"/></clipPath><clipPath id="fb6989ae2d"><path d="M 0 0.921875 L 375 0.921875 L 375 321 L 0 321 Z M 0 0.921875 " clip-rule="nonzero"/></clipPath><clipPath id="7837422adc"><path d="M 0 0.921875 L 375 0.921875 L 375 321 L 0 321 Z M 0 0.921875 " clip-rule="nonzero"/></clipPath><linearGradient x1="249.992" gradientTransform="matrix(0.749774, 0, 0, 0.748932, -1.821778, 157.735328)" y1="-209.384637" x2="249.992" gradientUnits="userSpaceOnUse" y2="217.996708" id="e72efe38e4"><stop stop-opacity="1" stop-color="rgb(100%, 100%, 100%)" offset="0"/><stop stop-opacity="1" stop-color="rgb(100%, 100%, 100%)" offset="0.25"/><stop stop-opacity="1" stop-color="rgb(100%, 100%, 100%)" offset="0.375"/><stop stop-opacity="1" stop-color="rgb(100%, 100%, 100%)" offset="0.40625"/><stop stop-opacity="1" stop-color="rgb(100%, 100%, 100%)" offset="0.421875"/><stop stop-opacity="1" stop-color="rgb(99.232483%, 99.232483%, 99.232483%)" offset="0.425781"/><stop stop-opacity="1" stop-color="rgb(98.464966%, 98.464966%, 98.464966%)" offset="0.429688"/><stop stop-opacity="1" stop-color="rgb(97.328186%, 97.328186%, 97.328186%)" offset="0.433594"/><stop stop-opacity="1" stop-color="rgb(96.192932%, 96.192932%, 96.192932%)" offset="0.4375"/><stop stop-opacity="1" stop-color="rgb(95.057678%, 95.057678%, 95.057678%)" offset="0.441406"/><stop stop-opacity="1" stop-color="rgb(93.922424%, 93.922424%, 93.922424%)" offset="0.445312"/><stop stop-opacity="1" stop-color="rgb(92.785645%, 92.785645%, 92.785645%)" offset="0.449219"/><stop stop-opacity="1" stop-color="rgb(91.650391%, 91.650391%, 91.650391%)" offset="0.453125"/><stop stop-opacity="1" stop-color="rgb(90.515137%, 90.515137%, 90.515137%)" offset="0.457031"/><stop stop-opacity="1" stop-color="rgb(89.379883%, 89.379883%, 89.379883%)" offset="0.460938"/><stop stop-opacity="1" stop-color="rgb(88.243103%, 88.243103%, 88.243103%)" offset="0.464844"/><stop stop-opacity="1" stop-color="rgb(87.107849%, 87.107849%, 87.107849%)" offset="0.46875"/><stop stop-opacity="1" stop-color="rgb(85.971069%, 85.971069%, 85.971069%)" offset="0.472656"/><stop stop-opacity="1" stop-color="rgb(84.835815%, 84.835815%, 84.835815%)" offset="0.476562"/><stop stop-opacity="1" stop-color="rgb(83.700562%, 83.700562%, 83.700562%)" offset="0.480469"/><stop stop-opacity="1" stop-color="rgb(82.565308%, 82.565308%, 82.565308%)" offset="0.484375"/><stop stop-opacity="1" stop-color="rgb(81.428528%, 81.428528%, 81.428528%)" offset="0.488281"/><stop stop-opacity="1" stop-color="rgb(80.293274%, 80.293274%, 80.293274%)" offset="0.492187"/><stop stop-opacity="1" stop-color="rgb(79.15802%, 79.15802%, 79.15802%)" offset="0.496094"/><stop stop-opacity="1" stop-color="rgb(78.022766%, 78.022766%, 78.022766%)" offset="0.5"/><stop stop-opacity="1" stop-color="rgb(76.885986%, 76.885986%, 76.885986%)" offset="0.503906"/><stop stop-opacity="1" stop-color="rgb(75.750732%, 75.750732%, 75.750732%)" offset="0.507812"/><stop stop-opacity="1" stop-color="rgb(74.615479%, 74.615479%, 74.615479%)" offset="0.511719"/><stop stop-opacity="1" stop-color="rgb(73.480225%, 73.480225%, 73.480225%)" offset="0.515625"/><stop stop-opacity="1" stop-color="rgb(72.343445%, 72.343445%, 72.343445%)" offset="0.519531"/><stop stop-opacity="1" stop-color="rgb(71.208191%, 71.208191%, 71.208191%)" offset="0.523438"/><stop stop-opacity="1" stop-color="rgb(70.071411%, 70.071411%, 70.071411%)" offset="0.527344"/><stop stop-opacity="1" stop-color="rgb(68.936157%, 68.936157%, 68.936157%)" offset="0.53125"/><stop stop-opacity="1" stop-color="rgb(67.800903%, 67.800903%, 67.800903%)" offset="0.535156"/><stop stop-opacity="1" stop-color="rgb(66.665649%, 66.665649%, 66.665649%)" offset="0.539062"/><stop stop-opacity="1" stop-color="rgb(65.52887%, 65.52887%, 65.52887%)" offset="0.542969"/><stop stop-opacity="1" stop-color="rgb(64.393616%, 64.393616%, 64.393616%)" offset="0.546875"/><stop stop-opacity="1" stop-color="rgb(63.258362%, 63.258362%, 63.258362%)" offset="0.550781"/><stop stop-opacity="1" stop-color="rgb(62.123108%, 62.123108%, 62.123108%)" offset="0.554688"/><stop stop-opacity="1" stop-color="rgb(60.986328%, 60.986328%, 60.986328%)" offset="0.558594"/><stop stop-opacity="1" stop-color="rgb(59.851074%, 59.851074%, 59.851074%)" offset="0.5625"/><stop stop-opacity="1" stop-color="rgb(58.71582%, 58.71582%, 58.71582%)" offset="0.566406"/><stop stop-opacity="1" stop-color="rgb(57.580566%, 57.580566%, 57.580566%)" offset="0.570312"/><stop stop-opacity="1" stop-color="rgb(56.443787%, 56.443787%, 56.443787%)" offset="0.574219"/><stop stop-opacity="1" stop-color="rgb(55.308533%, 55.308533%, 55.308533%)" offset="0.578125"/><stop stop-opacity="1" stop-color="rgb(54.171753%, 54.171753%, 54.171753%)" offset="0.582031"/><stop stop-opacity="1" stop-color="rgb(53.036499%, 53.036499%, 53.036499%)" offset="0.585938"/><stop stop-opacity="1" stop-color="rgb(51.901245%, 51.901245%, 51.901245%)" offset="0.589844"/><stop stop-opacity="1" stop-color="rgb(50.765991%, 50.765991%, 50.765991%)" offset="0.59375"/><stop stop-opacity="1" stop-color="rgb(49.629211%, 49.629211%, 49.629211%)" offset="0.597656"/><stop stop-opacity="1" stop-color="rgb(48.493958%, 48.493958%, 48.493958%)" offset="0.601562"/><stop stop-opacity="1" stop-color="rgb(47.358704%, 47.358704%, 47.358704%)" offset="0.605469"/><stop stop-opacity="1" stop-color="rgb(46.22345%, 46.22345%, 46.22345%)" offset="0.609375"/><stop stop-opacity="1" stop-color="rgb(45.08667%, 45.08667%, 45.08667%)" offset="0.613281"/><stop stop-opacity="1" stop-color="rgb(43.951416%, 43.951416%, 43.951416%)" offset="0.617188"/><stop stop-opacity="1" stop-color="rgb(42.816162%, 42.816162%, 42.816162%)" offset="0.621094"/><stop stop-opacity="1" stop-color="rgb(41.680908%, 41.680908%, 41.680908%)" offset="0.625"/><stop stop-opacity="1" stop-color="rgb(40.544128%, 40.544128%, 40.544128%)" offset="0.628906"/><stop stop-opacity="1" stop-color="rgb(39.408875%, 39.408875%, 39.408875%)" offset="0.632812"/><stop stop-opacity="1" stop-color="rgb(38.273621%, 38.273621%, 38.273621%)" offset="0.636719"/><stop stop-opacity="1" stop-color="rgb(37.138367%, 37.138367%, 37.138367%)" offset="0.640625"/><stop stop-opacity="1" stop-color="rgb(36.001587%, 36.001587%, 36.001587%)" offset="0.644531"/><stop stop-opacity="1" stop-color="rgb(34.866333%, 34.866333%, 34.866333%)" offset="0.648438"/><stop stop-opacity="1" stop-color="rgb(33.729553%, 33.729553%, 33.729553%)" offset="0.652344"/><stop stop-opacity="1" stop-color="rgb(32.594299%, 32.594299%, 32.594299%)" offset="0.65625"/><stop stop-opacity="1" stop-color="rgb(31.459045%, 31.459045%, 31.459045%)" offset="0.660156"/><stop stop-opacity="1" stop-color="rgb(30.323792%, 30.323792%, 30.323792%)" offset="0.664062"/><stop stop-opacity="1" stop-color="rgb(29.187012%, 29.187012%, 29.187012%)" offset="0.667969"/><stop stop-opacity="1" stop-color="rgb(28.051758%, 28.051758%, 28.051758%)" offset="0.671875"/><stop stop-opacity="1" stop-color="rgb(26.916504%, 26.916504%, 26.916504%)" offset="0.675781"/><stop stop-opacity="1" stop-color="rgb(25.78125%, 25.78125%, 25.78125%)" offset="0.679688"/><stop stop-opacity="1" stop-color="rgb(24.64447%, 24.64447%, 24.64447%)" offset="0.683594"/><stop stop-opacity="1" stop-color="rgb(23.509216%, 23.509216%, 23.509216%)" offset="0.6875"/><stop stop-opacity="1" stop-color="rgb(22.373962%, 22.373962%, 22.373962%)" offset="0.691406"/><stop stop-opacity="1" stop-color="rgb(21.238708%, 21.238708%, 21.238708%)" offset="0.695312"/><stop stop-opacity="1" stop-color="rgb(20.101929%, 20.101929%, 20.101929%)" offset="0.699219"/><stop stop-opacity="1" stop-color="rgb(18.966675%, 18.966675%, 18.966675%)" offset="0.703125"/><stop stop-opacity="1" stop-color="rgb(17.829895%, 17.829895%, 17.829895%)" offset="0.707031"/><stop stop-opacity="1" stop-color="rgb(16.694641%, 16.694641%, 16.694641%)" offset="0.710938"/><stop stop-opacity="1" stop-color="rgb(15.559387%, 15.559387%, 15.559387%)" offset="0.714844"/><stop stop-opacity="1" stop-color="rgb(14.424133%, 14.424133%, 14.424133%)" offset="0.71875"/><stop stop-opacity="1" stop-color="rgb(13.287354%, 13.287354%, 13.287354%)" offset="0.722656"/><stop stop-opacity="1" stop-color="rgb(12.1521%, 12.1521%, 12.1521%)" offset="0.726562"/><stop stop-opacity="1" stop-color="rgb(11.016846%, 11.016846%, 11.016846%)" offset="0.730469"/><stop stop-opacity="1" stop-color="rgb(9.881592%, 9.881592%, 9.881592%)" offset="0.734375"/><stop stop-opacity="1" stop-color="rgb(8.744812%, 8.744812%, 8.744812%)" offset="0.738281"/><stop stop-opacity="1" stop-color="rgb(7.609558%, 7.609558%, 7.609558%)" offset="0.742188"/><stop stop-opacity="1" stop-color="rgb(6.474304%, 6.474304%, 6.474304%)" offset="0.746094"/><stop stop-opacity="1" stop-color="rgb(5.33905%, 5.33905%, 5.33905%)" offset="0.75"/><stop stop-opacity="1" stop-color="rgb(4.202271%, 4.202271%, 4.202271%)" offset="0.753906"/><stop stop-opacity="1" stop-color="rgb(3.067017%, 3.067017%, 3.067017%)" offset="0.757813"/><stop stop-opacity="1" stop-color="rgb(1.930237%, 1.930237%, 1.930237%)" offset="0.761719"/><stop stop-opacity="1" stop-color="rgb(0.794983%, 0.794983%, 0.794983%)" offset="0.765625"/><stop stop-opacity="1" stop-color="rgb(0.396729%, 0.396729%, 0.396729%)" offset="0.769531"/><stop stop-opacity="1" stop-color="rgb(0%, 0%, 0%)" offset="0.773438"/><stop stop-opacity="1" stop-color="rgb(0%, 0%, 0%)" offset="0.78125"/><stop stop-opacity="1" stop-color="rgb(0%, 0%, 0%)" offset="0.8125"/><stop stop-opacity="1" stop-color="rgb(0%, 0%, 0%)" offset="0.875"/><stop stop-opacity="1" stop-color="rgb(0%, 0%, 0%)" offset="1"/></linearGradient><clipPath id="cb8d32d1ca"><rect x="0" width="375" y="0" height="321"/></clipPath><clipPath id="5f92a2887c"><path d="M 0 0.921875 L 375 0.921875 L 375 321 L 0 321 Z M 0 0.921875 " clip-rule="nonzero"/></clipPath><clipPath id="484d3c88d1"><rect x="0" width="375" y="0" height="321"/></clipPath><clipPath id="026ed95942"><rect x="0" width="375" y="0" height="321"/></clipPath><mask id="41d758e220"><g filter="url(#9298e1da57)"><g transform="matrix(1, 0, 0, 1, 0, 0)"><g clip-path="url(#026ed95942)"><g clip-path="url(#5f92a2887c)"><g transform="matrix(1, 0, 0, 1, 0, 0)"><g clip-path="url(#484d3c88d1)"><g fill="#000000" fill-opacity="1"><g transform="translate(13.291437, 219.170519)"><g><path d="M 11.625 -48.359375 C 9.269531 -48.359375 7.34375 -49.050781 5.84375 -50.4375 C 4.351562 -51.832031 3.609375 -53.550781 3.609375 -55.59375 C 3.609375 -57.6875 4.351562 -59.425781 5.84375 -60.8125 C 7.34375 -62.195312 9.269531 -62.890625 11.625 -62.890625 C 13.925781 -62.890625 15.820312 -62.195312 17.3125 -60.8125 C 18.800781 -59.425781 19.546875 -57.6875 19.546875 -55.59375 C 19.546875 -53.550781 18.800781 -51.832031 17.3125 -50.4375 C 15.820312 -49.050781 13.925781 -48.359375 11.625 -48.359375 Z M 18.296875 -43.8125 L 18.296875 0 L 4.875 0 L 4.875 -43.8125 Z M 18.296875 -43.8125 "/></g></g></g><g fill="#000000" fill-opacity="1"><g transform="translate(32.681412, 219.170519)"><g><path d="M 31.5625 -44.28125 C 36.6875 -44.28125 40.78125 -42.617188 43.84375 -39.296875 C 46.90625 -35.972656 48.4375 -31.40625 48.4375 -25.59375 L 48.4375 0 L 35.09375 0 L 35.09375 -23.796875 C 35.09375 -26.722656 34.332031 -29 32.8125 -30.625 C 31.300781 -32.25 29.257812 -33.0625 26.6875 -33.0625 C 24.125 -33.0625 22.082031 -32.25 20.5625 -30.625 C 19.050781 -29 18.296875 -26.722656 18.296875 -23.796875 L 18.296875 0 L 4.875 0 L 4.875 -43.8125 L 18.296875 -43.8125 L 18.296875 -38 C 19.648438 -39.9375 21.476562 -41.46875 23.78125 -42.59375 C 26.09375 -43.71875 28.6875 -44.28125 31.5625 -44.28125 Z M 31.5625 -44.28125 "/></g></g></g><g fill="#000000" fill-opacity="1"><g transform="translate(81.824399, 219.170519)"><g><path d="M 29.28125 -11.390625 L 29.28125 0 L 22.453125 0 C 17.585938 0 13.789062 -1.1875 11.0625 -3.5625 C 8.34375 -5.945312 6.984375 -9.835938 6.984375 -15.234375 L 6.984375 -32.65625 L 1.65625 -32.65625 L 1.65625 -43.8125 L 6.984375 -43.8125 L 6.984375 -54.484375 L 20.40625 -54.484375 L 20.40625 -43.8125 L 29.203125 -43.8125 L 29.203125 -32.65625 L 20.40625 -32.65625 L 20.40625 -15.078125 C 20.40625 -13.765625 20.71875 -12.820312 21.34375 -12.25 C 21.976562 -11.675781 23.03125 -11.390625 24.5 -11.390625 Z M 29.28125 -11.390625 "/></g></g></g><g fill="#000000" fill-opacity="1"><g transform="translate(109.928317, 219.170519)"><g><path d="M 46.171875 -22.609375 C 46.171875 -21.359375 46.09375 -20.050781 45.9375 -18.6875 L 15.546875 -18.6875 C 15.753906 -15.96875 16.628906 -13.882812 18.171875 -12.4375 C 19.722656 -11 21.625 -10.28125 23.875 -10.28125 C 27.21875 -10.28125 29.546875 -11.695312 30.859375 -14.53125 L 45.140625 -14.53125 C 44.410156 -11.644531 43.085938 -9.050781 41.171875 -6.75 C 39.265625 -4.445312 36.867188 -2.640625 33.984375 -1.328125 C 31.109375 -0.0234375 27.894531 0.625 24.34375 0.625 C 20.050781 0.625 16.226562 -0.289062 12.875 -2.125 C 9.519531 -3.957031 6.898438 -6.570312 5.015625 -9.96875 C 3.140625 -13.375 2.203125 -17.351562 2.203125 -21.90625 C 2.203125 -26.457031 3.128906 -30.429688 4.984375 -33.828125 C 6.835938 -37.234375 9.441406 -39.851562 12.796875 -41.6875 C 16.148438 -43.519531 20 -44.4375 24.34375 -44.4375 C 28.582031 -44.4375 32.347656 -43.546875 35.640625 -41.765625 C 38.941406 -39.984375 41.519531 -37.441406 43.375 -34.140625 C 45.238281 -30.847656 46.171875 -27.003906 46.171875 -22.609375 Z M 32.421875 -26.140625 C 32.421875 -28.441406 31.632812 -30.273438 30.0625 -31.640625 C 28.5 -33.003906 26.539062 -33.6875 24.1875 -33.6875 C 21.9375 -33.6875 20.035156 -33.03125 18.484375 -31.71875 C 16.941406 -30.40625 15.988281 -28.546875 15.625 -26.140625 Z M 32.421875 -26.140625 "/></g></g></g><g fill="#000000" fill-opacity="1"><g transform="translate(154.518066, 219.170519)"><g><path d="M 18.296875 -36.515625 C 19.867188 -38.921875 21.832031 -40.816406 24.1875 -42.203125 C 26.539062 -43.585938 29.15625 -44.28125 32.03125 -44.28125 L 32.03125 -30.078125 L 28.34375 -30.078125 C 24.988281 -30.078125 22.472656 -29.351562 20.796875 -27.90625 C 19.128906 -26.46875 18.296875 -23.941406 18.296875 -20.328125 L 18.296875 0 L 4.875 0 L 4.875 -43.8125 L 18.296875 -43.8125 Z M 18.296875 -36.515625 "/></g></g></g><g fill="#000000" fill-opacity="1"><g transform="translate(184.349069, 219.170519)"><g><path d="M 24.578125 -12.5625 L 34.078125 -43.8125 L 48.359375 -43.8125 L 32.8125 0 L 16.25 0 L 0.703125 -43.8125 L 15.078125 -43.8125 Z M 24.578125 -12.5625 "/></g></g></g><g fill="#000000" fill-opacity="1"><g transform="translate(229.723872, 219.170519)"><g><path d="M 11.625 -48.359375 C 9.269531 -48.359375 7.34375 -49.050781 5.84375 -50.4375 C 4.351562 -51.832031 3.609375 -53.550781 3.609375 -55.59375 C 3.609375 -57.6875 4.351562 -59.425781 5.84375 -60.8125 C 7.34375 -62.195312 9.269531 -62.890625 11.625 -62.890625 C 13.925781 -62.890625 15.820312 -62.195312 17.3125 -60.8125 C 18.800781 -59.425781 19.546875 -57.6875 19.546875 -55.59375 C 19.546875 -53.550781 18.800781 -51.832031 17.3125 -50.4375 C 15.820312 -49.050781 13.925781 -48.359375 11.625 -48.359375 Z M 18.296875 -43.8125 L 18.296875 0 L 4.875 0 L 4.875 -43.8125 Z M 18.296875 -43.8125 "/></g></g></g><g fill="#000000" fill-opacity="1"><g transform="translate(249.113824, 219.170519)"><g><path d="M 46.171875 -22.609375 C 46.171875 -21.359375 46.09375 -20.050781 45.9375 -18.6875 L 15.546875 -18.6875 C 15.753906 -15.96875 16.628906 -13.882812 18.171875 -12.4375 C 19.722656 -11 21.625 -10.28125 23.875 -10.28125 C 27.21875 -10.28125 29.546875 -11.695312 30.859375 -14.53125 L 45.140625 -14.53125 C 44.410156 -11.644531 43.085938 -9.050781 41.171875 -6.75 C 39.265625 -4.445312 36.867188 -2.640625 33.984375 -1.328125 C 31.109375 -0.0234375 27.894531 0.625 24.34375 0.625 C 20.050781 0.625 16.226562 -0.289062 12.875 -2.125 C 9.519531 -3.957031 6.898438 -6.570312 5.015625 -9.96875 C 3.140625 -13.375 2.203125 -17.351562 2.203125 -21.90625 C 2.203125 -26.457031 3.128906 -30.429688 4.984375 -33.828125 C 6.835938 -37.234375 9.441406 -39.851562 12.796875 -41.6875 C 16.148438 -43.519531 20 -44.4375 24.34375 -44.4375 C 28.582031 -44.4375 32.347656 -43.546875 35.640625 -41.765625 C 38.941406 -39.984375 41.519531 -37.441406 43.375 -34.140625 C 45.238281 -30.847656 46.171875 -27.003906 46.171875 -22.609375 Z M 32.421875 -26.140625 C 32.421875 -28.441406 31.632812 -30.273438 30.0625 -31.640625 C 28.5 -33.003906 26.539062 -33.6875 24.1875 -33.6875 C 21.9375 -33.6875 20.035156 -33.03125 18.484375 -31.71875 C 16.941406 -30.40625 15.988281 -28.546875 15.625 -26.140625 Z M 32.421875 -26.140625 "/></g></g></g><g fill="#000000" fill-opacity="1"><g transform="translate(293.703573, 219.170519)"><g><path d="M 67.765625 -43.8125 L 55.90625 0 L 41.0625 0 L 34.15625 -28.421875 L 27.015625 0 L 12.25 0 L 0.3125 -43.8125 L 13.734375 -43.8125 L 19.9375 -12.484375 L 27.328125 -43.8125 L 41.53125 -43.8125 L 49 -12.640625 L 55.125 -43.8125 Z M 67.765625 -43.8125 "/></g></g></g></g></g></g></g></g></g></mask><clipPath id="45eefac39c"><path d="M 0 0.921875 L 375 0.921875 L 375 321 L 0 321 Z M 0 0.921875 " clip-rule="nonzero"/></clipPath><clipPath id="7b797ba54c"><rect x="0" width="375" y="0" height="321"/></clipPath><clipPath id="2e65819c18"><rect x="0" width="375" y="0" height="321"/></clipPath></defs><rect x="-37.5" width="450" fill="#ffffff" y="-37.499999" height="449.999989" fill-opacity="1"/><rect x="-37.5" width="450" fill="#000000" y="-37.499999" height="449.999989" fill-opacity="1"/><g clip-path="url(#0fe3f3cf9d)"><g clip-path="url(#d7a5b0266b)"><g clip-path="url(#6da6c8ce3d)"><path fill="#000aff" d="M 66.664062 37.554688 L 108.289062 119.089844 L 187.503906 135.539062 Z M 66.664062 37.554688 " fill-opacity="1" fill-rule="nonzero"/><path fill="#0057ff" d="M 66.664062 37.554688 L 92.355469 45.316406 L 187.503906 135.539062 Z M 66.664062 37.554688 " fill-opacity="1" fill-rule="nonzero"/></g></g></g><g clip-path="url(#e0b7273231)"><g clip-path="url(#51dd2fd7e7)"><g clip-path="url(#1471957ea9)"><path fill="#0057ff" d="M 187.503906 135.539062 L 81.496094 112.308594 L 143.335938 169.921875 Z M 187.503906 135.539062 " fill-opacity="1" fill-rule="nonzero"/></g></g></g><g clip-path="url(#ee25aebdb7)"><g clip-path="url(#7ac1e29b75)"><g clip-path="url(#81a14f1295)"><path fill="#85ccff" d="M 187.503906 135.539062 L 183.542969 188.8125 L 143.335938 169.921875 Z M 187.503906 135.539062 " fill-opacity="1" fill-rule="nonzero"/></g></g></g><g clip-path="url(#d7fa2bc302)"><g clip-path="url(#92abca5092)"><g clip-path="url(#62b1ad583d)"><path fill="#0057ff" d="M 181.1875 130.292969 L 210.945312 115.988281 L 219.234375 129.363281 Z M 181.1875 130.292969 " fill-opacity="1" fill-rule="nonzero"/></g></g></g><g clip-path="url(#307e71d53c)"><g clip-path="url(#a0d49522f6)"><g clip-path="url(#15fa466189)"><path fill="#fafafa" d="M 210.945312 115.988281 L 236.40625 124.785156 L 218.710938 129.335938 Z M 210.945312 115.988281 " fill-opacity="1" fill-rule="nonzero"/></g></g></g><g clip-path="url(#9e643f3bb6)"><g clip-path="url(#854f5fff5b)"><g clip-path="url(#4ff12485cc)"><path fill="#000aff" d="M 181.1875 130.292969 L 217.203125 158.351562 L 218.710938 129.335938 Z M 181.1875 130.292969 " fill-opacity="1" fill-rule="nonzero"/></g></g></g><g clip-path="url(#2ed07981e5)"><g clip-path="url(#861a3703eb)"><g clip-path="url(#0f7f78a700)"><path fill="#000aff" d="M 236.757812 124.628906 L 300.109375 129.179688 L 240.300781 132.679688 Z M 236.757812 124.628906 " fill-opacity="1" fill-rule="nonzero"/></g></g></g><g clip-path="url(#9616a22524)"><g clip-path="url(#1a74309ace)"><g clip-path="url(#15b6baaa9d)"><path fill="#fafafa" d="M 236.757812 124.628906 L 217.203125 158.351562 L 240.300781 132.679688 Z M 236.757812 124.628906 " fill-opacity="1" fill-rule="nonzero"/></g></g></g><g clip-path="url(#c9fd2d9bf1)"><g clip-path="url(#9c4df9cbe2)"><g clip-path="url(#ffa1ae0612)"><path fill="#85ccff" d="M 218.710938 129.335938 L 236.757812 124.628906 L 217.203125 158.351562 Z M 218.710938 129.335938 " fill-opacity="1" fill-rule="nonzero"/></g></g></g><g clip-path="url(#12dfd9dec1)"><g clip-path="url(#c02872d1fa)"><g clip-path="url(#74259d38a1)"><path fill="#000aff" d="M 187.464844 136.234375 L 182.503906 206.703125 L 196.074219 198.078125 Z M 187.464844 136.234375 " fill-opacity="1" fill-rule="nonzero"/></g></g></g><g clip-path="url(#59bc34e9e1)"><g clip-path="url(#48b54ad4c4)"><g clip-path="url(#0a06e1b820)"><path fill="#0057ff" d="M 187.503906 135.539062 L 217.203125 158.351562 L 196.074219 198.078125 Z M 187.503906 135.539062 " fill-opacity="1" fill-rule="nonzero"/></g></g></g><g clip-path="url(#52b0c6025c)"><g clip-path="url(#7bd960a3a4)"><g clip-path="url(#bd3e2219bc)"><path fill="#0057ff" d="M 146.726562 171.511719 L 179.484375 255.675781 L 164.636719 259.34375 Z M 146.726562 171.511719 " fill-opacity="1" fill-rule="nonzero"/></g></g></g><g clip-path="url(#7585375022)"><g clip-path="url(#f18785a151)"><g clip-path="url(#ac6ff076b4)"><path fill="#000aff" d="M 146.726562 171.511719 L 151.839844 227.578125 L 164.636719 259.34375 Z M 146.726562 171.511719 " fill-opacity="1" fill-rule="nonzero"/></g></g></g><g clip-path="url(#d2c75e2af8)"><g clip-path="url(#9ac7200e17)"><g clip-path="url(#7011359e54)"><path fill="#000aff" d="M 208.78125 273.40625 L 146.726562 171.511719 L 179.484375 255.675781 Z M 208.78125 273.40625 " fill-opacity="1" fill-rule="nonzero"/></g></g></g><g clip-path="url(#6b7fc00e48)"><g clip-path="url(#78dd1f4ec6)"><g clip-path="url(#95d56d5e74)"><path fill="#0057ff" d="M 146.726562 171.511719 L 183.867188 189.179688 L 182.871094 206.375 Z M 146.726562 171.511719 " fill-opacity="1" fill-rule="nonzero"/></g></g></g><g clip-path="url(#2d0155ce07)"><g clip-path="url(#659acacb48)"><g clip-path="url(#bac11ffdc9)"><path fill="#85ccff" d="M 146.726562 171.511719 L 208.78125 273.40625 L 221.734375 242.441406 Z M 146.726562 171.511719 " fill-opacity="1" fill-rule="nonzero"/></g></g></g><g clip-path="url(#9035977912)"><g clip-path="url(#b6c42b75a9)"><g clip-path="url(#010c5d37db)"><path fill="#0057ff" d="M 234.585938 243.1875 L 221.734375 242.441406 L 182.871094 206.375 Z M 234.585938 243.1875 " fill-opacity="1" fill-rule="nonzero"/></g></g></g><g clip-path="url(#011b7d27ea)"><g clip-path="url(#5f607bd60b)"><g clip-path="url(#a412dc0d07)"><path fill="#fafafa" d="M 196.074219 198.078125 L 234.585938 243.1875 L 182.871094 206.375 Z M 196.074219 198.078125 " fill-opacity="1" fill-rule="nonzero"/></g></g></g><g clip-path="url(#676b384b9d)"><g clip-path="url(#1460fb4603)"><g clip-path="url(#aa326081fd)"><path fill="#100f0d" d="M 226.574219 134.023438 C 226.507812 135.121094 225.566406 135.960938 224.464844 135.894531 C 223.375 135.832031 222.53125 134.890625 222.597656 133.792969 C 222.660156 132.695312 223.605469 131.859375 224.695312 131.921875 C 225.796875 131.988281 226.636719 132.929688 226.574219 134.023438 " fill-opacity="1" fill-rule="nonzero"/></g></g></g><g clip-path="url(#09eb02979d)"><g transform="matrix(1, 0, 0, 1, 0, 54)"><g clip-path="url(#2e65819c18)"><g clip-path="url(#fb6989ae2d)"><g mask="url(#41d758e220)"><g transform="matrix(1, 0, 0, 1, 0, 0)"><g clip-path="url(#7b797ba54c)"><g clip-path="url(#45eefac39c)"><path fill="url(#e72efe38e4)" d="M 0 0.921875 L 0 321 L 375 321 L 375 0.921875 Z M 0 0.921875 " fill-rule="nonzero"/></g></g></g></g></g></g></g></g></svg>